**ABCDEFGHIJKLMNOPQRSTUVWXYZabcdefghijklmnopqrstuvwxyz**************************
**PARASOLID !"#$%&'()*+,-./:;<=>?@[\]^_`{|}~0123456789**************************
**PART1;
MC=AMD64;
MC_MODEL=Intel64 Family 6 Model 154 Stepping 3, GenuineIntel;
MC_ID=unknown;
OS=Windows_NT;
OS_RELEASE=unknown;
FRU=Parasolid Version 36.1, build 228,  1-18-2025;
APPL=SOLIDWORKS 2025-2025268;
SITE=;
USER=unknown;
FORMAT=text;
GUISE=transmit;
KEY=Hexagon Head Screw ISO 4017 - M5 x 25 Steel 4.6 Plain;
FILE=Hexagon Head Screw ISO 4017 - M5 x 25 Steel 4.6 Plain.x_t;
DATE=Sat Feb 28 20:31:18 2026;
**PART2;
SCH=SCH_3601228_36001;
USFLD_SIZE=0;
**PART3;
**END_OF_HEADER*****************************************************************
T51 : TRANSMIT FILE created by modeller version 360122823 SCH_3601228_36001_1300
6231 0 12 36 CCCI7 lattice222 0 CCCI4 mesh1006 0 I8 polyline1008 0 CCCCCCCDI5 ow
ner1040 0 CCCI16 boundary_lattice222 0 CCCI13 boundary_mesh1006 0 I17 boundary_p
olyline1008 0 CCCA16 index_map_offset0 0 1 dA9 index_map82 0 A17 node_id_index_m
ap82 0 A20 schema_embedding_map82 0 A5 child12 0 A14 lowest_node_id0 0 1 dA16 me
sh_offset_data206 0 Z1 372 2 3 0 0 0 0 0 0 0 1e3 1e-8 0 4 0 1 0 1 1 5 0 6 7 8 0
 0 9 10 11 0 0 0 0 0 0 0 81 255 2 2 357 12 1 13 0 0 0 0 14 70 11 CI9 list_type0
 0 1 uI10 notransmit0 0 1 lCCCDCCDI12 finger_index0 0 1 dI12 finger_block1012 0
 CZ3 0 4 T1 0 0 13 20 1 15 15 13 255 5 87 0 1 0 16 0 0 17 0 50 255 6 102 0 16 18
 0 0 +-.0036 0 .000499999999989314 -102088052611581e-30 0 -1 -1 0 10208805261158
1e-30 30 255 7 153 0 10 19 0 0 +.00421 -515576302441036e-33 .00326328638963404 -
.866025403784439 106057523872491e-30 .5 29 255 8 122 0 11 20 0 .0038 -4653657836
75994e-33 .00350000000000178 19 9 CCCCCCI5 frame230 0 CA5 owner12 0 Z9 1 0 1 17
 0 21 0 V0 16 255 10 82 22 ?23 0 24 7 0 0 1 18 255 11 79 25 23 0 26 8 ?1 81 1 25
 234 27 11 0 0 28 29 30 17 255 23 0 31 32 33 11 34 10 0 32 +18 26 72 28 35 11 36
 20 ?1 81 1 28 233 27 26 0 0 37 25 38 17 35 0 39 40 41 26 42 43 0 42 +18 36 63 3
7 44 26 45 46 ?1 29 20 121 0 26 46 8 .0036 -440872847693047e-33 .000499999999989
314 29 46 120 0 36 47 20 59986624964645e-31 -.00462 .00302657277926629 29 47 119
 0 45 48 46 638378239159465e-32 -.00462 .000499999999985084 18 45 61 49 50 36 51
 47 ?1 29 48 118 0 52 53 47 .00400103736548411 .00231 .00302657277926629 18 52 4
7 54 55 56 57 48 ?1 29 53 117 0 57 58 48 .0040010373654841 .00231 .0004999999999
85083 18 57 45 59 60 52 61 53 ?1 29 58 116 0 62 63 53 .00400103736548411 -373806
954868368e-33 .00338393102292236 18 62 54 64 34 51 56 58 ?1 29 63 115 0 61 65 58
 -333066907387547e-32 .00462 .00302657277926629 18 61 40 66 67 57 68 63 ?1 29 65
 114 0 68 69 63 -277555756156289e-32 .00462 .000499999999985084 18 68 38 70 71 6
1 72 65 ?1 29 69 113 0 56 73 65 .00400103736548411 -.00231 .000499999999985083 1
8 56 52 74 75 62 52 69 ?1 29 73 112 0 76 77 69 -.0040010373654841 -.00231 .00049
9999999985084 18 76 28 78 79 80 81 73 ?1 29 77 111 0 81 82 73 .00331132486541583
 -405520339736854e-33 775490782700672e-29 18 81 20 83 40 76 84 77 ?1 29 82 110 0
 80 85 77 -.00400103736548411 .00231 .000499999999985084 18 80 29 86 87 88 76 82
 ?1 29 85 109 0 84 89 82 .0024505 300099698131059e-33 -.000199999999994145 18 84
 15 90 91 81 92 85 ?1 29 89 108 0 92 93 85 .0026505 -324592634114006e-33 5854629
31385539e-29 18 92 13 94 95 84 96 89 ?1 29 93 107 0 96 97 89 .00200924 -24606093
3471883e-33 -.0249999999999955 18 96 8 98 99 92 100 93 ?1 29 97 106 0 88 101 93
 -.0040010373654841 -.00231 .00302657277926629 18 88 31 102 103 72 80 97 ?1 29 1
01 105 0 100 104 97 .0024505 300099698131059e-33 -.0245995399852015 18 100 6 105
 106 96 0 101 ?1 29 104 104 0 72 107 101 -.00400103736548411 .00231 .00302657277
926629 18 72 33 108 109 68 88 104 ?1 29 107 103 0 51 0 104 .00400103736548411 -.
00231 .00302657277926629 18 51 56 110 111 45 62 107 ?1 81 1 110 215 27 51 0 0 11
2 108 113 17 111 0 31 33 44 51 114 115 0 116 +15 255 31 81 0 67 117 0 17 33 0 31
 23 111 62 118 119 0 120 +17 44 0 31 111 121 36 103 122 0 123 +17 114 0 124 125
 116 36 111 115 0 0 -16 115 62 126 ?111 127 128 129 0 0 1 17 116 0 124 114 75 51
 130 131 0 118 +15 124 59 0 75 132 0 17 75 0 124 116 125 56 133 128 0 130 -17 13
0 0 134 60 118 56 116 131 0 135 -16 131 57 136 ?116 128 119 137 0 0 1 17 118 0 1
34 130 120 51 33 119 0 0 -15 134 50 0 60 138 0 17 120 0 134 118 139 62 55 140 0
 0 -16 119 55 141 ?33 131 140 142 0 0 1 81 1 141 246 143 119 144 0 136 145 146 1
6 140 53 145 ?55 119 147 148 0 0 1 134 255 142 144 0 119 148 137 0 +149 150 134
 148 143 0 140 151 142 0 +152 153 30 137 145 0 131 142 154 0 +.00400103736548411
 -.00231 .00176328638962569 102088052611581e-30 0 1 136 255 149 2 3 4 2 5 FFT1 1
55 156 157 135 255 150 2 0 45 255 12 155 .00400103736548411 -.00231 .00302657277
926629 1 .004310518682742075 -.001155 .003645678998464545 1.07735026918963 .0043
10518682742075 -27755575615629e-32 .003645678998464545 1.07735026918963 127 255
 2 156 3 3 128 255 2 157 0 .233747832381584 30 154 146 0 128 137 129 0 +.0016507
7802411309 -.00366692286340599 .000499999999989314 -.866025403784438 -.5 8841084
69845115e-31 16 128 60 158 ?133 115 131 154 0 0 1 134 129 147 0 115 154 159 0 +1
60 161 30 159 148 0 127 129 162 0 +638378239159465e-32 -.00462 .0017632863896256
9 102088052611581e-30 0 1 136 160 2 3 4 2 5 FFT1 163 164 165 135 161 2 0 45 12 1
63 543921891446425e-32 -.00462 .00302657277926629 1 .00231 -.0040010373654841 .0
0426478521766277 1.15470053837925 .00400103736548411 -.00231 .00302657277926629
 1 127 2 164 3 3 128 2 165 0 .46749566476317 16 127 64 166 ?123 167 115 159 0 0
 1 30 162 149 0 167 159 168 0 +-.00235025934137102 -.00326307713659401 .00049999
9999989314 -.866025403784439 .5 884108469845116e-31 16 167 67 169 ?79 122 127 16
2 0 0 1 134 168 150 0 122 162 170 0 +171 172 16 122 68 173 ?44 174 167 168 0 0 1
 30 170 151 0 174 168 19 0 +.00345566243270792 -423196593714951e-33 .00024999999
9998535 .5 -612323399573678e-31 .866025403784438 136 171 2 3 4 2 5 FFT1 175 176
 177 135 172 2 0 45 12 175 -.00400103736548411 -.00231 .00302657277926629 1 -.00
231 -.0040010373654841 .00426478521766277 1.15470053837925 81804940548392e-31 -.
00462 .00302657277926629 1 127 2 176 3 3 128 2 177 0 .467495664763171 16 174 71
 178 ?41 43 122 170 0 0 1 31 255 19 152 0 43 170 7 0 +-852991521581197e-34 0 .00
0499999999989314 -102088052611581e-30 0 -1 1 0 -102088052611581e-30 .0036 16 43
 73 179 ?35 24 174 19 0 0 1 81 1 179 238 143 43 180 0 181 178 182 16 24 78 181 ?
32 10 43 183 0 0 1 81 1 181 237 143 24 184 0 22 179 185 17 32 0 31 34 23 11 186
 24 0 186 +31 183 135 0 24 187 188 0 +220965005677897e-33 0 .00350000000000178 -
102088052611581e-30 0 -1 1 0 -102088052611581e-30 .0038 31 187 134 0 189 190 183
 0 +-136343178462028e-33 0 775525477170191e-29 -102088052611581e-30 0 -1 1 0 -10
2088052611581e-30 .00331132486541583 30 188 136 0 191 183 192 0 +-.0040010373654
8411 .00231 .00176328638962569 102088052611581e-30 0 1 16 191 34 193 ?194 195 19
6 188 0 0 1 30 192 137 0 197 188 198 0 +.0024505 -300099698131059e-33 -.01249999
99999948 102088052611581e-30 0 1 16 197 24 199 ?91 200 189 192 0 0 1 30 198 138
 0 200 192 201 0 +-.0040010373654841 -.001155 .000499999999989314 -1201540069940
64e-29 1 122662885875023e-45 16 200 27 202 ?203 204 197 198 0 0 1 134 201 139 0
 196 198 205 0 +206 207 16 196 32 208 ?121 191 204 201 0 0 1 134 205 140 0 209 2
01 210 0 +211 212 136 206 2 3 4 2 5 FFT1 213 214 215 135 207 2 0 45 12 213 -.004
00103736548411 .00231 .00302657277926629 1 -.00462 -576888805915068e-32 .0042647
8521766277 1.15470053837925 -.0040010373654841 -.00231 .00302657277926629 1 127
 2 214 3 3 128 2 215 0 .467495664763172 16 209 46 216 ?67 217 218 205 0 0 1 30 2
10 141 0 217 205 151 0 +.0040010373654841 .00231 .00176328638962569 102088052611
581e-30 0 1 136 211 2 3 4 2 5 FFT1 219 220 221 135 212 2 0 45 12 219 .0040010373
654841 .00231 .00302657277926629 1 .00231 .0040010373654841 .00426478521766276 1
.15470053837925 -30891926333689e-31 .00462 .00302657277926629 1 127 2 220 3 3 12
8 2 221 0 .467495664763169 16 217 48 222 ?139 147 209 210 0 0 1 30 151 142 0 147
 210 148 0 +.00400103736548411 .001155 .000499999999989313 120154006994065e-29 -
1 -122662885875023e-45 16 147 51 223 ?135 140 217 151 0 0 1 81 1 223 248 143 147
 224 0 145 222 225 17 135 0 226 133 227 56 60 147 0 0 +15 226 84 0 135 16 0 17 1
33 0 226 79 135 45 75 128 0 0 +17 227 0 226 135 228 57 71 218 0 0 +17 60 0 134 1
39 130 57 135 147 0 229 -17 139 0 134 120 60 52 229 217 0 230 +17 229 0 231 71 2
30 57 139 217 0 227 -15 231 43 0 71 232 0 17 71 0 231 233 229 68 227 218 0 234 -
17 230 0 231 229 233 52 67 209 0 0 -17 233 0 231 230 71 61 234 235 0 236 -17 67
 0 31 109 55 61 230 209 0 233 +17 109 0 31 121 67 72 236 237 0 194 +17 55 0 31 6
7 34 52 120 140 0 139 +17 34 0 31 55 32 62 23 10 0 33 -17 121 0 31 44 109 88 238
 196 0 239 +17 236 0 240 234 194 61 109 237 0 0 -16 237 39 241 ?109 235 195 242
 0 0 1 17 194 0 240 236 87 72 243 191 0 238 +15 240 36 0 87 244 0 17 87 0 240 19
4 234 80 228 195 0 243 -17 243 0 245 246 238 80 194 191 0 203 -17 238 0 245 243
 239 72 121 196 0 0 -15 245 26 0 246 247 0 17 239 0 245 238 246 88 248 204 0 0 +
17 246 0 245 239 243 76 203 200 0 0 -17 248 0 249 50 103 76 239 204 0 246 -16 20
4 30 250 ?239 196 200 251 0 0 1 81 1 250 257 143 204 252 0 208 202 253 30 251 12
4 0 204 254 255 0 +-.0040010373654841 -.00231 .00176328638962569 102088052611581
e-30 0 1 31 254 123 0 256 0 251 0 +-264766231069276e-32 0 -.0245995399852015 0 0
 1 -1 0 0 .0024505 30 255 125 0 235 251 257 0 +-277555756156289e-32 .00462 .0017
6328638962569 -102088052611581e-30 0 -1 16 235 41 258 ?234 218 237 255 0 0 1 30
 257 126 0 259 255 260 0 +.00227962 -279172933627229e-33 -.0247546199999955 -.74
0512347492993 906866076086387e-31 -.672042754004845 16 259 7 261 ?262 263 256 25
7 0 0 1 30 260 127 0 218 257 242 0 +-.000349740658628978 .004821922863406 .00049
9999999989314 .866025403784439 -.5 -884108469845116e-31 16 218 44 264 ?227 209 2
35 260 0 0 1 134 242 128 0 237 260 265 0 +266 267 31 265 129 0 263 242 268 0 +0
 0 -.0249999999999955 0 0 -1 -1 0 0 .00200924 136 266 2 3 4 2 5 FFT1 269 270 271
 135 267 2 0 45 12 269 -652503619702288e-33 .00462 .00302657277926629 1 -.00231
 .0040010373654841 .00426478521766277 1.15470053837925 -.00400103736548411 .0023
1 .00302657277926629 1 127 2 270 3 3 128 2 271 0 .467495664763171 16 263 9 272 ?
99 273 259 265 0 0 1 30 268 130 0 195 265 274 0 +-.00435077802411308 .0021080771
36594 .000499999999989314 .866025403784438 .5 -884108469845115e-31 16 195 37 275
 ?228 237 191 268 0 0 1 31 274 131 0 273 268 276 0 +-136343178462222e-33 0 58548
9989823884e-29 -102088052611581e-30 0 -1 -1 0 102088052611581e-30 .0026505 16 27
3 12 277 ?278 279 263 274 0 0 1 31 276 132 0 279 274 190 0 +.0026505 -3245926341
14006e-33 -.000199999999994145 -122464679914735e-30 -1 125021806861959e-46 1 -12
2464679914735e-30 -973709020018555e-31 2e-4 16 279 14 280 ?281 282 273 276 0 0 1
 31 190 133 0 282 276 187 0 +-156760788984538e-33 0 -.000199999999994145 9910682
9886453e-30 0 1 -1 0 99106829886453e-30 .0024505 16 282 16 283 ?284 189 279 190
 0 0 1 81 1 283 261 143 282 285 0 286 280 287 17 284 0 288 95 281 84 289 282 0 2
89 +16 189 19 286 ?290 197 282 187 0 0 1 81 1 286 260 143 189 291 0 199 283 292
 17 290 0 293 290 290 81 294 189 0 294 +15 293 18 0 290 295 0 17 294 0 39 41 40
 81 290 189 0 0 -15 39 70 0 294 296 0 17 41 0 39 35 294 26 40 174 0 0 +17 40 0 3
9 294 35 81 41 174 0 290 -14 255 296 69 297 ?298 299 39 5 300 +0 0 298 299 21 81
 1 297 358 301 296 302 0 0 303 304 14 298 65 303 ?132 296 249 5 305 -0 0 132 296
 21 14 299 74 306 ?296 307 308 5 309 +0 0 296 307 21 52 255 300 99 0 296 305 309
 0 +-110821165310074e-33 0 .000249999999998535 0 0 1 .00345566243270792 .5 .8660
25403784438 -1 0 0 13 21 2 0 0 0 0 0 0 9 16 14 16 83 310 ?117 0 311 5 6 +0 0 117
 0 21 81 1 310 361 301 16 112 0 306 312 313 14 117 80 312 ?307 16 31 5 18 +0 0 3
07 16 21 15 311 85 0 42 16 226 17 42 0 311 42 42 26 35 43 0 41 -81 1 312 362 301
 117 314 0 310 315 316 14 307 76 315 ?299 117 317 5 318 +0 0 299 117 21 52 18 10
1 0 117 309 6 0 +196799374168797e-33 0 .00326328638963404 0 0 -1 .00421 .8660254
0378444 .5 -1 0 0 50 309 100 0 299 300 18 0 +-277555756156289e-32 0 -.0249999999
999955 -102088052611581e-30 0 -1 -1 0 102088052611581e-30 81 1 315 363 301 307 3
19 0 312 320 321 15 317 77 0 186 307 0 50 318 94 0 307 322 323 0 +-.0038 0 .0035
0000000000178 102088052611581e-30 0 1 1 0 -102088052611581e-30 50 322 93 0 244 3
24 318 0 +-.00400103736548411 .00231 0 .5 -.866025403784438 0 0 0 -1 50 323 95 0
 138 318 325 0 +.00400103736548411 .00231 0 -1 -120154006994065e-29 0 -120154006
994065e-29 1 0 14 138 49 320 ?232 132 134 5 323 -0 0 232 132 21 50 325 96 0 232
 323 326 0 +-333066907387547e-32 .00462 0 -.5 -.866025403784439 0 -.866025403784
439 .5 0 14 232 42 327 ?244 138 231 5 325 -0 0 244 138 21 50 326 97 0 132 325 30
5 0 +.00400103736548411 -.00231 0 -.5 .866025403784438 0 0 0 1 14 132 58 328 ?13
8 298 124 5 326 -0 0 138 298 21 50 305 98 0 298 326 300 0 +610622663543836e-32 -
.00462 0 .5 .866025403784439 0 0 0 -1 81 1 328 366 301 132 329 0 327 330 331 80
 7 CCCCCDI12 legal_owners0 17 1 lCZ1 301 332 333 9000 1 1 1 1 1 1 1 1 0 FFFFTFTF
FFFFFFFFF1 81 1 329 204 27 132 334 328 335 336 337 81 1 327 365 301 232 335 0 32
0 328 338 81 1 330 367 301 244 339 0 328 340 341 82 255 1 331 135725169 14 244 3
5 330 ?247 232 240 5 322 -0 0 247 232 21 81 1 339 196 27 244 342 330 343 319 344
 81 1 340 368 301 247 343 0 330 345 346 82 1 341 137887857 14 247 25 340 ?347 24
4 245 5 324 -0 0 347 244 21 81 1 343 194 27 247 348 340 349 339 350 81 1 345 369
 301 347 351 0 340 352 353 82 1 346 137691249 14 347 22 345 ?295 247 354 5 355 +
0 0 295 247 21 81 1 351 186 27 347 356 345 357 358 359 81 1 352 370 301 295 349
 0 345 360 361 82 1 353 136904817 14 295 17 352 ?362 347 363 5 364 +0 0 362 347
 21 81 1 349 192 27 295 365 352 366 343 367 81 1 360 371 301 362 366 0 352 368 3
69 82 1 361 137494641 14 362 10 360 ?370 295 288 5 371 -0 0 370 295 21 81 1 366
 190 27 362 372 360 358 349 373 81 1 368 372 301 370 358 0 360 0 374 82 1 369 13
7298033 14 370 3 368 ?0 362 375 5 376 +0 0 0 362 21 81 1 358 188 27 370 377 368
 351 366 378 82 1 374 137101425 80 1 27 379 380 9000 0 0 0 0 3 6 0 0 0 TTTFTFTTF
FFFFFFFF10 81 1 377 187 143 370 0 358 356 372 381 98 255 3 378 50 50 52 80 1 143
 0 382 8001 0 0 0 0 3 5 0 0 0 FFFFTFTFFFFFFFFFF2 81 1 356 185 143 347 0 351 0 37
7 383 81 1 372 189 143 362 0 366 377 365 384 83 255 3 381 .627450980392157 .6274
50980392157 .627450980392157 81 1 365 191 143 295 0 349 372 348 385 83 3 384 .62
7450980392157 .627450980392157 .627450980392157 81 1 348 193 143 247 0 343 365 3
42 386 83 3 385 .627450980392157 .627450980392157 .627450980392157 81 1 342 195
 143 244 0 339 348 387 388 83 3 386 .627450980392157 .627450980392157 .627450980
392157 81 1 387 197 143 307 0 319 342 389 390 83 3 388 .627450980392157 .6274509
80392157 .627450980392157 81 1 319 198 27 307 387 315 339 391 392 81 1 389 199 1
43 138 0 391 387 393 394 83 3 390 .627450980392157 .627450980392157 .62745098039
2157 81 1 391 200 27 138 389 320 319 335 395 81 1 393 201 143 232 0 335 389 334
 396 83 3 394 .627450980392157 .627450980392157 .627450980392157 81 1 335 202 27
 232 393 327 391 329 397 81 1 334 203 143 132 0 329 393 398 399 83 3 396 .627450
980392157 .627450980392157 .627450980392157 81 1 398 205 143 298 0 336 334 400 4
01 83 3 399 .627450980392157 .627450980392157 .627450980392157 81 1 336 206 27 2
98 398 303 329 302 402 81 1 400 207 143 296 0 302 398 403 404 83 3 401 .62745098
0392157 .627450980392157 .627450980392157 81 1 302 208 27 296 400 297 336 405 40
6 81 1 403 209 143 299 0 405 400 407 408 83 3 404 .627450980392157 .627450980392
157 .627450980392157 81 1 405 210 27 299 403 306 302 314 409 81 1 407 211 143 11
7 0 314 403 410 411 83 3 408 .627450980392157 .627450980392157 .627450980392157
 81 1 314 212 27 117 407 312 405 112 412 81 1 410 213 143 16 0 112 407 22 413 83
 3 411 .627450980392157 .627450980392157 .627450980392157 81 1 112 214 27 16 410
 310 314 110 414 81 1 22 236 143 10 357 0 410 181 415 83 3 413 .627450980392157
 .627450980392157 .627450980392157 81 1 357 184 27 10 0 22 180 351 416 83 3 415
 .627451002597809 .627451002597809 .627451002597809 81 1 180 183 27 43 0 179 417
 357 418 98 3 416 49 53 56 81 1 417 182 27 174 0 178 419 180 420 98 3 418 49 53
 54 81 1 178 239 143 174 417 0 179 173 421 81 1 419 181 27 122 0 173 422 417 423
 98 3 420 49 53 53 81 1 173 240 143 122 419 0 178 169 424 81 1 422 180 27 167 0
 169 425 419 426 98 3 423 49 53 52 81 1 169 241 143 167 422 0 173 166 427 81 1 4
25 179 27 127 0 166 428 422 429 98 3 426 49 53 51 81 1 166 242 143 127 425 0 169
 126 430 81 1 428 178 27 115 0 126 431 425 432 98 3 429 49 53 50 81 1 126 243 14
3 115 428 0 166 158 433 81 1 431 177 27 128 0 158 434 428 435 98 3 432 49 53 49
 81 1 158 244 143 128 431 0 126 136 436 81 1 434 176 27 131 0 136 144 431 437 98
 3 435 49 53 48 81 1 136 245 143 131 434 0 158 141 438 81 1 144 175 27 119 0 141
 439 434 440 98 3 437 49 52 57 81 1 439 174 27 140 0 145 224 144 441 98 3 440 49
 52 56 81 1 145 247 143 140 439 0 141 223 442 81 1 224 173 27 147 0 223 443 439
 444 98 3 441 49 52 55 81 1 443 172 27 217 0 222 445 224 446 98 3 444 49 52 54 8
1 1 222 249 143 217 443 0 223 216 447 81 1 445 171 27 209 0 216 448 443 449 98 3
 446 49 52 53 81 1 216 250 143 209 445 0 222 264 450 81 1 448 170 27 196 0 208 4
51 445 452 98 3 449 49 52 52 81 1 208 256 143 196 448 0 193 250 453 81 1 451 169
 27 200 0 202 454 448 455 98 3 452 49 51 56 81 1 202 258 143 200 451 0 250 199 4
56 81 1 454 168 27 197 0 199 457 451 458 98 3 455 49 51 54 81 1 199 259 143 197
 454 0 202 286 459 81 1 457 167 27 191 0 193 184 454 460 98 3 458 49 51 53 81 1
 193 255 143 191 457 0 275 208 461 81 1 184 166 27 24 0 181 291 457 462 98 3 460
 49 51 57 81 1 291 165 27 189 0 286 285 184 463 98 3 462 49 53 55 81 1 285 164 2
7 282 0 283 464 291 465 98 3 463 49 51 52 81 1 464 163 27 279 0 280 466 285 467
 98 3 465 49 51 51 81 1 280 262 143 279 464 0 283 277 468 81 1 466 162 27 273 0
 277 469 464 470 98 3 467 49 51 50 81 1 277 263 143 273 466 0 280 272 471 81 1 4
69 161 27 195 0 275 472 466 473 98 3 470 49 51 49 81 1 275 254 143 195 469 0 241
 193 474 81 1 472 160 27 263 0 272 475 469 476 98 3 473 49 52 48 81 1 272 264 14
3 263 472 0 277 261 477 81 1 475 159 27 237 0 241 478 472 479 98 3 476 49 51 48
 81 1 241 253 143 237 475 0 258 275 480 81 1 478 158 27 218 0 264 481 475 482 98
 3 479 49 52 49 81 1 264 251 143 218 478 0 216 258 483 81 1 481 157 27 259 0 261
 484 478 485 98 3 482 49 52 51 81 1 261 265 143 259 481 0 272 486 487 81 1 484 1
56 27 235 0 258 252 481 488 98 3 485 49 50 57 81 1 258 252 143 235 484 0 264 241
 489 81 1 252 155 27 204 0 250 490 484 491 98 3 488 49 52 50 81 1 490 154 27 256
 0 486 0 252 492 98 3 491 49 51 55 16 256 5 486 ?493 259 0 254 0 0 1 81 1 486 26
6 143 256 490 0 261 0 494 98 3 492 49 50 56 83 3 494 .627451002597809 .627451002
597809 .627451002597809 17 493 0 354 91 106 100 495 256 0 495 +15 354 23 0 493 3
47 0 17 91 0 354 289 493 84 106 197 0 284 +17 106 0 354 493 289 100 91 197 0 496
 -17 495 0 375 262 496 100 493 256 0 0 -15 375 4 0 495 370 0 17 262 0 375 497 49
5 96 496 259 0 0 +17 496 0 375 495 497 100 262 259 0 493 -17 497 0 375 496 262 9
6 99 263 0 262 -17 99 0 308 99 99 96 497 263 0 497 +15 308 75 0 99 299 0 17 289
 0 354 106 91 84 284 282 0 281 -17 281 0 288 284 278 84 95 279 0 0 +15 288 11 0
 278 362 0 17 278 0 288 281 95 92 498 273 0 498 +17 95 0 288 278 284 92 281 279
 0 278 -17 498 0 363 498 498 92 278 273 0 0 -15 363 21 0 498 295 293 83 3 489 .6
27451002597809 .627451002597809 .627451002597809 83 3 487 .627451002597809 .6274
51002597809 .627451002597809 83 3 483 .627451002597809 .627451002597809 .6274510
02597809 83 3 480 .627451002597809 .627451002597809 .627451002597809 83 3 477 .6
27451002597809 .627451002597809 .627451002597809 83 3 474 .627451002597809 .6274
51002597809 .627451002597809 83 3 471 .627451002597809 .627451002597809 .6274510
02597809 83 3 468 .627451002597809 .627451002597809 .627451002597809 83 3 461 .6
27451002597809 .627451002597809 .627451002597809 83 3 459 .627451002597809 .6274
51002597809 .627451002597809 83 3 456 .627451002597809 .627451002597809 .6274510
02597809 83 3 453 .627451002597809 .627451002597809 .627451002597809 83 3 450 .6
27451002597809 .627451002597809 .627451002597809 83 3 447 .627451002597809 .6274
51002597809 .627451002597809 83 3 442 .627451002597809 .627451002597809 .6274510
02597809 83 3 438 .627451002597809 .627451002597809 .627451002597809 83 3 436 .6
27451002597809 .627451002597809 .627451002597809 83 3 433 .627451002597809 .6274
51002597809 .627451002597809 83 3 430 .627451002597809 .627451002597809 .6274510
02597809 83 3 427 .627451002597809 .627451002597809 .627451002597809 83 3 424 .6
27451002597809 .627451002597809 .627451002597809 83 3 421 .627451002597809 .6274
51002597809 .627451002597809 98 3 414 50 51 56 98 3 412 50 51 55 81 1 306 360 30
1 299 405 0 303 310 499 98 3 409 50 51 53 81 1 303 359 301 298 336 0 297 306 500
 82 1 499 134348913 82 1 500 134283377 98 3 406 50 51 52 98 3 402 50 51 51 98 3
 397 50 51 48 81 1 320 364 301 138 391 0 315 327 501 98 3 395 50 51 49 82 1 501
 135463025 98 3 392 50 51 54 83 3 383 .627450980392157 .627450980392157 .6274509
80392157 79 255 15 382 SDL/TYSA_COLOUR79 19 380 SPAATTRIB_UNICODEID52 376 89 0 3
70 355 371 0 +0 0 -.0247546199999955 0 0 1 .00227962 .740512347492993 .672042754
004845 -1 0 0 51 255 355 88 0 347 0 376 0 +-141244383610705e-32 0 -.012499999999
9948 0 0 -1 .0024505 -1 0 0 54 255 371 90 0 362 376 364 0 +-156760788984538e-33
 0 -.000199999999994145 -107107992202041e-30 0 -1 .0026505 2e-4 -1 0 10710799220
2041e-30 50 364 91 0 295 371 324 0 +-.0025 0 585512612410348e-29 -10208805261158
1e-30 0 -1 -1 0 102088052611581e-30 50 324 92 0 247 364 322 0 +-.004001037365484
1 -.00231 0 1 120154006994064e-29 0 -120154006994064e-29 1 0 98 3 373 50 50 53 9
8 3 367 50 50 54 98 3 359 50 50 55 98 3 350 50 50 56 98 3 344 50 50 57 82 1 338
 135594097 98 3 337 50 51 50 79 14 333 SWEntUnchanged17 186 0 317 186 186 11 32
 24 0 0 -82 1 321 134938737 82 1 316 134676593 82 1 313 134545521 15 249 66 0 50
 298 0 17 50 0 249 123 248 45 79 167 0 125 -17 123 0 249 103 50 36 125 127 0 114
 +17 79 0 226 203 133 76 50 167 0 248 +17 125 0 124 75 114 45 123 127 0 133 -17
 203 0 226 228 79 80 246 200 0 0 +17 228 0 226 227 203 68 87 195 0 0 +17 103 0 2
49 248 123 88 44 122 0 121 -82 1 304 134152305 83 3 292 .627451002597809 .627451
002597809 .627451002597809 83 3 287 .627451002597809 .627451002597809 .627451002
597809 17 234 0 240 87 236 68 233 235 0 228 +83 3 253 .627451002597809 .62745100
2597809 .627451002597809 83 3 225 .627451002597809 .627451002597809 .62745100259
7809 83 3 185 .627451002597809 .627451002597809 .627451002597809 83 3 182 .62745
1002597809 .627451002597809 .627451002597809 136 152 2 3 4 2 5 FFT1 502 503 504
 135 153 2 0 45 12 502 .004310518682742075 -27755575615629e-32 .0036456789984645
45 1.07735026918963 .004310518682742075 .001155 .003645678998464545 1.0773502691
8963 .00400103736548411 .00231 .00302657277926629 1 127 2 503 3 3 128 2 504 .233
747832381584 .467495664763169 83 3 146 .627451002597809 .627451002597809 .627451
002597809 81 1 108 216 27 72 0 0 110 105 505 98 3 113 49 50 51 81 1 105 217 27 1
00 0 0 108 102 506 98 3 505 49 49 54 81 1 102 218 27 88 0 0 105 98 507 98 3 506
 49 48 56 81 1 98 219 27 96 0 0 102 94 508 98 3 507 49 49 53 81 1 94 220 27 92 0
 0 98 90 509 98 3 508 49 48 57 81 1 90 221 27 84 0 0 94 86 510 98 3 509 49 49 48
 81 1 86 222 27 80 0 0 90 83 511 98 3 510 49 49 49 81 1 83 223 27 81 0 0 86 78 5
12 98 3 511 49 49 52 81 1 78 224 27 76 0 0 83 74 513 98 3 512 49 49 50 81 1 74 2
25 27 56 0 0 78 70 514 98 3 513 49 49 51 81 1 70 226 27 68 0 0 74 66 515 98 3 51
4 49 50 49 81 1 66 227 27 61 0 0 70 64 516 98 3 515 49 49 55 81 1 64 228 27 62 0
 0 66 59 517 98 3 516 49 49 56 81 1 59 229 27 57 0 0 64 54 518 98 3 517 49 50 50
 81 1 54 230 27 52 0 0 59 49 519 98 3 518 49 49 57 81 1 49 231 27 45 0 0 54 37 5
20 98 3 519 49 50 48 81 1 37 232 27 36 0 0 49 28 521 98 3 520 49 50 52 98 3 521
 49 50 53 98 3 38 49 50 54 81 1 29 269 27 1 522 523 25 0 524 98 3 30 49 50 55 81
 1 522 268 525 1 526 29 0 0 527 81 1 523 271 528 1 29 529 0 0 530 98 2 524 49 52
 80 1 528 531 532 8051 0 0 0 0 3 5 0 0 0 TFTFFFFFFFFFFFFFF1 81 2 529 273 533 1 5
23 534 0 0 0 535 82 1 530 0 80 2 533 536 537 9000 0 0 0 0 3 5 0 0 0 FFTFFFFFFFFF
FFFFF9 1 81 2 534 274 538 1 529 539 0 0 540 0 82 1 535 38 80 2 538 541 542 9000
 0 0 0 0 3 5 0 0 0 FFTFTTTFFTFFFFFFF10 10 81 2 539 275 543 1 534 544 0 0 0 545 9
8 8 540 66 111 100 121 49 91 49 93 80 2 543 546 547 9000 0 0 0 0 3 5 0 0 0 FFTFF
FFFFFFFFFFFF9 1 81 2 544 308 548 1 539 13 0 0 0 0 82 1 545 103 80 2 548 549 550
 9000 0 0 0 0 3 5 0 0 0 FFTFFFFFFFFFFFFFF9 1 81 1 13 324 551 1 544 2 0 0 552 80
 1 551 553 554 9000 1 1 1 1 1 1 1 1 0 FFTFFFFFFFFFFFFFF1 82 1 552 1858 79 10 554
 BODY_MATCH79 16 550 BODY_RECIPE_200179 19 547 ENT_TIME_STAMP_200179 23 542 SWIM
PLICITBODYNAME_ID_U79 30 537 LAST_BODY_MODIFYING_FEATURE_ID79 21 532 SDL/TYSA_SC
ALE_FACTOR80 1 525 27 555 9000 0 0 0 0 3 5 0 0 0 TFTFTFTFFFFFFFFFF10 81 1 526 26
7 556 1 557 522 0 0 558 98 34 527 73 83 79 32 52 48 49 55 32 45 32 77 53 32 120
 32 50 53 32 83 116 101 101 108 32 52 46 54 32 80 108 97 105 110 80 1 556 559 56
0 8038 0 0 0 0 0 0 0 0 0 TTTTTTTTTTTTTFTFT10 81 1 557 235 561 1 0 526 0 0 562 98
 5 558 66 111 100 121 49 80 1 561 143 563 8040 0 0 0 0 3 5 0 0 0 TTTFFFFFFFFFFFF
FF2 83 3 562 .627451002597809 .627451002597809 .627451002597809 79 17 563 SDL/TY
SA_COLOUR_279 14 560 SDL/TYSA_UNAME79 22 555 ATTRIB_XPARASOLID_NAME19 17 86 0 1
 0 9 5 0 S0 74 4 CI16 index_map_offset0 0 1 dCCZ20 15 13 0 0 29 486 557 526 522
 523 529 534 539 544 368 13 2 0 0 0 0 0 0 0 80 2 12 564 565 9000 0 0 0 0 3 5 0 0
 0 FFTFFFFFFFFFFFFFF9 1 82 1 14 101 79 12 565 ATOM_ID_20011 0 
