**ABCDEFGHIJKLMNOPQRSTUVWXYZabcdefghijklmnopqrstuvwxyz**************************
**PARASOLID !"#$%&'()*+,-./:;<=>?@[\]^_`{|}~0123456789**************************
**PART1;
MC=AMD64;
MC_MODEL=Intel64 Family 6 Model 154 Stepping 3, GenuineIntel;
MC_ID=unknown;
OS=Windows_NT;
OS_RELEASE=unknown;
FRU=Parasolid Version 36.1, build 228,  1-18-2025;
APPL=SOLIDWORKS 2025-2025268;
SITE=;
USER=unknown;
FORMAT=text;
GUISE=transmit;
KEY=37mm_adjuster;
FILE=37mm_adjuster.x_t;
DATE=Sat Feb 28 20:28:44 2026;
**PART2;
SCH=SCH_3601228_36001;
USFLD_SIZE=0;
**PART3;
**END_OF_HEADER*****************************************************************
T51 : TRANSMIT FILE created by modeller version 360122823 SCH_3601228_36001_1300
6231 0 12 36 CCCI7 lattice222 0 CCCI4 mesh1006 0 I8 polyline1008 0 CCCCCCCDI5 ow
ner1040 0 CCCI16 boundary_lattice222 0 CCCI13 boundary_mesh1006 0 I17 boundary_p
olyline1008 0 CCCA16 index_map_offset0 0 1 dA9 index_map82 0 A17 node_id_index_m
ap82 0 A20 schema_embedding_map82 0 A5 child12 0 A14 lowest_node_id0 0 1 dA16 me
sh_offset_data206 0 Z1 103 2 3 0 0 0 0 0 0 0 1e3 1e-8 0 4 0 1 0 1 1 5 0 6 7 8 0
 0 9 10 11 0 0 0 0 0 0 0 81 255 2 2 99 12 1 13 0 0 0 0 14 70 11 CI9 list_type0 0
 1 uI10 notransmit0 0 1 lCCCDCCDI12 finger_index0 0 1 dI12 finger_block1012 0 CZ
3 0 4 T1 0 0 13 20 1 15 15 13 255 5 24 0 1 0 16 0 0 17 0 50 255 6 28 0 16 18 0 0
 +0 0 0 0 0 1 1 0 0 30 255 7 38 0 19 20 0 0 +-.0095 -116341445918999e-32 0 0 0 -
1 29 255 8 32 0 11 21 0 -.0095 -116341445918999e-32 0 19 9 CCCCCCI5 frame230 0 C
A5 owner12 0 Z9 1 0 1 17 0 22 0 V0 16 255 10 16 23 ?24 0 19 20 0 0 1 18 255 11 1
5 25 24 0 26 8 ?1 81 1 25 56 27 11 0 0 28 29 30 17 255 24 0 31 32 33 11 34 10 0
 34 +18 26 13 28 32 11 35 21 ?1 81 1 28 55 27 26 0 0 36 25 37 17 32 0 31 38 24 2
6 33 19 0 39 -18 35 8 36 40 26 41 42 ?1 29 21 31 0 26 42 8 -.0095 -1163414459189
99e-32 .037 29 42 30 0 35 43 21 -.0052 -636816335556624e-33 0 29 43 29 0 41 0 42
 -.0052 -636816335556624e-33 .037 18 41 6 44 45 35 0 43 ?1 81 1 44 53 27 41 0 0
 46 36 47 17 45 0 48 49 40 41 50 51 0 52 -15 255 48 4 0 49 53 0 17 49 0 48 50 45
 41 52 54 0 0 -17 40 0 48 45 50 35 55 56 0 55 +17 50 0 48 40 49 35 45 51 0 0 +16
 51 7 57 ?50 56 54 58 0 0 1 17 52 0 59 52 52 41 49 54 0 49 +15 59 19 0 52 60 61
 16 54 5 62 ?52 51 0 63 0 0 1 81 1 62 63 64 54 65 0 57 0 66 31 255 63 34 0 54 67
 58 0 +0 0 .037 0 0 -1 1 0 0 .0052 31 67 33 0 56 0 63 0 +0 0 0 0 0 -1 1 0 0 .005
2 30 58 35 0 51 63 68 0 +-.0052 -636816335556624e-33 0 0 0 -1 31 68 36 0 69 58 2
0 0 +0 0 .037 0 0 1 1 0 0 .0095 16 69 12 70 ?39 19 56 68 0 0 1 31 20 37 0 10 68
 7 0 +0 0 0 0 0 1 1 0 0 .0095 81 1 70 60 64 69 71 0 72 73 74 17 39 0 61 39 39 26
 38 69 0 38 +16 19 14 72 ?33 10 69 7 0 0 1 16 56 9 73 ?40 69 51 67 0 0 1 81 1 73
 61 64 56 75 0 70 57 76 80 7 CCCCCDI12 legal_owners0 17 1 lCZ1 64 0 77 8001 0 0
 0 0 3 5 0 0 0 FFFFTFTFFFFFFFFFF2 81 1 75 39 27 56 0 73 0 65 78 81 1 57 62 64 51
 79 0 73 62 80 83 255 3 76 .627451002597809 .627451002597809 .627451002597809 81
 1 79 41 27 51 0 57 65 71 81 83 3 80 .627451002597809 .627451002597809 .62745100
2597809 80 1 27 82 83 9000 0 0 0 0 3 6 0 0 0 TTTFTFTTFFFFFFFFF10 81 1 65 40 27 5
4 0 62 75 79 84 81 1 71 42 27 69 0 70 79 85 86 98 255 2 81 52 50 81 1 85 43 27 1
0 0 23 71 87 88 98 2 86 52 52 81 1 23 58 64 10 85 0 89 72 90 81 1 87 44 27 19 0
 72 85 91 92 98 2 88 52 54 81 1 72 59 64 19 87 0 23 70 93 81 1 91 46 27 53 94 95
 87 96 97 98 2 92 52 53 14 255 53 3 95 ?0 98 48 5 99 -0 0 0 98 22 81 1 94 45 64
 53 0 91 0 100 101 81 1 95 100 102 53 91 0 0 103 104 81 1 96 48 27 98 100 103 91
 105 106 98 2 97 54 49 14 98 10 103 ?53 60 31 5 107 +0 0 53 60 22 81 1 100 47 64
 98 0 96 94 108 109 81 1 103 101 102 98 96 0 95 110 111 81 1 105 50 27 60 108 11
0 96 46 112 98 2 106 54 50 14 60 17 110 ?98 16 59 5 18 +0 0 98 16 22 81 1 108 49
 64 60 0 105 100 89 113 81 1 110 102 102 60 105 0 103 114 115 81 1 46 52 27 16 8
9 114 105 44 116 98 2 112 54 51 14 16 20 114 ?60 0 117 5 6 -0 0 60 0 22 81 1 89
 51 64 16 0 46 108 23 118 81 1 114 103 102 16 46 0 110 0 119 98 2 116 54 52 80 1
 102 120 121 9000 1 1 1 1 1 1 1 1 0 FFFFTFTFFFFFFFFFF1 82 255 1 119 265683057 79
 255 14 121 SWEntUnchanged83 3 118 .627450980392157 .627450980392157 .6274509803
92157 15 117 22 0 55 16 122 13 22 2 0 0 0 0 0 0 9 16 17 55 0 117 55 55 35 40 56
 0 50 -15 122 21 0 34 16 0 17 34 0 122 34 34 11 24 10 0 33 -17 33 0 31 24 38 11
 32 19 0 0 +15 31 11 0 38 98 0 17 38 0 31 33 32 26 39 69 0 0 -82 1 115 265486449
 83 3 113 .627450980392157 .627450980392157 .627450980392157 50 18 27 0 60 107 6
 0 +0 0 .037 0 0 1 1 0 0 51 255 107 26 0 98 99 18 0 +0 0 0 0 0 1 .0095 1 0 0 51
 99 25 0 53 0 107 0 +0 0 0 0 0 1 .0052 1 0 0 82 1 111 265289841 83 3 109 .627450
980392157 .627450980392157 .627450980392157 82 1 104 265093233 83 3 101 .6274509
80392157 .627450980392157 .627450980392157 83 3 93 .627451002597809 .62745100259
7809 .627451002597809 83 3 90 .627451002597809 .627451002597809 .627451002597809
 98 2 84 52 49 79 19 83 SPAATTRIB_UNICODEID98 2 78 52 51 79 15 77 SDL/TYSA_COLOU
R15 61 18 0 39 60 0 83 3 74 .627451002597809 .627451002597809 .627451002597809 8
3 3 66 .627451002597809 .627451002597809 .627451002597809 81 1 36 54 27 35 0 0 4
4 28 123 98 2 47 51 55 98 2 123 51 56 98 2 37 51 57 81 1 29 66 27 1 124 125 25 0
 126 98 2 30 52 48 81 1 124 65 127 1 128 29 0 0 129 81 1 125 68 130 1 29 131 0 0
 132 98 2 126 49 52 80 1 130 133 134 8051 0 0 0 0 3 5 0 0 0 TFTFFFFFFFFFFFFFF1 8
1 2 131 70 135 1 125 136 0 0 0 137 82 1 132 0 80 2 135 138 139 9000 0 0 0 0 3 5
 0 0 0 FFTFFFFFFFFFFFFFF9 1 81 2 136 71 140 1 131 141 0 0 142 0 82 1 137 38 80 2
 140 143 144 9000 0 0 0 0 3 5 0 0 0 FFTFTTTFFTFFFFFFF10 10 81 2 141 72 145 1 136
 146 0 0 0 147 98 8 142 66 111 100 121 49 91 49 93 80 2 145 148 149 9000 0 0 0 0
 3 5 0 0 0 FFTFFFFFFFFFFFFFF9 1 81 2 146 83 150 1 141 13 0 0 0 0 82 1 147 103 80
 2 150 151 152 9000 0 0 0 0 3 5 0 0 0 FFTFFFFFFFFFFFFFF9 1 81 1 13 88 153 1 146
 2 0 0 154 80 1 153 155 156 9000 1 1 1 1 1 1 1 1 0 FFTFFFFFFFFFFFFFF1 82 1 154 3
969 79 10 156 BODY_MATCH79 16 152 BODY_RECIPE_200179 19 149 ENT_TIME_STAMP_20017
9 23 144 SWIMPLICITBODYNAME_ID_U79 30 139 LAST_BODY_MODIFYING_FEATURE_ID79 21 13
4 SDL/TYSA_SCALE_FACTOR80 1 127 27 157 9000 0 0 0 0 3 5 0 0 0 TFTFTFTFFFFFFFFFF1
0 81 1 128 64 158 1 159 124 0 0 160 98 13 129 51 55 109 109 95 97 100 106 117 11
5 116 101 114 80 1 158 161 162 8038 0 0 0 0 0 0 0 0 0 TTTTTTTTTTTTTFTFT10 81 1 1
59 57 163 1 0 128 0 0 164 98 5 160 66 111 100 121 49 80 1 163 64 165 8040 0 0 0
 0 3 5 0 0 0 TTTFFFFFFFFFFFFFF2 83 3 164 .627451002597809 .627451002597809 .6274
51002597809 79 17 165 SDL/TYSA_COLOUR_279 14 162 SDL/TYSA_UNAME79 22 157 ATTRIB_
XPARASOLID_NAME19 17 23 0 1 0 9 5 0 S0 74 4 CI16 index_map_offset0 0 1 dCCZ20 15
 13 0 0 29 62 159 128 124 125 131 136 141 146 114 13 2 0 0 0 0 0 0 0 80 2 12 166
 167 9000 0 0 0 0 3 5 0 0 0 FFTFFFFFFFFFFFFFF9 1 82 1 14 101 79 12 167 ATOM_ID_2
0011 0 
