**ABCDEFGHIJKLMNOPQRSTUVWXYZabcdefghijklmnopqrstuvwxyz**************************
**PARASOLID !"#$%&'()*+,-./:;<=>?@[\]^_`{|}~0123456789**************************
**PART1;
MC=AMD64;
MC_MODEL=Intel64 Family 6 Model 154 Stepping 3, GenuineIntel;
MC_ID=unknown;
OS=Windows_NT;
OS_RELEASE=unknown;
FRU=Parasolid Version 36.1, build 228,  1-18-2025;
APPL=SOLIDWORKS 2025-2025268;
SITE=;
USER=unknown;
FORMAT=text;
GUISE=transmit;
KEY=78mm_upper_adjuster;
FILE=78mm_upper_adjuster.x_t;
DATE=Sat Feb 28 20:28:59 2026;
**PART2;
SCH=SCH_3601228_36001;
USFLD_SIZE=0;
**PART3;
**END_OF_HEADER*****************************************************************
T51 : TRANSMIT FILE created by modeller version 360122823 SCH_3601228_36001_1300
6231 0 12 36 CCCI7 lattice222 0 CCCI4 mesh1006 0 I8 polyline1008 0 CCCCCCCDI5 ow
ner1040 0 CCCI16 boundary_lattice222 0 CCCI13 boundary_mesh1006 0 I17 boundary_p
olyline1008 0 CCCA16 index_map_offset0 0 1 dA9 index_map82 0 A17 node_id_index_m
ap82 0 A20 schema_embedding_map82 0 A5 child12 0 A14 lowest_node_id0 0 1 dA16 me
sh_offset_data206 0 Z1 103 2 3 0 0 0 0 0 0 0 1e3 1e-8 0 4 0 1 0 1 1 5 0 6 7 8 0
 0 9 10 11 0 0 0 0 0 0 0 81 255 2 2 99 12 1 13 0 0 0 0 14 70 11 CI9 list_type0 0
 1 uI10 notransmit0 0 1 lCCCDCCDI12 finger_index0 0 1 dI12 finger_block1012 0 CZ
3 0 4 T1 0 0 13 20 1 15 15 13 255 5 24 0 1 0 16 0 0 17 0 50 255 6 28 0 16 18 0 0
 +0 0 0 0 0 1 1 0 0 31 255 7 38 0 10 19 0 0 +0 0 0 0 0 1 1 0 0 .0052 29 255 8 32
 0 11 20 0 -.0052 -636816335556624e-33 0 19 9 CCCCCCI5 frame230 0 CA5 owner12 0
 Z9 1 0 1 17 0 21 0 V0 16 255 10 19 22 ?23 0 24 7 0 0 1 18 255 11 18 25 23 0 26
 8 ?1 81 1 25 56 27 11 0 0 28 29 30 17 255 23 0 31 32 33 11 34 10 0 34 +18 26 13
 35 36 11 37 38 ?1 81 1 35 54 27 26 0 0 39 28 40 17 36 0 41 42 43 26 44 45 0 44
 +18 37 9 28 42 26 46 20 ?1 29 38 30 0 26 47 20 -.002117 -259257727379495e-33 0
 29 47 29 0 46 0 38 -.0052 -636816335556624e-33 .0812 29 20 31 0 37 38 8 -.00211
7 -259257727379495e-33 .0812 18 46 6 39 32 37 0 47 ?1 81 1 39 53 27 46 0 0 48 35
 49 17 32 0 31 50 23 46 33 24 0 51 -15 255 31 16 0 50 52 0 17 50 0 31 33 32 46 5
1 53 0 0 -17 33 0 31 23 50 11 32 24 0 0 +16 24 17 54 ?33 10 45 55 0 0 1 17 51 0
 56 51 51 46 50 53 0 50 +15 56 4 0 51 57 0 16 53 5 58 ?51 59 0 60 0 0 1 81 1 58
 63 61 53 62 0 63 0 64 16 59 8 63 ?65 66 53 67 0 0 1 31 60 34 0 53 68 67 0 +0 0
 .0812 0 0 1 1 0 0 .0052 30 255 68 33 0 66 0 60 0 +-.002117 -259257727379495e-33
 0 0 0 -1 31 67 35 0 59 60 55 0 +0 0 .0812 0 0 -1 1 0 0 .002117 30 55 36 0 24 67
 19 0 +-.0052 -636816335556624e-33 0 0 0 -1 31 19 37 0 45 55 7 0 +0 0 0 0 0 -1 1
 0 0 .002117 16 45 14 69 ?36 24 66 19 0 0 1 81 1 69 60 61 45 70 0 54 71 72 16 66
 12 71 ?43 45 59 68 0 0 1 81 1 71 61 61 66 73 0 69 63 74 17 43 0 41 36 75 26 42
 66 0 0 +15 41 11 0 75 76 0 17 75 0 41 43 42 37 65 59 0 0 -17 42 0 41 75 36 37 4
3 66 0 65 -17 65 0 77 65 65 37 75 59 0 75 +15 77 7 0 65 57 56 14 255 57 3 78 ?0
 76 77 5 79 +0 0 0 76 21 81 1 78 100 80 57 81 0 0 82 83 14 76 10 82 ?57 52 41 5
 84 -0 0 57 52 21 50 79 25 0 57 0 84 0 +0 0 .0812 0 0 1 1 0 0 13 21 2 0 0 0 0 0
 0 9 16 14 16 20 85 ?52 0 86 5 6 -0 0 52 0 21 81 1 85 102 80 16 48 0 82 87 88 14
 52 15 87 ?76 16 31 5 18 +0 0 76 16 21 15 86 22 0 44 16 89 17 44 0 86 44 44 26 3
6 45 0 43 -15 89 21 0 34 16 0 17 34 0 89 34 34 11 23 10 0 33 -81 1 87 103 80 52
 90 0 85 0 91 51 255 18 27 0 52 84 6 0 +0 0 0 0 0 1 .0052 1 0 0 51 84 26 0 76 79
 18 0 +0 0 0 0 0 1 .002117 1 0 0 80 7 CCCCCDI12 legal_owners0 17 1 lCZ1 80 92 93
 9000 1 1 1 1 1 1 1 1 0 FFFFTFTFFFFFFFFFF1 81 1 90 50 27 52 94 87 95 48 96 82 25
5 1 91 329777265 80 1 27 97 98 9000 0 0 0 0 3 6 0 0 0 TTTFTFTTFFFFFFFFF10 81 1 9
4 49 61 52 0 90 99 100 101 81 1 95 48 27 76 99 82 81 90 102 81 1 48 52 27 16 100
 85 90 39 103 98 255 2 96 54 51 81 1 100 51 61 16 0 48 94 22 104 98 2 103 54 52
 80 1 61 0 105 8001 0 0 0 0 3 5 0 0 0 FFFFTFTFFFFFFFFFF2 81 1 22 58 61 10 106 0
 100 54 107 83 255 3 104 .627450980392157 .627450980392157 .627450980392157 81 1
 106 44 27 10 0 22 70 81 108 81 1 54 59 61 24 109 0 22 69 110 83 3 107 .62745100
2597809 .627451002597809 .627451002597809 81 1 109 42 27 24 0 54 111 70 112 83 3
 110 .627451002597809 .627451002597809 .627451002597809 81 1 111 41 27 59 0 63 6
2 109 113 81 1 70 43 27 45 0 69 109 106 114 98 2 112 52 53 98 2 114 52 52 81 1 6
3 62 61 59 111 0 71 58 115 81 1 62 40 27 53 0 58 73 111 116 98 2 113 52 50 81 1
 73 39 27 66 0 71 0 62 117 98 2 116 52 49 98 2 117 52 51 83 3 115 .6274510025978
09 .627451002597809 .627451002597809 81 1 81 46 27 57 118 78 106 95 119 98 2 108
 52 54 81 1 118 45 61 57 0 81 0 99 120 98 2 119 54 49 81 1 99 47 61 76 0 95 118
 94 121 83 3 120 .627450980392157 .627450980392157 .627450980392157 83 3 121 .62
7450980392157 .627450980392157 .627450980392157 79 255 15 105 SDL/TYSA_COLOUR81
 1 82 101 80 76 95 0 78 85 122 98 2 102 54 50 82 1 122 329449585 83 3 101 .62745
0980392157 .627450980392157 .627450980392157 79 19 98 SPAATTRIB_UNICODEID79 14 9
3 SWEntUnchanged82 1 88 329646193 82 1 83 329318513 83 3 74 .627451002597809 .62
7451002597809 .627451002597809 83 3 72 .627451002597809 .627451002597809 .627451
002597809 83 3 64 .627451002597809 .627451002597809 .627451002597809 98 2 49 51
 55 81 1 28 55 27 37 0 0 35 25 123 98 2 123 51 56 98 2 40 51 57 81 1 29 66 27 1
 124 125 25 0 126 98 2 30 52 48 81 1 124 65 127 1 128 29 0 0 129 81 1 125 68 130
 1 29 131 0 0 132 98 2 126 49 52 80 1 130 133 134 8051 0 0 0 0 3 5 0 0 0 TFTFFFF
FFFFFFFFFF1 81 2 131 70 135 1 125 136 0 0 0 137 82 1 132 0 80 2 135 138 139 9000
 0 0 0 0 3 5 0 0 0 FFTFFFFFFFFFFFFFF9 1 81 2 136 71 140 1 131 141 0 0 142 0 82 1
 137 38 80 2 140 143 144 9000 0 0 0 0 3 5 0 0 0 FFTFTTTFFTFFFFFFF10 10 81 2 141
 72 145 1 136 146 0 0 0 147 98 8 142 66 111 100 121 49 91 49 93 80 2 145 148 149
 9000 0 0 0 0 3 5 0 0 0 FFTFFFFFFFFFFFFFF9 1 81 2 146 83 150 1 141 13 0 0 0 0 82
 1 147 103 80 2 150 151 152 9000 0 0 0 0 3 5 0 0 0 FFTFFFFFFFFFFFFFF9 1 81 1 13
 88 153 1 146 2 0 0 154 80 1 153 155 156 9000 1 1 1 1 1 1 1 1 0 FFTFFFFFFFFFFFFF
F1 82 1 154 4957 79 10 156 BODY_MATCH79 16 152 BODY_RECIPE_200179 19 149 ENT_TIM
E_STAMP_200179 23 144 SWIMPLICITBODYNAME_ID_U79 30 139 LAST_BODY_MODIFYING_FEATU
RE_ID79 21 134 SDL/TYSA_SCALE_FACTOR80 1 127 27 157 9000 0 0 0 0 3 5 0 0 0 TFTFT
FTFFFFFFFFFF10 81 1 128 64 158 1 159 124 0 0 160 98 19 129 55 56 109 109 95 117
 112 112 101 114 95 97 100 106 117 115 116 101 114 80 1 158 161 162 8038 0 0 0 0
 0 0 0 0 0 TTTTTTTTTTTTTFTFT10 81 1 159 57 163 1 0 128 0 0 164 98 5 160 66 111 1
00 121 49 80 1 163 61 165 8040 0 0 0 0 3 5 0 0 0 TTTFFFFFFFFFFFFFF2 83 3 164 .62
7451002597809 .627451002597809 .627451002597809 79 17 165 SDL/TYSA_COLOUR_279 14
 162 SDL/TYSA_UNAME79 22 157 ATTRIB_XPARASOLID_NAME19 17 23 0 1 0 9 5 0 S0 74 4
 CI16 index_map_offset0 0 1 dCCZ20 15 13 0 0 29 58 159 128 124 125 131 136 141 1
46 87 13 2 0 0 0 0 0 0 0 80 2 12 166 167 9000 0 0 0 0 3 5 0 0 0 FFTFFFFFFFFFFFFF
F9 1 82 1 14 101 79 12 167 ATOM_ID_20011 0 
