**ABCDEFGHIJKLMNOPQRSTUVWXYZabcdefghijklmnopqrstuvwxyz**************************
**PARASOLID !"#$%&'()*+,-./:;<=>?@[\]^_`{|}~0123456789**************************
**PART1;
MC=AMD64;
MC_MODEL=Intel64 Family 6 Model 154 Stepping 3, GenuineIntel;
MC_ID=unknown;
OS=Windows_NT;
OS_RELEASE=unknown;
FRU=Parasolid Version 36.1, build 228,  1-18-2025;
APPL=SOLIDWORKS 2025-2025268;
SITE=;
USER=unknown;
FORMAT=text;
GUISE=transmit;
KEY=81.20_upper_adjuster;
FILE=81.20_upper_adjuster.x_t;
DATE=Sat Feb 28 20:29:20 2026;
**PART2;
SCH=SCH_3601228_36001;
USFLD_SIZE=0;
**PART3;
**END_OF_HEADER*****************************************************************
T51 : TRANSMIT FILE created by modeller version 360122823 SCH_3601228_36001_1300
6231 0 12 36 CCCI7 lattice222 0 CCCI4 mesh1006 0 I8 polyline1008 0 CCCCCCCDI5 ow
ner1040 0 CCCI16 boundary_lattice222 0 CCCI13 boundary_mesh1006 0 I17 boundary_p
olyline1008 0 CCCA16 index_map_offset0 0 1 dA9 index_map82 0 A17 node_id_index_m
ap82 0 A20 schema_embedding_map82 0 A5 child12 0 A14 lowest_node_id0 0 1 dA16 me
sh_offset_data206 0 Z1 103 2 3 0 0 0 0 0 0 0 1e3 1e-8 0 4 0 1 0 1 1 5 0 6 7 8 0
 0 9 10 11 0 0 0 0 0 0 0 81 255 2 2 99 12 1 13 0 0 0 0 14 70 11 CI9 list_type0 0
 1 uI10 notransmit0 0 1 lCCCDCCDI12 finger_index0 0 1 dI12 finger_block1012 0 CZ
3 0 4 T1 0 0 13 20 1 15 15 13 255 5 24 0 1 0 16 0 0 17 0 50 255 6 28 0 16 18 0 0
 +0 0 0 0 0 1 1 0 0 31 255 7 38 0 10 19 0 0 +0 0 0 0 0 1 1 0 0 .0052 29 255 8 32
 0 11 20 0 -.0052 -636816335556624e-33 0 19 9 CCCCCCI5 frame230 0 CA5 owner12 0
 Z9 1 0 1 17 0 21 0 V0 16 255 10 19 22 ?23 0 24 7 0 0 1 18 255 11 18 25 23 0 26
 8 ?1 81 1 25 56 27 11 0 0 28 29 30 17 255 23 0 31 32 33 11 34 10 0 34 +18 26 13
 28 35 11 36 20 ?1 81 1 28 55 27 26 0 0 37 25 38 17 35 0 39 40 41 26 42 43 0 42
 +18 36 9 37 40 26 44 45 ?1 29 20 31 0 26 45 8 -.002117 -259257727379495e-33 0 2
9 45 30 0 36 46 20 -.002117 -259257727379495e-33 .0812 29 46 29 0 44 0 45 -.0052
 -636816335556624e-33 .0812 18 44 6 47 32 36 0 46 ?1 81 1 47 53 27 44 0 0 48 37
 49 17 32 0 31 50 23 44 33 24 0 51 -15 255 31 16 0 50 52 0 17 50 0 31 33 32 44 5
1 53 0 0 -17 33 0 31 23 50 11 32 24 0 0 +16 24 17 54 ?33 10 43 19 0 0 1 17 51 0
 55 51 51 44 50 53 0 50 +15 55 4 0 51 56 0 16 53 5 57 ?51 58 0 59 0 0 1 81 1 57
 63 60 53 61 0 62 0 63 16 58 8 62 ?64 65 53 66 0 0 1 31 59 33 0 53 0 66 0 +0 0 .
0812 0 0 1 1 0 0 .0052 31 66 34 0 58 59 67 0 +0 0 .0812 0 0 -1 1 0 0 .002117 30
 255 67 35 0 65 66 68 0 +-.002117 -259257727379495e-33 0 0 0 -1 16 65 12 69 ?41
 43 58 67 0 0 1 31 68 36 0 43 67 19 0 +0 0 0 0 0 -1 1 0 0 .002117 16 43 14 70 ?3
5 24 65 68 0 0 1 30 19 37 0 24 68 7 0 +-.0052 -636816335556624e-33 0 0 0 -1 81 1
 70 60 60 43 71 0 54 69 72 80 7 CCCCCDI12 legal_owners0 17 1 lCZ1 60 0 73 8001 0
 0 0 0 3 5 0 0 0 FFFFTFTFFFFFFFFFF2 81 1 71 42 27 43 0 70 74 75 76 81 1 54 59 60
 24 75 0 22 70 77 81 1 69 61 60 65 74 0 70 62 78 83 255 3 72 .627451002597809 .6
27451002597809 .627451002597809 81 1 74 41 27 65 0 69 79 71 80 81 1 62 62 60 58
 79 0 69 57 81 83 3 78 .627451002597809 .627451002597809 .627451002597809 81 1 7
9 40 27 58 0 62 61 74 82 83 3 81 .627451002597809 .627451002597809 .627451002597
809 80 1 27 83 84 9000 0 0 0 0 3 6 0 0 0 TTTFTFTTFFFFFFFFF10 81 1 61 39 27 53 0
 57 0 79 85 98 255 2 82 52 50 98 2 85 52 49 79 255 19 84 SPAATTRIB_UNICODEID98 2
 80 52 51 81 1 75 43 27 24 0 54 71 86 87 81 1 22 58 60 10 86 0 88 54 89 83 3 77
 .627451002597809 .627451002597809 .627451002597809 81 1 86 44 27 10 0 22 75 90
 91 81 1 88 51 60 16 0 48 92 22 93 83 3 89 .627451002597809 .627451002597809 .62
7451002597809 14 255 16 20 94 ?52 0 95 5 6 -0 0 52 0 21 81 1 48 52 27 16 88 94 9
6 47 97 81 1 92 49 60 52 0 96 98 88 99 83 3 93 .627450980392157 .627450980392157
 .627450980392157 14 52 15 100 ?101 16 31 5 18 +0 0 101 16 21 81 1 96 50 27 52 9
2 100 102 48 103 81 1 98 47 60 101 0 102 104 92 105 83 3 99 .627450980392157 .62
7450980392157 .627450980392157 14 101 10 106 ?56 52 39 5 107 -0 0 56 52 21 81 1
 102 48 27 101 98 106 90 96 108 81 1 104 45 60 56 0 90 0 98 109 83 3 105 .627450
980392157 .627450980392157 .627450980392157 14 56 3 110 ?0 101 111 5 112 +0 0 0
 101 21 81 1 90 46 27 56 104 110 86 102 113 83 3 109 .627450980392157 .627450980
392157 .627450980392157 81 1 110 103 114 56 90 0 106 0 115 98 2 113 54 49 80 1 1
14 116 117 9000 1 1 1 1 1 1 1 1 0 FFFFTFTFFFFFFFFFF1 81 1 106 102 114 101 102 0
 100 110 118 82 255 1 115 470417521 81 1 100 101 114 52 96 0 94 106 119 82 1 118
 470220913 81 1 94 100 114 16 48 0 0 100 120 82 1 119 470024305 82 1 120 4698276
97 79 14 117 SWEntUnchanged15 111 7 0 64 56 55 50 112 25 0 56 0 107 0 +0 0 .0812
 0 0 1 1 0 0 13 21 2 0 0 0 0 0 0 9 16 51 255 107 26 0 101 112 18 0 +0 0 0 0 0 1
 .002117 1 0 0 51 18 27 0 52 107 6 0 +0 0 0 0 0 1 .0052 1 0 0 17 64 0 111 64 64
 36 121 58 0 121 +17 121 0 39 41 40 36 64 58 0 0 -15 39 11 0 121 101 0 17 41 0 3
9 35 121 26 40 65 0 0 +17 40 0 39 121 35 36 41 65 0 64 -98 2 108 54 50 98 2 103
 54 51 98 2 97 54 52 15 95 22 0 42 16 122 17 42 0 95 42 42 26 35 43 0 41 -15 122
 21 0 34 16 0 17 34 0 122 34 34 11 23 10 0 33 -98 2 91 52 54 98 2 87 52 53 98 2
 76 52 52 79 15 73 SDL/TYSA_COLOUR83 3 63 .627451002597809 .627451002597809 .627
451002597809 81 1 37 54 27 36 0 0 47 28 123 98 2 49 51 55 98 2 123 51 56 98 2 38
 51 57 81 1 29 66 27 1 124 125 25 0 126 98 2 30 52 48 81 1 124 65 127 1 128 29 0
 0 129 81 1 125 68 130 1 29 131 0 0 132 98 2 126 49 52 80 1 130 133 134 8051 0 0
 0 0 3 5 0 0 0 TFTFFFFFFFFFFFFFF1 81 2 131 70 135 1 125 136 0 0 0 137 82 1 132 0
 80 2 135 138 139 9000 0 0 0 0 3 5 0 0 0 FFTFFFFFFFFFFFFFF9 1 81 2 136 71 140 1
 131 141 0 0 142 0 82 1 137 38 80 2 140 143 144 9000 0 0 0 0 3 5 0 0 0 FFTFTTTFF
TFFFFFFF10 10 81 2 141 72 145 1 136 146 0 0 0 147 98 8 142 66 111 100 121 49 91
 49 93 80 2 145 148 149 9000 0 0 0 0 3 5 0 0 0 FFTFFFFFFFFFFFFFF9 1 81 2 146 83
 150 1 141 13 0 0 0 0 82 1 147 103 80 2 150 151 152 9000 0 0 0 0 3 5 0 0 0 FFTFF
FFFFFFFFFFFF9 1 81 1 13 88 153 1 146 2 0 0 154 80 1 153 155 156 9000 1 1 1 1 1 1
 1 1 0 FFTFFFFFFFFFFFFFF1 82 1 154 7095 79 10 156 BODY_MATCH79 16 152 BODY_RECIP
E_200179 19 149 ENT_TIME_STAMP_200179 23 144 SWIMPLICITBODYNAME_ID_U79 30 139 LA
ST_BODY_MODIFYING_FEATURE_ID79 21 134 SDL/TYSA_SCALE_FACTOR80 1 127 27 157 9000
 0 0 0 0 3 5 0 0 0 TFTFTFTFFFFFFFFFF10 81 1 128 64 158 1 159 124 0 0 160 98 20 1
29 56 49 46 50 48 95 117 112 112 101 114 95 97 100 106 117 115 116 101 114 80 1
 158 161 162 8038 0 0 0 0 0 0 0 0 0 TTTTTTTTTTTTTFTFT10 81 1 159 57 163 1 0 128
 0 0 164 98 5 160 66 111 100 121 49 80 1 163 60 165 8040 0 0 0 0 3 5 0 0 0 TTTFF
FFFFFFFFFFFF2 83 3 164 .627451002597809 .627451002597809 .627451002597809 79 17
 165 SDL/TYSA_COLOUR_279 14 162 SDL/TYSA_UNAME79 22 157 ATTRIB_XPARASOLID_NAME19
 17 23 0 1 0 9 5 0 S0 74 4 CI16 index_map_offset0 0 1 dCCZ20 15 13 0 0 29 57 159
 128 124 125 131 136 141 146 110 13 2 0 0 0 0 0 0 0 80 2 12 166 167 9000 0 0 0 0
 3 5 0 0 0 FFTFFFFFFFFFFFFFF9 1 82 1 14 101 79 12 167 ATOM_ID_20011 0 
