**ABCDEFGHIJKLMNOPQRSTUVWXYZabcdefghijklmnopqrstuvwxyz**************************
**PARASOLID !"#$%&'()*+,-./:;<=>?@[\]^_`{|}~0123456789**************************
**PART1;
MC=AMD64;
MC_MODEL=Intel64 Family 6 Model 154 Stepping 3, GenuineIntel;
MC_ID=unknown;
OS=Windows_NT;
OS_RELEASE=unknown;
FRU=Parasolid Version 36.1, build 228,  1-18-2025;
APPL=SOLIDWORKS 2025-2025268;
SITE=;
USER=unknown;
FORMAT=text;
GUISE=transmit;
KEY=Hexagon Head Screw ISO 4017 - M5 x 95 Steel 12.9 Plain;
FILE=Hexagon Head Screw ISO 4017 - M5 x 95 Steel 12.9 Plain.x_t;
DATE=Sat Feb 28 20:29:37 2026;
**PART2;
SCH=SCH_3601228_36001;
USFLD_SIZE=0;
**PART3;
**END_OF_HEADER*****************************************************************
T51 : TRANSMIT FILE created by modeller version 360122823 SCH_3601228_36001_1300
6231 0 12 36 CCCI7 lattice222 0 CCCI4 mesh1006 0 I8 polyline1008 0 CCCCCCCDI5 ow
ner1040 0 CCCI16 boundary_lattice222 0 CCCI13 boundary_mesh1006 0 I17 boundary_p
olyline1008 0 CCCA16 index_map_offset0 0 1 dA9 index_map82 0 A17 node_id_index_m
ap82 0 A20 schema_embedding_map82 0 A5 child12 0 A14 lowest_node_id0 0 1 dA16 me
sh_offset_data206 0 Z1 372 2 3 0 0 0 0 0 0 0 1e3 1e-8 0 4 0 1 0 1 1 5 0 6 7 8 0
 0 9 10 11 0 0 0 0 0 0 0 81 255 2 2 357 12 1 13 0 0 0 0 14 70 11 CI9 list_type0
 0 1 uI10 notransmit0 0 1 lCCCDCCDI12 finger_index0 0 1 dI12 finger_block1012 0
 CZ3 0 4 T1 0 0 13 20 1 15 15 13 255 5 87 0 1 0 16 0 0 17 0 50 255 6 102 0 16 18
 0 0 +-.0036 0 .000500000000019895 -631328587650818e-31 0 -1 -1 0 63132858765081
8e-31 30 255 7 153 0 10 19 0 0 +.00421 -515576302441035e-33 .0032632863896445 -.
866025403784439 106057523872491e-30 .5 29 255 8 122 0 11 20 0 .0038 -46536578367
5993e-33 .00350000000001225 19 9 CCCCCCI5 frame230 0 CA5 owner12 0 Z9 1 0 1 17 0
 21 0 V0 16 255 10 82 22 ?23 0 24 7 0 0 1 18 255 11 79 25 23 0 26 8 ?1 81 1 25 2
34 27 11 0 0 28 29 30 17 255 23 0 31 32 33 11 34 10 0 32 +18 26 72 28 35 11 36 2
0 ?1 81 1 28 233 27 26 0 0 37 25 38 17 35 0 39 40 41 26 42 43 0 42 +18 36 63 37
 44 26 45 46 ?1 29 20 121 0 26 46 8 .0036 -440872847693046e-33 .0005000000000198
95 29 46 120 0 36 47 20 428488518765698e-32 -.00462 .00302657277927675 29 47 119
 0 45 48 46 -194289029309402e-32 -.00462 .000500000000015665 18 45 61 49 50 36 5
1 47 ?1 29 48 118 0 52 53 47 .0040010373654841 -.00231 .000500000000015665 18 52
 52 54 55 56 57 48 ?1 29 53 117 0 57 58 48 .0040010373654841 .00231 .00302657277
927675 18 57 47 59 60 52 61 53 ?1 29 58 116 0 61 62 53 .0040010373654841 .00231
 .000500000000015665 18 61 45 63 64 57 65 58 ?1 29 62 115 0 66 67 58 -.004001037
3654841 -.00231 .00302657277927675 18 66 31 68 69 70 71 62 ?1 29 67 114 0 71 72
 62 -.0040010373654841 .00231 .000500000000015665 18 71 29 73 74 66 75 67 ?1 29
 72 113 0 75 76 67 -.0040010373654841 -.00231 .000500000000015665 18 75 28 77 78
 71 79 72 ?1 29 76 112 0 65 80 72 111022302462516e-32 .00462 .00302657277927675
 18 65 40 81 82 61 83 76 ?1 29 80 111 0 79 84 76 .00331132486539699 -40552033973
4546e-33 775827319055011e-29 18 79 20 85 40 75 86 80 ?1 29 84 110 0 83 87 80 -33
3066907387547e-32 .00462 .000500000000015665 18 83 38 88 89 65 70 84 ?1 29 87 10
9 0 56 90 84 .0040010373654841 -53482454827201e-32 .00338393102293282 18 56 54 9
1 34 51 52 87 ?1 29 90 108 0 92 93 87 .0026505 -324592634114006e-33 585788976132
296e-29 18 92 13 94 95 86 96 90 ?1 29 93 107 0 70 97 90 -.0040010373654841 .0023
1 .00302657277927675 18 70 33 98 99 83 66 93 ?1 29 97 106 0 51 100 93 .004001037
3654841 -.00231 .00302657277927675 18 51 56 101 102 45 56 97 ?1 29 100 105 0 96
 103 97 .00200924 -246060933471884e-33 -.0949999999999877 18 96 8 104 105 92 106
 100 ?1 29 103 104 0 86 107 100 .0024505 300099698131059e-33 -.00019999999999414
3 18 86 15 108 109 79 92 103 ?1 29 107 103 0 106 0 103 .0024505 300099698131059e
-33 -.0945995399851937 18 106 6 110 111 96 0 107 ?1 81 1 110 215 27 106 0 0 112
 108 113 17 111 0 114 115 116 106 109 117 0 118 -15 255 114 23 0 115 119 0 17 11
5 0 114 109 111 106 120 121 0 120 +17 116 0 114 111 109 86 122 123 0 124 -17 109
 0 114 116 115 86 111 117 0 122 +16 117 24 125 ?109 126 127 128 0 0 1 17 118 0 1
29 120 130 106 131 132 0 115 -15 129 4 0 120 133 0 17 120 0 129 131 118 106 115
 121 0 0 -17 130 0 129 118 131 96 105 134 0 131 -17 131 0 129 130 120 96 118 132
 0 0 +16 132 7 135 ?131 134 121 136 0 0 1 81 1 135 265 137 132 138 0 139 140 141
 16 134 9 139 ?105 142 132 143 0 0 1 16 121 5 140 ?115 132 0 144 0 0 1 30 136 12
7 0 132 145 146 0 +.00227962 -27917293362723e-32 -.0947546199999877 -.7405123474
92995 90686607608639e-30 -.672042754004843 30 145 126 0 126 147 136 0 +-.0040010
373654841 -.001155 .000500000000019895 -480616027976259e-30 1 303426638144598e-4
6 31 255 146 128 0 142 136 143 0 +372085813395725e-45 0 585805709496512e-29 -631
328587650818e-31 0 -1 -1 0 631328587650818e-31 .0026505 16 142 12 148 ?149 150 1
34 146 0 0 1 31 143 129 0 134 146 151 0 +0 0 -.0949999999999877 0 0 -1 -1 0 0 .0
0200924 31 151 130 0 150 143 152 0 +.0026505 -324592634114006e-33 -.000199999999
994143 -122464679914735e-30 -1 773154534076793e-47 1 -122464679914735e-30 -60856
8137511597e-31 2e-4 16 150 14 153 ?124 123 142 151 0 0 1 31 152 131 0 123 151 15
4 0 +-126265717526443e-34 0 -.000199999999994143 566324742208303e-31 0 1 -1 0 56
6324742208303e-31 .0024505 16 123 16 155 ?122 127 150 152 0 0 1 30 154 132 0 156
 152 157 0 +-.000349740658628973 .00482192286340599 .000500000000019895 .8660254
03784439 -.5 -546746595040959e-31 16 156 44 158 ?159 160 161 154 0 0 1 31 157 13
3 0 127 154 162 0 +492344730983153e-45 0 775858544077579e-29 -631328587650818e-3
1 0 -1 1 0 -631328587650818e-31 .00331132486539699 16 127 19 163 ?164 117 123 15
7 0 0 1 30 162 134 0 165 157 128 0 +-.00435077802411307 .002108077136594 .000500
000000019895 .866025403784439 .5 -546746595040959e-31 16 165 37 166 ?167 168 169
 162 0 0 1 30 128 135 0 117 162 170 0 +.0024505 -300099698131059e-33 -.047499999
9999909 631328587650818e-31 0 1 30 170 136 0 171 128 172 0 +-.0040010373654841 -
.00231 .00176328638964621 631328587650818e-31 0 1 16 171 30 173 ?174 175 126 170
 0 0 1 30 172 137 0 169 170 176 0 +-.0040010373654841 .00231 .00176328638964621
 631328587650818e-31 0 1 16 169 34 177 ?178 165 175 172 0 0 1 30 176 138 0 179 1
72 180 0 +-194289029309402e-32 -.00462 .00176328638964621 631328587650818e-31 0
 1 16 179 64 181 ?182 183 184 176 0 0 1 134 255 180 139 0 168 176 185 0 +186 187
 16 168 39 188 ?99 161 165 180 0 0 1 30 185 140 0 161 180 189 0 +-33306690738754
7e-32 .00462 .00176328638964621 -631328587650818e-31 0 -1 136 255 186 2 3 4 2 5
 FFT1 190 191 192 135 255 187 2 0 45 255 12 190 971174788396184e-32 .00462 .0030
2657277927675 1 -.00231 .00400103736548409 .00426478521767485 1.15470053837925 -
.00400103736548411 .00231 .00302657277927675 1 127 255 2 191 3 3 128 255 2 192 0
 .467495664763171 16 161 41 193 ?194 156 168 185 0 0 1 134 189 141 0 160 185 195
 0 +196 197 16 160 46 198 ?82 199 156 189 0 0 1 30 195 142 0 199 189 200 0 +.004
0010373654841 .00231 .00176328638964621 631328587650818e-31 0 1 136 196 2 3 4 2
 5 FFT1 201 202 203 135 197 2 0 45 12 201 .0040010373654841 .00231 .003026572779
27675 1 .00231 .00400103736548409 .00426478521767485 1.15470053837925 -551755845
145451e-32 .00462 .00302657277927675 1 127 2 202 3 3 128 2 203 0 .46749566476317
 16 199 48 204 ?205 206 160 195 0 0 1 30 200 143 0 206 195 207 0 +.0040010373654
841 .001155 .000500000000019895 720924041964389e-30 -1 -455139957216897e-46 16 2
06 51 208 ?209 210 199 200 0 0 1 134 207 144 0 210 200 211 0 +212 213 16 210 53
 214 ?60 215 206 207 0 0 1 134 211 145 0 215 207 216 0 +217 218 136 212 2 3 4 2
 5 FFT1 219 220 221 135 213 2 0 45 12 219 .004310518682742065 -624500451351652e-
33 .003645678998475815 1.07735026918963 .004310518682742065 .001155000000000012
 .003645678998475815 1.07735026918963 .0040010373654841 .00231 .0030265727792767
5 1 127 2 220 3 3 128 2 221 .233747832381585 .467495664763171 16 215 55 222 ?33
 223 210 211 0 0 1 30 216 146 0 223 211 224 0 +.0040010373654841 -.00231 .001763
28638964621 631328587650818e-31 0 1 136 217 2 3 4 2 5 FFT1 225 226 227 135 218 2
 0 45 12 225 .0040010373654841 -.00231 .00302657277927675 1 .004310518682742065
 -.001155 .003645678998475815 1.07735026918963 .004310518682742065 -624500451351
652e-33 .003645678998475815 1.07735026918963 127 2 226 3 3 128 2 227 0 .23374783
2381585 16 223 57 228 ?229 230 215 216 0 0 1 30 224 147 0 230 216 231 0 +.001650
77802411308 -.00366692286340599 .000500000000019895 -.866025403784438 -.5 546746
595040959e-31 16 230 60 232 ?233 184 223 224 0 0 1 30 231 148 0 183 224 234 0 +-
.00235025934137102 -.003263077136594 .000500000000019895 -.866025403784439 .5 54
6746595040959e-31 16 183 67 235 ?78 236 179 231 0 0 1 134 234 149 0 236 231 237
 0 +238 239 16 236 68 240 ?44 241 183 234 0 0 1 30 237 150 0 241 234 242 0 +.003
45566243269849 -423196593713796e-33 .000250000000013827 .500000000001538 -612323
39957556e-30 .866025403783551 136 238 2 3 4 2 5 FFT1 243 244 245 135 239 2 0 45
 12 243 -.0040010373654841 -.00231 .00302657277927675 1 -.00231 -.00400103736548
41 .00426478521767485 1.15470053837925 148897120380034e-31 -.00462 .003026572779
27675 1 127 2 244 3 3 128 2 245 0 .467495664763171 16 241 71 246 ?41 43 236 237
 0 0 1 31 242 151 0 43 237 19 0 +315664293837995e-34 0 .000500000000019895 -6313
28587650818e-31 0 -1 1 0 -631328587650818e-31 .0036 16 43 73 247 ?35 24 241 242
 0 0 1 31 19 152 0 24 242 7 0 +220965005678562e-33 0 .00350000000001225 -6313285
87650818e-31 0 -1 1 0 -631328587650818e-31 .0038 16 24 78 248 ?32 10 43 19 0 0 1
 81 1 248 237 137 24 249 0 22 247 250 17 32 0 31 34 23 11 251 24 0 251 +15 31 81
 0 82 252 0 17 34 0 31 60 32 56 23 10 0 33 -17 251 0 253 251 251 11 32 24 0 0 -1
5 253 77 0 251 254 0 14 255 254 76 255 ?256 252 253 5 257 +0 0 256 252 21 81 1 2
55 358 258 254 259 0 0 260 261 14 256 74 260 ?262 254 263 5 264 +0 0 262 254 21
 14 252 80 265 ?254 16 31 5 18 +0 0 254 16 21 50 257 99 0 254 266 264 0 +-.0038
 0 .00350000000001225 631328587650818e-31 0 1 1 0 -631328587650818e-31 13 21 2 0
 0 0 0 0 0 9 16 14 16 83 267 ?252 0 268 5 6 +0 0 252 0 21 81 1 267 361 258 16 11
2 0 265 269 270 15 268 85 0 42 16 271 17 42 0 268 42 42 26 35 43 0 41 -15 271 84
 0 209 16 0 17 209 0 271 233 159 52 64 206 0 0 +17 233 0 271 78 209 45 55 230 0
 0 +17 159 0 271 209 167 61 89 156 0 0 +17 64 0 272 205 273 61 209 206 0 274 -15
 272 50 0 64 275 0 17 205 0 272 276 64 57 274 199 0 277 +17 273 0 272 64 278 52
 229 223 0 209 -17 274 0 279 89 277 61 205 199 0 159 -15 279 43 0 89 280 0 17 89
 0 279 281 274 83 159 156 0 194 -17 277 0 279 274 281 57 82 160 0 0 -17 281 0 27
9 277 89 65 194 161 0 282 -17 82 0 31 99 60 65 277 160 0 281 +17 99 0 31 283 82
 70 282 168 0 178 +17 60 0 31 82 34 57 276 210 0 205 +17 276 0 272 278 205 56 60
 210 0 0 -17 278 0 272 273 276 51 33 215 0 0 -17 33 0 31 23 102 56 278 215 0 276
 +17 102 0 31 33 44 51 284 184 0 229 +17 44 0 31 102 283 36 69 236 0 182 +17 284
 0 285 286 229 36 102 184 0 0 -16 184 62 287 ?102 179 230 147 0 0 1 17 229 0 285
 284 55 51 273 223 0 278 +15 285 59 0 55 288 0 17 55 0 285 229 286 52 233 230 0
 273 -17 286 0 285 55 284 45 182 179 0 233 -17 182 0 289 69 50 36 286 179 0 284
 +15 289 66 0 50 290 0 17 69 0 289 291 182 66 44 236 0 283 -17 50 0 289 182 291
 45 78 183 0 286 -17 291 0 289 50 69 75 174 171 0 292 -17 78 0 271 293 233 75 50
 183 0 291 +17 293 0 271 167 78 71 292 126 0 0 +17 167 0 271 159 293 83 74 165 0
 0 +17 292 0 294 174 295 75 293 126 0 0 -16 126 27 296 ?293 171 117 145 0 0 1 81
 1 296 258 137 126 297 0 173 125 298 80 7 CCCCCDI12 legal_owners0 17 1 lCZ1 137
 0 299 8001 0 0 0 0 3 5 0 0 0 FFFFTFTFFFFFFFFFF2 81 1 297 157 27 126 0 296 300 1
38 301 81 1 173 257 137 171 302 0 303 296 304 81 1 125 259 137 117 305 0 296 163
 306 83 255 3 298 .627451002597809 .627451002597809 .627451002597809 81 1 305 16
6 27 117 0 125 307 302 308 81 1 163 260 137 127 309 0 125 155 310 83 3 306 .6274
51002597809 .627451002597809 .627451002597809 81 1 309 164 27 127 0 163 311 307
 312 81 1 155 261 137 123 313 0 163 153 314 83 3 310 .627451002597809 .627451002
597809 .627451002597809 81 1 313 162 27 123 0 155 315 311 316 81 1 153 262 137 1
50 315 0 155 148 317 83 3 314 .627451002597809 .627451002597809 .627451002597809
 81 1 315 161 27 150 0 153 318 313 319 81 1 148 263 137 142 320 0 153 139 321 83
 3 317 .627451002597809 .627451002597809 .627451002597809 81 1 320 159 27 142 0
 148 138 318 322 81 1 139 264 137 134 318 0 148 135 323 83 3 321 .62745100259780
9 .627451002597809 .627451002597809 81 1 318 160 27 134 0 139 320 315 324 83 3 3
23 .627451002597809 .627451002597809 .627451002597809 80 1 27 325 326 9000 0 0 0
 0 3 6 0 0 0 TTTFTFTTFFFFFFFFF10 98 255 3 324 49 51 48 79 255 19 326 SPAATTRIB_U
NICODEID81 1 138 158 27 132 0 135 297 320 327 98 3 322 49 51 49 98 3 327 49 50 5
7 98 3 319 49 51 50 81 1 311 163 27 156 0 158 313 309 328 98 3 316 49 51 51 81 1
 158 251 137 156 311 0 198 193 329 98 3 328 49 52 51 81 1 198 250 137 160 330 0
 204 158 331 81 1 193 252 137 161 332 0 158 188 333 83 3 329 .627451002597809 .6
27451002597809 .627451002597809 81 1 332 171 27 161 0 193 334 330 335 81 1 188 2
53 137 168 334 0 193 166 336 83 3 333 .627451002597809 .627451002597809 .6274510
02597809 81 1 334 170 27 168 0 188 337 332 338 81 1 166 254 137 165 307 0 188 17
7 339 83 3 336 .627451002597809 .627451002597809 .627451002597809 81 1 307 165 2
7 165 0 166 309 305 340 81 1 177 255 137 169 341 0 166 303 342 83 3 339 .6274510
02597809 .627451002597809 .627451002597809 81 1 341 168 27 169 0 177 302 337 343
 81 1 303 256 137 175 344 0 177 173 345 83 3 342 .627451002597809 .6274510025978
09 .627451002597809 16 175 32 303 ?283 169 171 346 0 0 1 81 1 344 154 27 175 0 3
03 0 347 348 83 3 345 .627451002597809 .627451002597809 .627451002597809 81 1 34
7 155 27 121 0 140 344 300 349 98 3 348 49 51 56 81 1 140 266 137 121 347 0 135
 0 350 81 1 300 156 27 184 0 287 347 297 351 98 3 349 49 50 56 81 1 287 243 137
 184 300 0 181 232 352 98 3 351 49 53 49 81 1 181 242 137 179 337 0 235 287 353
 81 1 232 244 137 230 354 0 287 228 355 83 3 352 .627451002597809 .6274510025978
09 .627451002597809 81 1 354 178 27 230 0 232 356 357 358 81 1 228 245 137 223 3
56 0 232 222 359 83 3 355 .627451002597809 .627451002597809 .627451002597809 81
 1 356 177 27 223 0 228 360 354 361 81 1 222 246 137 215 360 0 228 214 362 83 3
 359 .627451002597809 .627451002597809 .627451002597809 81 1 360 176 27 215 0 22
2 363 356 364 81 1 214 247 137 210 363 0 222 208 365 83 3 362 .627451002597809 .
627451002597809 .627451002597809 81 1 363 175 27 210 0 214 366 360 367 81 1 208
 248 137 206 366 0 214 204 368 83 3 365 .627451002597809 .627451002597809 .62745
1002597809 81 1 366 174 27 206 0 208 369 363 370 81 1 204 249 137 199 369 0 208
 198 371 83 3 368 .627451002597809 .627451002597809 .627451002597809 81 1 369 17
3 27 199 0 204 330 366 372 83 3 371 .627451002597809 .627451002597809 .627451002
597809 81 1 330 172 27 160 0 198 332 369 373 98 3 372 49 52 53 98 3 373 49 52 52
 98 3 370 49 52 54 98 3 367 49 52 55 98 3 364 49 52 56 98 3 361 49 52 57 81 1 35
7 179 27 183 0 235 354 374 375 98 3 358 49 53 48 81 1 235 241 137 183 357 0 240
 181 376 81 1 374 180 27 236 0 240 357 377 378 98 3 375 49 53 51 81 1 240 240 13
7 236 374 0 246 235 379 81 1 377 181 27 241 0 246 374 380 381 98 3 378 49 53 52
 81 1 246 239 137 241 377 0 247 240 382 81 1 380 182 27 43 0 247 377 249 383 98
 3 381 49 53 53 81 1 247 238 137 43 380 0 248 246 384 81 1 249 183 27 24 0 248 3
80 385 386 98 3 383 49 53 54 81 1 385 184 27 10 0 22 249 387 388 98 3 386 49 53
 55 81 1 22 236 137 10 385 0 389 248 390 81 1 387 186 27 133 391 269 385 392 393
 98 3 388 49 53 56 14 133 3 269 ?0 394 129 5 395 +0 0 0 394 21 81 1 391 185 137
 133 0 387 0 396 397 81 1 269 362 258 133 387 0 267 398 399 81 1 392 188 27 400
 396 398 387 401 402 98 3 393 50 50 52 14 400 17 398 ?394 119 403 5 404 +0 0 394
 119 21 81 1 396 187 137 400 0 392 391 405 406 81 1 398 363 258 400 392 0 269 40
7 408 81 1 401 190 27 394 405 407 392 409 410 98 3 402 50 50 54 14 394 10 407 ?1
33 400 411 5 412 -0 0 133 400 21 81 1 405 189 137 394 0 401 396 413 414 81 1 407
 364 258 394 401 0 398 415 416 81 1 409 192 27 262 413 415 401 417 418 98 3 410
 50 50 53 14 262 69 415 ?290 256 39 5 419 +0 0 290 256 21 81 1 413 191 137 262 0
 409 405 420 421 81 1 415 365 258 262 409 0 407 422 423 81 1 417 194 27 119 420
 422 409 424 425 98 3 418 50 51 52 14 119 22 422 ?400 426 114 5 427 +0 0 400 426
 21 81 1 420 193 137 119 0 417 413 428 429 81 1 422 366 258 119 417 0 415 430 43
1 81 1 424 196 27 426 428 430 417 432 433 98 3 425 50 50 55 14 426 25 430 ?119 4
34 294 5 435 -0 0 119 434 21 81 1 428 195 137 426 0 424 420 436 437 81 1 430 367
 258 426 424 0 422 438 439 81 1 432 198 27 434 436 438 424 440 441 98 3 433 50 5
0 56 14 434 35 438 ?426 280 442 5 443 -0 0 426 280 21 81 1 436 197 137 434 0 432
 428 444 445 81 1 438 368 258 434 432 0 430 446 447 81 1 440 200 27 280 444 446
 432 448 449 98 3 441 50 50 57 14 280 42 446 ?434 275 279 5 450 -0 0 434 275 21
 81 1 444 199 137 280 0 440 436 451 452 81 1 446 369 258 280 440 0 438 453 454 8
1 1 448 202 27 275 451 453 440 455 456 98 3 449 50 51 48 14 275 49 453 ?280 288
 272 5 457 -0 0 280 288 21 81 1 451 201 137 275 0 448 444 458 459 81 1 453 370 2
58 275 448 0 446 460 461 81 1 455 204 27 288 458 460 448 462 463 98 3 456 50 51
 49 14 288 58 460 ?275 290 285 5 464 -0 0 275 290 21 81 1 458 203 137 288 0 455
 451 465 466 81 1 460 371 258 288 455 0 453 467 468 81 1 462 206 27 290 465 467
 455 259 469 98 3 463 50 51 50 14 290 65 467 ?288 262 289 5 266 -0 0 288 262 21
 81 1 465 205 137 290 0 462 458 470 471 81 1 467 372 258 290 462 0 460 0 472 81
 1 259 208 27 254 470 255 462 473 474 98 3 469 50 51 51 81 1 470 207 137 254 0 2
59 465 475 476 81 1 473 210 27 256 475 260 259 477 478 98 3 474 50 51 54 81 1 47
5 209 137 256 0 473 470 479 480 81 1 260 359 258 256 473 0 255 265 481 81 1 477
 212 27 252 479 265 473 112 482 98 3 478 50 51 53 81 1 479 211 137 252 0 477 475
 389 483 81 1 265 360 258 252 477 0 260 267 484 81 1 112 214 27 16 389 267 477 1
10 485 98 3 482 50 51 55 81 1 389 213 137 16 0 112 479 22 486 98 3 485 50 51 56
 83 3 486 .627450980392157 .627450980392157 .627450980392157 80 1 258 487 488 90
00 1 1 1 1 1 1 1 1 0 FFFFTFTFFFFFFFFFF1 82 255 1 484 536281201 79 14 488 SWEntUn
changed83 3 483 .627450980392157 .627450980392157 .627450980392157 82 1 481 5362
15665 83 3 480 .627450980392157 .627450980392157 .627450980392157 83 3 476 .6274
50980392157 .627450980392157 .627450980392157 82 1 472 545194097 83 3 471 .62745
0980392157 .627450980392157 .627450980392157 50 266 98 0 290 464 257 0 +44408920
9850063e-32 -.00462 0 .5 .866025403784439 0 0 0 -1 50 464 97 0 288 457 266 0 +.0
040010373654841 -.00231 0 -.5 .866025403784438 0 0 0 1 50 457 96 0 275 450 464 0
 +.0040010373654841 .00231 0 -1 -720924041964389e-30 0 -720924041964389e-30 1 0
 50 450 95 0 280 443 457 0 +111022302462516e-32 .00462 0 -.5 -.866025403784439 0
 -.866025403784439 .5 0 50 443 94 0 434 435 450 0 +-.0040010373654841 .00231 0 .
5 -.866025403784439 0 0 0 -1 50 435 93 0 426 427 443 0 +-.0040010373654841 -.002
31 0 1 480616027976259e-30 0 -480616027976259e-30 1 0 51 255 427 92 0 119 419 43
5 0 +-299881079134081e-32 0 -.0474999999999909 0 0 -1 .0024505 -1 0 0 52 255 419
 91 0 262 412 427 0 +157832146921459e-34 0 .000250000000013827 0 0 1 .0034556624
3269849 .500000000001537 .866025403783551 -1 0 0 54 255 412 90 0 394 404 419 0 +
-126265717526443e-34 0 -.000199999999994143 -584225412011133e-31 0 -1 .0026505 2
e-4 -1 0 584225412011133e-31 50 404 89 0 400 395 412 0 +-.0025 0 585823415317538
e-29 -631328587650818e-31 0 -1 -1 0 631328587650818e-31 52 395 88 0 133 0 404 0
 +0 0 -.0947546199999877 0 0 1 .00227962 .740512347492995 .672042754004843 -1 0
 0 82 1 468 544997489 83 3 466 .627450980392157 .627450980392157 .62745098039215
7 82 1 461 544800881 83 3 459 .627450980392157 .627450980392157 .627450980392157
 82 1 454 544604273 83 3 452 .627450980392157 .627450980392157 .627450980392157
 82 1 447 544407665 83 3 445 .627450980392157 .627450980392157 .627450980392157
 15 442 36 0 74 434 0 17 74 0 442 178 194 71 167 165 0 295 -17 178 0 442 282 74
 70 295 169 0 489 +17 194 0 442 74 282 83 281 161 0 167 +17 295 0 294 292 489 71
 178 169 0 293 -15 294 26 0 292 426 0 17 489 0 294 295 174 70 283 175 0 0 -17 17
4 0 294 489 292 66 291 171 0 0 +17 283 0 31 44 99 66 489 175 0 174 +17 282 0 442
 194 178 65 99 168 0 0 -82 1 439 544211057 83 3 437 .627450980392157 .6274509803
92157 .627450980392157 82 1 431 544014449 83 3 429 .627450980392157 .62745098039
2157 .627450980392157 82 1 423 543817841 83 3 421 .627450980392157 .627450980392
157 .627450980392157 15 39 70 0 490 262 0 17 490 0 39 41 40 79 164 127 0 0 -17 4
1 0 39 35 490 26 40 241 0 0 +17 40 0 39 490 35 79 41 241 0 164 -17 164 0 491 164
 164 79 490 127 0 490 +15 491 18 0 164 400 0 82 1 416 543621233 83 3 414 .627450
980392157 .627450980392157 .627450980392157 15 411 11 0 149 394 0 17 149 0 411 1
24 95 92 492 142 0 492 +17 124 0 411 122 149 86 95 150 0 0 +17 95 0 411 149 122
 92 124 150 0 149 -17 492 0 403 492 492 92 149 142 0 0 -15 403 21 0 492 400 491
 17 122 0 411 95 124 86 116 123 0 116 +82 1 408 543424625 83 3 406 .627450980392
157 .627450980392157 .627450980392157 82 1 399 543228017 83 3 397 .6274509803921
57 .627450980392157 .627450980392157 83 3 390 .627451002597809 .627451002597809
 .627451002597809 83 3 384 .627451002597809 .627451002597809 .627451002597809 83
 3 382 .627451002597809 .627451002597809 .627451002597809 83 3 379 .627451002597
809 .627451002597809 .627451002597809 83 3 376 .627451002597809 .627451002597809
 .627451002597809 81 1 337 169 27 179 0 181 341 334 493 83 3 353 .62745100259780
9 .627451002597809 .627451002597809 98 3 493 49 53 50 83 3 350 .627451002597809
 .627451002597809 .627451002597809 134 346 123 0 175 0 144 0 +494 495 31 144 124
 0 121 346 147 0 +-597233939712694e-32 0 -.0945995399851937 0 0 1 -1 0 0 .002450
5 136 494 2 3 4 2 5 FFT1 496 497 498 135 495 2 0 45 12 496 -.0040010373654841 .0
0231 .00302657277927675 1 -.00462 -2083209576915525e-33 .00426478521767485 1.154
70053837925 -.0040010373654841 -.00231 .00302657277927675 1 127 2 497 3 3 128 2
 498 0 .467495664763169 134 147 125 0 184 144 145 0 +499 500 136 499 2 3 4 2 5 F
FT1 501 502 503 135 500 2 0 45 12 501 -42992139446212e-31 -.00462 .0030265727792
7675 1 .00231 -.004001037365484125 .004264785217674885 1.15470053837926 .0040010
3736548411 -.00231 .00302657277927675 1 127 2 502 3 3 128 2 503 0 .4674956647631
71 81 1 302 167 27 171 0 173 305 341 504 98 3 343 49 51 57 98 3 504 49 51 55 98
 3 340 49 52 48 98 3 338 49 52 49 98 3 335 49 52 50 83 3 331 .627451002597809 .6
27451002597809 .627451002597809 98 3 312 49 51 52 98 3 308 49 51 53 83 3 304 .62
7451002597809 .627451002597809 .627451002597809 98 3 301 49 51 54 79 15 299 SDL/
TYSA_COLOUR82 1 270 536477809 50 264 100 0 256 257 18 0 +-610622663543836e-32 0
 -.0949999999999877 -631328587650818e-31 0 -1 -1 0 631328587650818e-31 52 18 101
 0 252 264 6 0 +206020598747442e-33 0 .0032632863896445 0 0 -1 .00421 .866025403
78444 .5 -1 0 0 15 263 75 0 105 256 0 17 105 0 263 105 105 96 130 134 0 130 +82
 1 261 536084593 83 3 250 .627451002597809 .627451002597809 .627451002597809 83
 3 141 .627451002597809 .627451002597809 .627451002597809 81 1 108 216 27 86 0 0
 110 104 505 98 3 113 49 48 56 81 1 104 217 27 96 0 0 108 101 506 98 3 505 49 49
 49 81 1 101 218 27 51 0 0 104 98 507 98 3 506 49 48 57 81 1 98 219 27 70 0 0 10
1 94 508 98 3 507 49 50 51 81 1 94 220 27 92 0 0 98 91 509 98 3 508 49 49 54 81
 1 91 221 27 56 0 0 94 88 510 98 3 509 49 49 48 81 1 88 222 27 83 0 0 91 85 511
 98 3 510 49 50 50 81 1 85 223 27 79 0 0 88 81 512 98 3 511 49 49 55 81 1 81 224
 27 65 0 0 85 77 513 98 3 512 49 49 50 81 1 77 225 27 75 0 0 81 73 514 98 3 513
 49 49 56 81 1 73 226 27 71 0 0 77 68 515 98 3 514 49 49 51 81 1 68 227 27 66 0
 0 73 63 516 98 3 515 49 49 52 81 1 63 228 27 61 0 0 68 59 517 98 3 516 49 49 53
 81 1 59 229 27 57 0 0 63 54 518 98 3 517 49 49 57 81 1 54 230 27 52 0 0 59 49 5
19 98 3 518 49 50 48 81 1 49 231 27 45 0 0 54 37 520 98 3 519 49 50 49 81 1 37 2
32 27 36 0 0 49 28 521 98 3 520 49 50 52 98 3 521 49 50 53 98 3 38 49 50 54 81 1
 29 269 27 1 522 523 25 0 524 98 3 30 49 50 55 81 1 522 268 525 1 526 29 0 0 527
 81 1 523 271 528 1 29 529 0 0 530 98 2 524 49 52 80 1 528 531 532 8051 0 0 0 0
 3 5 0 0 0 TFTFFFFFFFFFFFFFF1 81 2 529 273 533 1 523 534 0 0 0 535 82 1 530 0 80
 2 533 536 537 9000 0 0 0 0 3 5 0 0 0 FFTFFFFFFFFFFFFFF9 1 81 2 534 274 538 1 52
9 539 0 0 540 0 82 1 535 38 80 2 538 541 542 9000 0 0 0 0 3 5 0 0 0 FFTFTTTFFTFF
FFFFF10 10 81 2 539 275 543 1 534 544 0 0 0 545 98 8 540 66 111 100 121 49 91 49
 93 80 2 543 546 547 9000 0 0 0 0 3 5 0 0 0 FFTFFFFFFFFFFFFFF9 1 81 2 544 308 54
8 1 539 13 0 0 0 0 82 1 545 103 80 2 548 549 550 9000 0 0 0 0 3 5 0 0 0 FFTFFFFF
FFFFFFFFF9 1 81 1 13 324 551 1 544 2 0 0 552 80 1 551 553 554 9000 1 1 1 1 1 1 1
 1 0 FFTFFFFFFFFFFFFFF1 82 1 552 8032 79 10 554 BODY_MATCH79 16 550 BODY_RECIPE_
200179 19 547 ENT_TIME_STAMP_200179 23 542 SWIMPLICITBODYNAME_ID_U79 30 537 LAST
_BODY_MODIFYING_FEATURE_ID79 21 532 SDL/TYSA_SCALE_FACTOR80 1 525 27 555 9000 0
 0 0 0 3 5 0 0 0 TFTFTFTFFFFFFFFFF10 81 1 526 267 556 1 557 522 0 0 558 98 35 52
7 73 83 79 32 52 48 49 55 32 45 32 77 53 32 120 32 57 53 32 83 116 101 101 108 3
2 49 50 46 57 32 80 108 97 105 110 80 1 556 559 560 8038 0 0 0 0 0 0 0 0 0 TTTTT
TTTTTTTTFTFT10 81 1 557 235 561 1 0 526 0 0 562 98 5 558 66 111 100 121 49 80 1
 561 137 563 8040 0 0 0 0 3 5 0 0 0 TTTFFFFFFFFFFFFFF2 83 3 562 .627451002597809
 .627451002597809 .627451002597809 79 17 563 SDL/TYSA_COLOUR_279 14 560 SDL/TYSA
_UNAME79 22 555 ATTRIB_XPARASOLID_NAME19 17 86 0 1 0 9 5 0 S0 74 4 CI16 index_ma
p_offset0 0 1 dCCZ20 15 13 0 0 29 140 557 526 522 523 529 534 539 544 467 13 2 0
 0 0 0 0 0 0 80 2 12 564 565 9000 0 0 0 0 3 5 0 0 0 FFTFFFFFFFFFFFFFF9 1 82 1 14
 101 79 12 565 ATOM_ID_20011 0 
