**ABCDEFGHIJKLMNOPQRSTUVWXYZabcdefghijklmnopqrstuvwxyz**************************
**PARASOLID !"#$%&'()*+,-./:;<=>?@[\]^_`{|}~0123456789**************************
**PART1;
MC=AMD64;
MC_MODEL=Intel64 Family 6 Model 154 Stepping 3, GenuineIntel;
MC_ID=unknown;
OS=Windows_NT;
OS_RELEASE=unknown;
FRU=Parasolid Version 36.1, build 228,  1-18-2025;
APPL=SOLIDWORKS 2025-2025268;
SITE=;
USER=unknown;
FORMAT=text;
GUISE=transmit;
KEY=Hexagon Head Screw ISO 4017 - M5 x 100 Steel 12.9 Plain;
FILE=Hexagon Head Screw ISO 4017 - M5 x 100 Steel 12.9 Plain.x_t;
DATE=Sat Feb 28 20:29:52 2026;
**PART2;
SCH=SCH_3601228_36001;
USFLD_SIZE=0;
**PART3;
**END_OF_HEADER*****************************************************************
T51 : TRANSMIT FILE created by modeller version 360122823 SCH_3601228_36001_1300
6231 0 12 36 CCCI7 lattice222 0 CCCI4 mesh1006 0 I8 polyline1008 0 CCCCCCCDI5 ow
ner1040 0 CCCI16 boundary_lattice222 0 CCCI13 boundary_mesh1006 0 I17 boundary_p
olyline1008 0 CCCA16 index_map_offset0 0 1 dA9 index_map82 0 A17 node_id_index_m
ap82 0 A20 schema_embedding_map82 0 A5 child12 0 A14 lowest_node_id0 0 1 dA16 me
sh_offset_data206 0 Z1 372 2 3 0 0 0 0 0 0 0 1e3 1e-8 0 4 0 1 0 1 1 5 0 6 7 8 0
 0 9 10 11 0 0 0 0 0 0 0 81 255 2 2 357 12 1 13 0 0 0 0 14 70 11 CI9 list_type0
 0 1 uI10 notransmit0 0 1 lCCCDCCDI12 finger_index0 0 1 dI12 finger_block1012 0
 CZ3 0 4 T1 0 0 13 20 1 15 15 13 255 5 87 0 1 0 16 0 0 17 0 52 255 6 102 0 18 19
 0 0 +222525254332664e-33 0 .0032632863896445 0 0 -1 .00421 .86602540378444 .5 -
1 0 0 30 255 7 153 0 10 20 0 0 +.00421 -515576302441035e-33 .0032632863896445 -.
866025403784439 106057523872491e-30 .5 29 255 8 122 0 11 21 0 .0038 -46536578367
5993e-33 .00350000000001225 19 9 CCCCCCI5 frame230 0 CA5 owner12 0 Z9 1 0 1 17 0
 22 0 V0 16 255 10 82 23 ?24 0 25 7 0 0 1 18 255 11 79 26 24 0 27 8 ?1 81 1 26 2
34 28 11 0 0 29 30 31 17 255 24 0 32 33 34 11 35 10 0 33 +18 27 72 29 36 11 37 2
1 ?1 81 1 29 233 28 27 0 0 38 26 39 17 36 0 40 41 42 27 43 44 0 43 +18 37 63 38
 45 27 46 47 ?1 29 21 121 0 27 47 8 .0036 -440872847693046e-33 .0005000000000198
96 29 47 120 0 37 48 21 428488518765698e-32 -.00462 .00302657277927675 29 48 119
 0 46 49 47 -166533453693773e-32 -.00462 .000500000000015665 18 46 61 50 51 37 5
2 48 ?1 29 49 118 0 53 54 48 .0040010373654841 .00231 .00302657277927675 18 53 4
7 55 56 57 58 49 ?1 29 54 117 0 59 60 49 111022302462516e-32 .00462 .00302657277
927675 18 59 40 61 62 58 63 54 ?1 29 60 116 0 58 64 54 .0040010373654841 .00231
 .000500000000015665 18 58 45 65 66 53 59 60 ?1 29 64 115 0 63 67 60 -3053113317
71918e-32 .00462 .000500000000015665 18 63 38 68 69 59 70 64 ?1 29 67 114 0 70 7
1 64 -.0040010373654841 .00231 .00302657277927675 18 70 33 72 73 63 74 67 ?1 29
 71 113 0 74 75 67 -.0040010373654841 -.00231 .00302657277927675 18 74 31 76 77
 70 78 71 ?1 29 75 112 0 79 80 71 -.0040010373654841 -.00231 .000500000000015665
 18 79 28 81 82 78 83 75 ?1 29 80 111 0 83 84 75 .00331132486539699 -40552033973
4546e-33 775858544077579e-29 18 83 20 85 41 79 86 80 ?1 29 84 110 0 86 87 80 .00
24505 300099698131059e-33 -.000199999999994143 18 86 15 88 89 83 90 84 ?1 29 87
 109 0 57 91 84 .0040010373654841 -.00231 .000500000000015665 18 57 52 92 93 94
 53 87 ?1 29 91 108 0 90 95 87 .0026505 -324592634114006e-33 585824803753359e-29
 18 90 13 96 97 86 98 91 ?1 29 95 107 0 78 99 91 -.0040010373654841 .00231 .0005
00000000015665 18 78 29 100 101 74 79 95 ?1 29 99 106 0 52 102 95 .0040010373654
841 -.00231 .00302657277927675 18 52 56 103 104 46 94 99 ?1 29 102 105 0 98 105
 99 .00200924 -246060933471882e-33 -.0999999999999955 18 98 8 106 107 90 108 102
 ?1 29 105 104 0 94 109 102 .0040010373654841 -373806954868368e-33 .003383931022
93282 18 94 54 110 35 52 57 105 ?1 29 109 103 0 108 0 105 .0024505 3000996981310
59e-33 -.0995995399852015 18 108 6 111 112 98 0 109 ?1 81 1 111 215 28 108 0 0 1
13 110 114 17 112 0 115 116 117 108 89 118 0 119 -15 255 115 23 0 116 120 0 17 1
16 0 115 89 112 108 121 122 0 121 +17 117 0 115 112 89 86 123 124 0 125 -17 89 0
 115 117 116 86 112 118 0 123 +16 118 24 126 ?89 127 128 129 0 0 1 17 119 0 130
 121 131 108 132 133 0 116 -15 130 4 0 121 134 0 17 121 0 130 132 119 108 116 12
2 0 0 -17 131 0 130 119 132 98 107 135 0 132 -17 132 0 130 131 121 98 119 133 0
 0 +16 133 7 136 ?132 135 122 137 0 0 1 81 1 136 265 138 133 139 0 140 141 142 1
6 135 9 140 ?107 143 133 144 0 0 1 16 122 5 141 ?116 133 0 145 0 0 1 30 137 126
 0 133 146 147 0 +.00227962 -279172933627228e-33 -.0997546199999955 -.7405123474
92999 906866076086394e-31 -.672042754004838 134 255 146 125 0 148 149 137 0 +150
 151 30 147 127 0 152 137 144 0 +-.0040010373654841 -.00231 .00176328638964621 -
659129253987564e-32 0 1 16 152 30 153 ?154 155 127 147 0 0 1 31 255 144 128 0 13
5 147 156 0 +0 0 -.0999999999999955 0 0 -1 -1 0 0 .00200924 30 156 129 0 127 144
 157 0 +-.0040010373654841 -.001155 .000500000000019895 -480616027976259e-30 1 -
316788083974458e-47 16 127 27 158 ?159 152 118 156 0 0 1 31 157 130 0 160 156 16
1 0 +.0026505 -324592634114006e-33 -.000199999999994143 -122464679914735e-30 -1
 -807200531120253e-48 1 -122464679914735e-30 121713627502319e-31 2e-4 16 160 14
 162 ?125 124 143 157 0 0 1 31 161 131 0 124 157 129 0 +245352788076142e-33 0 -.
000199999999994143 0 0 1 -1 0 0 .0024505 16 124 16 163 ?123 128 160 161 0 0 1 30
 129 132 0 118 161 164 0 +.0024505 -300099698131059e-33 -.0499999999999948 -6591
29253987564e-32 0 1 30 164 133 0 165 129 166 0 +-305311331771918e-32 .00462 .001
76328638964621 659129253987564e-32 0 -1 16 165 41 167 ?168 169 170 164 0 0 1 31
 166 134 0 128 164 171 0 +244034529568154e-33 0 775879360759291e-29 659129253987
564e-32 0 -1 1 0 659129253987564e-32 .00331132486539699 16 128 19 172 ?173 118 1
24 166 0 0 1 134 171 135 0 155 166 174 0 +175 176 16 155 32 177 ?178 179 152 171
 0 0 1 134 174 136 0 180 171 181 0 +182 183 136 255 175 2 3 4 2 5 FFT1 184 185 1
86 135 255 176 2 0 45 255 12 184 -.0040010373654841 .00231 .00302657277927675 1
 -.00462 -2243456467447485e-33 .00426478521767485 1.15470053837925 -.00400103736
54841 -.00231 .00302657277927675 1 127 255 2 185 3 3 128 255 2 186 0 .4674956647
63169 16 180 46 187 ?62 188 169 174 0 0 1 30 181 137 0 179 174 189 0 +-.00400103
73654841 .00231 .00176328638964621 -659129253987564e-32 0 1 136 182 2 3 4 2 5 FF
T1 190 191 192 135 183 2 0 45 12 190 .0040010373654841 .00231 .00302657277927675
 1 .00231 .004001037365484125 .004264785217674885 1.15470053837926 -276138599724
967e-32 .00462 .00302657277927675 1 127 2 191 3 3 128 2 192 0 .46749566476317 16
 179 34 193 ?194 195 155 181 0 0 1 30 189 138 0 195 181 196 0 +-.004350778024113
07 .002108077136594 .000500000000019895 .866025403784439 .5 570822678330716e-32
 16 195 37 197 ?198 170 179 189 0 0 1 30 196 139 0 169 189 199 0 +-.000349740658
628973 .00482192286340599 .000500000000019895 .866025403784439 -.5 5708226783307
16e-32 16 169 44 200 ?201 180 165 196 0 0 1 134 199 140 0 170 196 202 0 +203 204
 16 170 39 205 ?73 165 195 199 0 0 1 30 202 141 0 188 199 206 0 +.00400103736548
41 .00231 .00176328638964621 -659129253987564e-32 0 1 136 203 2 3 4 2 5 FFT1 207
 208 209 135 204 2 0 45 12 207 363492266362519e-32 .00462 .00302657277927675 1 -
.00231 .004001037365484125 .004264785217674885 1.15470053837926 -.00400103736548
41 .00231 .00302657277927675 1 127 2 208 3 3 128 2 209 0 .467495664763169 16 188
 48 210 ?211 212 180 202 0 0 1 30 206 142 0 212 202 213 0 +.0040010373654841 .00
1155 .000500000000019895 720924041964389e-30 -1 475182125961687e-47 16 212 51 21
4 ?215 216 188 206 0 0 1 134 213 143 0 216 206 217 0 +218 219 16 216 53 220 ?56
 148 212 213 0 0 1 30 217 144 0 221 213 222 0 +.0040010373654841 -.00231 .001763
28638964621 -659129253987564e-32 0 1 136 218 2 3 4 2 5 FFT1 223 224 225 135 219
 2 0 45 12 223 .004310518682742025 -2775557561562875e-34 .00364567899847578 1.07
735026918962 .004310518682742065 .001155 .003645678998475815 1.07735026918963 .0
040010373654841 .00231 .00302657277927675 1 127 2 224 3 3 128 2 225 .23374783238
1585 .467495664763169 16 221 57 226 ?227 228 148 217 0 0 1 30 222 145 0 228 217
 229 0 +.00165077802411308 -.00366692286340599 .000500000000019895 -.86602540378
4438 -.5 -570822678330716e-32 16 228 60 230 ?231 232 221 222 0 0 1 134 229 146 0
 232 222 233 0 +234 235 16 232 62 236 ?104 237 228 229 0 0 1 30 233 147 0 237 22
9 238 0 +-166533453693773e-32 -.00462 .00176328638964621 -659129253987564e-32 0
 1 136 234 2 3 4 2 5 FFT1 239 240 241 135 235 2 0 45 12 239 -154304149041636e-32
 -.00462 .00302657277927675 1 .00231 -.004001037365484125 .004264785217674885 1.
15470053837926 .00400103736548411 -.00231 .00302657277927675 1 127 2 240 3 3 128
 2 241 0 .46749566476317 16 237 64 242 ?243 244 232 233 0 0 1 30 238 148 0 244 2
33 245 0 +-.00235025934137102 -.003263077136594 .000500000000019895 -.8660254037
84439 .5 -570822678330717e-32 16 244 67 246 ?82 247 237 238 0 0 1 134 245 149 0
 247 238 248 0 +249 250 16 247 68 251 ?45 252 244 245 0 0 1 30 248 150 0 252 245
 253 0 +.00345566243269849 -423196593713796e-33 .000250000000013827 .50000000000
1538 -61232339957556e-30 .866025403783551 136 249 2 3 4 2 5 FFT1 254 255 256 135
 250 2 0 45 12 254 -.0040010373654841 -.00231 .00302657277927675 1 -.00231 -.004
0010373654841 .00426478521767485 1.15470053837925 112495758313334e-31 -.00462 .0
0302657277927675 1 127 2 255 3 3 128 2 256 0 .46749566476317 16 252 71 257 ?42 4
4 247 248 0 0 1 31 253 151 0 44 248 20 0 +240738883298137e-33 0 .000500000000019
895 659129253987564e-32 0 -1 1 0 659129253987564e-32 .0036 16 44 73 258 ?36 25 2
52 253 0 0 1 31 20 152 0 25 253 7 0 +22096500567856e-32 0 .00350000000001225 659
129253987564e-32 0 -1 1 0 659129253987564e-32 .0038 16 25 78 259 ?33 10 44 20 0
 0 1 81 1 259 237 138 25 260 0 23 258 261 17 33 0 32 35 24 11 262 25 0 262 +15 3
2 81 0 62 18 0 17 35 0 32 56 33 94 24 10 0 34 -17 262 0 263 262 262 11 33 25 0 0
 -15 263 77 0 262 264 0 14 255 264 76 265 ?266 18 263 5 19 +0 0 266 18 22 81 1 2
65 358 267 264 268 0 0 269 270 14 266 74 269 ?271 264 272 5 273 +0 0 271 264 22
 14 18 80 274 ?264 16 32 5 6 +0 0 264 16 22 50 255 19 101 0 264 275 6 0 +-.0038
 0 .00350000000001225 -659129253987564e-32 0 1 1 0 659129253987564e-32 13 22 2 0
 0 0 0 0 0 9 16 14 16 83 276 ?18 0 277 5 278 +0 0 18 0 22 81 1 276 361 267 16 27
9 0 274 280 281 15 277 85 0 43 16 282 50 278 99 0 16 283 275 0 +-.0036 0 .000500
000000019895 659129253987564e-32 0 -1 0 -1 0 50 283 98 0 284 285 278 0 +.0040010
373654841 .00231 0 -1 -720924041964389e-30 0 -720924041964389e-30 1 0 50 275 100
 0 286 278 19 0 +444089209850063e-32 -.00462 0 .5 .866025403784439 0 0 0 -1 14 2
86 65 280 ?287 271 288 5 275 -0 0 287 271 22 81 1 280 362 267 286 289 0 276 290
 291 14 287 58 290 ?284 286 292 5 293 -0 0 284 286 22 14 271 69 294 ?286 266 40
 5 295 +0 0 286 266 22 15 288 66 0 51 286 0 17 51 0 288 243 296 46 82 244 0 297
 -17 243 0 288 77 51 37 297 237 0 298 +17 296 0 288 51 77 79 154 152 0 299 -17 8
2 0 282 159 231 79 51 244 0 296 +17 297 0 292 93 298 46 243 237 0 231 -15 292 59
 0 93 287 0 17 93 0 292 227 297 57 231 228 0 300 -17 298 0 292 297 227 37 104 23
2 0 0 -17 231 0 282 82 215 46 93 228 0 0 +15 282 84 0 215 16 0 17 215 0 282 231
 201 57 66 212 0 0 +17 201 0 282 215 198 58 69 169 0 0 +17 66 0 301 211 300 58 2
15 212 0 302 -15 301 50 0 66 284 0 17 211 0 301 303 66 53 302 188 0 304 +17 300
 0 301 66 305 57 227 221 0 215 -17 302 0 306 69 304 58 211 188 0 201 -15 306 43
 0 69 307 0 17 69 0 306 308 302 63 201 169 0 168 -17 304 0 306 302 308 53 62 180
 0 0 -17 308 0 306 304 69 59 168 165 0 309 -17 62 0 32 73 56 59 304 180 0 308 +1
7 73 0 32 178 62 70 309 170 0 194 +17 56 0 32 62 35 53 303 216 0 211 +17 303 0 3
01 305 211 94 56 216 0 0 -17 305 0 301 300 303 52 34 148 0 0 -17 34 0 32 24 104
 94 305 148 0 303 +16 148 55 310 ?34 221 216 146 0 0 1 81 1 310 246 138 148 311
 0 226 220 312 80 7 CCCCCDI12 legal_owners0 17 1 lCZ1 138 0 313 8001 0 0 0 0 3 5
 0 0 0 FFFFTFTFFFFFFFFFF2 81 1 311 156 28 148 0 310 314 139 315 81 1 226 245 138
 221 316 0 230 310 317 81 1 220 247 138 216 318 0 310 214 319 83 255 3 312 .6274
51002597809 .627451002597809 .627451002597809 81 1 318 174 28 216 0 220 320 316
 321 81 1 214 248 138 212 320 0 220 210 322 83 3 319 .627451002597809 .627451002
597809 .627451002597809 81 1 320 173 28 212 0 214 323 318 324 81 1 210 249 138 1
88 323 0 214 187 325 83 3 322 .627451002597809 .627451002597809 .627451002597809
 81 1 323 172 28 188 0 210 326 320 327 81 1 187 250 138 180 328 0 210 200 329 83
 3 325 .627451002597809 .627451002597809 .627451002597809 81 1 328 167 28 180 0
 187 330 331 332 81 1 200 251 138 169 333 0 187 167 334 83 3 329 .62745100259780
9 .627451002597809 .627451002597809 81 1 333 170 28 169 0 200 335 326 336 81 1 1
67 252 138 165 337 0 200 205 338 83 3 334 .627451002597809 .627451002597809 .627
451002597809 81 1 337 164 28 165 0 167 339 340 341 81 1 205 253 138 170 326 0 16
7 197 342 83 3 338 .627451002597809 .627451002597809 .627451002597809 81 1 326 1
71 28 170 0 205 333 323 343 81 1 197 254 138 195 335 0 205 193 344 83 3 342 .627
451002597809 .627451002597809 .627451002597809 81 1 335 169 28 195 0 197 331 333
 345 81 1 193 255 138 179 331 0 197 177 346 83 3 344 .627451002597809 .627451002
597809 .627451002597809 81 1 331 168 28 179 0 193 328 335 347 81 1 177 256 138 1
55 330 0 193 153 348 83 3 346 .627451002597809 .627451002597809 .627451002597809
 81 1 330 166 28 155 0 177 340 328 349 81 1 153 257 138 152 350 0 177 158 351 83
 3 348 .627451002597809 .627451002597809 .627451002597809 81 1 350 158 28 152 0
 153 139 352 353 81 1 158 258 138 127 354 0 153 126 355 83 3 351 .62745100259780
9 .627451002597809 .627451002597809 81 1 354 160 28 127 0 158 352 356 357 81 1 1
26 259 138 118 339 0 158 172 358 83 3 355 .627451002597809 .627451002597809 .627
451002597809 81 1 339 163 28 118 0 126 359 337 360 81 1 172 260 138 128 340 0 12
6 163 361 83 3 358 .627451002597809 .627451002597809 .627451002597809 81 1 340 1
65 28 128 0 172 337 330 362 81 1 163 261 138 124 359 0 172 162 363 83 3 361 .627
451002597809 .627451002597809 .627451002597809 81 1 359 162 28 124 0 163 356 339
 364 81 1 162 262 138 160 356 0 163 365 366 83 3 363 .627451002597809 .627451002
597809 .627451002597809 81 1 356 161 28 160 0 162 354 359 367 81 1 365 263 138 1
43 314 0 162 140 368 83 3 366 .627451002597809 .627451002597809 .627451002597809
 16 143 12 365 ?369 160 135 149 0 0 1 81 1 314 155 28 143 0 365 370 311 371 81 1
 140 264 138 135 352 0 365 136 372 83 3 368 .627451002597809 .627451002597809 .6
27451002597809 81 1 352 159 28 135 0 140 350 354 373 83 3 372 .627451002597809 .
627451002597809 .627451002597809 80 1 28 374 375 9000 0 0 0 0 3 6 0 0 0 TTTFTFTT
FFFFFFFFF10 98 255 3 373 49 51 48 79 255 19 375 SPAATTRIB_UNICODEID81 1 370 154
 28 122 0 141 0 314 376 98 3 371 49 51 49 81 1 141 266 138 122 370 0 136 0 377 9
8 3 376 49 50 56 83 3 377 .627451002597809 .627451002597809 .627451002597809 17
 369 0 378 125 97 90 379 143 0 379 +31 149 124 0 143 145 146 0 +244034529568167e
-33 0 585823056731272e-29 659129253987564e-32 0 -1 -1 0 -659129253987564e-32 .00
26505 31 145 123 0 122 0 149 0 +90052423444771e-32 0 -.0995995399852015 0 0 1 -1
 0 0 .0024505 15 378 11 0 369 380 0 17 125 0 378 123 369 86 97 160 0 0 +17 97 0
 378 369 123 90 125 160 0 369 -17 379 0 381 379 379 90 369 143 0 0 -15 381 21 0
 379 382 383 14 382 17 384 ?380 120 381 5 385 +0 0 380 120 22 15 383 18 0 173 38
2 0 17 173 0 383 173 173 83 386 128 0 386 +17 386 0 40 42 41 83 173 128 0 0 -15
 40 70 0 386 271 0 17 42 0 40 36 386 27 41 252 0 0 +17 41 0 40 386 36 83 42 252
 0 173 -81 1 384 365 267 382 387 0 294 388 389 14 380 10 388 ?134 382 378 5 390
 -0 0 134 382 22 14 120 22 391 ?382 392 115 5 393 +0 0 382 392 22 50 385 90 0 38
2 390 273 0 +-.0025 0 585823415317538e-29 659129253987564e-32 0 -1 0 -1 0 54 255
 390 89 0 380 394 385 0 +245352788076142e-33 0 -.000199999999994143 973709020018
555e-32 0 -1 .0026505 2e-4 -1 0 -973709020018555e-32 50 273 91 0 266 385 393 0 +
111022302462516e-32 0 -.0999999999999955 659129253987564e-32 0 -1 0 -1 0 51 255
 393 92 0 120 273 293 0 +573599156561953e-33 0 -.0499999999999948 0 0 -1 .002450
5 -1 0 0 50 293 93 0 287 393 395 0 +.0040010373654841 -.00231 0 -.5 .86602540378
4438 0 0 0 1 50 395 94 0 392 293 396 0 +-.0040010373654841 -.00231 0 1 480616027
976259e-30 0 -480616027976259e-30 1 0 14 392 25 397 ?120 398 399 5 395 -0 0 120
 398 22 50 396 95 0 398 395 295 0 +-.0040010373654841 .00231 0 .5 -.866025403784
439 0 0 0 -1 14 398 35 400 ?392 307 401 5 396 -0 0 392 307 22 52 295 96 0 271 39
6 285 0 +242386706433145e-33 0 .000250000000013827 0 0 1 .00345566243269849 .500
000000001537 .866025403783551 -1 0 0 50 285 97 0 307 295 283 0 +111022302462516e
-32 .00462 0 -.5 -.866025403784439 0 -.866025403784439 .5 0 14 307 42 402 ?398 2
84 306 5 285 -0 0 398 284 22 81 1 402 370 267 307 403 0 400 404 405 14 284 49 40
4 ?307 287 301 5 283 -0 0 307 287 22 81 1 404 371 267 284 406 0 402 407 408 80 1
 267 409 410 9000 1 1 1 1 1 1 1 1 0 FFFFTFTFFFFFFFFFF1 81 1 406 206 28 284 411 4
04 403 279 412 81 1 407 372 267 134 413 0 404 0 414 82 255 1 408 668008561 14 13
4 3 407 ?0 380 130 5 394 +0 0 0 380 22 81 1 413 186 28 134 415 407 416 417 418 8
2 1 414 668860529 81 1 415 185 138 134 0 413 0 419 420 81 1 416 184 28 10 0 23 2
60 413 421 81 1 417 188 28 380 419 388 413 387 422 98 3 418 50 50 52 81 1 419 18
7 138 380 0 417 415 423 424 81 1 388 366 267 380 417 0 384 391 425 81 1 387 190
 28 382 423 384 417 426 427 98 3 422 50 50 53 81 1 423 189 138 382 0 387 419 428
 429 81 1 426 192 28 266 428 269 387 430 431 98 3 427 50 50 54 81 1 428 191 138
 266 0 426 423 432 433 81 1 269 359 267 266 426 0 265 274 434 81 1 430 194 28 12
0 432 391 426 435 436 98 3 431 50 51 53 81 1 432 193 138 120 0 430 428 437 438 8
1 1 391 367 267 120 430 0 388 397 439 81 1 435 196 28 287 437 290 430 440 441 98
 3 436 50 50 55 81 1 437 195 138 287 0 435 432 442 443 81 1 290 363 267 287 435
 0 280 294 444 81 1 440 198 28 392 442 397 435 445 446 98 3 441 50 51 50 81 1 44
2 197 138 392 0 440 437 447 448 81 1 397 368 267 392 440 0 391 400 449 81 1 445
 200 28 398 447 400 440 450 451 98 3 446 50 50 56 81 1 447 199 138 398 0 445 442
 452 453 81 1 400 369 267 398 445 0 397 402 454 81 1 450 202 28 271 452 294 445
 403 455 98 3 451 50 50 57 81 1 452 201 138 271 0 450 447 456 457 81 1 294 364 2
67 271 450 0 290 384 458 81 1 403 204 28 307 456 402 450 406 459 98 3 455 50 51
 52 81 1 456 203 138 307 0 403 452 411 460 98 3 459 50 51 48 81 1 411 205 138 28
4 0 406 456 461 462 83 3 460 .627450980392157 .627450980392157 .627450980392157
 81 1 461 207 138 16 0 279 411 463 464 83 3 462 .627450980392157 .62745098039215
7 .627450980392157 81 1 279 208 28 16 461 276 406 289 465 81 1 463 209 138 286 0
 289 461 466 467 83 3 464 .627450980392157 .627450980392157 .627450980392157 81
 1 289 210 28 286 463 280 279 268 468 81 1 466 211 138 264 0 268 463 469 470 83
 3 467 .627450980392157 .627450980392157 .627450980392157 81 1 268 212 28 264 46
6 265 289 113 471 81 1 469 213 138 18 0 113 466 23 472 83 3 470 .627450980392157
 .627450980392157 .627450980392157 81 1 113 214 28 18 469 274 268 111 473 81 1 2
3 236 138 10 416 0 469 259 474 83 3 472 .627450980392157 .627450980392157 .62745
0980392157 83 3 474 .627451002597809 .627451002597809 .627451002597809 81 1 274
 360 267 18 113 0 269 276 475 98 3 473 50 51 55 82 1 475 660340849 98 3 471 50 5
1 54 98 3 468 50 51 51 98 3 465 50 51 56 82 1 458 661127281 83 3 457 .6274509803
92157 .627450980392157 .627450980392157 82 1 454 667680881 83 3 453 .62745098039
2157 .627450980392157 .627450980392157 82 1 449 667549809 83 3 448 .627450980392
157 .627450980392157 .627450980392157 82 1 444 661061745 83 3 443 .6274509803921
57 .627450980392157 .627450980392157 82 1 439 667091057 83 3 438 .62745098039215
7 .627450980392157 .627450980392157 82 1 434 660275313 83 3 433 .627450980392157
 .627450980392157 .627450980392157 83 3 429 .627450980392157 .627450980392157 .6
27450980392157 82 1 425 667025521 83 3 424 .627450980392157 .627450980392157 .62
7450980392157 81 1 260 183 28 25 0 259 476 416 477 98 3 421 49 53 56 81 1 476 18
2 28 44 0 258 478 260 479 98 3 477 49 53 55 81 1 258 238 138 44 476 0 259 257 48
0 81 1 478 181 28 252 0 257 481 476 482 98 3 479 49 53 54 81 1 257 239 138 252 4
78 0 258 251 483 81 1 481 180 28 247 0 251 484 478 485 98 3 482 49 53 53 81 1 25
1 240 138 247 481 0 257 246 486 81 1 484 179 28 244 0 246 487 481 488 98 3 485 4
9 53 52 81 1 246 241 138 244 484 0 251 242 489 81 1 487 178 28 237 0 242 490 484
 491 98 3 488 49 53 51 81 1 242 242 138 237 487 0 246 236 492 81 1 490 177 28 23
2 0 236 493 487 494 98 3 491 49 53 50 81 1 236 243 138 232 490 0 242 230 495 81
 1 493 176 28 228 0 230 316 490 496 98 3 494 49 53 49 81 1 230 244 138 228 493 0
 236 226 497 81 1 316 175 28 221 0 226 318 493 498 98 3 496 49 53 48 98 3 498 49
 52 57 83 3 497 .627451002597809 .627451002597809 .627451002597809 83 3 495 .627
451002597809 .627451002597809 .627451002597809 83 3 492 .627451002597809 .627451
002597809 .627451002597809 83 3 489 .627451002597809 .627451002597809 .627451002
597809 83 3 486 .627451002597809 .627451002597809 .627451002597809 83 3 483 .627
451002597809 .627451002597809 .627451002597809 83 3 480 .627451002597809 .627451
002597809 .627451002597809 83 3 420 .627450980392157 .627450980392157 .627450980
392157 52 394 88 0 134 0 390 0 +0 0 -.0997546199999955 0 0 1 .00227962 .74051234
7492999 .672042754004838 -1 0 0 98 3 412 50 51 49 79 14 410 SWEntUnchanged82 1 4
05 667877489 15 401 36 0 101 398 0 17 101 0 401 194 168 78 198 195 0 499 -17 194
 0 401 309 101 70 499 179 0 500 +17 168 0 401 101 309 63 308 165 0 198 +17 198 0
 282 201 159 63 101 195 0 0 +17 499 0 399 299 500 78 194 179 0 159 -15 399 26 0
 299 392 0 17 299 0 399 154 499 79 159 127 0 0 -17 500 0 399 499 154 70 178 155
 0 0 -17 159 0 282 198 82 78 299 127 0 0 +17 154 0 399 500 299 74 296 152 0 0 +1
7 178 0 32 45 73 74 500 155 0 154 +17 45 0 32 104 178 37 77 247 0 243 +17 104 0
 32 34 45 52 298 232 0 227 +17 77 0 288 296 243 74 45 247 0 178 -17 227 0 292 29
8 93 52 300 221 0 305 +17 309 0 401 168 194 59 73 170 0 0 -82 1 389 666501233 17
 123 0 378 97 125 86 117 124 0 117 +98 3 367 49 51 50 98 3 364 49 51 51 98 3 362
 49 51 52 98 3 360 49 51 53 98 3 357 49 51 54 81 1 139 157 28 133 0 136 311 350
 501 98 3 353 49 51 55 98 3 501 49 50 57 98 3 349 49 51 56 98 3 347 49 51 57 98
 3 345 49 52 48 98 3 343 49 52 49 98 3 341 49 52 50 98 3 336 49 52 51 98 3 332 4
9 52 52 98 3 327 49 52 53 98 3 324 49 52 54 98 3 321 49 52 55 83 3 317 .62745100
2597809 .627451002597809 .627451002597809 98 3 315 49 52 56 79 15 313 SDL/TYSA_C
OLOUR82 1 291 660930673 17 43 0 277 43 43 27 36 44 0 42 -82 1 281 660537457 15 2
72 75 0 107 266 0 17 107 0 272 107 107 98 131 135 0 131 +82 1 270 660144241 83 3
 261 .627451002597809 .627451002597809 .627451002597809 136 150 2 3 4 2 5 FFT1 5
02 503 504 135 151 2 0 45 12 502 .0040010373654841 -.00231 .00302657277927675 1
 .004310518682742025 -.001155 .00364567899847578 1.07735026918962 .0043105186827
42025 -2775557561562875e-34 .00364567899847578 1.07735026918962 127 2 503 3 3 12
8 2 504 0 .233747832381585 83 3 142 .627451002597809 .627451002597809 .627451002
597809 81 1 110 216 28 94 0 0 111 106 505 98 3 114 49 48 56 81 1 106 217 28 98 0
 0 110 103 506 98 3 505 49 50 50 81 1 103 218 28 52 0 0 106 100 507 98 3 506 49
 48 57 81 1 100 219 28 78 0 0 103 96 508 98 3 507 49 50 51 81 1 96 220 28 90 0 0
 100 92 509 98 3 508 49 49 52 81 1 92 221 28 57 0 0 96 88 510 98 3 509 49 49 48
 81 1 88 222 28 86 0 0 92 85 511 98 3 510 49 50 49 81 1 85 223 28 83 0 0 88 81 5
12 98 3 511 49 49 49 81 1 81 224 28 79 0 0 85 76 513 98 3 512 49 49 50 81 1 76 2
25 28 74 0 0 81 72 514 98 3 513 49 49 51 81 1 72 226 28 70 0 0 76 68 515 98 3 51
4 49 49 53 81 1 68 227 28 63 0 0 72 65 516 98 3 515 49 49 54 81 1 65 228 28 58 0
 0 68 61 517 98 3 516 49 49 55 81 1 61 229 28 59 0 0 65 55 518 98 3 517 49 49 57
 81 1 55 230 28 53 0 0 61 50 519 98 3 518 49 49 56 81 1 50 231 28 46 0 0 55 38 5
20 98 3 519 49 50 48 81 1 38 232 28 37 0 0 50 29 521 98 3 520 49 50 52 98 3 521
 49 50 53 98 3 39 49 50 54 81 1 30 269 28 1 522 523 26 0 524 98 3 31 49 50 55 81
 1 522 268 525 1 526 30 0 0 527 81 1 523 271 528 1 30 529 0 0 530 98 2 524 49 52
 80 1 528 531 532 8051 0 0 0 0 3 5 0 0 0 TFTFFFFFFFFFFFFFF1 81 2 529 273 533 1 5
23 534 0 0 0 535 82 1 530 0 80 2 533 536 537 9000 0 0 0 0 3 5 0 0 0 FFTFFFFFFFFF
FFFFF9 1 81 2 534 274 538 1 529 539 0 0 540 0 82 1 535 38 80 2 538 541 542 9000
 0 0 0 0 3 5 0 0 0 FFTFTTTFFTFFFFFFF10 10 81 2 539 275 543 1 534 544 0 0 0 545 9
8 8 540 66 111 100 121 49 91 49 93 80 2 543 546 547 9000 0 0 0 0 3 5 0 0 0 FFTFF
FFFFFFFFFFFF9 1 81 2 544 308 548 1 539 13 0 0 0 0 82 1 545 103 80 2 548 549 550
 9000 0 0 0 0 3 5 0 0 0 FFTFFFFFFFFFFFFFF9 1 81 1 13 324 551 1 544 2 0 0 552 80
 1 551 553 554 9000 1 1 1 1 1 1 1 1 0 FFTFFFFFFFFFFFFFF1 82 1 552 9923 79 10 554
 BODY_MATCH79 16 550 BODY_RECIPE_200179 19 547 ENT_TIME_STAMP_200179 23 542 SWIM
PLICITBODYNAME_ID_U79 30 537 LAST_BODY_MODIFYING_FEATURE_ID79 21 532 SDL/TYSA_SC
ALE_FACTOR80 1 525 28 555 9000 0 0 0 0 3 5 0 0 0 TFTFTFTFFFFFFFFFF10 81 1 526 26
7 556 1 557 522 0 0 558 98 36 527 73 83 79 32 52 48 49 55 32 45 32 77 53 32 120
 32 49 48 48 32 83 116 101 101 108 32 49 50 46 57 32 80 108 97 105 110 80 1 556
 559 560 8038 0 0 0 0 0 0 0 0 0 TTTTTTTTTTTTTFTFT10 81 1 557 235 561 1 0 526 0 0
 562 98 5 558 66 111 100 121 49 80 1 561 138 563 8040 0 0 0 0 3 5 0 0 0 TTTFFFFF
FFFFFFFFF2 83 3 562 .627451002597809 .627451002597809 .627451002597809 79 17 563
 SDL/TYSA_COLOUR_279 14 560 SDL/TYSA_UNAME79 22 555 ATTRIB_XPARASOLID_NAME19 17
 86 0 1 0 9 5 0 S0 74 4 CI16 index_map_offset0 0 1 dCCZ20 15 13 0 0 30 141 557 5
26 522 523 529 534 539 544 407 13 2 0 0 0 0 0 0 0 80 2 12 564 565 9000 0 0 0 0 3
 5 0 0 0 FFTFFFFFFFFFFFFFF9 1 82 1 14 101 79 12 565 ATOM_ID_20011 0 
