**ABCDEFGHIJKLMNOPQRSTUVWXYZabcdefghijklmnopqrstuvwxyz**************************
**PARASOLID !"#$%&'()*+,-./:;<=>?@[\]^_`{|}~0123456789**************************
**PART1;
MC=AMD64;
MC_MODEL=Intel64 Family 6 Model 154 Stepping 3, GenuineIntel;
MC_ID=unknown;
OS=Windows_NT;
OS_RELEASE=unknown;
FRU=Parasolid Version 36.1, build 228,  1-18-2025;
APPL=SOLIDWORKS 2025-2025268;
SITE=;
USER=unknown;
FORMAT=text;
GUISE=transmit;
KEY=Washer ISO 7093-1 - 5 Steel 100 HV Plain;
FILE=Washer ISO 7093-1 - 5 Steel 100 HV Plain.x_t;
DATE=Sat Feb 28 20:30:05 2026;
**PART2;
SCH=SCH_3601228_36001;
USFLD_SIZE=0;
**PART3;
**END_OF_HEADER*****************************************************************
T51 : TRANSMIT FILE created by modeller version 360122823 SCH_3601228_36001_1300
6231 0 12 36 CCCI7 lattice222 0 CCCI4 mesh1006 0 I8 polyline1008 0 CCCCCCCDI5 ow
ner1040 0 CCCI16 boundary_lattice222 0 CCCI13 boundary_mesh1006 0 I17 boundary_p
olyline1008 0 CCCA16 index_map_offset0 0 1 dA9 index_map82 0 A17 node_id_index_m
ap82 0 A20 schema_embedding_map82 0 A5 child12 0 A14 lowest_node_id0 0 1 dA16 me
sh_offset_data206 0 Z1 103 2 3 0 0 0 0 0 0 0 1e3 1e-8 0 4 0 1 0 1 1 5 0 6 7 8 0
 0 9 10 11 0 0 0 0 0 0 0 81 255 2 2 99 12 1 13 0 0 0 0 14 70 11 CI9 list_type0 0
 1 uI10 notransmit0 0 1 lCCCDCCDI12 finger_index0 0 1 dI12 finger_block1012 0 CZ
3 0 4 T1 0 0 13 20 1 15 15 13 255 5 24 0 1 0 16 0 0 17 0 50 255 6 28 0 16 18 0 0
 +0 0 0 0 0 1 1 0 0 31 255 7 38 0 10 19 0 0 +0 0 0 0 0 1 1 0 0 .0075 29 255 8 32
 0 11 20 0 -.0075 -918485099360515e-33 0 19 9 CCCCCCI5 frame230 0 CA5 owner12 0
 Z9 1 0 1 17 0 21 0 V0 16 255 10 16 22 ?23 0 24 7 0 0 1 18 255 11 15 25 23 0 26
 8 ?1 81 1 25 56 27 11 0 0 28 29 30 17 255 23 0 31 32 33 11 34 10 0 34 +18 26 13
 28 32 11 35 20 ?1 81 1 28 55 27 26 0 0 36 25 37 17 32 0 31 38 23 26 33 24 0 39
 -18 35 8 36 40 26 41 42 ?1 29 20 31 0 26 42 8 -.0075 -918485099360515e-33 .001
 29 42 30 0 35 43 20 -.00265 -324531401774049e-33 0 29 43 29 0 41 0 42 -.00265 -
324531401774049e-33 .001 18 41 6 44 45 35 0 43 ?1 81 1 44 53 27 41 0 0 46 36 47
 17 45 0 48 49 40 41 50 51 0 52 -15 255 48 4 0 49 53 0 17 49 0 48 50 45 41 52 54
 0 0 -17 40 0 48 45 50 35 55 56 0 55 +17 50 0 48 40 49 35 45 51 0 0 +16 51 7 57
 ?50 56 54 58 0 0 1 17 52 0 59 52 52 41 49 54 0 49 +15 59 19 0 52 60 61 16 54 5
 62 ?52 51 0 63 0 0 1 81 1 62 63 64 54 65 0 57 0 66 31 63 33 0 54 0 58 0 +0 0 .0
01 0 0 -1 1 0 0 .00265 30 255 58 34 0 51 63 67 0 +-.00265 -324531401774049e-33 0
 0 0 -1 30 67 35 0 24 58 68 0 +-.0075 -918485099360515e-33 0 0 0 -1 16 24 14 69
 ?33 10 70 67 0 0 1 31 68 36 0 56 67 19 0 +0 0 0 0 0 -1 1 0 0 .00265 16 56 9 71
 ?40 70 51 68 0 0 1 31 19 37 0 70 68 7 0 +0 0 .001 0 0 1 1 0 0 .0075 16 70 12 72
 ?39 24 56 19 0 0 1 81 1 72 60 64 70 73 0 69 71 74 17 39 0 61 39 39 26 38 70 0 3
8 +15 61 18 0 39 60 0 17 38 0 31 33 32 26 39 70 0 0 -15 31 11 0 38 75 0 17 33 0
 31 23 38 11 32 24 0 0 +14 255 75 10 76 ?53 60 31 5 77 +0 0 53 60 21 81 1 76 100
 78 75 79 0 0 80 81 14 53 3 80 ?0 75 48 5 82 -0 0 0 75 21 14 60 17 83 ?75 16 59
 5 18 +0 0 75 16 21 51 255 77 26 0 75 82 18 0 +0 0 0 0 0 1 .0075 1 0 0 13 21 2 0
 0 0 0 0 0 9 16 14 16 20 84 ?60 0 85 5 6 -0 0 60 0 21 81 1 84 103 78 16 46 0 83
 0 86 15 85 22 0 55 16 87 17 55 0 85 55 55 35 40 56 0 50 -15 87 21 0 34 16 0 17
 34 0 87 34 34 11 23 10 0 33 -80 7 CCCCCDI12 legal_owners0 17 1 lCZ1 78 88 89 90
00 1 1 1 1 1 1 1 1 0 FFFFTFTFFFFFFFFFF1 81 1 46 52 27 16 90 84 91 44 92 81 1 83
 102 78 60 91 0 80 84 93 82 255 1 86 749928561 81 1 91 50 27 60 94 83 79 46 95 8
1 1 80 101 78 53 96 0 76 83 97 82 1 93 749731953 81 1 96 46 27 53 98 80 99 79 10
0 82 1 97 749666417 80 1 27 101 102 9000 0 0 0 0 3 6 0 0 0 TTTFTFTTFFFFFFFFF10 8
1 1 98 45 64 53 0 96 0 103 104 81 1 99 44 27 10 0 22 73 96 105 81 1 79 48 27 75
 103 76 96 91 106 98 255 2 100 54 49 81 1 103 47 64 75 0 79 98 94 107 98 2 106 5
4 50 80 1 64 0 108 8001 0 0 0 0 3 5 0 0 0 FFFFTFTFFFFFFFFFF2 81 1 94 49 64 60 0
 91 103 90 109 83 255 3 107 .796078431372549 .796078431372549 .796078431372549 8
1 1 90 51 64 16 0 46 94 22 110 83 3 109 .796078431372549 .796078431372549 .79607
8431372549 81 1 22 58 64 10 99 0 90 69 111 83 3 110 .796078431372549 .7960784313
72549 .796078431372549 81 1 69 59 64 24 112 0 22 72 113 83 3 111 .79607844352722
2 .796078443527222 .796078443527222 81 1 112 41 27 24 0 69 114 115 116 83 3 113
 .796078443527222 .796078443527222 .796078443527222 81 1 114 40 27 51 0 57 65 11
2 117 81 1 115 42 27 56 0 71 112 73 118 98 2 116 52 53 81 1 71 61 64 56 115 0 72
 57 119 81 1 73 43 27 70 0 72 115 99 120 98 2 118 52 51 98 2 120 52 52 81 1 57 6
2 64 51 114 0 71 62 121 83 3 119 .796078443527222 .796078443527222 .796078443527
222 83 3 121 .796078443527222 .796078443527222 .796078443527222 81 1 65 39 27 54
 0 62 0 114 122 98 2 117 52 50 98 2 122 52 49 79 255 15 108 SDL/TYSA_COLOUR98 2
 105 52 54 83 3 104 .796078431372549 .796078431372549 .796078431372549 79 19 102
 SPAATTRIB_UNICODEID98 2 95 54 51 98 2 92 54 52 79 14 89 SWEntUnchanged51 82 25
 0 53 0 77 0 +0 0 0 0 0 1 .00265 1 0 0 50 18 27 0 60 77 6 0 +0 0 .001 0 0 1 1 0
 0 82 1 81 749535345 83 3 74 .796078443527222 .796078443527222 .796078443527222
 83 3 66 .796078443527222 .796078443527222 .796078443527222 81 1 36 54 27 35 0 0
 44 28 123 98 2 47 51 55 98 2 123 51 56 98 2 37 51 57 81 1 29 66 27 1 124 125 25
 0 126 98 2 30 52 48 81 1 124 65 127 1 128 29 0 0 129 81 1 125 68 130 1 29 131 0
 0 132 98 2 126 49 52 80 1 130 133 134 8051 0 0 0 0 3 5 0 0 0 TFTFFFFFFFFFFFFFF1
 81 2 131 70 135 1 125 136 0 0 0 137 82 1 132 0 80 2 135 138 139 9000 0 0 0 0 3
 5 0 0 0 FFTFFFFFFFFFFFFFF9 1 81 2 136 71 140 1 131 141 0 0 142 0 82 1 137 38 80
 2 140 143 144 9000 0 0 0 0 3 5 0 0 0 FFTFTTTFFTFFFFFFF10 10 81 2 141 72 145 1 1
36 146 0 0 0 147 98 8 142 66 111 100 121 49 91 49 93 80 2 145 148 149 9000 0 0 0
 0 3 5 0 0 0 FFTFFFFFFFFFFFFFF9 1 81 2 146 83 150 1 141 13 0 0 0 0 82 1 147 103
 80 2 150 151 152 9000 0 0 0 0 3 5 0 0 0 FFTFFFFFFFFFFFFFF9 1 81 1 13 88 153 1 1
46 2 0 0 154 80 1 153 155 156 9000 1 1 1 1 1 1 1 1 0 FFTFFFFFFFFFFFFFF1 82 1 154
 11368 79 10 156 BODY_MATCH79 16 152 BODY_RECIPE_200179 19 149 ENT_TIME_STAMP_20
0179 23 144 SWIMPLICITBODYNAME_ID_U79 30 139 LAST_BODY_MODIFYING_FEATURE_ID79 21
 134 SDL/TYSA_SCALE_FACTOR80 1 127 27 157 9000 0 0 0 0 3 5 0 0 0 TFTFTFTFFFFFFFF
FF10 81 1 128 64 158 1 159 124 0 0 160 98 33 129 73 83 79 32 55 48 57 51 45 49 3
2 45 32 53 32 83 116 101 101 108 32 49 48 48 32 72 86 32 80 108 97 105 110 80 1
 158 161 162 8038 0 0 0 0 0 0 0 0 0 TTTTTTTTTTTTTFTFT10 81 1 159 57 163 1 0 128
 0 0 164 98 5 160 66 111 100 121 49 80 1 163 64 165 8040 0 0 0 0 3 5 0 0 0 TTTFF
FFFFFFFFFFFF2 83 3 164 .796078443527222 .796078443527222 .796078443527222 79 17
 165 SDL/TYSA_COLOUR_279 14 162 SDL/TYSA_UNAME79 22 157 ATTRIB_XPARASOLID_NAME19
 17 23 0 1 0 9 5 0 S0 74 4 CI16 index_map_offset0 0 1 dCCZ20 15 13 0 0 29 62 159
 128 124 125 131 136 141 146 84 13 2 0 0 0 0 0 0 0 80 2 12 166 167 9000 0 0 0 0
 3 5 0 0 0 FFTFFFFFFFFFFFFFF9 1 82 1 14 101 79 12 167 ATOM_ID_20011 0 
