**ABCDEFGHIJKLMNOPQRSTUVWXYZabcdefghijklmnopqrstuvwxyz**************************
**PARASOLID !"#$%&'()*+,-./:;<=>?@[\]^_`{|}~0123456789**************************
**PART1;
MC=AMD64;
MC_MODEL=Intel64 Family 6 Model 154 Stepping 3, GenuineIntel;
MC_ID=unknown;
OS=Windows_NT;
OS_RELEASE=unknown;
FRU=Parasolid Version 36.1, build 228,  1-18-2025;
APPL=SOLIDWORKS 2025-2025268;
SITE=;
USER=unknown;
FORMAT=text;
GUISE=transmit;
KEY=27.75_upper_adjuster;
FILE=27.75_upper_adjuster.x_t;
DATE=Sat Feb 28 20:25:09 2026;
**PART2;
SCH=SCH_3601228_36001;
USFLD_SIZE=0;
**PART3;
**END_OF_HEADER*****************************************************************
T51 : TRANSMIT FILE created by modeller version 360122823 SCH_3601228_36001_1300
6231 0 12 36 CCCI7 lattice222 0 CCCI4 mesh1006 0 I8 polyline1008 0 CCCCCCCDI5 ow
ner1040 0 CCCI16 boundary_lattice222 0 CCCI13 boundary_mesh1006 0 I17 boundary_p
olyline1008 0 CCCA16 index_map_offset0 0 1 dA9 index_map82 0 A17 node_id_index_m
ap82 0 A20 schema_embedding_map82 0 A5 child12 0 A14 lowest_node_id0 0 1 dA16 me
sh_offset_data206 0 Z1 103 2 3 0 0 0 0 0 0 0 1e3 1e-8 0 4 0 1 0 1 1 5 0 6 7 8 0
 0 9 10 11 0 0 0 0 0 0 0 81 255 2 2 99 12 1 13 0 0 0 0 14 70 11 CI9 list_type0 0
 1 uI10 notransmit0 0 1 lCCCDCCDI12 finger_index0 0 1 dI12 finger_block1012 0 CZ
3 0 4 T1 0 0 13 20 1 15 15 13 255 5 24 0 1 0 16 0 0 17 0 50 255 6 28 0 16 18 0 0
 +0 0 0 0 0 1 1 0 0 30 255 7 38 0 19 20 0 0 +-.0055 -673555739531044e-33 0 0 0 -
1 29 255 8 32 0 21 22 0 -.0055 -673555739531044e-33 .02775 19 9 CCCCCCI5 frame23
0 0 CA5 owner12 0 Z9 1 0 1 17 0 23 0 V0 16 255 10 16 24 ?25 0 19 26 0 0 1 18 255
 11 15 27 25 0 21 28 ?1 81 1 27 54 29 11 0 0 30 31 32 17 255 25 0 33 34 35 11 36
 10 0 36 +18 21 13 37 34 11 38 8 ?1 29 28 30 0 11 39 22 -.0055 -673555739531044e
-33 0 29 39 29 0 40 0 28 -.002117 -259257727379495e-33 .02775 29 22 31 0 38 28 8
 -.002117 -259257727379495e-33 0 18 38 8 31 41 21 40 22 ?1 81 1 31 55 29 38 0 0
 27 37 42 17 41 0 43 44 45 38 46 47 0 46 +18 40 6 30 44 38 0 39 ?1 81 1 30 53 29
 40 0 0 48 27 49 17 44 0 43 50 41 40 45 51 0 52 -15 255 43 4 0 50 53 0 17 50 0 4
3 45 44 40 52 54 0 0 -17 45 0 43 41 50 38 44 51 0 0 +16 51 7 55 ?45 47 54 56 0 0
 1 17 52 0 57 52 52 40 50 54 0 50 +15 57 19 0 52 58 59 16 54 5 60 ?52 51 0 61 0
 0 1 81 1 60 63 62 54 63 0 55 0 64 31 255 61 33 0 54 0 56 0 +0 0 .02775 0 0 -1 1
 0 0 .002117 30 56 34 0 51 61 26 0 +-.002117 -259257727379495e-33 0 0 0 -1 31 26
 35 0 10 56 65 0 +0 0 0 0 0 1 1 0 0 .0055 31 65 36 0 47 26 20 0 +0 0 0 0 0 -1 1
 0 0 .002117 16 47 9 66 ?41 67 51 65 0 0 1 31 20 37 0 67 65 7 0 +0 0 .02775 0 0
 1 1 0 0 .0055 16 67 12 68 ?69 19 47 20 0 0 1 81 1 68 60 62 67 70 0 71 66 72 17
 69 0 59 69 69 21 73 67 0 73 +16 19 14 71 ?35 10 67 7 0 0 1 81 1 71 59 62 19 74
 0 24 68 75 17 35 0 33 25 73 11 34 19 0 0 +15 33 11 0 73 76 0 17 73 0 33 35 34 2
1 69 67 0 0 -17 34 0 33 73 25 21 35 19 0 69 -14 255 76 10 77 ?53 58 33 5 78 +0 0
 53 58 23 81 1 77 100 79 76 80 0 0 81 82 14 53 3 81 ?0 76 43 5 83 -0 0 0 76 23 1
4 58 17 84 ?76 16 57 5 18 +0 0 76 16 23 51 255 78 26 0 76 83 18 0 +0 0 0 0 0 1 .
0055 1 0 0 13 23 2 0 0 0 0 0 0 9 16 14 16 20 85 ?58 0 86 5 6 -0 0 58 0 23 81 1 8
5 103 79 16 48 0 84 0 87 15 86 22 0 46 16 88 17 46 0 86 46 46 38 41 47 0 45 -15
 88 21 0 36 16 0 17 36 0 88 36 36 11 25 10 0 35 -80 7 CCCCCDI12 legal_owners0 17
 1 lCZ1 79 89 90 9000 1 1 1 1 1 1 1 1 0 FFFFTFTFFFFFFFFFF1 81 1 48 52 29 16 91 8
5 92 30 93 81 1 84 102 79 58 92 0 81 85 94 82 255 1 87 105513073 81 1 92 50 29 5
8 95 84 80 48 96 81 1 81 101 79 53 97 0 77 84 98 82 1 94 105316465 81 1 97 46 29
 53 99 81 74 80 100 82 1 98 105250929 80 1 29 101 102 9000 0 0 0 0 3 6 0 0 0 TTT
FTFTTFFFFFFFFF10 81 1 99 45 62 53 0 97 0 103 104 81 1 74 44 29 19 0 71 70 97 105
 81 1 80 48 29 76 103 77 97 92 106 98 255 2 100 54 49 81 1 103 47 62 76 0 80 99
 95 107 98 2 106 54 50 80 1 62 0 108 8001 0 0 0 0 3 5 0 0 0 FFFFTFTFFFFFFFFFF2 8
1 1 95 49 62 58 0 92 103 91 109 83 255 3 107 .627450980392157 .627450980392157 .
627450980392157 81 1 91 51 62 16 0 48 95 24 110 83 3 109 .627450980392157 .62745
0980392157 .627450980392157 81 1 24 58 62 10 111 0 91 71 112 83 3 110 .627450980
392157 .627450980392157 .627450980392157 81 1 111 41 29 10 0 24 113 114 115 83 3
 112 .627451002597809 .627451002597809 .627451002597809 81 1 113 40 29 51 0 55 6
3 111 116 81 1 114 42 29 47 0 66 111 70 117 98 2 115 52 54 81 1 66 61 62 47 114
 0 68 55 118 81 1 70 43 29 67 0 68 114 74 119 98 2 117 52 51 98 2 119 52 52 81 1
 55 62 62 51 113 0 66 60 120 83 3 118 .627451002597809 .627451002597809 .6274510
02597809 83 3 120 .627451002597809 .627451002597809 .627451002597809 81 1 63 39
 29 54 0 60 0 113 121 98 2 116 52 50 98 2 121 52 49 79 255 15 108 SDL/TYSA_COLOU
R98 2 105 52 53 83 3 104 .627450980392157 .627450980392157 .627450980392157 79 1
9 102 SPAATTRIB_UNICODEID98 2 96 54 51 98 2 93 54 52 79 14 90 SWEntUnchanged51 8
3 25 0 53 0 78 0 +0 0 0 0 0 1 .002117 1 0 0 50 18 27 0 58 78 6 0 +0 0 .02775 0 0
 1 1 0 0 82 1 82 105119857 83 3 75 .627451002597809 .627451002597809 .6274510025
97809 15 59 18 0 69 58 0 83 3 72 .627451002597809 .627451002597809 .627451002597
809 83 3 64 .627451002597809 .627451002597809 .627451002597809 98 2 49 51 55 81
 1 37 56 29 21 0 0 31 122 123 98 2 42 51 56 81 1 122 66 29 1 124 125 37 0 126 98
 2 123 51 57 81 1 124 65 127 1 128 122 0 0 129 81 1 125 68 130 1 122 131 0 0 132
 98 2 126 49 52 80 1 130 133 134 8051 0 0 0 0 3 5 0 0 0 TFTFFFFFFFFFFFFFF1 81 2
 131 70 135 1 125 136 0 0 0 137 82 1 132 0 80 2 135 138 139 9000 0 0 0 0 3 5 0 0
 0 FFTFFFFFFFFFFFFFF9 1 81 2 136 71 140 1 131 141 0 0 142 0 82 1 137 38 80 2 140
 143 144 9000 0 0 0 0 3 5 0 0 0 FFTFTTTFFTFFFFFFF10 10 81 2 141 72 145 1 136 146
 0 0 0 147 98 8 142 66 111 100 121 49 91 49 93 80 2 145 148 149 9000 0 0 0 0 3 5
 0 0 0 FFTFFFFFFFFFFFFFF9 1 81 2 146 83 150 1 141 13 0 0 0 0 82 1 147 103 80 2 1
50 151 152 9000 0 0 0 0 3 5 0 0 0 FFTFFFFFFFFFFFFFF9 1 81 1 13 88 153 1 146 2 0
 0 154 80 1 153 155 156 9000 1 1 1 1 1 1 1 1 0 FFTFFFFFFFFFFFFFF1 82 1 154 1537
 79 10 156 BODY_MATCH79 16 152 BODY_RECIPE_200179 19 149 ENT_TIME_STAMP_200179 2
3 144 SWIMPLICITBODYNAME_ID_U79 30 139 LAST_BODY_MODIFYING_FEATURE_ID79 21 134 S
DL/TYSA_SCALE_FACTOR80 1 127 29 157 9000 0 0 0 0 3 5 0 0 0 TFTFTFTFFFFFFFFFF10 8
1 1 128 64 158 1 159 124 0 0 160 98 20 129 50 55 46 55 53 95 117 112 112 101 114
 95 97 100 106 117 115 116 101 114 80 1 158 161 162 8038 0 0 0 0 0 0 0 0 0 TTTTT
TTTTTTTTFTFT10 81 1 159 57 163 1 0 128 0 0 164 98 5 160 66 111 100 121 49 80 1 1
63 62 165 8040 0 0 0 0 3 5 0 0 0 TTTFFFFFFFFFFFFFF2 83 3 164 .627451002597809 .6
27451002597809 .627451002597809 79 17 165 SDL/TYSA_COLOUR_279 14 162 SDL/TYSA_UN
AME79 22 157 ATTRIB_XPARASOLID_NAME98 2 32 52 48 19 17 23 0 1 0 9 5 0 S0 74 4 CI
16 index_map_offset0 0 1 dCCZ20 15 13 0 0 122 60 159 128 124 125 131 136 141 146
 85 13 2 0 0 0 0 0 0 0 80 2 12 166 167 9000 0 0 0 0 3 5 0 0 0 FFTFFFFFFFFFFFFFF9
 1 82 1 14 101 79 12 167 ATOM_ID_20011 0 
