**ABCDEFGHIJKLMNOPQRSTUVWXYZabcdefghijklmnopqrstuvwxyz**************************
**PARASOLID !"#$%&'()*+,-./:;<=>?@[\]^_`{|}~0123456789**************************
**PART1;
MC=AMD64;
MC_MODEL=Intel64 Family 6 Model 154 Stepping 3, GenuineIntel;
MC_ID=unknown;
OS=Windows_NT;
OS_RELEASE=unknown;
FRU=Parasolid Version 36.1, build 228,  1-18-2025;
APPL=SOLIDWORKS 2025-2025268;
SITE=;
USER=unknown;
FORMAT=text;
GUISE=transmit;
KEY=Hexagon Head Screw ISO 4017 - M5 x 45 Steel 12.9 Plain;
FILE=Hexagon Head Screw ISO 4017 - M5 x 45 Steel 12.9 Plain.x_t;
DATE=Sat Feb 28 20:25:48 2026;
**PART2;
SCH=SCH_3601228_36001;
USFLD_SIZE=0;
**PART3;
**END_OF_HEADER*****************************************************************
T51 : TRANSMIT FILE created by modeller version 360122823 SCH_3601228_36001_1300
6231 0 12 36 CCCI7 lattice222 0 CCCI4 mesh1006 0 I8 polyline1008 0 CCCCCCCDI5 ow
ner1040 0 CCCI16 boundary_lattice222 0 CCCI13 boundary_mesh1006 0 I17 boundary_p
olyline1008 0 CCCA16 index_map_offset0 0 1 dA9 index_map82 0 A17 node_id_index_m
ap82 0 A20 schema_embedding_map82 0 A5 child12 0 A14 lowest_node_id0 0 1 dA16 me
sh_offset_data206 0 Z1 372 2 3 0 0 0 0 0 0 0 1e3 1e-8 0 4 0 1 0 1 1 5 0 6 7 8 0
 0 9 10 11 0 0 0 0 0 0 0 81 255 2 2 357 12 1 13 0 0 0 0 14 70 11 CI9 list_type0
 0 1 uI10 notransmit0 0 1 lCCCDCCDI12 finger_index0 0 1 dI12 finger_block1012 0
 CZ3 0 4 T1 0 0 13 20 1 15 15 13 255 5 87 0 1 0 16 0 0 17 0 50 255 6 102 0 16 18
 0 0 +-.0036 0 .00050000000000589 -86024055148976e-30 0 -1 -1 0 86024055148976e-
30 31 255 7 153 0 19 20 0 0 +-37107159768762e-33 0 .00050000000000589 -860240551
48976e-30 0 -1 1 0 -86024055148976e-30 .0036 29 255 8 122 0 11 21 0 .0038 -46536
5783675993e-33 .00350000000000724 19 9 CCCCCCI5 frame230 0 CA5 owner12 0 Z9 1 0
 1 17 0 22 0 V0 16 255 10 82 23 ?24 0 25 26 0 0 1 18 255 11 79 27 24 0 28 8 ?1 8
1 1 27 234 29 11 0 0 30 31 32 17 255 24 0 33 34 35 11 36 10 0 34 +18 28 72 30 37
 11 38 21 ?1 81 1 30 233 29 28 0 0 39 27 40 17 37 0 41 42 43 28 44 19 0 44 +18 3
8 63 39 45 28 46 47 ?1 29 21 121 0 28 47 8 .0036 -440872847693046e-33 .000500000
00000589 29 47 120 0 38 48 21 62052023947789e-31 -.00462 .00302657277927175 29 4
8 119 0 46 49 47 444089209850063e-32 -.00462 .000500000000001659 18 46 61 50 51
 38 52 48 ?1 29 49 118 0 52 53 48 .0040010373654841 -.00231 .00302657277927175 1
8 52 56 54 55 46 56 49 ?1 29 53 117 0 57 58 49 .0040010373654841 .00231 .0030265
7277927175 18 57 47 59 60 61 62 53 ?1 29 58 116 0 62 63 53 .00400103736548409 .0
0231 .000500000000001659 18 62 45 64 65 57 66 58 ?1 29 63 115 0 66 67 58 -333066
907387547e-32 .00462 .00302657277927175 18 66 40 68 69 62 70 63 ?1 29 67 114 0 7
1 72 63 -.0040010373654841 .00231 .00302657277927175 18 71 33 73 74 70 75 67 ?1
 29 72 113 0 61 76 67 .0040010373654841 -.00231 .000500000000001659 18 61 52 77
 78 56 57 72 ?1 29 76 112 0 79 80 72 -.0040010373654841 .00231 .0005000000000016
6 18 79 29 81 82 75 83 76 ?1 29 80 111 0 83 84 76 -.0040010373654841 -.00231 .00
050000000000166 18 83 28 85 86 79 87 80 ?1 29 84 110 0 75 88 80 -.00400103736548
41 -.00231 .00302657277927175 18 75 31 89 90 71 79 84 ?1 29 88 109 0 87 91 84 .0
0331132486540626 -405520339735682e-33 775865482971483e-29 18 87 20 92 42 83 93 8
8 ?1 29 91 108 0 93 94 88 .0024505 300099698131059e-33 -.000199999999994143 18 9
3 15 95 96 87 97 91 ?1 29 94 107 0 70 98 91 277555756156289e-33 .00462 .00050000
0000001659 18 70 38 99 100 66 71 94 ?1 29 98 106 0 97 101 94 .0026505 -324592634
114006e-33 585779439373743e-29 18 97 13 102 103 93 104 98 ?1 29 101 105 0 104 10
5 98 .00200924 -246060933471885e-33 -.0449999999999965 18 104 8 106 107 97 108 1
01 ?1 29 105 104 0 108 109 101 .0024505 300099698131059e-33 -.0445995399852025 1
8 108 6 110 111 104 0 105 ?1 29 109 103 0 56 0 105 .0040010373654841 -5026210295
91283e-33 .00338393102292782 18 56 54 112 36 52 61 109 ?1 81 1 112 215 29 56 0 0
 113 110 114 17 36 0 33 60 34 56 24 10 0 35 -15 255 33 81 0 69 115 0 17 60 0 33
 69 36 57 116 117 0 118 +17 34 0 33 36 24 11 119 25 0 119 +17 35 0 33 24 55 56 1
20 121 0 116 +17 55 0 33 35 45 52 122 123 0 124 +17 120 0 125 126 116 52 35 121
 0 0 -16 121 55 127 ?35 128 117 129 0 0 1 17 116 0 125 120 118 56 60 117 0 0 -15
 125 50 0 65 130 0 17 118 0 125 116 65 57 131 132 0 133 +16 117 53 134 ?60 121 1
35 136 0 0 1 81 1 134 247 137 117 138 0 127 139 140 16 135 51 139 ?141 117 132 1
42 0 0 1 134 255 136 145 0 117 142 129 0 +143 144 30 255 142 144 0 135 145 136 0
 +.0040010373654841 .001155 .000500000000005889 841078048958453e-30 -1 -72352944
4681951e-46 134 129 146 0 121 136 146 0 +147 148 136 255 143 2 3 4 2 5 FFT1 149
 150 151 135 255 144 2 0 45 255 12 149 .004310518682742025 -555111512312576e-33
 .003645678998470395 1.07735026918962 .004310518682742025 .001155 .0036456789984
70395 1.07735026918962 .0040010373654841 .00231 .00302657277927175 1 127 255 2 1
50 3 3 128 255 2 151 .233747832381584 .467495664763169 30 146 147 0 128 129 152
 0 +.0040010373654841 -.00231 .0017632863896367 86024055148976e-30 0 1 136 147 2
 3 4 2 5 FFT1 153 154 155 135 148 2 0 45 12 153 .0040010373654841 -.00231 .00302
657277927175 1 .004310518682742025 -.001155 .003645678998470395 1.07735026918962
 .004310518682742025 -555111512312576e-33 .003645678998470395 1.07735026918962 1
27 2 154 3 3 128 2 155 0 .233747832381584 16 128 57 156 ?124 157 121 146 0 0 1 3
0 152 148 0 157 146 158 0 +.00165077802411308 -.00366692286340598 .0005000000000
05889 -.866025403784438 -.5 744990170955667e-31 16 157 60 159 ?160 123 128 152 0
 0 1 30 158 149 0 161 152 162 0 +444089209850063e-32 -.00462 .0017632863896367 8
6024055148976e-30 0 1 16 161 64 163 ?164 165 123 158 0 0 1 30 162 150 0 165 158
 166 0 +-.00235025934137102 -.003263077136594 .00050000000000589 -.8660254037844
39 .5 744990170955668e-31 16 165 67 167 ?86 168 161 162 0 0 1 134 166 151 0 168
 162 20 0 +169 170 16 168 68 171 ?45 172 165 166 0 0 1 30 20 152 0 172 166 7 0 +
.00345566243270313 -423196593714364e-33 .000250000000006824 .5 -612323399573676e
-31 .866025403784439 136 169 2 3 4 2 5 FFT1 173 174 175 135 170 2 0 45 12 173 -.
0040010373654841 -.00231 .00302657277927175 1 -.00231 -.0040010373654841 .004264
785217669065 1.15470053837925 127527182010645e-31 -.00462 .00302657277927175 1 1
27 2 174 3 3 128 2 175 0 .46749566476317 16 172 71 176 ?43 19 168 20 0 0 1 81 1
 176 239 137 172 177 0 178 171 179 17 43 0 41 37 180 28 42 172 0 0 +16 19 73 178
 ?37 25 172 7 0 0 1 81 1 178 238 137 19 181 0 182 176 183 16 25 78 182 ?34 10 19
 184 0 0 1 81 1 182 237 137 25 185 0 23 178 186 31 184 127 0 25 187 188 0 +22096
5005678282e-33 0 .00350000000000724 -86024055148976e-30 0 -1 1 0 -86024055148976
e-30 .0038 30 187 126 0 189 190 184 0 +.00227962 -27917293362723e-32 -.044754619
9999965 -.740512347492988 906866076086381e-31 -.67204275400485 31 188 128 0 191
 184 192 0 +0 0 -.0449999999999965 0 0 -1 -1 0 0 .00200924 16 191 9 193 ?107 194
 189 188 0 0 1 30 192 129 0 195 188 196 0 +-.0040010373654841 -.001155 .00050000
000000589 -480616027976259e-30 1 413445396961114e-46 16 195 27 197 ?198 199 200
 192 0 0 1 31 196 130 0 194 192 201 0 +-801191873432526e-34 0 58580224004956e-28
 -86024055148976e-30 0 -1 -1 0 86024055148976e-30 .0026505 16 194 12 202 ?203 20
4 191 196 0 0 1 30 201 131 0 199 196 205 0 +-.0040010373654841 -.00231 .00176328
63896367 86024055148976e-30 0 1 16 199 30 206 ?207 208 195 201 0 0 1 31 205 132
 0 204 201 26 0 +.0026505 -324592634114006e-33 -.000199999999994143 -12246467991
4735e-30 -1 105349083787869e-46 1 -122464679914735e-30 -851995392516236e-31 2e-4
 16 204 14 209 ?210 211 194 205 0 0 1 30 26 133 0 10 205 212 0 +.00421 -51557630
2441035e-33 .00326328638963949 -.866025403784439 106057523872491e-30 .5 31 212 1
34 0 213 26 214 0 +-801191873430892e-34 0 775893238547098e-29 -86024055148976e-3
0 0 -1 1 0 -86024055148976e-30 .00331132486540626 16 213 19 215 ?216 200 211 212
 0 0 1 30 214 135 0 200 212 217 0 +.0024505 -300099698131059e-33 -.0224999999999
948 86024055148976e-30 0 1 16 200 24 218 ?96 195 213 214 0 0 1 134 217 136 0 208
 214 219 0 +220 221 16 208 32 222 ?223 224 199 217 0 0 1 30 219 137 0 224 217 22
5 0 +-.0040010373654841 .00231 .0017632863896367 86024055148976e-30 0 1 136 220
 2 3 4 2 5 FFT1 226 227 228 135 221 2 0 45 12 226 -.0040010373654841 .00231 .003
02657277927175 1 -.00462 -10655051376758e-31 .004264785217669065 1.1547005383792
5 -.0040010373654841 -.00231 .00302657277927175 1 127 2 227 3 3 128 2 228 0 .467
49566476317 16 224 34 229 ?230 231 208 219 0 0 1 30 225 138 0 231 219 232 0 +-.0
0435077802411307 .002108077136594 .00050000000000589 .866025403784438 .5 -744990
170955667e-31 16 231 37 233 ?234 235 224 225 0 0 1 134 232 139 0 235 225 236 0 +
237 238 16 235 39 239 ?74 240 231 232 0 0 1 30 236 140 0 241 232 242 0 +-.000349
740658628977 .00482192286340599 .00050000000000589 .866025403784439 -.5 -7449901
70955668e-31 136 237 2 3 4 2 5 FFT1 243 244 245 135 238 2 0 45 12 243 -369493264
118512e-32 .00462 .00302657277927175 1 -.00231 .00400103736548409 .0042647852176
69065 1.15470053837925 -.0040010373654841 .00231 .00302657277927175 1 127 2 244
 3 3 128 2 245 0 .467495664763169 16 241 44 246 ?247 248 240 236 0 0 1 134 242 1
41 0 123 236 249 0 +250 251 16 123 62 252 ?55 161 157 242 0 0 1 134 249 142 0 24
8 242 145 0 +253 254 136 250 2 3 4 2 5 FFT1 255 256 257 135 251 2 0 45 12 255 20
9220376627309e-32 -.00462 .00302657277927175 1 .00231 -.00400103736548409 .00426
4785217669065 1.15470053837925 .0040010373654841 -.00231 .00302657277927175 1 12
7 2 256 3 3 128 2 257 0 .46749566476317 16 248 46 258 ?69 132 241 249 0 0 1 30 1
45 143 0 132 249 142 0 +.00400103736548409 .00231 .0017632863896367 860240551489
76e-30 0 1 136 253 2 3 4 2 5 FFT1 259 260 261 135 254 2 0 45 12 259 .00400103736
54841 .00231 .00302657277927175 1 .00231 .0040010373654841 .004264785217669065 1
.15470053837925 -186741588093516e-32 .00462 .00302657277927175 1 127 2 260 3 3 1
28 2 261 0 .467495664763169 16 132 48 262 ?118 135 248 145 0 0 1 81 1 262 249 13
7 132 263 0 139 258 264 80 7 CCCCCDI12 legal_owners0 17 1 lCZ1 137 0 265 8001 0
 0 0 0 3 5 0 0 0 FFFFTFTFFFFFFFFFF2 81 1 263 174 29 132 0 262 266 267 268 81 1 1
39 248 137 135 267 0 134 262 269 81 1 258 250 137 248 266 0 262 246 270 83 255 3
 264 .627451002597809 .627451002597809 .627451002597809 81 1 266 173 29 248 0 25
8 271 263 272 81 1 246 251 137 241 273 0 258 274 275 83 3 270 .627451002597809 .
627451002597809 .627451002597809 81 1 273 171 29 241 0 246 276 271 277 81 1 274
 252 137 240 278 0 246 239 279 83 3 275 .627451002597809 .627451002597809 .62745
1002597809 16 240 41 274 ?280 241 235 281 0 0 1 81 1 278 155 29 240 0 274 282 28
3 284 81 1 239 253 137 235 276 0 274 233 285 83 3 279 .627451002597809 .62745100
2597809 .627451002597809 81 1 276 170 29 235 0 239 286 273 287 81 1 233 254 137
 231 286 0 239 229 288 83 3 285 .627451002597809 .627451002597809 .6274510025978
09 81 1 286 169 29 231 0 233 289 276 290 81 1 229 255 137 224 289 0 233 222 291
 83 3 288 .627451002597809 .627451002597809 .627451002597809 81 1 289 168 29 224
 0 229 292 286 293 81 1 222 256 137 208 292 0 229 206 294 83 3 291 .627451002597
809 .627451002597809 .627451002597809 81 1 292 167 29 208 0 222 295 289 296 81 1
 206 257 137 199 297 0 222 197 298 83 3 294 .627451002597809 .627451002597809 .6
27451002597809 81 1 297 162 29 199 0 206 299 300 301 81 1 197 258 137 195 302 0
 206 218 303 83 3 298 .627451002597809 .627451002597809 .627451002597809 81 1 30
2 160 29 195 0 197 304 299 305 81 1 218 259 137 200 295 0 197 215 306 83 3 303 .
627451002597809 .627451002597809 .627451002597809 81 1 295 166 29 200 0 218 307
 292 308 81 1 215 260 137 213 307 0 218 309 310 83 3 306 .627451002597809 .62745
1002597809 .627451002597809 81 1 307 165 29 213 0 215 311 295 312 81 1 309 261 1
37 211 282 0 215 209 313 83 3 310 .627451002597809 .627451002597809 .62745100259
7809 16 211 16 309 ?314 213 204 315 0 0 1 81 1 282 154 29 211 0 309 0 278 316 81
 1 209 262 137 204 300 0 309 202 317 83 3 313 .627451002597809 .627451002597809
 .627451002597809 81 1 300 163 29 204 0 209 297 311 318 81 1 202 263 137 194 299
 0 209 193 319 83 3 317 .627451002597809 .627451002597809 .627451002597809 81 1
 299 161 29 194 0 202 302 297 320 81 1 193 264 137 191 304 0 202 321 322 83 3 31
9 .627451002597809 .627451002597809 .627451002597809 81 1 304 159 29 191 0 193 1
85 302 323 81 1 321 265 137 189 324 0 193 325 326 83 3 322 .627451002597809 .627
451002597809 .627451002597809 16 189 7 321 ?327 191 328 187 0 0 1 81 1 324 157 2
9 189 0 321 283 185 329 81 1 325 266 137 328 283 0 321 0 330 83 3 326 .627451002
597809 .627451002597809 .627451002597809 16 328 5 325 ?331 189 0 190 0 0 1 81 1
 283 156 29 328 0 325 278 324 332 83 3 330 .627451002597809 .627451002597809 .62
7451002597809 80 1 29 333 334 9000 0 0 0 0 3 6 0 0 0 TTTFTFTTFFFFFFFFF10 98 255
 3 332 49 50 56 79 255 19 334 SPAATTRIB_UNICODEID17 331 0 335 96 111 108 336 328
 0 336 +31 190 125 0 328 281 187 0 +-391675247464978e-32 0 -.0445995399852025 0
 0 1 -1 0 0 .0024505 30 281 124 0 240 315 190 0 +277555756156289e-33 .00462 .001
7632863896367 -86024055148976e-30 0 -1 31 315 123 0 211 0 281 0 +-97323998373047
8e-34 0 -.000199999999994143 849487113312454e-31 0 1 -1 0 849487113312454e-31 .0
024505 15 335 23 0 331 337 0 17 96 0 335 338 331 93 111 200 0 314 +17 111 0 335
 331 338 108 96 200 0 339 -17 336 0 340 327 339 108 331 328 0 0 -15 340 4 0 336
 341 0 17 327 0 340 342 336 104 339 189 0 0 +17 339 0 340 336 342 108 327 189 0
 331 -17 342 0 340 339 327 104 107 191 0 327 -17 107 0 343 107 107 104 342 191 0
 342 +15 343 75 0 107 344 0 14 255 344 74 345 ?346 347 343 5 348 +0 0 346 347 22
 81 1 345 358 349 344 350 0 0 351 352 14 346 69 351 ?353 344 41 5 354 +0 0 353 3
44 22 14 347 76 355 ?344 115 356 5 18 +0 0 344 115 22 50 348 100 0 344 357 18 0
 +-388578058618805e-32 0 -.0449999999999965 -86024055148976e-30 0 -1 -1 0 860240
55148976e-30 13 22 2 0 0 0 0 0 0 9 16 14 16 83 358 ?115 0 359 5 6 +0 0 115 0 22
 81 1 358 361 349 16 113 0 355 360 361 14 115 80 360 ?347 16 33 5 362 +0 0 347 1
6 22 15 359 85 0 44 16 363 17 44 0 359 44 44 28 37 19 0 43 -15 363 84 0 141 16 0
 17 141 0 363 160 247 61 65 135 0 0 +17 160 0 363 86 141 46 78 157 0 0 +17 247 0
 363 141 234 62 100 241 0 0 +17 65 0 125 118 126 62 141 135 0 131 -17 126 0 125
 65 120 61 124 128 0 141 -17 131 0 364 100 133 62 118 132 0 247 -15 364 43 0 100
 365 0 17 100 0 364 366 131 70 247 241 0 280 -17 133 0 364 131 366 57 69 248 0 0
 -17 366 0 364 133 100 66 280 240 0 367 -17 69 0 33 74 60 66 133 248 0 366 +17 7
4 0 33 223 69 71 367 235 0 230 +17 223 0 33 45 74 75 368 208 0 207 +17 367 0 369
 280 230 66 74 235 0 0 -17 230 0 369 367 82 71 370 224 0 368 +15 369 36 0 82 371
 0 17 82 0 369 230 280 79 234 231 0 370 -17 370 0 372 373 368 79 230 224 0 198 -
17 368 0 372 370 207 71 223 208 0 0 -15 372 26 0 373 374 0 17 207 0 372 368 373
 75 375 199 0 0 +17 373 0 372 207 370 83 198 195 0 0 -17 375 0 376 51 90 83 207
 199 0 373 -15 376 66 0 51 353 0 17 51 0 376 164 375 46 86 165 0 377 -17 90 0 37
6 375 164 75 45 168 0 223 -17 164 0 376 90 51 38 377 161 0 122 +17 45 0 33 55 22
3 38 90 168 0 164 +17 377 0 378 78 122 46 164 161 0 160 -17 122 0 378 377 124 38
 55 123 0 0 -15 378 59 0 78 379 0 17 124 0 378 122 78 52 126 128 0 120 +17 78 0
 378 124 377 61 160 157 0 126 -14 379 58 380 ?130 353 378 5 381 -0 0 130 353 22
 81 1 380 363 349 379 382 0 360 383 384 14 130 49 383 ?365 379 125 5 385 -0 0 36
5 379 22 14 353 65 386 ?379 346 376 5 357 -0 0 379 346 22 50 381 98 0 379 362 35
7 0 +.0040010373654841 -.00231 0 -.5 .866025403784438 0 0 0 1 52 255 362 97 0 11
5 385 381 0 +200601941005494e-33 0 .00326328638963949 0 0 -1 .00421 .86602540378
444 .5 -1 0 0 50 357 99 0 353 381 348 0 +610622663543836e-32 -.00462 0 .5 .86602
5403784439 0 0 0 -1 50 385 96 0 130 387 362 0 +.0040010373654841 .00231 0 -1 -84
1078048958453e-30 0 -841078048958453e-30 1 0 50 387 95 0 371 388 385 0 +-.004001
0373654841 .00231 0 .5 -.866025403784438 0 0 0 -1 14 371 35 389 ?374 365 369 5 3
87 -0 0 374 365 22 50 388 94 0 374 390 387 0 +-.0040010373654841 -.00231 0 1 480
616027976259e-30 0 -480616027976259e-30 1 0 14 374 25 391 ?337 371 372 5 388 -0
 0 337 371 22 51 255 390 93 0 337 392 388 0 +-201566042819527e-32 0 -.0224999999
999948 0 0 -1 .0024505 -1 0 0 14 337 22 393 ?394 374 335 5 390 +0 0 394 374 22 5
0 392 92 0 365 395 390 0 +-333066907387547e-32 .00462 0 -.5 -.866025403784439 0
 -.866025403784439 .5 0 14 365 42 396 ?371 130 364 5 392 -0 0 371 130 22 50 395
 91 0 394 397 392 0 +-.0025 0 585821347100014e-29 -86024055148976e-30 0 -1 -1 0
 86024055148976e-30 14 394 17 398 ?399 337 400 5 395 +0 0 399 337 22 54 255 397
 90 0 399 354 395 0 +-973239983730478e-34 0 -.000199999999994143 -8763381180167e
-29 0 -1 .0026505 2e-4 -1 0 8763381180167e-29 14 399 10 401 ?341 394 402 5 397 -
0 0 341 394 22 52 354 89 0 346 403 397 0 +-586131735559256e-34 0 .00025000000000
6824 0 0 1 .00345566243270313 .5 .866025403784439 -1 0 0 52 403 88 0 341 0 354 0
 +0 0 -.0447546199999965 0 0 1 .00227962 .740512347492989 .67204275400485 -1 0 0
 14 341 3 404 ?0 399 340 5 403 +0 0 0 399 22 81 1 404 372 349 341 405 0 401 0 40
6 80 1 349 407 408 9000 1 1 1 1 1 1 1 1 0 FFFFTFTFFFFFFFFFF1 81 1 405 186 29 341
 409 404 181 410 411 81 1 401 371 349 399 412 0 398 404 413 82 255 1 406 3322020
97 81 1 412 190 29 399 414 401 410 415 416 81 1 398 370 349 394 415 0 396 401 41
7 82 1 413 332005489 81 1 415 192 29 394 418 398 412 419 420 81 1 396 369 349 36
5 419 0 393 398 421 82 1 417 331874417 81 1 419 194 29 365 422 396 415 423 424 8
1 1 393 368 349 337 423 0 391 396 425 82 1 421 331743345 81 1 423 196 29 337 426
 393 419 427 428 81 1 391 367 349 374 427 0 389 393 429 82 1 425 331612273 81 1
 427 198 29 374 430 391 423 431 432 81 1 389 366 349 371 431 0 386 391 433 82 1
 429 331481201 81 1 431 200 29 371 434 389 427 435 436 81 1 386 365 349 353 437
 0 383 389 438 82 1 433 331350129 81 1 437 208 29 353 439 386 382 350 440 81 1 3
83 364 349 130 435 0 380 386 441 82 1 438 330956913 81 1 435 202 29 130 442 383
 431 443 444 82 1 441 330891377 81 1 442 201 137 130 0 435 434 445 446 81 1 443
 204 29 115 445 360 435 382 447 98 3 444 50 51 49 81 1 445 203 137 115 0 443 442
 448 449 81 1 360 362 349 115 443 0 358 380 450 81 1 382 206 29 379 448 380 443
 437 451 98 3 447 50 51 55 81 1 448 205 137 379 0 382 445 439 452 98 3 451 50 51
 50 81 1 439 207 137 353 0 437 448 453 454 83 3 452 .627450980392157 .6274509803
92157 .627450980392157 81 1 453 209 137 344 0 350 439 455 456 83 3 454 .62745098
0392157 .627450980392157 .627450980392157 81 1 350 210 29 344 453 345 437 457 45
8 81 1 455 211 137 347 0 457 453 459 460 83 3 456 .627450980392157 .627450980392
157 .627450980392157 81 1 457 212 29 347 455 355 350 113 461 81 1 459 213 137 16
 0 113 455 23 462 83 3 460 .627450980392157 .627450980392157 .627450980392157 81
 1 113 214 29 16 459 358 457 112 463 81 1 23 236 137 10 311 0 459 182 464 83 3 4
62 .627450980392157 .627450980392157 .627450980392157 81 1 311 164 29 10 0 23 30
0 307 465 83 3 464 .627451002597809 .627451002597809 .627451002597809 98 3 465 4
9 53 56 98 3 463 50 51 56 81 1 355 360 349 347 457 0 351 358 466 98 3 461 50 51
 54 81 1 351 359 349 346 410 0 345 355 467 82 1 466 328007793 81 1 410 188 29 34
6 468 351 405 412 469 82 1 467 327942257 81 1 468 187 137 346 0 410 409 414 470
 98 3 469 50 51 52 81 1 409 185 137 341 0 405 0 468 471 81 1 414 189 137 399 0 4
12 468 418 472 83 3 470 .627450980392157 .627450980392157 .627450980392157 81 1
 418 191 137 394 0 415 414 422 473 83 3 472 .627450980392157 .627450980392157 .6
27450980392157 81 1 422 193 137 365 0 419 418 426 474 83 3 473 .627450980392157
 .627450980392157 .627450980392157 81 1 426 195 137 337 0 423 422 430 475 83 3 4
74 .627450980392157 .627450980392157 .627450980392157 81 1 430 197 137 374 0 427
 426 434 476 83 3 475 .627450980392157 .627450980392157 .627450980392157 81 1 43
4 199 137 371 0 431 430 442 477 83 3 476 .627450980392157 .627450980392157 .6274
50980392157 83 3 477 .627450980392157 .627450980392157 .627450980392157 83 3 471
 .627450980392157 .627450980392157 .627450980392157 98 3 458 50 51 53 82 1 450 3
28335473 83 3 449 .627450980392157 .627450980392157 .627450980392157 83 3 446 .6
27450980392157 .627450980392157 .627450980392157 98 3 440 50 51 51 98 3 436 50 5
0 57 98 3 432 50 50 56 98 3 428 50 50 55 98 3 424 50 51 48 98 3 420 50 50 54 98
 3 416 50 50 53 81 1 181 184 29 19 0 178 177 405 478 98 3 411 50 50 52 81 1 177
 183 29 172 0 176 479 181 480 98 3 478 49 53 54 81 1 479 182 29 168 0 171 481 17
7 482 98 3 480 49 53 53 81 1 171 240 137 168 479 0 176 167 483 81 1 481 181 29 1
65 0 167 484 479 485 98 3 482 49 53 52 81 1 167 241 137 165 481 0 171 163 486 81
 1 484 180 29 161 0 163 487 481 488 98 3 485 49 53 51 81 1 163 242 137 161 484 0
 167 252 489 81 1 487 179 29 157 0 159 490 484 491 98 3 488 49 53 50 81 1 159 24
4 137 157 487 0 252 156 492 81 1 490 178 29 128 0 156 493 487 494 98 3 491 49 53
 48 81 1 156 245 137 128 490 0 159 127 495 81 1 493 177 29 121 0 127 138 490 496
 98 3 494 49 52 57 81 1 127 246 137 121 493 0 156 134 497 81 1 138 176 29 117 0
 134 267 493 498 98 3 496 49 52 56 81 1 267 175 29 135 0 139 263 138 499 98 3 49
8 49 52 55 98 3 499 49 52 54 83 3 497 .627451002597809 .627451002597809 .6274510
02597809 83 3 495 .627451002597809 .627451002597809 .627451002597809 81 1 252 24
3 137 123 271 0 163 159 500 83 3 492 .627451002597809 .627451002597809 .62745100
2597809 81 1 271 172 29 123 0 252 273 266 501 83 3 500 .627451002597809 .6274510
02597809 .627451002597809 98 3 501 49 53 49 83 3 489 .627451002597809 .627451002
597809 .627451002597809 83 3 486 .627451002597809 .627451002597809 .627451002597
809 83 3 483 .627451002597809 .627451002597809 .627451002597809 79 14 408 SWEntU
nchanged15 402 11 0 203 399 0 17 203 0 402 210 103 97 502 194 0 502 +17 210 0 40
2 314 203 93 103 204 0 0 +17 103 0 402 203 314 97 210 204 0 203 -17 502 0 400 50
2 502 97 203 194 0 0 -15 400 21 0 502 394 503 15 503 18 0 216 394 0 17 216 0 503
 216 216 87 180 213 0 180 +17 180 0 41 43 42 87 216 213 0 0 -15 41 70 0 180 346
 0 17 42 0 41 180 37 87 43 172 0 216 -17 314 0 402 103 210 93 338 211 0 338 +17
 338 0 335 111 96 93 314 211 0 210 -82 1 384 330760305 17 86 0 363 198 160 83 51
 165 0 375 +17 198 0 363 234 86 79 373 195 0 0 +17 234 0 363 247 198 70 82 231 0
 0 +17 280 0 369 82 367 70 366 240 0 234 +82 1 361 328204401 50 18 101 0 347 348
 6 0 +-.0038 0 .00350000000000724 86024055148976e-30 0 1 1 0 -86024055148976e-30
 15 356 77 0 119 347 0 17 119 0 356 119 119 11 34 25 0 0 -82 1 352 327811185 81
 1 185 158 29 25 0 182 324 304 504 98 3 329 49 50 57 98 3 504 49 53 55 98 3 323
 49 51 48 98 3 320 49 51 49 98 3 318 49 51 50 98 3 316 49 51 51 98 3 312 49 51 5
2 98 3 308 49 51 53 98 3 305 49 51 54 98 3 301 49 51 55 98 3 296 49 51 56 98 3 2
93 49 51 57 98 3 290 49 52 48 98 3 287 49 52 49 98 3 284 49 52 50 98 3 277 49 52
 51 98 3 272 49 52 52 83 3 269 .627451002597809 .627451002597809 .62745100259780
9 98 3 268 49 52 53 79 15 265 SDL/TYSA_COLOUR83 3 186 .627451002597809 .62745100
2597809 .627451002597809 83 3 183 .627451002597809 .627451002597809 .62745100259
7809 83 3 179 .627451002597809 .627451002597809 .627451002597809 83 3 140 .62745
1002597809 .627451002597809 .627451002597809 81 1 110 216 29 108 0 0 112 106 505
 98 3 114 49 50 50 81 1 106 217 29 104 0 0 110 102 506 98 3 505 49 48 56 81 1 10
2 218 29 97 0 0 106 99 507 98 3 506 49 48 57 81 1 99 219 29 70 0 0 102 95 508 98
 3 507 49 49 48 81 1 95 220 29 93 0 0 99 92 509 98 3 508 49 49 55 81 1 92 221 29
 87 0 0 95 89 510 98 3 509 49 49 49 81 1 89 222 29 75 0 0 92 85 511 98 3 510 49
 49 50 81 1 85 223 29 83 0 0 89 81 512 98 3 511 49 49 53 81 1 81 224 29 79 0 0 8
5 77 513 98 3 512 49 49 51 81 1 77 225 29 61 0 0 81 73 514 98 3 513 49 49 52 81
 1 73 226 29 71 0 0 77 68 515 98 3 514 49 50 49 81 1 68 227 29 66 0 0 73 64 516
 98 3 515 49 49 54 81 1 64 228 29 62 0 0 68 59 517 98 3 516 49 49 56 81 1 59 229
 29 57 0 0 64 54 518 98 3 517 49 49 57 81 1 54 230 29 52 0 0 59 50 519 98 3 518
 49 50 48 81 1 50 231 29 46 0 0 54 39 520 98 3 519 49 50 51 81 1 39 232 29 38 0
 0 50 30 521 98 3 520 49 50 52 98 3 521 49 50 53 98 3 40 49 50 54 81 1 31 269 29
 1 522 523 27 0 524 98 3 32 49 50 55 81 1 522 268 525 1 526 31 0 0 527 81 1 523
 271 528 1 31 529 0 0 530 98 2 524 49 52 80 1 528 531 532 8051 0 0 0 0 3 5 0 0 0
 TFTFFFFFFFFFFFFFF1 81 2 529 273 533 1 523 534 0 0 0 535 82 1 530 0 80 2 533 536
 537 9000 0 0 0 0 3 5 0 0 0 FFTFFFFFFFFFFFFFF9 1 81 2 534 274 538 1 529 539 0 0
 540 0 82 1 535 38 80 2 538 541 542 9000 0 0 0 0 3 5 0 0 0 FFTFTTTFFTFFFFFFF10 1
0 81 2 539 275 543 1 534 544 0 0 0 545 98 8 540 66 111 100 121 49 91 49 93 80 2
 543 546 547 9000 0 0 0 0 3 5 0 0 0 FFTFFFFFFFFFFFFFF9 1 81 2 544 308 548 1 539
 13 0 0 0 0 82 1 545 103 80 2 548 549 550 9000 0 0 0 0 3 5 0 0 0 FFTFFFFFFFFFFFF
FF9 1 81 1 13 324 551 1 544 2 0 0 552 80 1 551 553 554 9000 1 1 1 1 1 1 1 1 0 FF
TFFFFFFFFFFFFFF1 82 1 552 4800 79 10 554 BODY_MATCH79 16 550 BODY_RECIPE_200179
 19 547 ENT_TIME_STAMP_200179 23 542 SWIMPLICITBODYNAME_ID_U79 30 537 LAST_BODY_
MODIFYING_FEATURE_ID79 21 532 SDL/TYSA_SCALE_FACTOR80 1 525 29 555 9000 0 0 0 0
 3 5 0 0 0 TFTFTFTFFFFFFFFFF10 81 1 526 267 556 1 557 522 0 0 558 98 35 527 73 8
3 79 32 52 48 49 55 32 45 32 77 53 32 120 32 52 53 32 83 116 101 101 108 32 49 5
0 46 57 32 80 108 97 105 110 80 1 556 559 560 8038 0 0 0 0 0 0 0 0 0 TTTTTTTTTTT
TTFTFT10 81 1 557 235 561 1 0 526 0 0 562 98 5 558 66 111 100 121 49 80 1 561 13
7 563 8040 0 0 0 0 3 5 0 0 0 TTTFFFFFFFFFFFFFF2 83 3 562 .627451002597809 .62745
1002597809 .627451002597809 79 17 563 SDL/TYSA_COLOUR_279 14 560 SDL/TYSA_UNAME7
9 22 555 ATTRIB_XPARASOLID_NAME19 17 86 0 1 0 9 5 0 S0 74 4 CI16 index_map_offse
t0 0 1 dCCZ20 15 13 0 0 31 325 557 526 522 523 529 534 539 544 404 13 2 0 0 0 0
 0 0 0 80 2 12 564 565 9000 0 0 0 0 3 5 0 0 0 FFTFFFFFFFFFFFFFF9 1 82 1 14 101 7
9 12 565 ATOM_ID_20011 0 
