**ABCDEFGHIJKLMNOPQRSTUVWXYZabcdefghijklmnopqrstuvwxyz**************************
**PARASOLID !"#$%&'()*+,-./:;<=>?@[\]^_`{|}~0123456789**************************
**PART1;
MC=AMD64;
MC_MODEL=Intel64 Family 6 Model 154 Stepping 3, GenuineIntel;
MC_ID=unknown;
OS=Windows_NT;
OS_RELEASE=unknown;
FRU=Parasolid Version 36.1, build 228,  1-18-2025;
APPL=SOLIDWORKS 2025-2025268;
SITE=;
USER=unknown;
FORMAT=text;
GUISE=transmit;
KEY=Hexagon Head Screw ISO 4017 - M5 x 65 Steel 12.9 Plain;
FILE=Hexagon Head Screw ISO 4017 - M5 x 65 Steel 12.9 Plain.x_t;
DATE=Sat Feb 28 20:26:11 2026;
**PART2;
SCH=SCH_3601228_36001;
USFLD_SIZE=0;
**PART3;
**END_OF_HEADER*****************************************************************
T51 : TRANSMIT FILE created by modeller version 360122823 SCH_3601228_36001_1300
6231 0 12 36 CCCI7 lattice222 0 CCCI4 mesh1006 0 I8 polyline1008 0 CCCCCCCDI5 ow
ner1040 0 CCCI16 boundary_lattice222 0 CCCI13 boundary_mesh1006 0 I17 boundary_p
olyline1008 0 CCCA16 index_map_offset0 0 1 dA9 index_map82 0 A17 node_id_index_m
ap82 0 A20 schema_embedding_map82 0 A5 child12 0 A14 lowest_node_id0 0 1 dA16 me
sh_offset_data206 0 Z1 372 2 3 0 0 0 0 0 0 0 1e3 1e-8 0 4 0 1 0 1 1 5 0 6 7 8 0
 0 9 10 11 0 0 0 0 0 0 0 81 255 2 2 357 12 1 13 0 0 0 0 14 70 11 CI9 list_type0
 0 1 uI10 notransmit0 0 1 lCCCDCCDI12 finger_index0 0 1 dI12 finger_block1012 0
 CZ3 0 4 T1 0 0 13 20 1 15 15 13 255 5 87 0 1 0 16 0 0 17 0 50 255 6 102 0 16 18
 0 0 +-.0036 0 .000500000000019895 -631328587650822e-31 0 -1 -1 0 63132858765082
2e-31 30 255 7 153 0 10 19 0 0 +.00421 -515576302441035e-33 .0032632863896445 -.
866025403784439 106057523872491e-30 .5 29 255 8 122 0 11 20 0 .0038 -46536578367
5993e-33 .00350000000001225 19 9 CCCCCCI5 frame230 0 CA5 owner12 0 Z9 1 0 1 17 0
 21 0 V0 16 255 10 82 22 ?23 0 24 7 0 0 1 18 255 11 79 25 23 0 26 8 ?1 81 1 25 2
34 27 11 0 0 28 29 30 17 255 23 0 31 32 33 11 34 10 0 32 +18 26 72 28 35 11 36 2
0 ?1 81 1 28 233 27 26 0 0 37 25 38 17 35 0 39 40 41 26 42 43 0 42 +18 36 63 37
 44 26 45 46 ?1 29 20 121 0 26 46 8 .0036 -440872847693046e-33 .0005000000000198
95 29 46 120 0 36 47 20 428488518765698e-32 -.00462 .00302657277927675 29 47 119
 0 45 48 46 -194289029309402e-32 -.00462 .000500000000015665 18 45 61 49 50 36 5
1 47 ?1 29 48 118 0 51 52 47 .0040010373654841 -.00231 .00302657277927675 18 51
 56 53 54 45 55 48 ?1 29 52 117 0 56 57 48 -.0040010373654841 .00231 .0030265727
7927675 18 56 33 58 59 60 61 52 ?1 29 57 116 0 62 63 52 .0040010373654841 .00231
 .00302657277927675 18 62 47 64 65 66 67 57 ?1 29 63 115 0 68 69 57 -.0040010373
654841 .00231 .000500000000015665 18 68 29 70 71 61 72 63 ?1 29 69 114 0 67 73 6
3 .0040010373654841 .00231 .000500000000015665 18 67 45 74 75 62 76 69 ?1 29 73
 113 0 55 77 69 .0040010373654841 -53482454827201e-32 .00338393102293282 18 55 5
4 78 34 51 66 73 ?1 29 77 112 0 76 79 73 111022302462516e-32 .00462 .00302657277
927675 18 76 40 80 81 67 60 77 ?1 29 79 111 0 60 82 77 -333066907387547e-32 .004
62 .000500000000015665 18 60 38 83 84 76 56 79 ?1 29 82 110 0 66 85 79 .00400103
73654841 -.00231 .000500000000015665 18 66 52 86 87 55 62 82 ?1 29 85 109 0 72 8
8 82 -.0040010373654841 -.00231 .000500000000015665 18 72 28 89 90 68 91 85 ?1 2
9 88 108 0 91 92 85 .00331132486539699 -405520339734546e-33 775827319055011e-29
 18 91 20 93 40 72 94 88 ?1 29 92 107 0 61 95 88 -.0040010373654841 -.00231 .003
02657277927675 18 61 31 96 97 56 68 92 ?1 29 95 106 0 94 98 92 .0024505 30009969
8131059e-33 -.000199999999994143 18 94 15 99 100 91 101 95 ?1 29 98 105 0 101 10
2 95 .0026505 -324592634114006e-33 585788976132296e-29 18 101 13 103 104 94 105
 98 ?1 29 102 104 0 105 106 98 .0020092400000136 -246060933473549e-33 -.06499999
99999877 18 105 8 107 108 101 109 102 ?1 29 106 103 0 109 0 102 .0024505 3000996
98131059e-33 -.064599539985206 18 109 6 110 111 105 0 106 ?1 81 1 110 215 27 109
 0 0 112 107 113 17 111 0 114 115 116 109 100 117 0 118 -15 255 114 23 0 115 119
 0 17 115 0 114 100 111 109 120 121 0 120 +17 116 0 114 111 100 94 122 123 0 124
 -17 100 0 114 116 115 94 111 117 0 122 +16 117 24 125 ?100 126 127 128 0 0 1 17
 118 0 129 120 130 109 131 132 0 115 -15 129 4 0 120 133 0 17 120 0 129 131 118
 109 115 121 0 0 -17 130 0 129 118 131 105 108 134 0 131 -17 131 0 129 130 120 1
05 118 132 0 0 +16 132 7 135 ?131 134 121 136 0 0 1 81 1 135 265 137 132 138 0 1
39 140 141 16 134 9 139 ?108 142 132 143 0 0 1 16 121 5 140 ?115 132 0 144 0 0 1
 30 136 125 0 132 145 146 0 +.00227962 -279172933627229e-33 -.06475462 -.7405123
4749299 906866076086382e-31 -.672042754004849 31 255 145 124 0 123 144 136 0 +-1
26265717526465e-34 0 -.000199999999994143 566324742208303e-31 0 1 -1 0 566324742
208303e-31 .0024505 134 255 146 126 0 147 136 143 0 +148 149 16 147 39 150 ?59 1
51 152 146 0 0 1 31 143 127 0 134 146 153 0 +0 0 -.0649999999999877 0 0 -1 -1 0
 0 .0020092400000136 136 255 148 2 3 4 2 5 FFT1 154 155 156 135 255 149 2 0 45 2
55 12 154 971174788396184e-32 .00462 .00302657277927675 1 -.00231 .0040010373654
8409 .00426478521767485 1.15470053837925 -.00400103736548411 .00231 .00302657277
927675 1 127 255 2 155 3 3 128 255 2 156 0 .467495664763171 31 153 128 0 142 143
 157 0 +369938401507733e-45 0 585805709496512e-29 -631328587650821e-31 0 -1 -1 0
 631328587650821e-31 .0026505 16 142 12 158 ?159 160 134 153 0 0 1 31 157 129 0
 160 153 161 0 +.0026505 -324592634114006e-33 -.000199999999994143 -122464679914
735e-30 -1 773154534076798e-47 1 -122464679914735e-30 -608568137511597e-31 2e-4
 16 160 14 162 ?124 123 142 157 0 0 1 31 161 130 0 127 157 128 0 +48991420739333
6e-45 0 775858544077579e-29 -631328587650822e-31 0 -1 1 0 -631328587650822e-31 .
00331132486539699 16 127 19 163 ?164 117 123 161 0 0 1 30 128 131 0 117 161 165
 0 +.0024505 -300099698131059e-33 -.0324999999999909 631328587650822e-31 0 1 30
 165 132 0 166 128 167 0 +-.000349740658628973 .00482192286340599 .0005000000000
19895 .866025403784439 -.5 -546746595040962e-31 16 166 44 168 ?169 170 151 165 0
 0 1 30 167 133 0 126 165 171 0 +-.0040010373654841 -.001155 .000500000000019895
 -480616027976259e-30 1 303426638144599e-46 16 126 27 172 ?173 174 117 167 0 0 1
 134 171 134 0 175 167 176 0 +177 178 16 175 62 179 ?54 180 181 171 0 0 1 30 176
 135 0 174 171 182 0 +-.0040010373654841 -.00231 .00176328638964621 631328587650
822e-31 0 1 136 177 2 3 4 2 5 FFT1 183 184 185 135 178 2 0 45 12 183 -4299213944
6212e-31 -.00462 .00302657277927675 1 .00231 -.004001037365484125 .0042647852176
74885 1.15470053837926 .00400103736548411 -.00231 .00302657277927675 1 127 2 184
 3 3 128 2 185 0 .467495664763171 16 174 30 186 ?187 188 126 176 0 0 1 134 182 1
36 0 188 176 189 0 +190 191 16 188 32 192 ?193 194 174 182 0 0 1 30 189 137 0 18
1 182 195 0 +.00165077802411308 -.00366692286340599 .000500000000019895 -.866025
403784438 -.5 546746595040962e-31 136 190 2 3 4 2 5 FFT1 196 197 198 135 191 2 0
 45 12 196 -.0040010373654841 .00231 .00302657277927675 1 -.00462 -2083209576915
525e-33 .00426478521767485 1.15470053837925 -.0040010373654841 -.00231 .00302657
277927675 1 127 2 197 3 3 128 2 198 0 .467495664763169 16 181 60 199 ?200 175 20
1 189 0 0 1 30 195 138 0 194 189 202 0 +-.0040010373654841 .00231 .0017632863896
4621 631328587650822e-31 0 1 16 194 34 203 ?204 152 188 195 0 0 1 30 202 139 0 2
05 195 206 0 +-.00235025934137102 -.003263077136594 .000500000000019895 -.866025
403784439 .5 546746595040962e-31 16 205 67 207 ?90 208 180 202 0 0 1 30 206 140
 0 151 202 209 0 +-333066907387547e-32 .00462 .00176328638964621 -63132858765082
2e-31 0 -1 16 151 41 210 ?211 166 147 206 0 0 1 30 209 141 0 152 206 212 0 +-.00
435077802411307 .002108077136594 .000500000000019895 .866025403784439 .5 -546746
595040962e-31 16 152 37 213 ?214 147 194 209 0 0 1 134 212 142 0 170 209 215 0 +
216 217 16 170 46 218 ?81 219 166 212 0 0 1 30 215 143 0 219 212 220 0 +.0040010
373654841 .00231 .00176328638964621 631328587650822e-31 0 1 136 216 2 3 4 2 5 FF
T1 221 222 223 135 217 2 0 45 12 221 .0040010373654841 .00231 .00302657277927675
 1 .00231 .00400103736548409 .00426478521767485 1.15470053837925 -55175584514545
1e-32 .00462 .00302657277927675 1 127 2 222 3 3 128 2 223 0 .46749566476317 16 2
19 48 224 ?225 226 170 215 0 0 1 30 220 144 0 226 215 227 0 +.0040010373654841 .
001155 .000500000000019895 720924041964389e-30 -1 -455139957216899e-46 16 226 51
 228 ?229 230 219 220 0 0 1 30 227 145 0 231 220 232 0 +.00345566243269849 -4231
96593713796e-33 .000250000000013827 .500000000001538 -61232339957556e-30 .866025
403783551 16 231 71 233 ?41 43 208 227 0 0 1 134 232 146 0 230 227 234 0 +235 23
6 16 230 53 237 ?65 238 226 232 0 0 1 134 234 147 0 238 232 239 0 +240 241 136 2
35 2 3 4 2 5 FFT1 242 243 244 135 236 2 0 45 12 242 .004310518682742065 -6245004
51351652e-33 .003645678998475815 1.07735026918963 .004310518682742065 .001155000
000000012 .003645678998475815 1.07735026918963 .0040010373654841 .00231 .0030265
7277927675 1 127 2 243 3 3 128 2 244 .233747832381585 .467495664763171 16 238 55
 245 ?33 201 230 234 0 0 1 30 239 148 0 201 234 246 0 +.0040010373654841 -.00231
 .00176328638964621 631328587650822e-31 0 1 136 240 2 3 4 2 5 FFT1 247 248 249 1
35 241 2 0 45 12 247 .0040010373654841 -.00231 .00302657277927675 1 .00431051868
2742065 -.001155 .003645678998475815 1.07735026918963 .004310518682742065 -62450
0451351652e-33 .003645678998475815 1.07735026918963 127 2 248 3 3 128 2 249 0 .2
33747832381585 16 201 57 250 ?251 181 238 239 0 0 1 30 246 149 0 180 239 252 0 +
-194289029309402e-32 -.00462 .00176328638964621 631328587650822e-31 0 1 16 180 6
4 253 ?254 205 175 246 0 0 1 134 252 150 0 208 246 255 0 +256 257 16 208 68 258
 ?44 231 205 252 0 0 1 31 255 151 0 43 252 19 0 +315664293837972e-34 0 .00050000
0000019895 -631328587650822e-31 0 -1 1 0 -631328587650822e-31 .0036 136 256 2 3
 4 2 5 FFT1 259 260 261 135 257 2 0 45 12 259 -.0040010373654841 -.00231 .003026
57277927675 1 -.00231 -.0040010373654841 .00426478521767485 1.15470053837925 148
897120380034e-31 -.00462 .00302657277927675 1 127 2 260 3 3 128 2 261 0 .4674956
64763171 16 43 73 262 ?35 24 231 255 0 0 1 31 19 152 0 24 255 7 0 +2209650056785
61e-33 0 .00350000000001225 -631328587650822e-31 0 -1 1 0 -631328587650822e-31 .
0038 16 24 78 263 ?32 10 43 19 0 0 1 81 1 263 237 137 24 264 0 22 262 265 17 32
 0 31 34 23 11 266 24 0 266 +15 31 81 0 81 267 0 17 34 0 31 65 32 55 23 10 0 33
 -17 266 0 268 266 266 11 32 24 0 0 -15 268 77 0 266 269 0 14 255 269 76 270 ?27
1 267 268 5 18 +0 0 271 267 21 81 1 270 358 272 269 273 0 0 274 275 14 271 74 27
4 ?276 269 277 5 278 +0 0 276 269 21 14 267 80 279 ?269 16 31 5 280 +0 0 269 16
 21 50 18 101 0 269 278 6 0 +-.0038 0 .00350000000001225 631328587650822e-31 0 1
 1 0 -631328587650822e-31 13 21 2 0 0 0 0 0 0 9 16 14 16 83 281 ?267 0 282 5 6 +
0 0 267 0 21 81 1 281 361 272 16 112 0 279 283 284 15 282 85 0 42 16 285 17 42 0
 282 42 42 26 35 43 0 41 -15 285 84 0 229 16 0 17 229 0 285 200 169 66 75 226 0
 0 +17 200 0 285 90 229 45 87 181 0 0 +17 169 0 285 229 214 67 84 166 0 0 +17 75
 0 286 225 287 67 229 226 0 288 -15 286 50 0 75 289 0 17 225 0 286 290 75 62 288
 219 0 291 +17 287 0 286 75 292 66 251 201 0 229 -17 288 0 293 84 291 67 225 219
 0 169 -15 293 43 0 84 294 0 17 84 0 293 295 288 60 169 166 0 211 -17 291 0 293
 288 295 62 81 170 0 0 -17 295 0 293 291 84 76 211 151 0 296 -17 81 0 31 59 65 7
6 291 170 0 295 +17 59 0 31 193 81 56 296 147 0 204 +17 65 0 31 81 34 62 290 230
 0 225 +17 290 0 286 292 225 55 65 230 0 0 -17 292 0 286 287 290 51 33 238 0 0 -
17 33 0 31 23 54 55 292 238 0 290 +17 54 0 31 33 44 51 297 175 0 251 +17 44 0 31
 54 193 36 97 208 0 254 +17 297 0 298 299 251 36 54 175 0 0 -17 251 0 298 297 87
 51 287 201 0 292 +15 298 59 0 87 300 0 17 87 0 298 251 299 66 200 181 0 287 -17
 299 0 298 87 297 45 254 180 0 200 -17 254 0 301 97 50 36 299 180 0 297 +15 301
 66 0 50 302 0 17 97 0 301 303 254 61 44 208 0 193 -17 50 0 301 254 303 45 90 20
5 0 299 -17 303 0 301 50 97 72 187 174 0 304 -17 90 0 285 173 200 72 50 205 0 30
3 +17 173 0 285 214 90 68 304 126 0 0 +17 214 0 285 169 173 60 71 152 0 0 +17 30
4 0 305 187 306 72 173 126 0 0 -15 305 26 0 304 307 0 17 187 0 305 308 304 61 30
3 174 0 0 +17 306 0 305 304 308 68 204 194 0 173 -17 308 0 305 306 187 56 193 18
8 0 0 -17 204 0 309 296 71 56 306 194 0 308 +15 309 36 0 71 310 0 17 296 0 309 2
11 204 76 59 147 0 0 -17 71 0 309 204 211 68 214 152 0 306 -17 211 0 309 71 296
 60 295 151 0 214 +14 310 35 283 ?307 294 309 5 311 -0 0 307 294 21 81 1 283 362
 272 310 312 0 281 313 314 14 307 25 313 ?119 310 305 5 315 -0 0 119 310 21 14 2
94 42 316 ?310 289 293 5 317 -0 0 310 289 21 50 311 96 0 310 318 319 0 +-.004001
0373654841 .00231 0 .5 -.866025403784439 0 0 0 -1 52 255 318 95 0 276 315 311 0
 +157832146921436e-34 0 .000250000000013827 0 0 1 .00345566243269849 .5000000000
01537 .866025403783551 -1 0 0 50 319 97 0 302 311 320 0 +444089209850063e-32 -.0
0462 0 .5 .866025403784439 0 0 0 -1 14 302 65 321 ?300 276 301 5 319 -0 0 300 27
6 21 50 320 98 0 289 319 322 0 +.0040010373654841 .00231 0 -1 -720924041964389e-
30 0 -720924041964389e-30 1 0 14 289 49 323 ?294 300 286 5 320 -0 0 294 300 21 5
0 322 99 0 300 320 278 0 +.0040010373654841 -.00231 0 -.5 .866025403784438 0 0 0
 1 14 300 58 324 ?289 302 298 5 322 -0 0 289 302 21 50 278 100 0 271 322 18 0 +-
416333634234434e-32 0 -.0649999999999877 -631328587650822e-31 0 -1 -1 0 63132858
7650822e-31 81 1 324 367 272 300 325 0 323 326 327 80 7 CCCCCDI12 legal_owners0
 17 1 lCZ1 272 328 329 9000 1 1 1 1 1 1 1 1 0 FFFFTFTFFFFFFFFFF1 81 1 325 208 27
 300 330 324 331 332 333 81 1 323 366 272 289 331 0 321 324 334 81 1 326 368 272
 119 335 0 324 336 337 82 255 1 327 440336497 14 119 22 326 ?338 307 114 5 339 +
0 0 338 307 21 81 1 335 194 27 119 340 326 341 342 343 81 1 336 369 272 338 341
 0 326 344 345 82 1 337 442040433 14 338 17 336 ?346 119 347 5 348 +0 0 346 119
 21 81 1 341 192 27 338 349 336 350 335 351 81 1 344 370 272 346 350 0 336 352 3
53 82 1 345 441843825 14 346 10 344 ?133 338 354 5 355 -0 0 133 338 21 81 1 350
 190 27 346 356 344 357 341 358 81 1 352 371 272 133 359 0 344 360 361 82 1 353
 441647217 14 133 3 352 ?0 346 129 5 362 +0 0 0 346 21 81 1 359 186 27 133 363 3
52 364 357 365 81 1 360 372 272 276 366 0 352 0 367 82 1 361 441319537 14 276 69
 360 ?302 271 39 5 318 +0 0 302 271 21 81 1 366 200 27 276 368 360 369 312 370 8
2 1 367 442499185 80 1 27 371 372 9000 0 0 0 0 3 6 0 0 0 TTTFTFTTFFFFFFFFF10 81
 1 368 199 137 276 0 366 373 374 375 81 1 369 198 27 307 373 313 342 366 376 81
 1 312 202 27 310 374 283 366 377 378 98 255 3 370 50 51 52 81 1 374 201 137 310
 0 312 368 379 380 81 1 377 204 27 302 379 321 312 331 381 98 3 378 50 50 57 81
 1 379 203 137 302 0 377 374 382 383 81 1 321 365 272 302 377 0 316 323 384 81 1
 331 206 27 289 382 323 377 325 385 98 3 381 50 51 51 81 1 382 205 137 289 0 331
 379 330 386 98 3 385 50 51 49 80 1 137 0 387 8001 0 0 0 0 3 5 0 0 0 FFFFTFTFFFF
FFFFFF2 81 1 330 207 137 300 0 325 382 388 389 83 255 3 386 .627450980392157 .62
7450980392157 .627450980392157 81 1 388 209 137 271 0 332 330 390 391 83 3 389 .
627450980392157 .627450980392157 .627450980392157 81 1 332 210 27 271 388 274 32
5 273 392 81 1 390 211 137 269 0 273 388 393 394 83 3 391 .627450980392157 .6274
50980392157 .627450980392157 81 1 273 212 27 269 390 270 332 112 395 81 1 393 21
3 137 16 0 112 390 22 396 83 3 394 .627450980392157 .627450980392157 .6274509803
92157 81 1 112 214 27 16 393 281 273 110 397 81 1 22 236 137 10 364 0 393 263 39
8 83 3 396 .627450980392157 .627450980392157 .627450980392157 81 1 364 184 27 10
 0 22 264 359 399 83 3 398 .627451002597809 .627451002597809 .627451002597809 81
 1 264 183 27 24 0 263 400 364 401 98 3 399 49 53 56 81 1 400 182 27 43 0 262 40
2 264 403 98 3 401 49 53 55 81 1 262 238 137 43 400 0 263 233 404 81 1 402 181 2
7 208 0 258 405 400 406 98 3 403 49 53 54 81 1 258 240 137 208 402 0 233 207 407
 81 1 405 180 27 180 0 253 408 402 409 98 3 406 49 53 52 81 1 253 242 137 180 40
5 0 207 179 410 81 1 408 179 27 201 0 250 411 405 412 98 3 409 49 53 50 81 1 250
 245 137 201 408 0 199 245 413 81 1 411 178 27 238 0 245 414 408 415 98 3 412 49
 52 57 81 1 245 246 137 238 411 0 250 237 416 81 1 414 177 27 230 0 237 417 411
 418 98 3 415 49 52 56 81 1 237 247 137 230 414 0 245 228 419 81 1 417 176 27 23
1 0 233 420 414 421 98 3 418 49 52 55 81 1 233 239 137 231 417 0 262 258 422 81
 1 420 175 27 226 0 228 423 417 424 98 3 421 49 53 53 81 1 228 248 137 226 420 0
 237 224 425 81 1 423 174 27 219 0 224 426 420 427 98 3 424 49 52 54 81 1 224 24
9 137 219 423 0 228 218 428 81 1 426 173 27 170 0 218 429 423 430 98 3 427 49 52
 53 81 1 218 250 137 170 426 0 224 168 431 81 1 429 172 27 152 0 213 432 426 433
 98 3 430 49 52 52 81 1 213 254 137 152 429 0 150 203 434 81 1 432 171 27 151 0
 210 435 429 436 98 3 433 49 52 48 81 1 210 252 137 151 432 0 168 150 437 81 1 4
35 170 27 205 0 207 438 432 439 98 3 436 49 52 50 81 1 207 241 137 205 435 0 258
 253 440 81 1 438 169 27 194 0 203 441 435 442 98 3 439 49 53 51 81 1 203 255 13
7 194 438 0 213 192 443 81 1 441 168 27 181 0 199 444 438 445 98 3 442 49 51 57
 81 1 199 244 137 181 441 0 179 250 446 81 1 444 167 27 188 0 192 447 441 448 98
 3 445 49 53 48 81 1 192 256 137 188 444 0 203 186 449 81 1 447 166 27 174 0 186
 450 444 451 98 3 448 49 51 56 81 1 186 257 137 174 447 0 192 172 452 81 1 450 1
65 27 175 0 179 453 447 454 98 3 451 49 51 55 81 1 179 243 137 175 450 0 253 199
 455 81 1 453 164 27 126 0 172 456 450 457 98 3 454 49 53 49 81 1 172 258 137 12
6 453 0 186 125 458 81 1 456 163 27 166 0 168 459 453 460 98 3 457 49 51 54 81 1
 168 251 137 166 456 0 218 210 461 81 1 459 162 27 117 0 125 462 456 463 98 3 46
0 49 52 51 81 1 125 259 137 117 459 0 172 163 464 81 1 462 161 27 127 0 163 465
 459 466 98 3 463 49 51 53 81 1 163 260 137 127 462 0 125 467 468 81 1 465 160 2
7 160 0 162 469 462 470 98 3 466 49 51 52 81 1 162 262 137 160 465 0 467 158 471
 81 1 469 159 27 142 0 158 472 465 473 98 3 470 49 51 50 81 1 158 263 137 142 46
9 0 162 139 474 81 1 472 158 27 134 0 139 475 469 476 98 3 473 49 51 49 81 1 139
 264 137 134 472 0 158 135 477 81 1 475 157 27 147 0 150 138 472 478 98 3 476 49
 51 48 81 1 150 253 137 147 475 0 210 213 479 81 1 138 156 27 132 0 135 480 475
 481 98 3 478 49 52 49 81 1 480 155 27 123 0 467 482 138 483 98 3 481 49 50 57 1
6 123 16 467 ?122 127 160 145 0 0 1 81 1 467 261 137 123 480 0 163 162 484 81 1
 482 154 27 121 0 140 0 480 485 98 3 483 49 51 51 81 1 140 266 137 121 482 0 135
 0 486 98 3 485 49 50 56 83 3 486 .627451002597809 .627451002597809 .62745100259
7809 83 3 484 .627451002597809 .627451002597809 .627451002597809 17 122 0 354 10
4 124 94 116 123 0 116 +15 354 11 0 159 346 0 17 104 0 354 159 122 101 124 160 0
 159 -17 124 0 354 122 159 94 104 160 0 0 +17 159 0 354 124 104 101 487 142 0 48
7 +17 487 0 347 487 487 101 159 142 0 0 -15 347 21 0 487 338 488 15 488 18 0 164
 338 0 17 164 0 488 164 164 91 489 127 0 489 +17 489 0 39 41 40 91 164 127 0 0 -
15 39 70 0 489 276 0 17 41 0 39 35 489 26 40 231 0 0 +17 40 0 39 489 35 91 41 23
1 0 164 -83 3 479 .627451002597809 .627451002597809 .627451002597809 83 3 477 .6
27451002597809 .627451002597809 .627451002597809 83 3 474 .627451002597809 .6274
51002597809 .627451002597809 83 3 471 .627451002597809 .627451002597809 .6274510
02597809 83 3 468 .627451002597809 .627451002597809 .627451002597809 83 3 464 .6
27451002597809 .627451002597809 .627451002597809 83 3 461 .627451002597809 .6274
51002597809 .627451002597809 83 3 458 .627451002597809 .627451002597809 .6274510
02597809 83 3 455 .627451002597809 .627451002597809 .627451002597809 83 3 452 .6
27451002597809 .627451002597809 .627451002597809 83 3 449 .627451002597809 .6274
51002597809 .627451002597809 83 3 446 .627451002597809 .627451002597809 .6274510
02597809 83 3 443 .627451002597809 .627451002597809 .627451002597809 83 3 440 .6
27451002597809 .627451002597809 .627451002597809 83 3 437 .627451002597809 .6274
51002597809 .627451002597809 83 3 434 .627451002597809 .627451002597809 .6274510
02597809 83 3 431 .627451002597809 .627451002597809 .627451002597809 83 3 428 .6
27451002597809 .627451002597809 .627451002597809 83 3 425 .627451002597809 .6274
51002597809 .627451002597809 83 3 422 .627451002597809 .627451002597809 .6274510
02597809 83 3 419 .627451002597809 .627451002597809 .627451002597809 83 3 416 .6
27451002597809 .627451002597809 .627451002597809 83 3 413 .627451002597809 .6274
51002597809 .627451002597809 83 3 410 .627451002597809 .627451002597809 .6274510
02597809 83 3 407 .627451002597809 .627451002597809 .627451002597809 83 3 404 .6
27451002597809 .627451002597809 .627451002597809 98 3 397 50 51 56 98 3 395 50 5
1 54 81 1 274 359 272 271 332 0 270 279 490 98 3 392 50 51 53 81 1 279 360 272 2
67 357 0 274 281 491 82 1 490 436207729 81 1 357 188 27 267 492 279 359 350 493
 82 1 491 436273265 81 1 492 187 137 267 0 357 363 356 494 98 3 493 50 51 55 81
 1 363 185 137 133 0 359 0 492 495 81 1 356 189 137 346 0 350 492 349 496 83 3 4
94 .627450980392157 .627450980392157 .627450980392157 81 1 349 191 137 338 0 341
 356 340 497 83 3 496 .627450980392157 .627450980392157 .627450980392157 81 1 34
0 193 137 119 0 335 349 498 499 83 3 497 .627450980392157 .627450980392157 .6274
50980392157 81 1 498 195 137 294 0 342 340 373 500 83 3 499 .627450980392157 .62
7450980392157 .627450980392157 81 1 342 196 27 294 498 316 335 369 501 81 1 373
 197 137 307 0 369 498 368 502 83 3 500 .627450980392157 .627450980392157 .62745
0980392157 83 3 502 .627450980392157 .627450980392157 .627450980392157 81 1 316
 364 272 294 342 0 313 321 503 98 3 501 50 51 48 81 1 313 363 272 307 369 0 283
 316 504 82 1 503 439812209 82 1 504 439746673 83 3 495 .627450980392157 .627450
980392157 .627450980392157 79 255 15 387 SDL/TYSA_COLOUR82 1 384 440074353 83 3
 383 .627450980392157 .627450980392157 .627450980392157 83 3 380 .62745098039215
7 .627450980392157 .627450980392157 98 3 376 50 50 56 83 3 375 .627450980392157
 .627450980392157 .627450980392157 79 19 372 SPAATTRIB_UNICODEID98 3 365 50 50 5
2 52 362 88 0 133 0 280 0 +0 0 -.06475462 0 0 1 .00227962 .74051234749299 .67204
2754004849 -1 0 0 52 280 89 0 267 362 355 0 +206020598747441e-33 0 .003263286389
6445 0 0 -1 .00421 .86602540378444 .5 -1 0 0 54 255 355 90 0 346 280 348 0 +-126
265717526465e-34 0 -.000199999999994143 -584225412011133e-31 0 -1 .0026505 2e-4
 -1 0 584225412011133e-31 50 348 91 0 338 355 339 0 +-.0025 0 585823415317538e-2
9 -631328587650822e-31 0 -1 -1 0 631328587650822e-31 51 255 339 92 0 119 348 317
 0 +-20518179098646e-31 0 -.0324999999999909 0 0 -1 .0024505 -1 0 0 50 317 93 0
 294 339 315 0 +111022302462516e-32 .00462 0 -.5 -.866025403784439 0 -.866025403
784439 .5 0 50 315 94 0 307 317 318 0 +-.0040010373654841 -.00231 0 1 4806160279
76259e-30 0 -480616027976259e-30 1 0 98 3 358 50 50 53 98 3 351 50 50 54 98 3 34
3 50 50 55 82 1 334 440205425 98 3 333 50 51 50 79 14 329 SWEntUnchanged82 1 314
 439615601 17 193 0 31 44 59 61 308 188 0 187 +82 1 284 436469873 15 277 75 0 10
8 271 0 17 108 0 277 108 108 105 130 134 0 130 +82 1 275 436076657 83 3 265 .627
451002597809 .627451002597809 .627451002597809 31 144 123 0 121 0 145 0 +-407835
363417529e-32 0 -.064599539985206 0 0 1 -1 0 0 .0024505 83 3 141 .62745100259780
9 .627451002597809 .627451002597809 81 1 107 216 27 105 0 0 110 103 505 98 3 113
 49 48 56 81 1 103 217 27 101 0 0 107 99 506 98 3 505 49 48 57 81 1 99 218 27 94
 0 0 103 96 507 98 3 506 49 49 48 81 1 96 219 27 61 0 0 99 93 508 98 3 507 49 49
 49 81 1 93 220 27 91 0 0 96 89 509 98 3 508 49 49 53 81 1 89 221 27 72 0 0 93 8
6 510 98 3 509 49 49 50 81 1 86 222 27 66 0 0 89 83 511 98 3 510 49 49 51 81 1 8
3 223 27 60 0 0 86 80 512 98 3 511 49 50 49 81 1 80 224 27 76 0 0 83 78 513 98 3
 512 49 49 55 81 1 78 225 27 55 0 0 80 74 514 98 3 513 49 49 56 81 1 74 226 27 6
7 0 0 78 70 515 98 3 514 49 50 50 81 1 70 227 27 68 0 0 74 64 516 98 3 515 49 49
 57 81 1 64 228 27 62 0 0 70 58 517 98 3 516 49 49 52 81 1 58 229 27 56 0 0 64 5
3 518 98 3 517 49 50 48 81 1 53 230 27 51 0 0 58 49 519 98 3 518 49 49 54 81 1 4
9 231 27 45 0 0 53 37 520 98 3 519 49 50 51 81 1 37 232 27 36 0 0 49 28 521 98 3
 520 49 50 52 98 3 521 49 50 53 98 3 38 49 50 54 81 1 29 269 27 1 522 523 25 0 5
24 98 3 30 49 50 55 81 1 522 268 525 1 526 29 0 0 527 81 1 523 271 528 1 29 529
 0 0 530 98 2 524 49 52 80 1 528 531 532 8051 0 0 0 0 3 5 0 0 0 TFTFFFFFFFFFFFFF
F1 81 2 529 273 533 1 523 534 0 0 0 535 82 1 530 0 80 2 533 536 537 9000 0 0 0 0
 3 5 0 0 0 FFTFFFFFFFFFFFFFF9 1 81 2 534 274 538 1 529 539 0 0 540 0 82 1 535 38
 80 2 538 541 542 9000 0 0 0 0 3 5 0 0 0 FFTFTTTFFTFFFFFFF10 10 81 2 539 275 543
 1 534 544 0 0 0 545 98 8 540 66 111 100 121 49 91 49 93 80 2 543 546 547 9000 0
 0 0 0 3 5 0 0 0 FFTFFFFFFFFFFFFFF9 1 81 2 544 308 548 1 539 13 0 0 0 0 82 1 545
 103 80 2 548 549 550 9000 0 0 0 0 3 5 0 0 0 FFTFFFFFFFFFFFFFF9 1 81 1 13 324 55
1 1 544 2 0 0 552 80 1 551 553 554 9000 1 1 1 1 1 1 1 1 0 FFTFFFFFFFFFFFFFF1 82
 1 552 6502 79 10 554 BODY_MATCH79 16 550 BODY_RECIPE_200179 19 547 ENT_TIME_STA
MP_200179 23 542 SWIMPLICITBODYNAME_ID_U79 30 537 LAST_BODY_MODIFYING_FEATURE_ID
79 21 532 SDL/TYSA_SCALE_FACTOR80 1 525 27 555 9000 0 0 0 0 3 5 0 0 0 TFTFTFTFFF
FFFFFFF10 81 1 526 267 556 1 557 522 0 0 558 98 35 527 73 83 79 32 52 48 49 55 3
2 45 32 77 53 32 120 32 54 53 32 83 116 101 101 108 32 49 50 46 57 32 80 108 97
 105 110 80 1 556 559 560 8038 0 0 0 0 0 0 0 0 0 TTTTTTTTTTTTTFTFT10 81 1 557 23
5 561 1 0 526 0 0 562 98 5 558 66 111 100 121 49 80 1 561 137 563 8040 0 0 0 0 3
 5 0 0 0 TTTFFFFFFFFFFFFFF2 83 3 562 .627451002597809 .627451002597809 .62745100
2597809 79 17 563 SDL/TYSA_COLOUR_279 14 560 SDL/TYSA_UNAME79 22 555 ATTRIB_XPAR
ASOLID_NAME19 17 86 0 1 0 9 5 0 S0 74 4 CI16 index_map_offset0 0 1 dCCZ20 15 13
 0 0 29 140 557 526 522 523 529 534 539 544 360 13 2 0 0 0 0 0 0 0 80 2 12 564 5
65 9000 0 0 0 0 3 5 0 0 0 FFTFFFFFFFFFFFFFF9 1 82 1 14 101 79 12 565 ATOM_ID_200
11 0 
