**ABCDEFGHIJKLMNOPQRSTUVWXYZabcdefghijklmnopqrstuvwxyz**************************
**PARASOLID !"#$%&'()*+,-./:;<=>?@[\]^_`{|}~0123456789**************************
**PART1;
MC=AMD64;
MC_MODEL=Intel64 Family 6 Model 154 Stepping 3, GenuineIntel;
MC_ID=unknown;
OS=Windows_NT;
OS_RELEASE=unknown;
FRU=Parasolid Version 36.1, build 228,  1-18-2025;
APPL=SOLIDWORKS 2025-2025268;
SITE=;
USER=unknown;
FORMAT=text;
GUISE=transmit;
KEY=80mm_slider_stopper;
FILE=80mm_slider_stopper.x_t;
DATE=Sat Feb 28 20:04:36 2026;
**PART2;
SCH=SCH_3601228_36001;
USFLD_SIZE=0;
**PART3;
**END_OF_HEADER*****************************************************************
T51 : TRANSMIT FILE created by modeller version 360122823 SCH_3601228_36001_1300
6231 0 12 36 CCCI7 lattice222 0 CCCI4 mesh1006 0 I8 polyline1008 0 CCCCCCCDI5 ow
ner1040 0 CCCI16 boundary_lattice222 0 CCCI13 boundary_mesh1006 0 I17 boundary_p
olyline1008 0 CCCA16 index_map_offset0 0 1 dA9 index_map82 0 A17 node_id_index_m
ap82 0 A20 schema_embedding_map82 0 A5 child12 0 A14 lowest_node_id0 0 1 dA16 me
sh_offset_data206 0 Z1 92 2 3 0 0 0 0 0 0 0 1e3 1e-8 0 4 0 1 0 1 1 5 0 6 7 8 0 0
 9 10 11 0 0 0 0 0 0 0 81 255 2 2 89 12 1 13 0 0 0 0 14 70 11 CI9 list_type0 0 1
 uI10 notransmit0 0 1 lCCCDCCDI12 finger_index0 0 1 dI12 finger_block1012 0 CZ3
 0 4 T1 0 0 13 20 1 15 15 13 255 5 15 0 1 0 16 0 0 17 0 50 255 6 18 0 16 18 0 0
 +0 0 0 0 0 1 1 0 0 31 255 7 23 0 10 19 0 0 +0 0 0 0 0 1 1 0 0 .004 29 255 8 20
 0 11 20 0 -.004 -489858719658941e-33 0 19 9 CCCCCCI5 frame230 0 CA5 owner12 0 Z
9 1 0 1 17 0 21 0 V0 16 255 10 11 22 ?23 0 24 7 0 0 1 18 255 11 10 25 23 0 26 8
 ?1 81 1 25 34 27 11 0 0 28 29 30 17 255 23 0 31 32 33 11 34 10 0 34 +18 26 6 28
 32 11 0 20 ?1 81 1 28 33 27 26 0 0 35 25 36 17 32 0 31 37 23 26 33 24 0 37 -29
 20 19 0 26 0 8 -.004 -489858719658941e-33 .08 15 255 31 8 0 37 38 0 17 37 0 31
 33 32 26 39 40 0 39 +17 33 0 31 23 37 11 32 24 0 0 +16 24 9 41 ?33 10 40 19 0 0
 1 81 1 41 37 42 24 43 0 22 44 45 16 40 5 44 ?37 24 0 46 0 0 1 30 255 19 22 0 24
 46 7 0 +-.004 -489858719658941e-33 0 0 0 -1 31 46 21 0 40 0 19 0 +0 0 .08 0 0 -
1 1 0 0 .004 81 1 44 38 42 40 47 0 41 0 48 80 7 CCCCCDI12 legal_owners0 17 1 lCZ
1 42 0 49 8001 0 0 0 0 3 5 0 0 0 FFFFTFTFFFFFFFFFF2 81 1 47 24 27 40 0 44 0 43 5
0 83 255 3 48 .627451002597809 .627451002597809 .627451002597809 80 1 27 51 52 9
000 0 0 0 0 3 6 0 0 0 TTTFTFTTFFFFFFFFF10 81 1 43 25 27 24 0 41 47 53 54 98 255
 2 50 50 56 81 1 53 26 27 10 0 22 43 55 56 98 2 54 50 57 81 1 22 36 42 10 53 0 5
7 41 58 81 1 55 28 27 59 60 61 53 62 63 98 2 56 51 48 14 255 59 3 61 ?0 38 64 5
 65 +0 0 0 38 21 81 1 60 27 42 59 0 55 0 66 67 81 1 61 90 68 59 55 0 0 69 70 81
 1 62 30 27 38 66 69 55 35 71 98 2 63 51 57 14 38 7 69 ?59 16 31 5 18 +0 0 59 16
 21 81 1 66 29 42 38 0 62 60 57 72 81 1 69 91 68 38 62 0 61 73 74 81 1 35 32 27
 16 57 73 62 28 75 98 2 71 52 48 14 16 12 73 ?38 0 76 5 6 -0 0 38 0 21 81 1 57 3
1 42 16 0 35 66 22 77 81 1 73 92 68 16 35 0 69 0 78 98 2 75 52 49 80 1 68 79 80
 9000 1 1 1 1 1 1 1 1 0 FFFFTFTFFFFFFFFFF1 82 255 1 78 21102705 79 255 14 80 SWE
ntUnchanged83 3 77 .627450980392157 .627450980392157 .627450980392157 15 76 13 0
 34 16 0 13 21 2 0 0 0 0 0 0 9 16 17 34 0 76 34 34 11 23 10 0 33 -82 1 74 209060
97 83 3 72 .627450980392157 .627450980392157 .627450980392157 51 255 18 17 0 38
 65 6 0 +0 0 0 0 0 1 .004 1 0 0 50 65 16 0 59 0 18 0 +0 0 .08 0 0 1 1 0 0 82 1 7
0 20709489 83 3 67 .627450980392157 .627450980392157 .627450980392157 15 64 4 0
 39 59 0 17 39 0 64 39 39 26 37 40 0 0 -83 3 58 .627451002597809 .62745100259780
9 .627451002597809 79 19 52 SPAATTRIB_UNICODEID79 15 49 SDL/TYSA_COLOUR83 3 45 .
627451002597809 .627451002597809 .627451002597809 98 2 36 50 54 81 1 29 41 27 1
 81 82 25 0 83 98 2 30 50 55 81 1 81 40 84 1 85 29 0 0 86 81 1 82 43 87 1 29 88
 0 0 89 98 2 83 49 52 80 1 87 90 91 8051 0 0 0 0 3 5 0 0 0 TFTFFFFFFFFFFFFFF1 81
 2 88 45 92 1 82 93 0 0 0 94 82 1 89 0 80 2 92 95 96 9000 0 0 0 0 3 5 0 0 0 FFTF
FFFFFFFFFFFFF9 1 81 2 93 46 97 1 88 98 0 0 99 0 82 1 94 38 80 2 97 100 101 9000
 0 0 0 0 3 5 0 0 0 FFTFTTTFFTFFFFFFF10 10 81 2 98 47 102 1 93 103 0 0 0 104 98 8
 99 66 111 100 121 49 91 49 93 80 2 102 105 106 9000 0 0 0 0 3 5 0 0 0 FFTFFFFFF
FFFFFFFF9 1 81 2 103 56 107 1 98 13 0 0 0 0 82 1 104 103 80 2 107 108 109 9000 0
 0 0 0 3 5 0 0 0 FFTFFFFFFFFFFFFFF9 1 81 1 13 60 110 1 103 2 0 0 111 80 1 110 11
2 113 9000 1 1 1 1 1 1 1 1 0 FFTFFFFFFFFFFFFFF1 82 1 111 262 79 10 113 BODY_MATC
H79 16 109 BODY_RECIPE_200179 19 106 ENT_TIME_STAMP_200179 23 101 SWIMPLICITBODY
NAME_ID_U79 30 96 LAST_BODY_MODIFYING_FEATURE_ID79 21 91 SDL/TYSA_SCALE_FACTOR80
 1 84 27 114 9000 0 0 0 0 3 5 0 0 0 TFTFTFTFFFFFFFFFF10 81 1 85 39 115 1 116 81
 0 0 117 98 19 86 56 48 109 109 95 115 108 105 100 101 114 95 115 116 111 112 11
2 101 114 80 1 115 118 119 8038 0 0 0 0 0 0 0 0 0 TTTTTTTTTTTTTFTFT10 81 1 116 3
5 120 1 0 85 0 0 121 98 5 117 66 111 100 121 49 80 1 120 42 122 8040 0 0 0 0 3 5
 0 0 0 TTTFFFFFFFFFFFFFF2 83 3 121 .627451002597809 .627451002597809 .6274510025
97809 79 17 122 SDL/TYSA_COLOUR_279 14 119 SDL/TYSA_UNAME79 22 114 ATTRIB_XPARAS
OLID_NAME19 17 14 0 1 0 9 5 0 S0 74 4 CI16 index_map_offset0 0 1 dCCZ20 15 13 0
 0 29 44 116 85 81 82 88 93 98 103 73 13 2 0 0 0 0 0 0 0 80 2 12 123 124 9000 0
 0 0 0 3 5 0 0 0 FFTFFFFFFFFFFFFFF9 1 82 1 14 101 79 12 124 ATOM_ID_20011 0 
