**ABCDEFGHIJKLMNOPQRSTUVWXYZabcdefghijklmnopqrstuvwxyz**************************
**PARASOLID !"#$%&'()*+,-./:;<=>?@[\]^_`{|}~0123456789**************************
**PART1;
MC=AMD64;
MC_MODEL=Intel64 Family 6 Model 154 Stepping 3, GenuineIntel;
MC_ID=unknown;
OS=Windows_NT;
OS_RELEASE=unknown;
FRU=Parasolid Version 36.1, build 228,  1-18-2025;
APPL=SOLIDWORKS 2025-2025268;
SITE=;
USER=unknown;
FORMAT=text;
GUISE=transmit;
KEY=Bush_locator_pin;
FILE=Bush_locator_pin.x_t;
DATE=Sat Feb 28 20:08:23 2026;
**PART2;
SCH=SCH_3601228_36001;
USFLD_SIZE=0;
**PART3;
**END_OF_HEADER*****************************************************************
T51 : TRANSMIT FILE created by modeller version 360122823 SCH_3601228_36001_1300
6231 0 12 36 CCCI7 lattice222 0 CCCI4 mesh1006 0 I8 polyline1008 0 CCCCCCCDI5 ow
ner1040 0 CCCI16 boundary_lattice222 0 CCCI13 boundary_mesh1006 0 I17 boundary_p
olyline1008 0 CCCA16 index_map_offset0 0 1 dA9 index_map82 0 A17 node_id_index_m
ap82 0 A20 schema_embedding_map82 0 A5 child12 0 A14 lowest_node_id0 0 1 dA16 me
sh_offset_data206 0 Z1 315 2 3 0 0 0 0 0 0 0 1e3 1e-8 0 4 0 1 0 1 1 5 0 6 7 8 0
 0 9 10 11 0 0 0 0 0 0 0 81 255 2 2 305 12 1 13 0 0 0 0 14 70 11 CI9 list_type0
 0 1 uI10 notransmit0 0 1 lCCCDCCDI12 finger_index0 0 1 dI12 finger_block1012 0
 CZ3 0 4 T1 0 0 13 20 1 15 15 13 255 5 66 0 1 0 16 0 0 17 0 50 255 6 76 0 16 18
 0 0 +0 0 .185 0 0 1 1 0 0 137 255 7 243 0 1 19 0 20 +21 22 0 ?29 255 8 91 0 11
 23 0 -.0095 -116341445918999e-32 .185 19 9 CCCCCCI5 frame230 0 CA5 owner12 0 Z9
 1 0 1 17 0 24 0 V0 16 255 10 59 25 ?26 0 27 28 0 0 1 18 255 11 57 29 30 0 31 8
 ?1 81 1 29 170 32 11 0 0 33 34 35 17 255 30 0 36 37 38 11 39 27 0 40 -18 31 52
 33 41 11 42 23 ?1 81 1 33 169 32 31 0 0 43 29 44 17 41 0 45 41 41 31 46 47 0 46
 +18 42 50 43 48 31 49 50 ?1 29 23 90 0 31 50 8 -.00338975 .00887466027166674 .1
75 29 50 89 0 42 51 23 -.00338975 -.00887466027166674 .175 29 51 88 0 49 52 50 .
00887466027166674 .00338975 .155 18 49 44 53 54 42 55 51 27040969839626e-19 1 29
 52 87 0 56 57 51 -.0095 -373540412477776e-33 .15838975 18 56 36 58 39 59 60 52
 277574539865079e-20 1 29 57 86 0 59 61 52 -.0095 -78987404671221e-32 .15161025
 18 59 38 62 63 64 56 57 2775745398732755e-21 1 29 61 85 0 60 65 57 -.0088746602
7166674 .00338975 .155 18 60 35 66 67 56 68 61 277574539865079e-20 1 29 65 84 0
 69 70 61 -.00815 998087141305093e-33 0 18 69 17 71 72 73 74 65 ?1 29 70 83 0 74
 75 65 -.00515 -630693101560887e-33 -.003 18 74 15 76 77 69 78 70 ?1 29 75 82 0
 64 79 70 -.00887466027166674 -.00338975 .155 18 64 40 80 81 55 59 75 2775745398
732755e-21 1 29 79 81 0 78 82 75 -.0025 306161699786838e-33 -.062 18 78 8 83 84
 74 85 79 ?1 29 82 80 0 73 86 79 -.00515 630693101560887e-33 -.082 18 73 22 87 8
8 68 69 82 ?1 29 86 79 0 85 89 82 -.0025 306161699786838e-33 -.082 18 85 6 90 91
 78 0 86 ?1 29 89 78 0 68 92 86 -.0095 -116341445918999e-32 0 18 68 27 93 26 60
 73 89 ?1 29 92 77 0 55 0 89 .00887466027166674 -.00338975 .155 18 55 42 94 95 4
9 64 92 27040969839626e-19 1 81 1 94 156 32 55 0 0 96 93 97 17 95 0 98 99 100 55
 54 101 102 103 -15 255 98 33 0 104 105 0 17 99 0 98 106 95 64 107 108 0 109 -17
 100 0 98 95 107 49 103 110 111 0 -17 54 0 112 103 103 49 95 101 113 100 +16 101
 45 114 27040969839626e-19 54 115 110 0 0 0 1 133 255 102 216 0 95 116 117 0 +11
7 .00887466027166674 .00338975 .155 .00887466027166674 -.00338975 .155 0 1 17 10
3 0 112 54 54 55 100 110 118 107 +15 112 60 0 103 119 36 16 110 43 120 270409698
39587e-19 103 101 108 0 0 0 1 133 118 221 0 103 117 121 0 +121 .0088746602716667
4 .00338975 .155 .00887466027166674 -.00338975 .155 0 1 17 107 0 98 100 109 55 9
9 108 0 0 +17 109 0 98 107 122 64 123 124 125 0 -16 108 41 126 ?107 110 124 127
 0 0 1 81 1 126 181 128 108 129 0 120 130 131 16 124 39 130 2775745398732755e-21
 123 108 132 0 0 0 1 133 127 210 0 108 133 134 0 +134 -.00887466027166674 -.0033
8975 .155 .00887466027166674 -.00338975 .155 -.00887466027166674 .00887466027166
674 30 255 133 207 0 1 135 127 136 +-.0095 -116341445918999e-32 0 0 0 -1 30 134
 211 0 1 127 113 137 +0 -.00338975 .155 1 0 0 133 113 214 0 54 134 116 0 +116 .0
0887466027166674 -.00338975 .155 .00887466027166674 .00338975 .155 0 1 141 255 1
37 127 137 137 134 137 116 215 0 1 113 102 138 +18 139 0 ?141 138 113 138 138 11
6 51 255 18 75 0 119 21 6 140 +0 0 0 0 0 1 .0095 1 0 0 134 255 139 0 0 0 0 0 0 +
141 142 136 255 141 2 17 2 9 5 FFF1 143 144 145 135 255 142 2 0 45 255 34 143 5.
91832822331542 .155 5.91834307991927 .155673953779124 5.94747253189608 .15630206
5678382 5.97602575286838 .156917752436551 6.02806140097048 .1573963598783665 6.0
7966510794827 .157870994462265 6.14561320969106 .158129388877079 6.2120632598464
2 .15838975 6.28318530717959 .15838975 6.35429241777435 .15838975 6.420757404668
11 .158129388877079 6.48668123231068 .1578711476196225 6.53830921338869 .1573963
598783665 6.59032788811644 .1569179791909675 6.61889808246309 .156302065678382 6
.64802753130914 .155674095810878 6.64804239104376 .155 127 255 9 144 3 2 2 2 2 2
 2 2 3 128 255 9 145 0 .125 .25 .375 .5 .625 .75 .875 1 14 255 119 54 146 ?147 1
6 148 5 18 +0 0 147 16 24 51 21 74 0 105 149 18 150 +0 0 .155 1 0 0 .00338975 0
 1 0 141 140 151 152 153 18 38 12 CCCCCCCCCCCA17 intersection_data204 0 Z151 199
 0 47 154 155 0 -18 156 157 158 158 159 141 152 160 161 140 18 141 153 155 140 1
62 18 38 155 200 0 163 151 164 0 -18 156 165 166 166 167 141 162 168 153 169 18
 137 168 202 0 1 164 170 171 +18 172 0 ?141 169 116 162 173 18 141 173 121 169 1
74 18 137 121 222 0 1 118 111 175 +18 176 0 ?141 174 177 173 161 18 137 177 227
 0 1 178 125 179 +18 180 0 ?141 161 181 174 152 18 137 181 236 0 1 182 183 184 +
18 185 0 ?133 182 235 0 67 186 181 0 +181 -.0095 1163414459189986e-33 .15161025
 -.00887466027166674 .00338975 .155 0 1 133 183 237 0 122 181 187 0 +187 -.00887
466027166674 .00338975 .155 -.0095 -622686973111461e-33 .15161025 0 1 141 184 18
2 184 184 181 134 185 0 0 0 0 0 0 +188 189 136 188 2 9 2 5 5 FFF1 190 191 192 13
5 189 2 0 45 18 190 3.141592653589795 .15161025 3.070485704321665 .15161025 3.00
4020556101265 .151870611122921 2.938096990583345 .152128850726755 2.886468747380
695 .1526036401216335 2.834450255945425 .1530820183607325 2.80587987830629 .1536
97934321618 2.776747713356265 .154325961209974 2.776735569725625 .155 127 5 191
 3 2 2 2 3 128 5 192 0 .25 .5 .75 1 17 122 0 98 109 104 59 67 132 183 0 -137 187
 238 0 1 183 193 194 +21 195 0 ?133 193 240 0 38 187 160 0 +160 -.00887466027166
674 .00338975 .155 -.0095 1163414459189986e-33 .15838975 0 1 141 194 183 194 194
 187 134 195 0 0 0 0 0 0 +196 197 136 196 2 9 2 5 5 FFF1 198 199 200 135 197 2 0
 45 18 198 6.28318530717959 -.00887466027166674 6.09808207960874 -.0088746602716
6674 5.88893242086614 -.00896966944689993 5.76310186865812 -.00902682974568451 5
.49801880198637 -.00919250431703355 5.24626222651038 -.00934984994929128 5.10688
171649935 -.00941024280680928 4.89973133683149 -.0095 4.71238898038469 -.0095 12
7 5 199 3 2 2 2 3 128 5 200 0 .25 .5 .75 1 17 38 0 36 30 67 56 104 201 193 0 +13
7 160 241 0 1 193 19 202 +18 203 0 ?133 19 242 0 104 160 7 0 +7 -.0095 -54511337
5174138e-33 .15838975 -.00887466027166674 .00338975 .155 0 1 141 202 193 202 202
 160 134 203 0 0 0 0 0 0 +204 205 136 204 2 9 2 5 5 FFF1 206 207 208 135 205 2 0
 45 18 206 2.776735569725625 .155 2.77674776900039 .155673894598362 2.8058798783
0629 .156302065678382 2.834432874439365 .1569177494323595 2.886468747380685 .157
3963598783665 2.938072132819145 .157870992433258 3.004020556101265 .158129388877
079 3.07047040845498 .15838975 3.141592653589795 .15838975 127 5 207 3 2 2 2 3 1
28 5 208 0 .25 .5 .75 1 17 104 0 98 122 106 60 38 201 19 0 -17 106 0 98 104 99 5
6 81 115 170 38 -16 201 34 209 277574539865079e-20 38 132 210 0 0 0 1 81 1 209 1
84 128 201 211 0 212 213 214 16 132 37 212 2762492666426655e-21 67 124 201 0 0 0
 1 16 210 26 213 ?215 201 216 217 0 0 1 81 1 213 185 128 210 218 0 209 219 220 1
7 215 0 36 63 26 68 221 210 0 221 +16 216 23 219 ?77 210 222 223 0 0 1 31 255 21
7 103 0 210 223 224 0 +0 0 0 0 0 1 1 0 0 .0095 30 223 100 0 216 225 217 0 +-.005
15 630693101560887e-33 0 0 0 1 30 224 110 0 226 217 154 0 +-.00338975 0 .175 0 1
 0 16 226 51 227 ?228 47 163 224 0 0 1 31 154 112 0 229 224 151 0 +0 0 .185 0 0
 1 1 0 0 .0095 16 229 56 230 ?40 27 47 154 0 0 1 81 1 230 174 128 229 231 0 232
 233 234 17 40 0 235 40 40 11 37 229 0 37 +16 27 58 232 ?39 10 229 135 0 0 1 16
 47 53 233 ?41 229 226 151 0 0 1 81 1 233 175 128 47 236 0 230 227 237 80 7 CCCC
CDI12 legal_owners0 17 1 lCZ1 128 0 238 8001 0 0 0 0 3 5 0 0 0 FFFFTFTFFFFFFFFFF
2 81 1 236 133 32 47 0 233 239 231 240 81 1 227 176 128 226 239 0 233 241 242 83
 255 3 237 .627451002597809 .627451002597809 .627451002597809 81 1 239 132 32 22
6 0 227 243 236 244 81 1 241 177 128 163 243 0 227 245 246 83 3 242 .62745100259
7809 .627451002597809 .627451002597809 16 163 49 241 ?247 226 115 155 0 0 1 81 1
 243 131 32 163 0 241 248 239 249 81 1 245 178 128 115 250 0 241 114 251 83 3 24
6 .627451002597809 .627451002597809 .627451002597809 16 115 46 245 2762492666594
49e-20 81 163 101 0 0 0 1 81 1 250 126 32 115 0 245 218 252 253 81 1 114 179 128
 101 254 0 245 120 255 83 3 251 .627451002597809 .627451002597809 .6274510025978
09 81 1 254 123 32 101 0 114 256 257 258 81 1 120 180 128 110 248 0 114 126 259
 83 3 255 .627451002597809 .627451002597809 .627451002597809 81 1 248 130 32 110
 0 120 129 243 260 83 3 259 .627451002597809 .627451002597809 .627451002597809 8
0 1 32 261 262 9000 0 0 0 0 3 6 0 0 0 TTTFTFTTFFFFFFFFF10 81 1 129 129 32 108 0
 126 263 248 264 98 255 3 260 49 48 54 81 1 263 128 32 124 0 130 252 129 265 98
 3 264 49 48 53 81 1 130 182 128 124 263 0 126 212 266 81 1 252 127 32 132 0 212
 250 263 267 98 3 265 49 48 52 81 1 212 183 128 132 252 0 130 209 268 98 3 267 4
9 48 51 83 3 268 .627451002597809 .627451002597809 .627451002597809 83 3 266 .62
7451002597809 .627451002597809 .627451002597809 79 255 19 262 SPAATTRIB_UNICODEI
D81 1 256 122 32 216 0 219 269 254 270 81 1 257 124 32 10 0 25 254 218 271 98 3
 258 49 48 55 81 1 25 172 128 10 257 0 272 232 273 81 1 218 125 32 210 0 213 257
 250 274 98 3 271 49 49 52 98 3 274 49 48 49 81 1 272 154 128 16 0 96 275 25 276
 81 1 232 173 128 27 277 0 25 230 278 83 3 273 .627451002597809 .627451002597809
 .627451002597809 81 1 277 135 32 27 0 232 231 279 280 83 3 278 .627451002597809
 .627451002597809 .627451002597809 81 1 231 134 32 229 0 230 236 277 281 81 1 27
9 137 32 282 283 284 277 285 286 98 3 280 49 49 51 14 282 3 284 ?0 287 288 5 289
 -0 0 0 287 24 81 1 283 136 128 282 0 279 0 290 291 81 1 284 307 292 282 279 0 1
46 293 294 81 1 285 139 32 147 290 293 279 295 296 98 3 286 49 54 52 14 147 47 2
93 ?105 119 297 5 156 -0 0 105 119 24 81 1 290 138 128 147 0 285 283 298 299 81
 1 293 308 292 147 285 0 284 300 301 81 1 295 141 32 287 298 300 285 302 303 98
 3 296 49 55 49 14 287 10 300 ?282 304 305 5 306 +0 0 282 304 24 81 1 298 140 12
8 287 0 295 290 307 308 81 1 300 309 292 287 295 0 293 309 310 81 1 302 143 32 3
11 307 309 295 312 313 98 3 303 49 54 53 14 311 24 309 ?314 315 316 5 317 -0 0 3
14 315 24 81 1 307 142 128 311 0 302 298 318 319 81 1 309 310 292 311 302 0 300
 320 321 81 1 312 145 32 304 318 320 302 322 323 98 3 313 49 54 56 14 304 12 320
 ?287 314 324 5 325 -0 0 287 314 24 81 1 318 144 128 304 0 312 307 326 327 81 1
 320 311 292 304 312 0 309 328 329 81 1 322 147 32 314 326 328 312 330 331 98 3
 323 49 54 54 14 314 19 328 ?304 311 332 5 333 +0 0 304 311 24 81 1 326 146 128
 314 0 322 318 334 335 81 1 328 312 292 314 322 0 320 336 337 81 1 330 149 32 31
5 334 336 322 338 339 98 3 331 49 54 55 14 315 29 336 ?311 105 340 5 149 +0 0 31
1 105 24 81 1 334 148 128 315 0 330 326 341 342 81 1 336 313 292 315 330 0 328 3
43 344 81 1 338 151 32 105 341 343 330 345 346 98 3 339 49 54 57 14 105 32 343 ?
315 147 98 5 21 -0 0 315 147 24 81 1 341 150 128 105 0 338 334 275 347 81 1 343
 314 292 105 338 0 336 348 349 81 1 345 153 32 119 275 146 338 96 350 98 3 346 4
9 55 48 81 1 275 152 128 119 0 345 341 272 351 81 1 146 306 292 119 345 0 0 284
 352 81 1 96 155 32 16 272 348 345 94 353 98 3 350 49 55 50 14 16 63 348 ?119 0
 235 5 6 +0 0 119 0 24 81 1 348 315 292 16 96 0 343 0 354 98 3 353 49 55 51 80 1
 292 355 356 9000 1 1 1 1 1 1 1 1 0 FFFFTFTFFFFFFFFFF1 82 255 1 354 29098097 79
 14 356 SWEntUnchanged15 235 64 0 40 16 0 13 24 2 0 0 0 0 0 0 9 16 82 1 352 2293
7713 83 3 351 .627450980392157 .627450980392157 .627450980392157 82 1 349 287704
17 83 3 347 .627450980392157 .627450980392157 .627450980392157 82 1 344 28573809
 83 3 342 .627450980392157 .627450980392157 .627450980392157 15 340 31 0 357 315
 358 50 149 73 0 315 333 21 0 +0 0 -.082 0 0 -1 0 -1 0 51 333 72 0 314 325 149 0
 +0 0 0 0 0 -1 .00515 1 0 0 54 255 325 71 0 304 317 333 0 +0 0 -.003 0 0 1 .0081
5 .003 1 0 0 50 317 70 0 311 306 325 0 +0 0 0 0 0 1 1 0 0 50 306 69 0 287 156 31
7 0 +0 0 -.062 0 0 -1 0 -1 0 51 156 68 0 147 289 306 359 +0 0 .175 0 1 0 .003389
75 1 0 0 51 289 67 0 282 0 156 0 +0 0 -.082 0 0 1 .0025 1 0 0 141 359 151 360 36
0 156 141 360 155 359 359 156 17 357 0 340 357 357 85 361 362 0 361 +15 358 30 0
 363 315 0 17 363 0 358 363 363 73 364 222 0 364 +17 364 0 332 77 88 73 363 222
 0 0 -16 222 21 365 ?363 216 366 367 0 0 1 81 1 365 187 128 222 368 0 219 369 37
0 16 366 18 369 ?72 222 371 372 0 0 1 31 367 94 0 222 372 373 0 +0 0 -.082 0 0 -
1 1 0 0 .00515 31 372 93 0 366 374 367 0 +0 0 0 0 0 -1 1 0 0 .00815 30 373 95 0
 375 367 376 0 +-.0025 -306161699786838e-33 -.082 0 0 1 16 375 7 377 ?378 379 36
2 373 0 0 1 31 376 96 0 379 373 380 0 +0 0 -.062 0 0 1 1 0 0 .0025 16 379 9 381
 ?84 382 375 376 0 0 1 31 380 97 0 382 376 225 0 +0 0 -.003 0 0 1 1 0 0 .00515 1
6 382 14 383 ?384 371 379 380 0 0 1 31 225 99 0 371 380 223 0 +-.00815 -99808714
1305093e-33 -.003 122464679914735e-30 -1 0 -1 -122464679914735e-30 0 .003 16 371
 16 385 ?386 366 382 225 0 0 1 81 1 385 189 128 371 269 0 369 383 387 17 386 0 3
24 72 384 69 388 371 0 0 +15 324 13 0 384 304 0 17 72 0 324 388 386 69 389 366 0
 389 +17 384 0 324 386 388 74 390 382 0 390 +17 388 0 324 384 72 74 386 371 0 38
4 -17 390 0 332 88 77 74 384 382 0 0 -15 332 20 0 364 314 0 17 88 0 332 364 390
 73 77 216 0 363 -17 77 0 332 390 364 74 88 216 0 388 +17 389 0 316 389 389 69 7
2 366 0 386 -15 316 28 0 389 311 391 15 391 25 0 221 311 0 17 221 0 391 221 221
 68 215 210 0 0 -81 1 269 121 32 371 0 385 211 256 392 81 1 369 188 128 366 393
 0 365 385 394 81 1 383 190 128 382 395 0 385 381 396 83 3 387 .627451002597809
 .627451002597809 .627451002597809 81 1 395 119 32 382 0 383 397 211 398 81 1 38
1 191 128 379 397 0 383 377 399 83 3 396 .627451002597809 .627451002597809 .6274
51002597809 81 1 397 118 32 379 0 381 400 395 401 81 1 377 192 128 375 400 0 381
 402 403 83 3 399 .627451002597809 .627451002597809 .627451002597809 81 1 400 11
7 32 375 0 377 368 397 404 81 1 402 193 128 362 405 0 377 0 406 83 3 403 .627451
002597809 .627451002597809 .627451002597809 16 362 5 402 ?357 375 0 374 0 0 1 81
 1 405 114 32 362 0 402 0 393 407 83 3 406 .627451002597809 .627451002597809 .62
7451002597809 81 1 393 115 32 366 0 369 405 368 408 98 2 407 57 51 81 1 368 116
 32 222 0 365 393 400 409 98 2 408 57 56 98 2 409 57 57 31 374 92 0 362 0 372 0
 +0 0 -.082 0 0 1 1 0 0 .0025 98 2 404 57 52 98 2 401 57 53 81 1 211 120 32 201
 0 209 395 269 410 98 2 398 57 54 98 3 410 49 48 50 83 3 394 .627451002597809 .6
27451002597809 .627451002597809 98 2 392 57 55 17 84 0 288 91 378 78 411 379 0 4
11 +15 288 4 0 361 282 0 17 91 0 288 361 84 85 378 375 0 357 -17 378 0 288 84 36
1 78 91 375 0 0 +17 411 0 305 411 411 78 84 379 0 378 -15 305 11 0 411 287 0 17
 361 0 288 378 91 85 357 362 0 0 -81 1 219 186 128 216 256 0 213 365 412 83 3 37
0 .627451002597809 .627451002597809 .627451002597809 83 3 412 .627451002597809 .
627451002597809 .627451002597809 82 1 337 28377201 83 3 335 .627450980392157 .62
7450980392157 .627450980392157 82 1 329 28180593 83 3 327 .627450980392157 .6274
50980392157 .627450980392157 82 1 321 27983985 83 3 319 .627450980392157 .627450
980392157 .627450980392157 82 1 310 27787377 83 3 308 .627450980392157 .62745098
0392157 .627450980392157 82 1 301 27590769 83 3 299 .627450980392157 .6274509803
92157 .627450980392157 15 297 48 0 413 147 0 17 413 0 297 228 48 42 247 163 0 0
 -17 228 0 297 46 413 31 48 226 0 0 +17 48 0 297 413 46 42 228 226 0 247 -17 247
 0 148 247 247 42 413 163 0 413 +15 148 62 0 247 119 45 15 45 61 0 41 119 112 17
 46 0 297 48 228 31 41 47 0 228 -82 1 294 27394161 83 3 291 .627450980392157 .62
7450980392157 .627450980392157 98 3 281 49 49 50 83 3 276 .627450980392157 .6274
50980392157 .627450980392157 98 3 270 49 48 48 98 3 253 49 48 56 17 81 0 36 123
 39 64 106 115 164 99 +15 36 55 0 37 119 0 17 123 0 36 26 81 59 109 124 178 122
 +17 39 0 36 81 37 56 30 27 0 106 +133 164 201 0 81 155 168 0 +168 -.0095 116341
4459189986e-33 .15838975 -.00887466027166674 -.00338975 .155 0 1 17 37 0 36 39 3
0 11 40 229 0 0 -17 26 0 36 215 123 68 63 10 0 215 +133 178 226 0 123 414 177 0
 +177 -.00887466027166674 -.00338975 .155 -.0095 1163414459189986e-33 .15161025
 0 1 137 414 224 0 1 111 178 415 +21 416 0 ?133 111 223 0 100 121 414 0 +414 .00
887466027166674 -.00338975 .155 .00887466027166674 .00338975 .155 0 1 141 415 11
1 415 415 414 134 416 0 0 0 0 0 0 +417 418 136 417 2 17 2 9 5 FFF1 419 420 421 1
35 418 2 0 45 34 419 3.141592653589795 .00887466027166674 3.32669626048794 .0088
7466027166674 3.535845539903225 .00896966944689992 3.66167664025141 .00902683009
835512 3.926759158782995 .00919250431703354 4.178516343096165 .00934985032022836
 4.31789624427003 .00941024280680928 4.52502592266533 .00949999087103983 4.71238
898038469 .0095 4.89967586543941 .00950000912524879 5.10688171649936 .0094102428
0680928 5.2462052232328 .00934988467402698 5.49801880198639 .00919250431703353 5
.76305056502806 .00902686275914551 5.88893242086614 .00896966944689992 6.0980465
7828091 .00887466027166674 6.28318530717959 .00887466027166674 127 9 420 3 2 2 2
 2 2 2 2 3 128 9 421 0 .125 .25 .375 .5 .625 .75 .875 1 17 63 0 36 67 215 59 26
 10 0 123 -17 67 0 36 38 63 60 122 132 182 104 +98 3 249 49 48 57 98 3 244 49 49
 48 98 3 240 49 49 49 79 15 238 SDL/TYSA_COLOUR133 135 206 0 27 422 133 0 +133 -
.0095 -116341445918999e-32 .185 -.0095 -116341445918999e-32 .15838975 -.185 -.15
838975 137 422 204 0 1 170 135 423 +21 424 0 ?133 170 203 0 106 168 422 0 +422 -
.00887466027166674 -.00338975 .155 -.0095 960238023915112e-33 .15838975 0 1 141
 423 170 423 423 422 134 424 0 0 0 0 0 0 +425 426 136 425 2 9 2 5 5 FFF1 427 428
 429 135 426 2 0 45 18 427 3.141592653589795 -.00887466027166674 2.9564894260165
85 -.00887466027166674 2.74733976727636 -.00896966944689992 2.62150921505431 -.0
0902682974569152 2.356426148396585 -.00919250431703353 2.104669572891035 -.00934
98499493114 1.965289062909565 -.00941024280680928 1.758138683216605 -.0095 1.570
796326794895 -.0095 127 5 428 3 2 2 2 3 128 5 429 0 .25 .5 .75 1 83 3 234 .62745
1002597809 .627451002597809 .627451002597809 83 3 220 .627451002597809 .62745100
2597809 .627451002597809 83 3 214 .627451002597809 .627451002597809 .62745100259
7809 30 186 232 0 1 28 182 430 +-.0095 -116341445918999e-32 0 0 0 -1 133 28 231
 0 10 431 186 0 +186 -.0095 -116341445918999e-32 .15161025 -.0095 -1163414459189
99e-32 0 -.15161025 0 141 430 28 430 430 186 137 431 229 0 1 125 28 432 +21 433
 0 ?133 125 228 0 109 177 431 0 +431 -.0095 -622686973111461e-33 .15161025 -.008
87466027166674 -.00338975 .155 0 1 141 432 125 432 432 431 134 433 0 0 0 0 0 0 +
434 435 136 434 2 9 2 5 5 FFF1 436 437 438 135 435 2 0 45 18 436 4.7123889803846
9 -.0095 4.52508148279116 -.0095 4.31789624427002 -.00941024280680928 4.17857348
4609145 -.0093498851290905 3.92675915878298 -.00919250431703353 3.66172806827279
 -.00902686319193871 3.53584553990321 -.00896966944689991 3.326731847688325 -.00
887466027166674 3.141592653589795 -.00887466027166674 127 5 437 3 2 2 2 3 128 5
 438 0 .25 .5 .75 1 141 179 178 179 179 177 134 180 0 0 0 0 0 0 +439 440 136 439
 2 9 2 5 5 FFF1 441 442 443 135 440 2 0 45 18 441 3.506449737453965 .155 3.50643
7538179195 .1543261054015435 3.4773054288733 .153697934321618 3.448752432713695
 .1530822505671615 3.3967165597989 .152603640121634 3.345113174340905 .152129007
5667955 3.27916475107832 .151870611122921 3.212714898758095 .15161025 3.14159265
3589795 .15161025 127 5 442 3 2 2 2 3 128 5 443 0 .25 .5 .75 1 141 175 118 175 1
75 121 134 176 0 0 0 0 0 0 +444 445 136 444 2 17 2 9 5 FFF1 446 447 448 135 445
 2 0 45 34 446 .3648570838641695 .155 .3648422272604425 .154326046221155 .335712
775283506 .153697934321618 .3071595543126915 .15308224756321 .255123906209106 .1
52603640121634 .2035201991832985 .1521290055375445 .137572097488529 .15187061112
2921 .0711220473324487 .15161025 0 .15161025 -.0711071106320976 .15161025 -.1375
72097488528 .151870611122921 -.203495925162271 .152128852380645 -.25512390620910
45 .1526036401216335 -.3071425809471975 .1530820208091475 -.335712775283506 .153
697934321618 -.364842224129378 .1543259041892285 -.3648570838641695 .155 127 9 4
47 3 2 2 2 2 2 2 2 3 128 9 448 0 .125 .25 .375 .5 .625 .75 .875 1 141 171 164 17
1 171 168 134 172 0 0 0 0 0 0 +449 450 136 449 2 9 2 5 5 FFF1 451 452 453 135 45
0 2 0 45 18 451 3.141592653589795 .15838975 3.212699602889325 .15838975 3.279164
75107832 .158129388877079 3.345088316613135 .1578711492730565 3.3967165597989 .1
573963598783665 3.44873505123322 .1569179816393095 3.4773054288733 .156302065678
382 3.506437593823325 .155674038790004 3.506449737453965 .155 127 5 452 3 2 2 2
 3 128 5 453 0 .25 .5 .75 1 40 255 20 165 0 1 20 .000215906981020572 .3670280759
751135 ??.00338975 -.00887466027166674 .175 .00321283105487109 -.008940230232653
74 .1760807967780095 .00270810897941107 -.0091058303166506 .177038762079825 .001
89426184535719 -.00930923047631887 .1778110811307615 .000831576477328108 -.00946
35342532457 .178286165793878 -.000291852031010965 -.00949551590973312 .178377162
633705 -.001333355535216546 -.00940596422578288 .178116499330853 -.0022450523457
40605 -.00923091219570875 .177539713571918 -.002956768356175955 -.00902815157648
101 .176657686927745 -.003343197781544915 -.00889230164768791 .175559851458847 -
.00334448500245766 -.00889181759081549 .1744478902909425 -.003010453794279445 -.
00901039221968214 .1734419329234565 -.002361999149484985 -.00920168245582471 .17
25686701004735 -.001412866896116682 -.00939434974513178 .1719187320472965 -.0002
96070768723688 -.00949538530550011 .171623204601637 .000798321640139841 -.009466
3975491675 .1717055975319665 .001783243469950995 -.00933113298195225 .1721172152
717595 .00261359968709109 -.00913340553548551 .172841412096268 .0031871927346148
35 -.00894940235280649 .1738457870495795 .00338975 -.00887466027166674 .175 41 3
 CI8 term_use0 0 1 cCZ1 166 H?.00338975 -.00887466027166674 .175 204 2 17 INTERS
ECTION_DATA17 Intersection data7 uv_type0 0 1 u6 values0 1 1 fT80 167 4 5.077246
06424886 .175 0 -.00887466027166674 5.05738479939494 .1760807967780095 5.9586771
81676 -.00894023023265374 5.00146228585924 .177038762079825 5.63787159286139 -.0
091058303166506 4.91313046838602 .1778110811307615 5.30535181406482 -.0093092304
7631887 4.80003551887909 .178286165793878 4.96023966102601 -.0094635342532457 4.
68166287947315 .178377162633705 4.62618385637195 -.00949551590973312 4.571570829
20793 .178116499330853 4.30811733337992 -.00940596422578288 4.473810820262685 .1
77539713571918 3.988496348611995 -.00923091219570875 4.3958927079099 .1766576869
27745 3.65256916404725 -.00902815157648101 4.35277219726934 .175559851458847 3.3
07512994952315 -.00889230164768791 4.352627436554095 .1744478902909425 2.9779875
375695 -.00889181759081549 4.389940422602935 .1734419329234565 2.66400206218533
 -.00901039221968214 4.461121859558025 .1725686701004735 2.34173149065668 -.0092
0168245582471 4.56311236548598 .1719187320472965 2.00072463226769 -.009394349745
13178 4.68121858906318 .171623204601637 1.65825071446726 -.00949538530550011 4.7
9652205635571 .1717055975319665 1.333052540508084 -.0094663975491675 4.901218998
63217 .1721172152717595 1.0168243344264 -.00933113298195225 4.99109908344679 .17
2841412096268 .690338944913033 -.00913340553548551 5.05451852446379 .17384578704
95795 .3474495878546775 -.00894940235280649 5.07724606424886 .175 0 -.0088746602
7166674 40 20 157 0 1 20 .000215906981020572 .3670280759751135 ??.00338975 .0088
7466027166674 .175 .00321283105487109 .00894023023265374 .1739192032219905 .0027
0810897941107 .0091058303166506 .172961237920175 .00189426184535719 .00930923047
631887 .1721889188692385 .000831576477328108 .0094635342532457 .171713834206122
 -.000291852031010965 .00949551590973312 .171622837366295 -.001333355535216546 .
00940596422578288 .171883500669147 -.002245052345740605 .00923091219570875 .1724
60286428082 -.002956768356175955 .00902815157648101 .173342313072255 -.003343197
781544915 .00889230164768791 .174440148541153 -.00334448500245766 .0088918175908
1549 .175552109709058 -.003010453794279445 .00901039221968214 .1765580670765435
 -.002361999149484985 .00920168245582471 .1774313298995265 -.001412866896116682
 .00939434974513178 .1780812679527035 -.000296070768723688 .00949538530550011 .1
783767953983635 .000798321640139841 .0094663975491675 .1782944024680335 .0017832
43469950995 .00933113298195225 .1778827847282405 .00261359968709109 .00913340553
548551 .177158587903732 .003187192734614835 .00894940235280649 .1761542129504205
 .00338975 .00887466027166674 .175 41 1 158 H?.00338975 .00887466027166674 .175
 204 80 159 4 1.205939242930726 .175 0 .00887466027166674 1.225800507784652 .173
9192032219905 .3245081255035915 .00894023023265374 1.281723021320342 .1729612379
20175 .645313714318194 .0091058303166506 1.370054838793562 .1721889188692385 .97
7833493114771 .00930923047631887 1.4831497883005 .171713834206122 1.322945646153
574 .0094635342532457 1.60152242770644 .171622837366295 1.657001450807635 .00949
551590973312 1.711614477971655 .171883500669147 1.975067973799665 .0094059642257
8288 1.809374486916905 .172460286428082 2.29468895856759 .00923091219570875 1.88
7292599269685 .173342313072255 2.630616143132335 .00902815157648101 1.9304131099
10245 .174440148541153 2.97567231222727 .00889230164768791 1.930557870625495 .17
5552109709058 3.305197769610085 .00889181759081549 1.89324488457665 .17655806707
65435 3.619183244994255 .00901039221968214 1.822063447621565 .1774313298995265 3
.941453816522905 .00920168245582471 1.72007294169361 .1780812679527035 4.2824606
74911895 .00939434974513178 1.60196671811641 .1783767953983635 4.62493459271233
 .00949538530550011 1.48666325082388 .1782944024680335 4.9501327666715 .00946639
75491675 1.381966308547418 .1778827847282405 5.26636097275319 .00933113298195225
 1.292086223732796 .177158587903732 5.59284636226655 .00913340553548551 1.228666
782715796 .1761542129504205 5.93573571932491 .00894940235280649 1.20593924293072
6 .175 0 .00887466027166674 141 150 422 454 455 21 141 454 7 456 150 21 141 455
 117 150 457 21 137 117 217 0 1 102 118 458 +21 459 0 ?141 457 414 455 460 21 14
1 460 431 457 456 21 141 456 187 460 454 21 141 458 102 458 458 117 134 459 0 0
 0 0 0 0 +461 462 136 461 2 17 2 9 5 FFF1 463 464 465 135 462 2 0 45 34 463 0 .0
0887466027166674 .185103606861397 .00887466027166674 .394252886313451 .008969669
44689992 .520083986484923 .00902683009826481 .785166505193208 .00919250431703353
 1.036923689615196 .00934985032027725 1.176303590680234 .00941024280680928 1.383
433269091744 .00949999087104425 1.570796326794895 .0095 1.758083211863435 .00950
000912524437 1.965289062909565 .00941024280680928 2.10461256981119 .009349884673
95307 2.356426148396585 .00919250431703353 2.621457911357575 .00902686275916308
 2.74733976727638 .00896966944689991 2.95645392476097 .00887466027166674 3.14159
2653589795 .00887466027166674 127 9 464 3 2 2 2 2 2 2 2 3 128 9 465 0 .125 .25 .
375 .5 .625 .75 .875 1 141 136 135 136 136 133 83 3 131 .627451002597809 .627451
002597809 .627451002597809 81 1 93 157 32 68 0 0 94 90 466 98 2 97 56 56 81 1 90
 158 32 85 0 0 93 87 467 98 2 466 56 51 81 1 87 159 32 73 0 0 90 83 468 98 2 467
 55 56 81 1 83 160 32 78 0 0 87 80 469 98 2 468 56 50 81 1 80 161 32 64 0 0 83 7
6 470 98 2 469 55 57 81 1 76 162 32 74 0 0 80 71 471 98 2 470 56 55 81 1 71 163
 32 69 0 0 76 66 472 98 2 471 56 48 81 1 66 164 32 60 0 0 71 62 473 98 2 472 56
 49 81 1 62 165 32 59 0 0 66 58 474 98 2 473 56 52 81 1 58 166 32 56 0 0 62 53 4
75 98 2 474 56 54 81 1 53 167 32 49 0 0 58 43 476 98 2 475 56 53 81 1 43 168 32
 42 0 0 53 33 477 98 2 476 56 57 98 2 477 57 48 98 2 44 57 49 81 1 34 196 32 1 4
78 479 29 0 480 98 2 35 57 50 81 1 478 195 481 1 482 34 0 0 483 81 1 479 198 484
 1 34 485 0 0 486 98 2 480 49 52 80 1 484 487 488 8051 0 0 0 0 3 5 0 0 0 TFTFFFF
FFFFFFFFFF1 81 2 485 246 489 1 479 490 0 0 0 491 82 1 486 0 80 2 489 492 493 900
0 0 0 0 0 3 5 0 0 0 FFTFFFFFFFFFFFFFF9 1 81 2 490 247 494 1 485 495 0 0 496 0 82
 1 491 38 80 2 494 497 498 9000 0 0 0 0 3 5 0 0 0 FFTFTTTFFTFFFFFFF10 10 81 2 49
5 248 499 1 490 500 0 0 0 501 98 8 496 66 111 100 121 49 91 49 93 80 2 499 502 5
03 9000 0 0 0 0 3 5 0 0 0 FFTFFFFFFFFFFFFFF9 1 81 2 500 271 504 1 495 13 0 0 0 0
 82 1 501 103 80 2 504 505 506 9000 0 0 0 0 3 5 0 0 0 FFTFFFFFFFFFFFFFF9 1 81 1
 13 282 507 1 500 2 0 0 508 80 1 507 509 510 9000 1 1 1 1 1 1 1 1 0 FFTFFFFFFFFF
FFFFF1 82 1 508 262 79 10 510 BODY_MATCH79 16 506 BODY_RECIPE_200179 19 503 ENT_
TIME_STAMP_200179 23 498 SWIMPLICITBODYNAME_ID_U79 30 493 LAST_BODY_MODIFYING_FE
ATURE_ID79 21 488 SDL/TYSA_SCALE_FACTOR80 1 481 32 511 9000 0 0 0 0 3 5 0 0 0 TF
TFTFTFFFFFFFFFF10 81 1 482 194 512 1 513 478 0 0 514 98 16 483 66 117 115 104 95
 108 111 99 97 116 111 114 95 112 105 110 80 1 512 515 516 8038 0 0 0 0 0 0 0 0
 0 TTTTTTTTTTTTTFTFT10 81 1 513 171 517 1 0 482 0 0 518 98 5 514 66 111 100 121
 49 80 1 517 128 519 8040 0 0 0 0 3 5 0 0 0 TTTFFFFFFFFFFFFFF2 83 3 518 .6274510
02597809 .627451002597809 .627451002597809 79 17 519 SDL/TYSA_COLOUR_279 14 516
 SDL/TYSA_UNAME79 22 511 ATTRIB_XPARASOLID_NAME19 17 65 0 1 0 9 5 0 S0 141 20 19
 20 20 7 134 22 0 0 0 0 0 0 +520 521 136 520 2 9 2 5 5 FFF1 522 523 524 135 521
 2 0 45 18 522 1.570796326794895 -.0095 1.383488829215864 -.0095 1.1763035906802
28 -.00941024280680927 1.036980830999612 -.00934988512908617 .785166505193199 -.
00919250431703353 .520135414748612 -.00902686319197128 .394252886313433 -.008969
66944689991 .185139194108624 -.00887466027166674 0 -.00887466027166674 127 5 523
 3 2 2 2 3 128 5 524 0 .25 .5 .75 1 74 4 CI16 index_map_offset0 0 1 dCCZ20 15 13
 0 0 34 402 513 482 478 479 485 490 495 500 348 13 2 0 0 0 0 0 0 0 80 2 12 525 5
26 9000 0 0 0 0 3 5 0 0 0 FFTFFFFFFFFFFFFFF9 1 82 1 14 101 79 12 526 ATOM_ID_200
11 0 
