**ABCDEFGHIJKLMNOPQRSTUVWXYZabcdefghijklmnopqrstuvwxyz**************************
**PARASOLID !"#$%&'()*+,-./:;<=>?@[\]^_`{|}~0123456789**************************
**PART1;
MC=AMD64;
MC_MODEL=Intel64 Family 6 Model 154 Stepping 3, GenuineIntel;
MC_ID=unknown;
OS=Windows_NT;
OS_RELEASE=unknown;
FRU=Parasolid Version 36.1, build 228,  1-18-2025;
APPL=SOLIDWORKS 2025-2025268;
SITE=;
USER=unknown;
FORMAT=text;
GUISE=transmit;
KEY=Hexagon Regular Nut ISO 4032 - M8 Steel 12 Plain;
FILE=Hexagon Regular Nut ISO 4032 - M8 Steel 12 Plain.x_t;
DATE=Sat Feb 28 20:20:23 2026;
**PART2;
SCH=SCH_3601228_36001;
USFLD_SIZE=0;
**PART3;
**END_OF_HEADER*****************************************************************
T51 : TRANSMIT FILE created by modeller version 360122823 SCH_3601228_36001_1300
6231 0 12 36 CCCI7 lattice222 0 CCCI4 mesh1006 0 I8 polyline1008 0 CCCCCCCDI5 ow
ner1040 0 CCCI16 boundary_lattice222 0 CCCI13 boundary_mesh1006 0 I17 boundary_p
olyline1008 0 CCCA16 index_map_offset0 0 1 dA9 index_map82 0 A17 node_id_index_m
ap82 0 A20 schema_embedding_map82 0 A5 child12 0 A14 lowest_node_id0 0 1 dA16 me
sh_offset_data206 0 Z1 350 2 3 0 0 0 0 0 0 0 1e3 1e-8 0 4 0 1 0 1 1 5 0 6 7 8 0
 0 9 10 11 0 0 0 0 0 0 0 81 255 2 2 337 12 1 13 0 0 0 0 14 70 11 CI9 list_type0
 0 1 uI10 notransmit0 0 1 lCCCDCCDI12 finger_index0 0 1 dI12 finger_block1012 0
 CZ3 0 4 T1 0 0 13 20 1 15 15 13 255 5 83 0 1 0 16 0 0 17 0 51 255 6 96 0 16 18
 0 0 +0 0 .0034 0 0 -1 .00338975 -1 0 0 30 255 7 147 0 10 19 0 0 +.00338975 -415
124648740974e-33 .0034 0 0 1 29 255 8 116 0 11 20 0 .00637 -780100011056864e-33
 .0068 19 9 CCCCCCI5 frame230 0 CA5 owner12 0 Z9 1 0 1 17 0 21 0 V0 16 255 10 81
 22 ?23 0 24 7 0 0 1 18 255 11 71 25 26 0 27 8 ?1 81 1 25 224 28 11 0 0 29 30 31
 17 255 26 0 32 33 34 11 35 24 0 33 +18 27 63 29 36 11 37 20 ?1 81 1 29 223 28 2
7 0 0 38 25 39 17 36 0 32 40 41 27 42 43 0 44 +18 37 58 38 40 27 45 46 ?1 29 20
 115 0 27 46 8 -917694193360097e-32 -.00750555349946513 .00614438788140459 29 46
 114 0 37 47 20 .0065 -.00375277674973257 .00614438788140459 29 47 113 0 45 48 4
6 .0065 -913194907924819e-33 .00672494446500535 18 45 56 49 35 37 50 47 ?1 29 48
 112 0 50 51 47 .0065 .00375277674973256 .00614438788140459 18 50 51 52 53 45 54
 48 ?1 29 51 111 0 55 56 48 .0065 -.00375277674973257 .000655612118595417 18 55
 41 57 58 59 60 51 ?1 29 56 110 0 61 62 51 .00637 -780100011056864e-33 -34694469
5195361e-33 18 61 37 63 64 60 65 56 ?1 29 62 109 0 65 66 56 -.0065 -.00375277674
973256 .00614438788140459 18 65 32 67 42 61 68 62 ?1 29 66 108 0 69 70 62 -.0065
 .00375277674973258 .000655612118595417 18 69 23 71 72 73 74 66 ?1 29 70 107 0 7
3 75 66 -.0065 .00375277674973258 .00614438788140459 18 73 25 76 77 68 69 70 ?1
 29 75 106 0 78 79 70 123258279402839e-31 .00750555349946513 .000655612118595415
 18 78 20 80 81 74 82 75 ?1 29 79 105 0 59 83 75 -875701582270266e-32 -.00750555
349946513 .000655612118595416 18 59 43 84 85 54 55 79 ?1 29 83 104 0 82 86 79 .0
0338975 415124648740974e-33 .0057430159946811 18 82 15 87 23 78 88 83 ?1 29 86 1
03 0 54 89 83 .0065 .00375277674973256 .000655612118595416 18 54 46 90 91 50 59
 86 ?1 29 89 102 0 88 92 86 .004 -489858719658941e-33 .0068 18 88 13 93 94 82 95
 89 ?1 29 92 101 0 60 96 89 .0065 -784398733374336e-33 750555349946509e-19 18 60
 39 97 98 55 61 92 ?1 29 96 100 0 99 100 92 .00338975 -415124648740974e-33 .0010
5698400531891 18 99 6 101 102 95 0 96 ?1 29 100 99 0 95 103 96 .004 -48985871965
8941e-33 -277555756156289e-33 18 95 8 104 105 88 99 100 ?1 29 103 98 0 74 106 10
0 123061799021473e-31 .00750555349946513 .00614438788140459 18 74 21 107 108 69
 78 103 ?1 29 106 97 0 68 0 103 -.0065 -.00375277674973256 .000655612118595416 1
8 68 30 109 110 65 73 106 ?1 81 1 109 205 28 68 0 0 111 107 112 17 110 0 113 72
 114 68 115 116 0 117 +15 255 113 35 0 118 119 0 17 72 0 113 120 110 69 121 122
 0 123 +17 114 0 113 110 124 59 125 126 0 0 +17 115 0 127 44 117 59 110 116 0 11
4 -16 116 44 128 ?110 129 126 130 0 0 1 17 117 0 127 115 42 68 131 132 0 121 -15
 127 66 0 44 133 0 17 42 0 127 117 44 65 36 43 0 41 -17 131 0 134 77 121 65 117
 132 0 0 +16 132 31 135 ?131 136 122 137 0 0 1 17 121 0 134 131 123 68 72 122 0
 0 -15 134 28 0 123 138 0 17 123 0 134 121 77 69 139 140 0 141 +16 122 29 142 ?7
2 132 143 144 0 0 1 81 1 142 246 145 122 146 0 135 147 148 16 143 26 147 ?149 12
2 140 150 0 0 1 134 255 144 130 0 122 150 151 0 +152 153 134 150 129 0 143 154 1
44 0 +155 156 31 255 151 131 0 157 144 137 0 +0 0 0 0 0 -1 1 0 0 .00637 136 255
 152 2 3 4 2 5 FFT1 158 159 160 135 255 153 2 0 45 255 12 158 -.0065009033740420
9 -.00375329831297894 .000655703235975357 1.00013898062186 -.00750659662595791 5
12861317582276e-32 -.000493958558061887 1.15486101937814 -.00650090337404208 .00
375329831297896 .000655703235975358 1.00013898062186 127 255 2 159 3 3 128 255 2
 160 .00034100830925413 .759945998901401 16 157 36 161 ?162 163 136 151 0 0 1 30
 137 132 0 132 151 164 0 +-.0065 -.00375277674973256 .0068 0 0 1 134 164 133 0 1
26 137 165 0 +166 167 16 126 42 168 ?114 116 169 164 0 0 1 134 165 134 0 136 164
 170 0 +171 172 136 166 2 3 4 2 5 FFT1 173 174 175 135 167 2 0 45 12 173 .006500
90337404209 -.00375329831297895 .000655703235975358 1.00013898062186 .0037532983
12978945 -.0065009033740421 -.000493958558061889 1.15486101937814 -8758232878207
34e-32 -.00750659662595789 .000655703235975357 1.00013898062186 127 2 174 3 3 12
8 2 175 .000341008309254461 .759945998901401 16 136 33 176 ?41 157 132 165 0 0 1
 30 170 135 0 163 165 130 0 +.00693875 -84975179775837e-32 .0003283679656016 .86
6025403784439 -106057523872491e-30 .5 136 171 2 3 4 2 5 FFT1 177 178 179 135 172
 2 0 45 12 177 -.00650090337404209 .00375329831297896 .0061452418322533 1.000138
98062186 -.00750659662595791 769291976373414e-32 .00834701348983324 1.1548610193
7814 -.00650090337404209 -.00375329831297894 .0061452418322533 1.00013898062186
 127 2 178 3 3 128 2 179 .000341008309253956 .759945998901401 16 163 38 180 ?181
 169 157 170 0 0 1 134 130 136 0 116 170 182 0 +183 184 134 182 137 0 185 130 18
6 0 +187 188 136 183 2 3 4 2 5 FFT1 189 190 191 135 184 2 0 45 12 189 -841476411
120311e-32 -.00750659662595789 .000655703235975357 1.00013898062186 -.0037532983
12978955 -.0065009033740421 -.000493958558061889 1.15486101937814 -.006500903374
04209 -.00375329831297894 .000655703235975357 1.00013898062186 127 2 190 3 3 128
 2 191 .000341008309254726 .759945998901402 16 185 47 192 ?98 193 129 182 0 0 1
 134 186 138 0 193 182 194 0 +195 196 136 187 2 3 4 2 5 FFT1 197 198 199 135 188
 2 0 45 12 197 .00650090337404209 .00375329831297894 .000655703235975357 1.00013
898062186 .00700375 .00187664915648947 80872338956737e-18 1.0775 .00700375 -8326
67268468867e-33 808723389567363e-19 1.0775 127 2 198 3 3 128 2 199 .000341008309
254706 .380143503605327 16 193 50 200 ?108 201 185 186 0 0 1 30 194 139 0 201 18
6 202 0 +.0065 .00375277674973256 .0068 0 0 1 136 195 2 3 4 2 5 FFT1 203 204 205
 135 196 2 0 45 12 203 .00650090337404209 .00375329831297894 .0061452418322533 1
.00013898062186 .003753298312978955 .0065009033740421 .00834701348983323 1.15486
101937814 1211243562046496e-32 .00750659662595789 .0061452418322533 1.0001389806
2186 127 2 204 3 3 128 2 205 .000341008309254369 .7599459989014 16 201 52 206 ?2
07 208 193 194 0 0 1 134 202 140 0 208 194 209 0 +210 211 16 208 55 212 ?53 213
 201 202 0 0 1 134 209 141 0 213 202 214 0 +215 216 136 210 2 3 4 2 5 FFT1 217 2
18 219 135 211 2 0 45 12 217 .00700375 -111022302462516e-32 .00724612766104326 1
.0775 .00700375 .00187664915648947 .00724612766104326 1.0775 .00650090337404209
 .00375329831297894 .0061452418322533 1.00013898062186 127 2 218 3 3 128 2 219 .
380143503605328 .759945998901401 16 213 57 220 ?34 221 208 209 0 0 1 30 214 142
 0 221 209 222 0 +.0065 -.00375277674973257 .0068 0 0 1 136 215 2 3 4 2 5 FFT1 2
23 224 225 135 216 2 0 45 12 223 .00650090337404209 -.00375329831297895 .0061452
418322533 1.00013898062186 .00700375 -.00187664915648948 .00724612766104326 1.07
75 .00700375 -111022302462516e-32 .00724612766104326 1.0775 127 2 224 3 3 128 2
 225 .000341008309253979 .380143503605328 16 221 59 226 ?227 228 213 214 0 0 1 3
0 222 143 0 229 214 230 0 +-804911692853238e-32 -.00750555349946513 .0068 0 0 1
 16 229 64 231 ?44 43 228 222 0 0 1 134 230 144 0 43 222 232 0 +233 234 16 43 67
 235 ?36 236 229 230 0 0 1 31 232 145 0 236 230 19 0 +0 0 .0068 0 0 -1 1 0 0 .00
637 136 233 2 3 4 2 5 FFT1 237 238 239 135 234 2 0 45 12 237 -.00650090337404209
 -.00375329831297894 .0061452418322533 1.00013898062186 -.003753298312978955 -.0
065009033740421 .00834701348983324 1.15486101937814 -889479462307107e-32 -.00750
659662595789 .0061452418322533 1.00013898062186 127 2 238 3 3 128 2 239 .0003410
08309254347 .759945998901401 16 236 70 240 ?33 24 43 232 0 0 1 30 19 146 0 24 23
2 7 0 +.00693875 -84975179775837e-32 .0064716320343984 -.866025403784439 1060575
23872491e-30 .5 16 24 75 241 ?26 10 236 19 0 0 1 81 1 241 227 145 24 242 0 22 24
0 243 80 7 CCCCCDI12 legal_owners0 17 1 lCZ1 145 0 244 8001 0 0 0 0 3 5 0 0 0 FF
FFTFTFFFFFFFFFF2 81 1 242 177 28 24 0 241 245 246 247 81 1 22 226 145 10 246 0 2
48 241 249 81 1 240 228 145 236 245 0 241 235 250 83 255 3 243 .796078443527222
 .796078443527222 .796078443527222 81 1 245 176 28 236 0 240 251 242 252 81 1 23
5 229 145 43 251 0 240 231 253 83 3 250 .796078443527222 .796078443527222 .79607
8443527222 81 1 251 175 28 43 0 235 254 245 255 81 1 231 230 145 229 254 0 235 2
56 257 83 3 253 .796078443527222 .796078443527222 .796078443527222 81 1 254 174
 28 229 0 231 258 251 259 81 1 256 231 145 228 260 0 231 226 261 83 3 257 .79607
8443527222 .796078443527222 .796078443527222 16 228 62 256 ?40 229 221 262 0 0 1
 81 1 260 155 28 228 0 256 263 264 265 81 1 226 232 145 221 258 0 256 220 266 83
 3 261 .796078443527222 .796078443527222 .796078443527222 81 1 258 173 28 221 0
 226 267 254 268 81 1 220 233 145 213 267 0 226 212 269 83 3 266 .79607844352722
2 .796078443527222 .796078443527222 81 1 267 172 28 213 0 220 270 258 271 81 1 2
12 234 145 208 270 0 220 206 272 83 3 269 .796078443527222 .796078443527222 .796
078443527222 81 1 270 171 28 208 0 212 273 267 274 81 1 206 235 145 201 273 0 21
2 200 275 83 3 272 .796078443527222 .796078443527222 .796078443527222 81 1 273 1
70 28 201 0 206 276 270 277 81 1 200 236 145 193 276 0 206 192 278 83 3 275 .796
078443527222 .796078443527222 .796078443527222 81 1 276 169 28 193 0 200 279 273
 280 81 1 192 237 145 185 279 0 200 281 282 83 3 278 .796078443527222 .796078443
527222 .796078443527222 81 1 279 168 28 185 0 192 283 276 284 81 1 281 238 145 1
29 285 0 192 128 286 83 3 282 .796078443527222 .796078443527222 .796078443527222
 16 129 45 281 ?287 185 116 288 0 0 1 81 1 285 157 28 129 0 281 264 289 290 81 1
 128 239 145 116 283 0 281 168 291 83 3 286 .796078443527222 .796078443527222 .7
96078443527222 81 1 283 167 28 116 0 128 292 279 293 81 1 168 240 145 126 294 0
 128 295 296 83 3 291 .796078443527222 .796078443527222 .796078443527222 81 1 29
4 164 28 126 0 168 297 298 299 81 1 295 241 145 169 300 0 168 180 301 83 3 296 .
796078443527222 .796078443527222 .796078443527222 16 169 40 295 ?124 126 163 154
 0 0 1 81 1 300 159 28 169 0 295 289 302 303 81 1 180 242 145 163 292 0 295 161
 304 83 3 301 .796078443527222 .796078443527222 .796078443527222 81 1 292 166 28
 163 0 180 298 283 305 81 1 161 243 145 157 306 0 180 176 307 83 3 304 .79607844
3527222 .796078443527222 .796078443527222 81 1 306 162 28 157 0 161 146 297 308
 81 1 176 244 145 136 298 0 161 135 309 83 3 307 .796078443527222 .7960784435272
22 .796078443527222 81 1 298 165 28 136 0 176 294 292 310 81 1 135 245 145 132 2
97 0 176 142 311 83 3 309 .796078443527222 .796078443527222 .796078443527222 81
 1 297 163 28 132 0 135 306 294 312 83 3 311 .796078443527222 .796078443527222 .
796078443527222 80 1 28 313 314 9000 0 0 0 0 3 6 0 0 0 TTTFTFTTFFFFFFFFF10 98 25
5 3 312 49 50 55 79 255 19 314 SPAATTRIB_UNICODEID98 3 310 49 50 56 81 1 146 161
 28 122 0 142 302 306 315 98 3 308 49 50 57 81 1 302 160 28 143 0 147 300 146 31
6 98 3 315 49 50 54 81 1 147 247 145 143 302 0 142 317 318 98 3 316 49 50 53 81
 1 317 248 145 140 289 0 147 319 320 83 3 318 .796078443527222 .796078443527222
 .796078443527222 16 140 24 317 ?123 143 321 322 0 0 1 81 1 289 158 28 140 0 317
 285 300 323 81 1 319 249 145 321 324 0 317 325 326 83 3 320 .796078443527222 .7
96078443527222 .796078443527222 16 321 22 319 ?120 140 327 328 0 0 1 81 1 324 15
3 28 321 0 319 329 263 330 81 1 325 250 145 327 264 0 319 331 332 83 3 326 .7960
78443527222 .796078443527222 .796078443527222 16 327 19 325 ?333 321 334 335 0 0
 1 81 1 264 156 28 327 0 325 260 285 336 81 1 331 251 145 334 263 0 325 337 338
 83 3 332 .796078443527222 .796078443527222 .796078443527222 16 334 16 331 ?339
 327 340 341 0 0 1 81 1 263 154 28 334 0 331 324 260 342 81 1 337 252 145 340 32
9 0 331 343 344 83 3 338 .796078443527222 .796078443527222 .796078443527222 16 3
40 14 337 ?345 334 346 347 0 0 1 81 1 329 152 28 340 0 337 348 324 349 81 1 343
 253 145 346 348 0 337 350 351 83 3 344 .796078443527222 .796078443527222 .79607
8443527222 16 346 12 343 ?352 340 353 354 0 0 1 81 1 348 151 28 346 0 343 355 32
9 356 81 1 350 254 145 353 355 0 343 357 358 83 3 351 .796078443527222 .79607844
3527222 .796078443527222 16 353 9 350 ?105 346 359 360 0 0 1 81 1 355 150 28 353
 0 350 361 348 362 81 1 357 255 145 359 363 0 350 364 365 83 3 358 .796078443527
222 .796078443527222 .796078443527222 16 359 7 357 ?366 353 367 368 0 0 1 81 1 3
63 148 28 359 0 357 0 361 369 81 1 364 256 145 367 361 0 357 0 370 83 3 365 .796
078443527222 .796078443527222 .796078443527222 16 367 5 364 ?371 359 0 372 0 0 1
 81 1 361 149 28 367 0 364 363 355 373 83 3 370 .796078443527222 .79607844352722
2 .796078443527222 98 3 373 49 49 54 17 371 0 374 23 102 99 375 367 0 375 +31 37
2 118 0 367 368 360 0 +0 0 .00105698400531891 0 0 -1 -1 0 0 .00338975 30 368 117
 0 359 0 372 0 +.00301850454237763 -369660192603452e-33 .0017 .5 -61232339957367
8e-31 -.866025403784438 31 360 119 0 353 372 354 0 +0 0 0 0 0 1 -1 0 0 .004 31 3
54 120 0 346 360 347 0 +0 0 .0068 0 0 -1 -1 0 0 .004 30 347 121 0 340 354 328 0
 +.00301850454237763 -369660192603452e-33 .0051 -.5 612323399573678e-31 -.866025
403784438 134 328 122 0 321 347 341 0 +376 377 31 341 123 0 334 328 262 0 +0 0 .
0057430159946811 0 0 1 -1 0 0 .00338975 136 376 2 3 4 2 5 FFT1 378 379 380 135 3
77 2 0 45 12 378 -.00650090337404208 .00375329831297896 .000655703235975358 1.00
013898062186 -.003753298312978945 .00650090337404211 -.000493958558061891 1.1548
6101937814 1232754099151598e-32 .00750659662595789 .000655703235975356 1.0001389
8062186 127 2 379 3 3 128 2 380 .000341008309254198 .759945998901401 134 262 124
 0 228 341 335 0 +381 382 30 335 125 0 327 262 288 0 +122124532708767e-31 .00750
555349946513 .0068 0 0 1 136 381 2 3 4 2 5 FFT1 383 384 385 135 382 2 0 45 12 38
3 -917821735069767e-32 -.00750659662595789 .0061452418322533 1.00013898062186 .0
03753298312978945 -.0065009033740421 .00834701348983324 1.15486101937814 .006500
90337404209 -.00375329831297895 .0061452418322533 1.00013898062186 127 2 384 3 3
 128 2 385 .000341008309253963 .7599459989014 134 288 126 0 129 335 322 0 +386 3
87 30 322 127 0 140 288 154 0 +-.0065 .00375277674973258 .0068 0 0 -1 136 386 2
 3 4 2 5 FFT1 388 389 390 135 387 2 0 45 12 388 1213493281554404e-32 .0075065966
2595789 .000655703235975356 1.00013898062186 .003753298312978955 .00650090337404
21 -.000493958558061888 1.15486101937814 .00650090337404209 .00375329831297894 .
000655703235975357 1.00013898062186 127 2 389 3 3 128 2 390 .000341008309254798
 .759945998901401 134 154 128 0 169 322 150 0 +391 392 136 391 2 3 4 2 5 FFT1 39
3 394 395 135 392 2 0 45 12 393 .00700375 -832667268468867e-33 808723389567363e-
19 1.0775 .00700375 -.00187664915648948 808723389567356e-19 1.0775 .006500903374
04209 -.00375329831297895 .000655703235975358 1.00013898062186 127 2 394 3 3 128
 2 395 .380143503605327 .759945998901401 15 374 80 0 371 16 0 17 23 0 374 339 37
1 82 102 10 0 339 +17 102 0 374 371 339 99 23 10 0 396 -17 375 0 397 366 396 99
 371 367 0 0 -15 397 4 0 375 398 0 17 366 0 397 399 375 95 396 359 0 0 +17 396 0
 397 375 399 99 366 359 0 371 -17 399 0 397 396 366 95 105 353 0 366 -17 105 0 4
00 105 105 95 399 353 0 399 +15 400 78 0 105 401 402 14 255 401 76 403 ?404 16 4
00 5 18 +0 0 404 16 21 15 402 77 0 162 401 0 17 162 0 402 162 162 61 118 157 0 1
18 +17 118 0 113 181 64 61 162 157 0 0 -17 181 0 113 124 118 60 64 163 0 0 +17 6
4 0 113 118 98 61 181 163 0 162 -17 98 0 113 64 287 60 405 185 0 406 +17 287 0 1
13 98 120 54 81 129 0 0 +17 405 0 407 207 406 54 98 185 0 287 -17 406 0 407 405
 58 60 124 169 0 181 -15 407 54 0 207 408 0 17 58 0 407 406 409 55 227 221 0 125
 -17 124 0 113 114 181 55 406 169 0 0 +17 409 0 407 58 410 37 34 213 0 0 -17 227
 0 411 412 125 37 58 221 0 409 +17 125 0 411 227 85 55 114 126 0 124 -15 411 61
 0 227 413 0 17 85 0 411 125 412 59 44 229 0 115 -17 412 0 411 85 227 27 40 228
 0 0 -17 44 0 127 42 115 27 85 229 0 412 +17 40 0 32 34 36 37 412 228 0 227 +15
 32 74 0 149 404 0 17 34 0 32 26 40 45 409 213 0 410 +17 410 0 407 409 207 45 53
 208 0 0 -17 207 0 407 410 405 50 91 201 0 414 +17 53 0 32 108 35 50 410 208 0 2
07 +17 108 0 32 149 53 74 414 193 0 415 +17 35 0 32 53 33 45 26 24 0 34 -17 33 0
 32 35 26 11 416 236 0 416 +17 416 0 417 416 416 11 33 236 0 0 -15 417 69 0 416
 418 0 14 418 68 419 ?133 404 420 5 421 +0 0 133 404 21 81 1 419 339 422 418 423
 0 403 424 425 14 133 65 424 ?413 418 127 5 426 -0 0 413 418 21 14 404 73 427 ?4
18 401 32 5 428 +0 0 418 401 21 15 420 72 0 352 418 417 50 255 421 94 0 418 428
 18 0 +-.00637 0 .0068 0 0 1 1 0 0 13 21 2 0 0 0 0 0 0 9 16 14 16 79 429 ?401 0
 374 5 6 -0 0 401 0 21 81 1 429 342 422 16 111 0 427 430 431 80 1 422 432 433 90
00 1 1 1 1 1 1 1 1 0 FFFFTFTFFFFFFFFFF1 81 1 111 204 28 16 248 429 434 109 435 8
1 1 427 341 422 404 436 0 424 429 437 81 1 430 343 422 413 438 0 429 439 440 82
 255 1 431 35782769 14 413 60 430 ?408 133 411 5 441 -0 0 408 133 21 81 1 438 18
4 28 413 442 430 443 444 445 81 1 439 344 422 408 446 0 430 447 448 82 1 440 374
86705 14 408 53 439 ?449 413 407 5 450 -0 0 449 413 21 81 1 446 194 28 408 451 4
39 452 453 454 81 1 447 345 422 449 452 0 439 455 456 82 1 448 36503665 14 449 4
8 447 ?119 408 457 5 458 -0 0 119 408 21 81 1 452 192 28 449 459 447 460 446 461
 81 1 455 346 422 119 444 0 447 462 463 82 1 456 36700273 14 119 34 455 ?138 449
 113 5 464 +0 0 138 449 21 81 1 444 186 28 119 465 455 438 466 467 81 1 462 347
 422 138 460 0 455 468 469 82 1 463 37290097 14 138 27 462 ?470 119 134 5 471 -0
 0 470 119 21 81 1 460 190 28 138 472 462 466 452 473 81 1 468 348 422 470 466 0
 462 474 475 82 1 469 36896881 14 470 17 468 ?476 138 477 5 478 -0 0 476 138 21
 81 1 466 188 28 470 479 468 444 460 480 81 1 474 349 422 476 443 0 468 481 482
 82 1 475 37093489 14 476 10 474 ?398 470 483 5 484 -0 0 398 470 21 81 1 443 182
 28 476 485 474 486 438 487 81 1 481 350 422 398 486 0 474 0 488 82 1 482 376833
13 14 398 3 481 ?0 476 397 5 489 -0 0 0 476 21 81 1 486 180 28 398 490 481 246 4
43 491 82 1 488 37879921 81 1 490 179 145 398 0 486 0 485 492 81 1 246 178 28 10
 0 22 242 486 493 98 3 491 50 49 51 98 3 493 49 52 54 81 1 485 181 145 476 0 443
 490 442 494 83 3 492 .796078431372549 .796078431372549 .796078431372549 81 1 44
2 183 145 413 0 438 485 465 495 83 3 494 .796078431372549 .796078431372549 .7960
78431372549 81 1 465 185 145 119 0 444 442 479 496 83 3 495 .796078431372549 .79
6078431372549 .796078431372549 81 1 479 187 145 470 0 466 465 472 497 83 3 496 .
796078431372549 .796078431372549 .796078431372549 81 1 472 189 145 138 0 460 479
 459 498 83 3 497 .796078431372549 .796078431372549 .796078431372549 81 1 459 19
1 145 449 0 452 472 451 499 83 3 498 .796078431372549 .796078431372549 .79607843
1372549 81 1 451 193 145 408 0 446 459 500 501 83 3 499 .796078431372549 .796078
431372549 .796078431372549 81 1 500 195 145 133 0 453 451 502 503 83 3 501 .7960
78431372549 .796078431372549 .796078431372549 81 1 453 196 28 133 500 424 446 43
6 504 81 1 502 197 145 404 0 436 500 505 506 83 3 503 .796078431372549 .79607843
1372549 .796078431372549 81 1 436 198 28 404 502 427 453 423 507 81 1 505 199 14
5 418 0 423 502 508 509 83 3 506 .796078431372549 .796078431372549 .796078431372
549 81 1 423 200 28 418 505 419 436 434 510 81 1 508 201 145 401 0 434 505 248 5
11 83 3 509 .796078431372549 .796078431372549 .796078431372549 81 1 434 202 28 4
01 508 403 423 111 512 81 1 248 203 145 16 0 111 508 22 513 83 3 511 .7960784313
72549 .796078431372549 .796078431372549 83 3 513 .796078431372549 .7960784313725
49 .796078431372549 81 1 403 338 422 401 434 0 0 419 514 98 3 512 50 50 52 82 1
 514 33292401 98 3 510 50 50 50 98 3 507 50 50 51 81 1 424 340 422 133 453 0 419
 427 515 98 3 504 50 50 49 82 1 515 35455089 52 255 489 84 0 398 0 484 0 +0 0 .0
017 0 0 -1 .00301850454237763 .5 .866025403784439 -1 0 0 52 484 85 0 476 489 441
 0 +0 0 .0051 0 0 1 .00301850454237763 .5 .866025403784438 -1 0 0 50 441 86 0 41
3 484 464 0 +-337012765225575e-20 -.00750749924357236 .0068 -.5 .866025403784439
 0 0 0 1 52 464 87 0 119 441 478 0 +0 0 .0003283679656016 0 0 1 .00693875 .86602
540378444 .5 -1 0 0 50 478 88 0 470 464 471 0 +337012765226019e-20 .007507499243
57236 .0068 .5 -.866025403784439 0 0 0 -1 50 471 89 0 138 478 458 0 +-.0065 .003
75666823794703 .0068 1 -886601867109681e-30 0 -886601867109681e-30 -1 0 50 458 9
0 0 449 471 450 0 +.00650337012765225 .00375083100562533 .0068 -.5 -.86602540378
4438 0 -.866025403784438 .5 0 50 450 91 0 408 458 426 0 +.0065 -.003756668237947
03 .0068 -1 100906654702442e-29 0 0 0 1 50 426 92 0 133 450 428 0 +-.00650337012
765225 -.00375083100562533 .0068 .5 .866025403784438 0 0 0 -1 52 428 93 0 404 42
6 421 0 +0 0 .0064716320343984 0 0 -1 .00693875 .86602540378444 .5 -1 0 0 98 3 4
87 50 49 52 15 483 11 0 516 476 0 17 516 0 483 345 94 88 352 346 0 0 -17 345 0 4
83 517 516 82 94 340 0 0 +17 94 0 483 516 517 88 345 340 0 352 -17 352 0 420 352
 352 88 516 346 0 516 +17 517 0 483 94 345 82 339 334 0 345 -17 339 0 374 102 23
 82 517 334 0 517 +98 3 480 50 49 53 15 477 18 0 518 470 0 17 518 0 477 141 415
 78 333 327 0 0 -17 141 0 477 139 518 69 120 321 0 0 -17 415 0 477 518 139 74 14
9 143 0 333 -17 333 0 457 414 81 74 518 327 0 0 +15 457 49 0 333 449 0 17 414 0
 457 91 333 50 108 193 0 0 -17 81 0 457 333 91 78 287 129 0 120 -17 91 0 457 81
 414 54 207 201 0 405 -17 120 0 113 287 72 78 141 321 0 518 +17 139 0 477 415 14
1 73 123 140 0 0 -17 149 0 32 41 108 73 415 143 0 139 +17 41 0 32 36 149 65 77 1
36 0 131 +17 77 0 134 123 131 73 41 136 0 149 -98 3 473 50 49 54 98 3 467 50 49
 55 98 3 461 50 49 56 98 3 454 50 49 57 98 3 445 50 50 48 82 1 437 35520625 98 3
 435 50 50 53 79 14 433 SWEntUnchanged50 18 95 0 401 421 6 0 +-.004 0 0 0 0 -1 0
 -1 0 82 1 425 35324017 98 3 369 49 49 55 98 3 362 49 49 56 98 3 356 49 49 57 98
 3 349 49 50 48 98 3 342 49 50 49 98 3 336 49 50 50 98 3 330 49 50 51 98 3 323 4
9 50 52 98 3 305 49 51 48 98 3 303 49 51 49 98 3 299 49 51 50 98 3 293 49 51 51
 98 3 290 49 51 52 98 3 284 49 51 53 98 3 280 49 51 54 98 3 277 49 51 55 98 3 27
4 49 51 56 98 3 271 49 51 57 98 3 268 49 52 48 98 3 265 49 52 49 98 3 259 49 52
 50 98 3 255 49 52 51 98 3 252 49 52 52 83 3 249 .796078443527222 .7960784435272
22 .796078443527222 98 3 247 49 52 53 79 15 244 SDL/TYSA_COLOUR136 155 2 3 4 2 5
 FFT1 519 520 521 135 156 2 0 45 12 519 1230789022268282e-32 .00750659662595789
 .0061452418322533 1.00013898062186 -.00375329831297891 .00650090337404206 .0083
4701348983317 1.15486101937813 -.00650090337404209 .00375329831297896 .006145241
8322533 1.00013898062186 127 2 520 3 3 128 2 521 .000341008309254269 .7599459989
01402 83 3 148 .796078443527222 .796078443527222 .796078443527222 81 1 107 206 2
8 74 0 0 109 104 522 98 3 112 49 48 52 81 1 104 207 28 95 0 0 107 101 523 98 3 5
22 49 48 49 81 1 101 208 28 99 0 0 104 97 524 98 2 523 57 55 81 1 97 209 28 60 0
 0 101 93 525 98 2 524 57 54 81 1 93 210 28 88 0 0 97 90 526 98 3 525 49 48 55 8
1 1 90 211 28 54 0 0 93 87 527 98 2 526 57 56 81 1 87 212 28 82 0 0 90 84 528 98
 3 527 49 49 48 81 1 84 213 28 59 0 0 87 80 529 98 2 528 57 57 81 1 80 214 28 78
 0 0 84 76 530 98 3 529 49 48 57 81 1 76 215 28 73 0 0 80 71 531 98 3 530 49 48
 48 81 1 71 216 28 69 0 0 76 67 532 98 3 531 49 48 51 81 1 67 217 28 65 0 0 71 6
3 533 98 3 532 49 48 50 81 1 63 218 28 61 0 0 67 57 534 98 3 533 49 48 53 81 1 5
7 219 28 55 0 0 63 52 535 98 3 534 49 48 54 81 1 52 220 28 50 0 0 57 49 536 98 3
 535 49 48 56 81 1 49 221 28 45 0 0 52 38 537 98 3 536 49 49 49 81 1 38 222 28 3
7 0 0 49 29 538 98 3 537 49 49 50 98 3 538 49 49 51 98 3 39 49 49 52 81 1 30 259
 28 1 539 540 25 0 541 98 3 31 49 49 53 81 1 539 258 542 1 543 30 0 0 544 81 1 5
40 261 545 1 30 546 0 0 547 98 2 541 49 52 80 1 545 548 549 8051 0 0 0 0 3 5 0 0
 0 TFTFFFFFFFFFFFFFF1 81 2 546 263 550 1 540 551 0 0 0 552 82 1 547 0 80 2 550 5
53 554 9000 0 0 0 0 3 5 0 0 0 FFTFFFFFFFFFFFFFF9 1 81 2 551 264 555 1 546 556 0
 0 557 0 82 1 552 38 80 2 555 558 559 9000 0 0 0 0 3 5 0 0 0 FFTFTTTFFTFFFFFFF10
 10 81 2 556 265 560 1 551 561 0 0 0 562 98 8 557 66 111 100 121 49 91 49 93 80
 2 560 563 564 9000 0 0 0 0 3 5 0 0 0 FFTFFFFFFFFFFFFFF9 1 81 2 561 294 565 1 55
6 13 0 0 0 0 82 1 562 103 80 2 565 566 567 9000 0 0 0 0 3 5 0 0 0 FFTFFFFFFFFFFF
FFF9 1 81 1 13 308 568 1 561 2 0 0 569 80 1 568 570 571 9000 1 1 1 1 1 1 1 1 0 F
FTFFFFFFFFFFFFFF1 82 1 569 285 79 10 571 BODY_MATCH79 16 567 BODY_RECIPE_200179
 19 564 ENT_TIME_STAMP_200179 23 559 SWIMPLICITBODYNAME_ID_U79 30 554 LAST_BODY_
MODIFYING_FEATURE_ID79 21 549 SDL/TYSA_SCALE_FACTOR80 1 542 28 572 9000 0 0 0 0
 3 5 0 0 0 TFTFTFTFFFFFFFFFF10 81 1 543 257 573 1 574 539 0 0 575 98 28 544 73 8
3 79 32 52 48 51 50 32 45 32 77 56 32 83 116 101 101 108 32 49 50 32 80 108 97 1
05 110 80 1 573 576 577 8038 0 0 0 0 0 0 0 0 0 TTTTTTTTTTTTTFTFT10 81 1 574 225
 578 1 0 543 0 0 579 98 5 575 66 111 100 121 49 80 1 578 145 580 8040 0 0 0 0 3
 5 0 0 0 TTTFFFFFFFFFFFFFF2 83 3 579 .796078443527222 .796078443527222 .79607844
3527222 79 17 580 SDL/TYSA_COLOUR_279 14 577 SDL/TYSA_UNAME79 22 572 ATTRIB_XPAR
ASOLID_NAME19 17 82 0 1 0 9 5 0 S0 74 4 CI16 index_map_offset0 0 1 dCCZ20 15 13
 0 0 30 364 574 543 539 540 546 551 556 561 481 13 2 0 0 0 0 0 0 0 80 2 12 581 5
82 9000 0 0 0 0 3 5 0 0 0 FFTFFFFFFFFFFFFFF9 1 82 1 14 101 79 12 582 ATOM_ID_200
11 0 
