**ABCDEFGHIJKLMNOPQRSTUVWXYZabcdefghijklmnopqrstuvwxyz**************************
**PARASOLID !"#$%&'()*+,-./:;<=>?@[\]^_`{|}~0123456789**************************
**PART1;
MC=AMD64;
MC_MODEL=Intel64 Family 6 Model 154 Stepping 3, GenuineIntel;
MC_ID=unknown;
OS=Windows_NT;
OS_RELEASE=unknown;
FRU=Parasolid Version 36.1, build 228,  1-18-2025;
APPL=SOLIDWORKS 2025-2025268;
SITE=;
USER=unknown;
FORMAT=text;
GUISE=transmit;
KEY=Hexagon Head Screw ISO 4017 - M8 x 60 Steel 12.9 Plain;
FILE=Hexagon Head Screw ISO 4017 - M8 x 60 Steel 12.9 Plain.x_t;
DATE=Sat Feb 28 20:21:14 2026;
**PART2;
SCH=SCH_3601228_36001;
USFLD_SIZE=0;
**PART3;
**END_OF_HEADER*****************************************************************
T51 : TRANSMIT FILE created by modeller version 360122823 SCH_3601228_36001_1300
6231 0 12 36 CCCI7 lattice222 0 CCCI4 mesh1006 0 I8 polyline1008 0 CCCCCCCDI5 ow
ner1040 0 CCCI16 boundary_lattice222 0 CCCI13 boundary_mesh1006 0 I17 boundary_p
olyline1008 0 CCCA16 index_map_offset0 0 1 dA9 index_map82 0 A17 node_id_index_m
ap82 0 A20 schema_embedding_map82 0 A5 child12 0 A14 lowest_node_id0 0 1 dA16 me
sh_offset_data206 0 Z1 372 2 3 0 0 0 0 0 0 0 1e3 1e-8 0 4 0 1 0 1 1 5 0 6 7 8 0
 0 9 10 11 0 0 0 0 0 0 0 81 255 2 2 357 12 1 13 0 0 0 0 14 70 11 CI9 list_type0
 0 1 uI10 notransmit0 0 1 lCCCDCCDI12 finger_index0 0 1 dI12 finger_block1012 0
 CZ3 0 4 T1 0 0 13 20 1 15 15 13 255 5 87 0 1 0 16 0 0 17 0 50 255 6 102 0 16 18
 0 0 +-.005815 0 .000600000000010709 -631328587650817e-31 0 -1 -1 0 631328587650
817e-31 30 255 7 153 0 10 19 0 0 +.00684125 -837811491466682e-33 .00491534038316
466 -.866025403784439 106057523872491e-30 .5 29 255 8 122 0 11 20 0 .006175 -756
219398473489e-33 .00530000000001225 19 9 CCCCCCI5 frame230 0 CA5 owner12 0 Z9 1
 0 1 17 0 21 0 V0 16 255 10 82 22 ?23 0 24 7 0 0 1 18 255 11 79 25 23 0 26 8 ?1
 81 1 25 234 27 11 0 0 28 29 30 17 255 23 0 31 32 33 11 34 10 0 32 +18 26 72 28
 35 11 36 20 ?1 81 1 28 233 27 26 0 0 37 25 38 17 35 0 39 40 41 26 42 43 0 42 +1
8 36 63 37 44 26 45 46 ?1 29 20 121 0 26 46 8 .005815 -712132113704185e-33 .0006
0000000001071 29 46 120 0 36 47 20 483428565406855e-32 -.0075075 .00453068076631
707 29 47 119 0 45 48 46 166533453693773e-32 -.0075075 .00060000000000369 18 45
 61 49 50 36 51 47 ?1 29 48 118 0 52 53 47 .00650168571891167 -977776766489479e-
33 .00511138791225819 18 52 54 54 34 51 55 48 ?1 29 53 117 0 55 56 48 .006501685
71891167 -.00375375 .000600000000003689 18 55 52 57 58 52 59 53 ?1 29 56 116 0 6
0 61 53 333066907387547e-32 .0075075 .00453068076631707 18 60 40 62 63 64 65 56
 ?1 29 61 115 0 65 66 56 333066907387547e-32 .0075075 .00060000000000369 18 65 3
8 67 68 60 69 61 ?1 29 66 114 0 59 70 61 .00650168571891167 .00375375 .004530680
76631707 18 59 47 71 72 55 64 66 ?1 29 70 113 0 69 73 66 -.00650168571891167 .00
375375 .00453068076631707 18 69 33 74 75 65 76 70 ?1 29 73 112 0 77 78 70 -.0065
0168571891167 .00375375 .00060000000000369 18 77 29 79 80 76 81 73 ?1 29 78 111
 0 76 82 73 -.00650168571891166 -.00375375 .00453068076631707 18 76 31 83 84 69
 77 78 ?1 29 82 110 0 81 85 78 -.00650168571891167 -.00375375 .00060000000000369
 18 81 28 86 87 77 88 82 ?1 29 85 109 0 88 89 82 .00546858983848601 -66970910415
5164e-33 128134308718941e-28 18 88 20 90 40 81 91 85 ?1 29 89 108 0 91 92 85 .00
3933 481653586104654e-33 -.000399999999990626 18 91 15 93 94 88 95 89 ?1 29 92 1
07 0 64 96 89 .00650168571891167 .00375375 .00060000000000369 18 64 45 97 98 59
 60 92 ?1 29 96 106 0 95 99 92 .004333 -530639458070548e-33 937264555284278e-29
 18 95 13 100 101 91 102 96 ?1 29 99 105 0 102 103 96 .00323318750000001 -395951
272291824e-33 -.0599999999999877 18 102 8 104 105 95 106 99 ?1 29 103 104 0 106
 107 99 .003933 481653586104654e-33 -.059366299715022 18 106 6 108 109 102 0 103
 ?1 29 107 103 0 51 0 103 .00650168571891167 -.00375375 .00453068076631707 18 51
 56 110 111 45 52 107 ?1 81 1 110 215 27 51 0 0 112 108 113 17 111 0 31 33 44 51
 114 115 0 116 +15 255 31 81 0 63 117 0 17 33 0 31 23 111 52 118 119 0 120 +17 4
4 0 31 111 121 36 84 122 0 123 +17 114 0 124 125 116 36 111 115 0 0 -16 115 62 1
26 ?111 127 128 129 0 0 1 17 116 0 124 114 58 51 130 131 0 118 +15 124 59 0 58 1
32 0 17 58 0 124 116 125 55 133 128 0 130 -17 130 0 134 98 118 55 116 131 0 135
 -16 131 57 136 ?116 128 119 137 0 0 1 17 118 0 134 130 120 51 33 119 0 0 -15 13
4 50 0 98 138 0 17 120 0 134 118 139 52 72 140 0 0 -16 119 55 141 ?33 131 140 14
2 0 0 1 81 1 141 246 143 119 144 0 136 145 146 16 140 53 145 ?72 119 147 148 0 0
 1 134 255 142 144 0 119 148 137 0 +149 150 134 148 143 0 140 151 142 0 +152 153
 30 137 145 0 131 142 154 0 +.00650168571891167 -.00375375 .00256534038316038 63
1328587650817e-31 0 1 136 255 149 2 3 4 2 5 FFT1 155 156 157 135 255 150 2 0 45
 255 12 155 .00650168571891167 -.00375375 .00453068076631707 1 .0070045928594558
 -.001876875 .00550675514320393 1.07735026918962 .0070045928594558 -124900090270
3294e-33 .00550675514320393 1.07735026918962 127 255 2 156 3 3 128 255 2 157 0 .
379840227620075 30 154 146 0 128 137 129 0 +.00269563928918376 -.005951171930751
62 .000600000000010709 -.866025403784439 -.5 546746595040959e-31 16 128 60 158 ?
133 115 131 154 0 0 1 134 129 147 0 115 154 159 0 +160 161 30 159 148 0 127 129
 162 0 +166533453693773e-32 -.0075075 .00256534038316038 631328587650817e-31 0 1
 136 160 2 3 4 2 5 FFT1 163 164 165 135 161 2 0 45 12 163 -545057992628275e-34 -
.0075075 .00453068076631707 1 .00375375 -.00650168571891165 .00648282952009083 1
.15470053837925 .00650168571891167 -.00375375 .00453068076631707 1 127 2 164 3 3
 128 2 165 0 .759680455240151 16 127 64 166 ?123 167 115 159 0 0 1 30 162 149 0
 167 159 168 0 +-.00380604642972791 -.00531007806924837 .000600000000010709 -.86
6025403784439 .5 546746595040958e-31 16 167 67 169 ?87 122 127 162 0 0 1 30 168
 150 0 170 162 171 0 +.005641794919243 -690920608929674e-33 .000300000000011761
 .500000000001538 -612323399575561e-31 .866025403783551 16 170 71 172 ?41 43 122
 168 0 0 1 31 255 171 151 0 43 168 19 0 +37879715259727e-33 0 .00060000000001070
9 -631328587650817e-31 0 -1 1 0 -631328587650817e-31 .005815 16 43 73 173 ?35 24
 170 171 0 0 1 31 19 152 0 24 171 7 0 +334604151455708e-33 0 .00530000000001225
 -631328587650817e-31 0 -1 1 0 -631328587650817e-31 .006175 16 24 78 174 ?32 10
 43 19 0 0 1 81 1 174 237 143 24 175 0 22 173 176 17 32 0 31 34 23 11 177 24 0 1
77 +17 34 0 31 72 32 52 23 10 0 33 -17 177 0 178 177 177 11 32 24 0 0 -15 178 77
 0 177 179 0 14 255 179 76 180 ?181 117 178 5 18 +0 0 181 117 21 81 1 180 358 18
2 179 183 0 0 184 185 14 181 74 184 ?186 179 187 5 188 +0 0 186 179 21 14 117 80
 189 ?179 16 31 5 190 +0 0 179 16 21 50 18 101 0 179 190 6 0 +-.006175 0 .005300
00000001225 631328587650817e-31 0 1 1 0 -631328587650817e-31 13 21 2 0 0 0 0 0 0
 9 16 14 16 83 191 ?117 0 192 5 6 +0 0 117 0 21 81 1 191 361 182 16 112 0 189 19
3 194 15 192 85 0 42 16 195 17 42 0 192 42 42 26 35 43 0 41 -15 195 84 0 135 16
 0 17 135 0 195 133 196 55 98 147 0 0 +17 133 0 195 87 135 45 58 128 0 0 +17 196
 0 195 135 197 64 68 198 0 0 +17 98 0 134 139 130 64 135 147 0 199 -16 147 51 20
0 ?135 140 201 151 0 0 1 81 1 200 248 143 147 202 0 145 203 204 16 201 48 203 ?1
39 147 205 206 0 0 1 30 151 142 0 147 206 148 0 +.00650168571891167 .001876875 .
000600000000010709 591527419047703e-30 -1 -373448170024119e-46 30 206 141 0 201
 207 151 0 +.00650168571891167 .00375375 .00256534038316038 631328587650817e-31
 0 1 134 207 140 0 205 208 206 0 +209 210 16 205 46 211 ?63 201 198 207 0 0 1 30
 208 139 0 198 212 207 0 +-.000555203570272078 .00782804693075162 .0006000000000
10709 .866025403784439 -.5 -546746595040958e-31 136 209 2 3 4 2 5 FFT1 213 214 2
15 135 210 2 0 45 12 213 .00650168571891167 .00375375 .00453068076631707 1 .0037
5375 .00650168571891167 .00648282952009082 1.15470053837925 36005277212371e-31 .
0075075 .00453068076631707 1 127 2 214 3 3 128 2 215 0 .75968045524015 16 198 44
 216 ?196 205 217 208 0 0 1 30 212 138 0 218 219 208 0 +-.00705688928918375 .003
43320306924837 .00060000000001071 .866025403784439 .5 -546746595040958e-31 16 21
8 37 220 ?197 221 222 212 0 0 1 30 219 137 0 217 223 212 0 +333066907387547e-32
 .0075075 .00256534038316038 -631328587650817e-31 0 -1 16 217 41 224 ?225 198 22
1 219 0 0 1 30 223 136 0 226 227 219 0 +-.00650168571891167 -.00375375 .00256534
038316038 631328587650817e-31 0 1 16 226 30 228 ?229 230 231 223 0 0 1 134 227 1
35 0 230 232 223 0 +233 234 16 230 32 235 ?121 222 226 227 0 0 1 30 232 134 0 22
2 236 227 0 +-.00650168571891167 .00375375 .00256534038316038 631328587650817e-3
1 0 1 136 233 2 3 4 2 5 FFT1 237 238 239 135 234 2 0 45 12 237 -.006501685718911
66 .00375375 .00453068076631707 1 -.0075075 -1281975124255712e-33 .0064828295200
9083 1.15470053837925 -.00650168571891166 -.00375375 .00453068076631707 1 127 2
 238 3 3 128 2 239 0 .759680455240151 16 222 34 240 ?241 218 230 232 0 0 1 30 23
6 133 0 231 242 232 0 +-.00650168571891167 -.001876875 .00060000000001071 -14788
1854761926e-30 1 933620425060297e-47 16 231 27 243 ?244 226 245 236 0 0 1 30 242
 132 0 245 246 236 0 +.003933 -481653586104654e-33 -.0299999999999891 6313285876
50817e-31 0 1 16 245 24 247 ?94 231 248 242 0 0 1 31 246 131 0 249 250 242 0 +-2
5253143505439e-33 0 -.000399999999990626 705710033451027e-31 0 1 -1 0 7057100334
51027e-31 .003933 16 249 16 251 ?252 248 253 246 0 0 1 134 250 130 0 122 254 246
 0 +255 256 16 122 68 257 ?44 170 167 250 0 0 1 31 254 129 0 248 258 250 0 +8108
85840065024e-45 0 128138472055284e-28 -631328587650817e-31 0 -1 1 0 -63132858765
0817e-31 .00546858983848601 136 255 2 3 4 2 5 FFT1 259 260 261 135 256 2 0 45 12
 259 -.00650168571891167 -.00375375 .00453068076631707 1 -.00375375 -.0065016857
1891167 .00648282952009083 1.15470053837925 109105947622369e-31 -.0075075 .00453
068076631707 1 127 2 260 3 3 128 2 261 0 .759680455240151 16 248 19 262 ?263 245
 249 254 0 0 1 31 258 128 0 253 264 254 0 +.004333 -530639458070548e-33 -.000399
999999990626 -122464679914735e-30 -1 773154534076792e-47 1 -122464679914735e-30
 -586426697984976e-31 4e-4 16 253 14 265 ?266 249 267 258 0 0 1 31 264 127 0 267
 268 258 0 +593571608860146e-45 0 937291910751981e-29 -631328587650817e-31 0 -1
 -1 0 631328587650817e-31 .004333 16 267 12 269 ?270 253 271 264 0 0 1 134 268 1
26 0 221 272 264 0 +273 274 16 221 39 275 ?75 217 218 268 0 0 1 31 272 125 0 271
 276 268 0 +0 0 -.0599999999999877 0 0 -1 -1 0 0 .00323318750000001 136 273 2 3
 4 2 5 FFT1 277 278 279 135 274 2 0 45 12 277 299135546782044e-32 .0075075 .0045
3068076631707 1 -.00375375 .00650168571891167 .00648282952009083 1.1547005383792
5 -.00650168571891167 .00375375 .00453068076631707 1 127 2 278 3 3 128 2 279 0 .
75968045524015 16 271 9 280 ?105 267 281 272 0 0 1 30 276 124 0 281 282 272 0 +.
00365659375 -447803583171972e-33 -.0596165934999877 -.741252945775567 9077730474
02595e-31 -.671225796866483 16 281 7 283 ?284 271 285 276 0 0 1 31 282 123 0 285
 0 276 0 +-374796421531399e-32 0 -.059366299715022 0 0 1 -1 0 0 .003933 16 285 5
 286 ?287 281 0 282 0 0 1 81 1 286 266 143 285 288 0 283 0 289 17 287 0 290 94 1
09 106 291 285 0 291 +15 290 23 0 287 292 0 17 94 0 290 293 287 91 109 245 0 252
 +17 109 0 290 287 293 106 94 245 0 294 -17 291 0 295 284 294 106 287 285 0 0 -1
5 295 4 0 291 296 0 17 284 0 295 297 291 102 294 281 0 0 +17 294 0 295 291 297 1
06 284 281 0 287 -17 297 0 295 294 284 102 105 271 0 284 -17 105 0 187 105 105 1
02 297 271 0 297 +15 187 75 0 105 181 0 14 296 3 193 ?0 298 295 5 299 +0 0 0 298
 21 81 1 193 362 182 296 300 0 191 301 302 14 298 10 301 ?296 303 304 5 305 -0 0
 296 303 21 52 255 299 88 0 296 0 305 0 +0 0 -.0596165934999877 0 0 1 .003656593
75 .741252945775567 .671225796866483 -1 0 0 54 255 305 89 0 298 299 306 0 +-2525
3143505439e-33 0 -.000399999999990626 -586426697984976e-31 0 -1 .004333 4e-4 -1
 0 586426697984976e-31 51 255 306 90 0 292 305 307 0 +-189398576295176e-32 0 -.0
299999999999891 0 0 -1 .003933 -1 0 0 14 292 22 308 ?303 309 290 5 306 +0 0 303
 309 21 50 307 91 0 303 306 310 0 +-.004 0 937317464508065e-29 -631328587650817e
-31 0 -1 -1 0 631328587650817e-31 14 303 17 311 ?298 292 312 5 307 +0 0 298 292
 21 50 310 92 0 309 307 313 0 +-.00650168571891166 -.00375375 0 1 14788185476192
6e-30 0 -147881854761926e-30 1 0 14 309 25 314 ?292 315 316 5 310 -0 0 292 315 2
1 50 313 93 0 315 310 317 0 +-.00650168571891167 .00375375 0 .5 -.86602540378443
9 0 0 0 -1 14 315 35 318 ?309 319 320 5 313 -0 0 309 319 21 50 317 94 0 321 313
 322 0 +444089209850063e-32 -.0075075 0 .5 .866025403784439 0 0 0 -1 14 321 65 3
23 ?132 186 324 5 317 -0 0 132 186 21 50 322 95 0 132 317 325 0 +.00650168571891
167 -.00375375 0 -.5 .866025403784439 0 0 0 1 14 132 58 326 ?138 321 124 5 322 -
0 0 138 321 21 50 325 96 0 138 322 327 0 +.00650168571891167 .00375375 0 -1 -591
527419047703e-30 0 -591527419047703e-30 1 0 14 138 49 328 ?319 132 134 5 325 -0
 0 319 132 21 50 327 97 0 319 325 329 0 +333066907387547e-32 .0075075 0 -.5 -.86
6025403784439 0 -.866025403784439 .5 0 14 319 42 330 ?315 138 331 5 327 -0 0 315
 138 21 52 329 98 0 186 327 188 0 +18939857630269e-33 0 .000300000000011761 0 0
 1 .005641794919243 .500000000001538 .866025403783551 -1 0 0 14 186 69 332 ?321
 181 39 5 329 +0 0 321 181 21 50 188 99 0 181 329 190 0 +-388578058618805e-32 0
 -.0599999999999877 -631328587650817e-31 0 -1 -1 0 631328587650817e-31 52 190 10
0 0 117 188 18 0 +310319490192639e-33 0 .00491534038316466 0 0 -1 .00684125 .866
02540378444 .5 -1 0 0 81 1 332 372 182 186 333 0 330 0 334 15 39 70 0 335 186 0
 17 335 0 39 41 40 88 263 248 0 0 -17 41 0 39 35 335 26 40 170 0 0 +17 40 0 39 3
35 35 88 41 170 0 263 -17 263 0 336 263 263 88 335 248 0 335 +15 336 18 0 263 30
3 0 80 7 CCCCCDI12 legal_owners0 17 1 lCZ1 182 337 338 9000 1 1 1 1 1 1 1 1 0 FF
FFTFTFFFFFFFFFF1 81 1 333 206 27 186 339 332 340 341 342 81 1 330 371 182 319 34
0 0 328 332 343 82 255 1 334 305725553 81 1 340 204 27 319 344 330 345 333 346 8
1 1 328 370 182 138 345 0 326 330 347 82 1 343 305594481 81 1 345 202 27 138 348
 328 349 340 350 81 1 326 369 182 132 349 0 323 328 351 82 1 347 305463409 81 1
 349 200 27 132 352 326 353 345 354 81 1 323 368 182 321 353 0 318 326 355 82 1
 351 305332337 81 1 353 198 27 321 356 323 357 349 358 81 1 318 367 182 315 357
 0 314 323 359 82 1 355 305201265 81 1 357 196 27 315 360 318 361 353 362 81 1 3
14 366 182 309 361 0 311 318 363 82 1 359 305070193 81 1 361 194 27 309 364 314
 365 357 366 81 1 311 365 182 303 365 0 308 314 367 82 1 363 304939121 81 1 365
 192 27 303 368 311 369 361 370 81 1 308 364 182 292 369 0 301 311 371 82 1 367
 304808049 81 1 369 190 27 292 372 308 373 365 374 81 1 301 363 182 298 373 0 19
3 308 375 82 1 371 304676977 81 1 373 188 27 298 376 301 300 369 377 82 1 375 30
4414833 80 1 27 378 379 9000 0 0 0 0 3 6 0 0 0 TTTFTFTTFFFFFFFFF10 81 1 376 187
 143 298 0 373 380 372 381 81 1 300 186 27 296 380 193 382 373 383 98 255 3 377
 50 50 53 81 1 380 185 143 296 0 300 0 376 384 81 1 382 184 27 10 0 22 175 300 3
85 98 3 383 50 50 52 81 1 22 236 143 10 382 0 386 174 387 81 1 175 183 27 24 0 1
74 388 382 389 98 3 385 49 53 56 81 1 388 182 27 43 0 173 390 175 391 98 3 389 4
9 53 55 81 1 173 238 143 43 388 0 174 172 392 81 1 390 181 27 170 0 172 393 388
 394 98 3 391 49 53 54 81 1 172 239 143 170 390 0 173 257 395 81 1 393 180 27 16
7 0 169 396 390 397 98 3 394 49 53 53 81 1 169 241 143 167 393 0 257 166 398 81
 1 396 179 27 127 0 166 399 393 400 98 3 397 49 53 51 81 1 166 242 143 127 396 0
 169 126 401 81 1 399 178 27 115 0 126 402 396 403 98 3 400 49 53 50 81 1 126 24
3 143 115 399 0 166 158 404 81 1 402 177 27 128 0 158 405 399 406 98 3 403 49 53
 49 81 1 158 244 143 128 402 0 126 136 407 81 1 405 176 27 131 0 136 144 402 408
 98 3 406 49 53 48 81 1 136 245 143 131 405 0 158 141 409 81 1 144 175 27 119 0
 141 410 405 411 98 3 408 49 52 57 81 1 410 174 27 140 0 145 202 144 412 98 3 41
1 49 52 56 81 1 145 247 143 140 410 0 141 200 413 81 1 202 173 27 147 0 200 414
 410 415 98 3 412 49 52 55 81 1 414 172 27 201 0 203 416 202 417 98 3 415 49 52
 54 81 1 203 249 143 201 414 0 200 211 418 81 1 416 171 27 205 0 211 419 414 420
 98 3 417 49 52 53 81 1 211 250 143 205 416 0 203 216 421 81 1 419 170 27 198 0
 216 422 416 423 98 3 420 49 52 52 81 1 216 251 143 198 419 0 211 224 424 81 1 4
22 169 27 218 0 220 425 419 426 98 3 423 49 52 51 81 1 220 254 143 218 422 0 275
 240 427 81 1 425 168 27 217 0 224 428 422 429 98 3 426 49 52 48 81 1 224 252 14
3 217 425 0 216 275 430 81 1 428 167 27 226 0 228 431 425 432 98 3 429 49 52 50
 81 1 228 257 143 226 428 0 235 243 433 81 1 431 166 27 230 0 235 434 428 435 98
 3 432 49 51 55 81 1 235 256 143 230 431 0 240 228 436 81 1 434 165 27 222 0 240
 437 431 438 98 3 435 49 51 56 81 1 240 255 143 222 434 0 220 235 439 81 1 437 1
64 27 231 0 243 440 434 441 98 3 438 49 51 57 81 1 243 258 143 231 437 0 228 247
 442 81 1 440 163 27 245 0 247 443 437 444 98 3 441 49 51 54 81 1 247 259 143 24
5 440 0 243 262 445 81 1 443 162 27 249 0 251 446 440 447 98 3 444 49 51 53 81 1
 251 261 143 249 443 0 262 265 448 81 1 446 161 27 122 0 257 449 443 450 98 3 44
7 49 51 51 81 1 257 240 143 122 446 0 172 169 451 81 1 449 160 27 248 0 262 452
 446 453 98 3 450 49 53 52 81 1 262 260 143 248 449 0 247 251 454 81 1 452 159 2
7 253 0 265 455 449 456 98 3 453 49 51 52 81 1 265 262 143 253 452 0 251 269 457
 81 1 455 158 27 267 0 269 458 452 459 98 3 456 49 51 50 81 1 269 263 143 267 45
5 0 265 280 460 81 1 458 157 27 221 0 275 461 455 462 98 3 459 49 51 49 81 1 275
 253 143 221 458 0 224 220 463 81 1 461 156 27 271 0 280 464 458 465 98 3 462 49
 52 49 81 1 280 264 143 271 461 0 269 283 466 81 1 464 155 27 281 0 283 288 461
 467 98 3 465 49 51 48 81 1 283 265 143 281 464 0 280 286 468 81 1 288 154 27 28
5 0 286 0 464 469 98 3 467 49 50 57 98 3 469 49 50 56 80 1 143 0 470 8001 0 0 0
 0 3 5 0 0 0 FFFFTFTFFFFFFFFFF2 83 255 3 468 .627451002597809 .627451002597809 .
627451002597809 79 255 15 470 SDL/TYSA_COLOUR83 3 466 .627451002597809 .62745100
2597809 .627451002597809 83 3 463 .627451002597809 .627451002597809 .62745100259
7809 83 3 460 .627451002597809 .627451002597809 .627451002597809 83 3 457 .62745
1002597809 .627451002597809 .627451002597809 83 3 454 .627451002597809 .62745100
2597809 .627451002597809 83 3 451 .627451002597809 .627451002597809 .62745100259
7809 83 3 448 .627451002597809 .627451002597809 .627451002597809 83 3 445 .62745
1002597809 .627451002597809 .627451002597809 83 3 442 .627451002597809 .62745100
2597809 .627451002597809 83 3 439 .627451002597809 .627451002597809 .62745100259
7809 83 3 436 .627451002597809 .627451002597809 .627451002597809 83 3 433 .62745
1002597809 .627451002597809 .627451002597809 83 3 430 .627451002597809 .62745100
2597809 .627451002597809 83 3 427 .627451002597809 .627451002597809 .62745100259
7809 83 3 424 .627451002597809 .627451002597809 .627451002597809 83 3 421 .62745
1002597809 .627451002597809 .627451002597809 83 3 418 .627451002597809 .62745100
2597809 .627451002597809 83 3 413 .627451002597809 .627451002597809 .62745100259
7809 83 3 409 .627451002597809 .627451002597809 .627451002597809 83 3 407 .62745
1002597809 .627451002597809 .627451002597809 83 3 404 .627451002597809 .62745100
2597809 .627451002597809 83 3 401 .627451002597809 .627451002597809 .62745100259
7809 83 3 398 .627451002597809 .627451002597809 .627451002597809 83 3 395 .62745
1002597809 .627451002597809 .627451002597809 83 3 392 .627451002597809 .62745100
2597809 .627451002597809 81 1 386 213 143 16 0 112 471 22 472 83 3 387 .62745100
2597809 .627451002597809 .627451002597809 81 1 112 214 27 16 386 191 183 110 473
 81 1 471 211 143 179 0 183 474 386 475 83 3 472 .627450980392157 .6274509803921
57 .627450980392157 81 1 183 212 27 179 471 180 476 112 477 81 1 474 209 143 117
 0 476 478 471 479 83 3 475 .627450980392157 .627450980392157 .627450980392157 8
1 1 476 210 27 117 474 189 341 183 480 81 1 478 207 143 181 0 341 339 474 481 83
 3 479 .627450980392157 .627450980392157 .627450980392157 81 1 341 208 27 181 47
8 184 333 476 482 81 1 339 205 143 186 0 333 344 478 483 83 3 481 .6274509803921
57 .627450980392157 .627450980392157 81 1 344 203 143 319 0 340 348 339 484 83 3
 483 .627450980392157 .627450980392157 .627450980392157 81 1 348 201 143 138 0 3
45 352 344 485 83 3 484 .627450980392157 .627450980392157 .627450980392157 81 1
 352 199 143 132 0 349 356 348 486 83 3 485 .627450980392157 .627450980392157 .6
27450980392157 81 1 356 197 143 321 0 353 360 352 487 83 3 486 .627450980392157
 .627450980392157 .627450980392157 81 1 360 195 143 315 0 357 364 356 488 83 3 4
87 .627450980392157 .627450980392157 .627450980392157 81 1 364 193 143 309 0 361
 368 360 489 83 3 488 .627450980392157 .627450980392157 .627450980392157 81 1 36
8 191 143 303 0 365 372 364 490 83 3 489 .627450980392157 .627450980392157 .6274
50980392157 81 1 372 189 143 292 0 369 376 368 491 83 3 490 .627450980392157 .62
7450980392157 .627450980392157 83 3 491 .627450980392157 .627450980392157 .62745
0980392157 81 1 184 359 182 181 341 0 180 189 492 98 3 482 50 51 53 81 1 189 360
 182 117 476 0 184 191 493 82 1 492 299958385 82 1 493 300023921 98 3 480 50 51
 55 98 3 477 50 51 54 98 3 473 50 51 56 83 3 384 .627450980392157 .6274509803921
57 .627450980392157 83 3 381 .627450980392157 .627450980392157 .627450980392157
 79 19 379 SPAATTRIB_UNICODEID98 3 374 50 50 55 98 3 370 50 50 54 98 3 366 50 50
 56 98 3 362 50 50 57 98 3 358 50 51 51 98 3 354 50 51 50 98 3 350 50 51 49 98 3
 346 50 51 48 98 3 342 50 51 52 79 14 338 SWEntUnchanged15 331 43 0 68 319 0 17
 68 0 331 494 199 65 196 198 0 225 -17 494 0 331 495 68 60 225 217 0 496 -17 199
 0 331 68 495 64 139 201 0 196 -17 225 0 320 80 496 65 494 217 0 197 +15 320 36
 0 80 315 0 17 80 0 320 241 225 77 197 218 0 497 -17 496 0 320 225 241 60 75 221
 0 0 -17 197 0 195 196 244 65 80 218 0 0 +17 244 0 195 197 87 77 498 231 0 0 +17
 87 0 195 244 133 81 50 167 0 499 +17 498 0 316 229 497 81 244 231 0 0 -15 316 2
6 0 498 309 0 17 229 0 316 500 498 76 499 226 0 0 +17 497 0 316 498 500 77 241 2
22 0 244 -17 500 0 316 497 229 69 121 230 0 0 -17 241 0 320 496 80 69 497 222 0
 500 +17 121 0 31 44 75 76 500 230 0 229 +17 75 0 31 121 63 69 496 221 0 241 +17
 63 0 31 75 72 60 495 205 0 494 +17 72 0 31 63 34 59 120 140 0 139 +17 495 0 331
 199 494 59 63 205 0 0 -17 139 0 134 120 98 59 199 201 0 495 +17 499 0 324 50 84
 81 229 226 0 498 -15 324 66 0 50 321 0 17 50 0 324 123 499 45 87 167 0 125 -17
 84 0 324 499 123 76 44 122 0 121 -17 123 0 324 84 50 36 125 127 0 114 +17 125 0
 124 58 114 45 123 127 0 133 -15 312 21 0 501 303 336 17 501 0 312 501 501 95 27
0 267 0 0 -17 270 0 304 266 101 95 501 267 0 501 +15 304 11 0 270 298 0 17 266 0
 304 252 270 91 101 253 0 0 +17 101 0 304 270 252 95 266 253 0 270 -17 252 0 304
 101 266 91 293 249 0 293 +17 293 0 290 109 94 91 252 249 0 266 -82 1 302 304283
761 83 3 289 .627451002597809 .627451002597809 .627451002597809 83 3 204 .627451
002597809 .627451002597809 .627451002597809 82 1 194 300220529 82 1 185 29982731
3 83 3 176 .627451002597809 .627451002597809 .627451002597809 136 152 2 3 4 2 5
 FFT1 502 503 504 135 153 2 0 45 12 502 .0070045928594558 -1249000902703294e-33
 .00550675514320393 1.07735026918962 .0070045928594558 .001876875 .0055067551432
0393 1.07735026918962 .00650168571891167 .00375375 .00453068076631707 1 127 2 50
3 3 3 128 2 504 .379840227620075 .75968045524015 83 3 146 .627451002597809 .6274
51002597809 .627451002597809 81 1 108 216 27 106 0 0 110 104 505 98 3 113 49 50
 51 81 1 104 217 27 102 0 0 108 100 506 98 3 505 49 48 56 81 1 100 218 27 95 0 0
 104 97 507 98 3 506 49 48 57 81 1 97 219 27 64 0 0 100 93 508 98 3 507 49 49 48
 81 1 93 220 27 91 0 0 97 90 509 98 3 508 49 49 57 81 1 90 221 27 88 0 0 93 86 5
10 98 3 509 49 49 49 81 1 86 222 27 81 0 0 90 83 511 98 3 510 49 49 50 81 1 83 2
23 27 76 0 0 86 79 512 98 3 511 49 49 51 81 1 79 224 27 77 0 0 83 74 513 98 3 51
2 49 49 53 81 1 74 225 27 69 0 0 79 71 514 98 3 513 49 49 52 81 1 71 226 27 59 0
 0 74 67 515 98 3 514 49 49 54 81 1 67 227 27 65 0 0 71 62 516 98 3 515 49 50 48
 81 1 62 228 27 60 0 0 67 57 517 98 3 516 49 49 55 81 1 57 229 27 55 0 0 62 54 5
18 98 3 517 49 49 56 81 1 54 230 27 52 0 0 57 49 519 98 3 518 49 50 49 81 1 49 2
31 27 45 0 0 54 37 520 98 3 519 49 50 50 81 1 37 232 27 36 0 0 49 28 521 98 3 52
0 49 50 52 98 3 521 49 50 53 98 3 38 49 50 54 81 1 29 269 27 1 522 523 25 0 524
 98 3 30 49 50 55 81 1 522 268 525 1 526 29 0 0 527 81 1 523 271 528 1 29 529 0
 0 530 98 2 524 49 52 80 1 528 531 532 8051 0 0 0 0 3 5 0 0 0 TFTFFFFFFFFFFFFFF1
 81 2 529 273 533 1 523 534 0 0 0 535 82 1 530 0 80 2 533 536 537 9000 0 0 0 0 3
 5 0 0 0 FFTFFFFFFFFFFFFFF9 1 81 2 534 274 538 1 529 539 0 0 540 0 82 1 535 38 8
0 2 538 541 542 9000 0 0 0 0 3 5 0 0 0 FFTFTTTFFTFFFFFFF10 10 81 2 539 275 543 1
 534 544 0 0 0 545 98 8 540 66 111 100 121 49 91 49 93 80 2 543 546 547 9000 0 0
 0 0 3 5 0 0 0 FFTFFFFFFFFFFFFFF9 1 81 2 544 308 548 1 539 13 0 0 0 0 82 1 545 1
03 80 2 548 549 550 9000 0 0 0 0 3 5 0 0 0 FFTFFFFFFFFFFFFFF9 1 81 1 13 324 551
 1 544 2 0 0 552 80 1 551 553 554 9000 1 1 1 1 1 1 1 1 0 FFTFFFFFFFFFFFFFF1 82 1
 552 4460 79 10 554 BODY_MATCH79 16 550 BODY_RECIPE_200179 19 547 ENT_TIME_STAMP
_200179 23 542 SWIMPLICITBODYNAME_ID_U79 30 537 LAST_BODY_MODIFYING_FEATURE_ID79
 21 532 SDL/TYSA_SCALE_FACTOR80 1 525 27 555 9000 0 0 0 0 3 5 0 0 0 TFTFTFTFFFFF
FFFFF10 81 1 526 267 556 1 557 522 0 0 558 98 35 527 73 83 79 32 52 48 49 55 32
 45 32 77 56 32 120 32 54 48 32 83 116 101 101 108 32 49 50 46 57 32 80 108 97 1
05 110 80 1 556 559 560 8038 0 0 0 0 0 0 0 0 0 TTTTTTTTTTTTTFTFT10 81 1 557 235
 561 1 0 526 0 0 562 98 5 558 66 111 100 121 49 80 1 561 143 563 8040 0 0 0 0 3
 5 0 0 0 TTTFFFFFFFFFFFFFF2 83 3 562 .627451002597809 .627451002597809 .62745100
2597809 79 17 563 SDL/TYSA_COLOUR_279 14 560 SDL/TYSA_UNAME79 22 555 ATTRIB_XPAR
ASOLID_NAME19 17 86 0 1 0 9 5 0 S0 74 4 CI16 index_map_offset0 0 1 dCCZ20 15 13
 0 0 29 286 557 526 522 523 529 534 539 544 332 13 2 0 0 0 0 0 0 0 80 2 12 564 5
65 9000 0 0 0 0 3 5 0 0 0 FFTFFFFFFFFFFFFFF9 1 82 1 14 101 79 12 565 ATOM_ID_200
11 0 
