**ABCDEFGHIJKLMNOPQRSTUVWXYZabcdefghijklmnopqrstuvwxyz**************************
**PARASOLID !"#$%&'()*+,-./:;<=>?@[\]^_`{|}~0123456789**************************
**PART1;
MC=AMD64;
MC_MODEL=Intel64 Family 6 Model 154 Stepping 3, GenuineIntel;
MC_ID=unknown;
OS=Windows_NT;
OS_RELEASE=unknown;
FRU=Parasolid Version 36.1, build 228,  1-18-2025;
APPL=SOLIDWORKS 2025-2025268;
SITE=;
USER=unknown;
FORMAT=text;
GUISE=transmit;
KEY=slider_2;
FILE=slider_2.x_t;
DATE=Sat Feb 28 20:22:07 2026;
**PART2;
SCH=SCH_3601228_36001;
USFLD_SIZE=0;
**PART3;
**END_OF_HEADER*****************************************************************
T51 : TRANSMIT FILE created by modeller version 360122823 SCH_3601228_36001_1300
6231 0 12 36 CCCI7 lattice222 0 CCCI4 mesh1006 0 I8 polyline1008 0 CCCCCCCDI5 ow
ner1040 0 CCCI16 boundary_lattice222 0 CCCI13 boundary_mesh1006 0 I17 boundary_p
olyline1008 0 CCCA16 index_map_offset0 0 1 dA9 index_map82 0 A17 node_id_index_m
ap82 0 A20 schema_embedding_map82 0 A5 child12 0 A14 lowest_node_id0 0 1 dA16 me
sh_offset_data206 0 Z1 515 2 3 0 0 0 0 0 0 0 1e3 1e-8 0 4 0 1 0 1 1 5 0 6 7 8 0
 0 9 10 11 0 0 0 0 0 0 0 81 255 2 2 497 12 1 13 0 0 0 0 14 70 11 CI9 list_type0
 0 1 uI10 notransmit0 0 1 lCCCDCCDI12 finger_index0 0 1 dI12 finger_block1012 0
 CZ3 0 4 T1 0 0 13 20 1 15 15 13 255 5 128 0 1 0 16 0 0 17 0 50 255 6 146 0 18 1
9 0 0 +-.025 .09 .005 0 1 0 1 0 0 30 255 7 226 0 20 21 0 0 +0 0 -.02 -1 0 0 29 2
55 8 178 0 11 22 0 -.025 .09 -.02 19 9 CCCCCCI5 frame230 0 CA5 owner12 0 Z9 1 0
 1 17 0 23 0 V0 16 255 10 122 24 ?25 0 20 26 0 0 1 18 255 11 117 27 25 0 28 8 ?1
 81 1 27 342 29 11 0 0 30 31 32 17 255 25 0 33 34 35 11 36 10 0 37 +18 28 115 30
 38 11 39 22 ?1 81 1 30 341 29 28 0 0 40 27 41 17 38 0 42 37 43 28 44 20 0 45 +1
8 39 110 40 34 28 46 47 ?1 29 22 177 0 28 47 8 -.025 0 -.02 29 47 176 0 39 48 22
 -.0135 .09 0 29 48 175 0 46 49 47 -.0135 0 0 18 46 108 50 51 39 52 48 ?1 29 49
 174 0 52 53 48 .0135 .09 0 18 52 90 54 55 46 56 49 ?1 29 53 173 0 56 57 49 .025
 .09 -.02 18 56 88 58 36 52 59 53 ?1 29 57 172 0 59 60 53 .0135 0 0 18 59 86 61
 62 56 63 57 ?1 29 60 171 0 63 64 57 .025 0 -.02 18 63 85 65 44 59 66 60 ?1 29 6
4 170 0 66 67 60 .1 .07 .01 18 66 65 68 69 63 70 64 ?1 29 67 169 0 70 71 64 .1 .
0585 .03 18 70 63 72 73 66 74 67 ?1 29 71 168 0 74 75 67 .1 .09 .03 18 74 61 76
 77 70 78 71 ?1 29 75 167 0 78 79 71 .1 .09 0 18 78 59 80 81 74 82 75 ?1 29 79 1
66 0 82 83 75 .1 0 0 18 82 57 84 85 78 86 79 ?1 29 83 165 0 86 87 79 .1 0 .03 18
 86 55 88 89 82 90 83 ?1 29 87 164 0 90 91 83 .1 .0315 .03 18 90 53 92 93 86 94
 87 ?1 29 91 163 0 94 95 87 .1 .02 .01 18 94 52 96 97 90 98 91 ?1 29 95 162 0 98
 99 91 .0875 .01 0 18 98 47 100 101 94 102 95 ?1 29 99 161 0 103 104 95 .0875 .0
8 0 18 103 40 105 106 102 107 99 ?1 29 104 160 0 108 109 99 .0675 .08 0 18 108 2
6 110 111 112 113 104 ?1 29 109 159 0 112 114 104 .0675 .01 .03 18 112 31 115 11
6 117 108 109 ?1 29 114 158 0 102 118 109 .0875 .01 .03 18 102 45 119 120 98 103
 114 ?1 29 118 157 0 113 121 114 .0675 .08 .03 18 113 24 122 123 108 124 118 ?1
 29 121 156 0 124 125 118 -.14 0 .03 18 124 19 126 127 113 128 121 ?1 29 125 155
 0 128 129 121 -.14 0 0 18 128 17 130 131 124 132 125 ?1 29 129 154 0 132 133 12
5 -.14 .09 0 18 132 15 134 135 128 136 129 ?1 29 133 153 0 136 137 129 -.14 .09
 .03 18 136 13 138 139 132 140 133 ?1 29 137 152 0 107 141 133 .0875 .08 .03 18
 107 38 142 143 103 117 137 ?1 29 141 151 0 144 145 137 -.14 .07 .01 18 144 9 14
6 147 140 148 141 ?1 29 145 150 0 117 149 141 .0675 .01 0 18 117 33 150 151 107
 112 145 ?1 29 149 149 0 148 152 145 -.14 .02 .01 18 148 7 153 154 144 155 149 ?
1 29 152 148 0 155 156 149 -.14 .0315 .03 18 155 6 157 158 148 0 152 ?1 29 156 1
47 0 140 0 152 -.14 .0585 .03 18 140 11 159 160 136 144 156 ?1 81 1 159 311 29 1
40 0 0 161 157 162 17 160 0 163 164 165 140 73 166 0 167 -15 255 163 72 0 69 168
 0 17 164 0 163 69 160 144 169 170 0 171 -17 165 0 163 160 69 70 172 173 0 174 -
17 73 0 175 176 167 70 160 166 0 165 +16 166 73 177 ?73 178 179 180 0 0 1 17 167
 0 175 73 139 140 181 182 0 169 -15 175 78 0 73 183 0 17 139 0 175 167 176 136 7
7 184 0 185 +17 181 0 186 187 169 136 167 182 0 0 +16 182 12 188 ?181 189 170 19
0 0 0 1 17 169 0 186 181 171 140 164 170 0 0 +15 186 4 0 191 192 0 17 171 0 186
 169 191 144 193 194 0 0 +16 170 10 195 ?169 182 194 196 0 0 1 81 1 195 389 197
 170 198 0 188 199 200 16 194 8 199 ?171 170 201 202 0 0 1 30 196 182 0 170 202
 203 0 +-.14 .0577140676373884 .0313668388914984 0 -.498471124258083 .8669063030
57535 30 202 181 0 194 204 196 0 +-.14 .035 .01 0 1 0 31 255 203 183 0 205 196 2
06 0 +.0635 .08 0 0 0 1 -1 0 0 .004 16 205 27 207 ?111 208 209 203 0 0 1 31 206
 184 0 208 203 190 0 +.0635 .01 .03 0 0 -1 -1 0 0 .004 16 208 30 210 ?211 212 20
5 206 0 0 1 30 190 185 0 182 206 213 0 +-.14 0 .03 0 1 0 31 213 186 0 214 190 21
5 0 +.0635 .08 .03 0 0 -1 -1 0 0 .004 16 214 23 216 ?217 209 218 213 0 0 1 30 21
5 187 0 219 213 220 0 +-.1 .09 0 -1 0 0 16 219 109 221 ?135 222 223 215 0 0 1 30
 220 188 0 224 215 225 0 +.1 0 .03 0 -1 0 16 224 62 226 ?174 173 227 220 0 0 1 3
0 225 189 0 189 220 228 0 +-.14 .09 .03 0 0 -1 16 189 14 229 ?187 230 182 225 0
 0 1 30 228 190 0 230 225 231 0 +-.14 0 0 0 -1 0 16 230 16 232 ?233 234 189 228
 0 0 1 30 231 191 0 235 228 236 0 +-.025 0 -.02 .498471124258083 0 .866906303057
535 16 235 114 237 ?51 238 222 231 0 0 1 30 236 192 0 239 231 240 0 +.0875 .08 .
03 0 0 -1 16 239 39 241 ?242 243 244 236 0 0 1 30 240 193 0 234 236 245 0 +-.14
 0 .03 0 0 1 16 234 18 246 ?247 218 230 240 0 0 1 31 245 194 0 244 240 248 0 +.0
835 .08 .03 0 0 -1 -1 0 0 .004 16 244 37 249 ?250 239 251 245 0 0 1 31 248 195 0
 251 245 252 0 +.0635 .01 0 0 0 1 -1 0 0 .004 16 251 34 253 ?151 244 212 248 0 0
 1 30 252 196 0 218 248 254 0 +-.14 0 .03 0 1 0 16 218 20 255 ?256 214 234 252 0
 0 1 30 254 197 0 212 252 257 0 +.0675 .01 .03 0 0 -1 16 212 32 258 ?259 251 208
 254 0 0 1 30 257 198 0 209 254 260 0 +.0675 .08 .03 0 0 -1 16 209 25 261 ?262 2
05 214 257 0 0 1 31 260 199 0 243 257 263 0 +.0835 .08 0 0 0 1 -1 0 0 .004 16 24
3 41 264 ?106 265 239 260 0 0 1 31 263 200 0 265 260 266 0 +.0835 .01 .03 0 0 -1
 -1 0 0 .004 16 265 44 267 ?268 269 243 263 0 0 1 30 266 201 0 270 263 271 0 +-.
1 .02 .01 -1 0 0 16 270 69 272 ?154 179 273 266 0 0 1 30 271 202 0 269 266 274 0
 +.0875 .01 .03 0 0 -1 16 269 46 275 ?276 277 265 271 0 0 1 31 274 203 0 277 271
 26 0 +.0835 .01 0 0 0 1 -1 0 0 .004 16 277 48 278 ?101 279 269 274 0 0 1 30 26
 204 0 10 274 280 0 +0 .09 -.02 -1 0 0 30 280 205 0 281 26 282 0 +.1 0 .03 0 -1
 0 16 281 54 283 ?284 285 279 280 0 0 1 30 282 206 0 285 280 286 0 +.1 0 0 0 0 -
1 16 285 56 287 ?288 289 281 282 0 0 1 30 286 207 0 289 282 290 0 +.1 0 0 0 1 0
 16 289 58 291 ?292 227 285 286 0 0 1 30 290 208 0 293 286 294 0 +.05 0 0 1 0 0
 16 293 94 295 ?85 296 297 290 0 0 1 30 294 209 0 227 290 298 0 +.1 .09 0 0 0 1
 16 227 60 299 ?300 224 289 294 0 0 1 30 298 210 0 296 294 301 0 +.05 .09 0 1 0
 0 16 296 95 302 ?81 303 293 298 0 0 1 30 301 211 0 173 298 304 0 +.1 .051232151
2447158 .0426397369657116 0 .498471124258083 -.866906303057535 16 173 64 305 ?17
2 273 224 301 0 0 1 30 304 212 0 273 301 306 0 +.1 .035 .01 0 -1 0 16 273 66 307
 ?308 270 173 304 0 0 1 30 306 213 0 179 304 180 0 +.05 .07 .01 1 0 0 16 179 70
 309 ?69 166 270 306 0 0 1 30 180 214 0 166 306 310 0 +.05 .0585 .03 1 0 0 30 31
0 215 0 178 180 311 0 +.05 .0315 .03 1 0 0 16 178 76 312 ?93 184 166 310 0 0 1 3
0 311 216 0 184 310 313 0 +-.1 .09 .03 -1 0 0 16 184 79 314 ?139 315 178 311 0 0
 1 30 313 217 0 315 311 316 0 +.025 0 -.02 -.498471124258083 0 .866906303057535
 16 315 84 317 ?318 319 184 313 0 0 1 30 316 218 0 319 313 320 0 +.025 0 -.02 0
 1 0 16 319 87 321 ?322 323 315 316 0 0 1 30 320 219 0 323 316 324 0 +.025 .09 -
.02 .498471124258083 0 -.866906303057535 16 323 89 325 ?35 297 319 320 0 0 1 30
 324 220 0 297 320 326 0 +.0135 0 0 0 1 0 16 297 91 327 ?328 293 323 324 0 0 1 3
0 326 221 0 303 324 329 0 +-.1 0 .03 -1 0 0 16 303 102 330 ?127 223 296 326 0 0
 1 30 329 222 0 223 326 331 0 +-.1 0 0 1 0 0 16 223 107 332 ?333 219 303 329 0 0
 1 30 331 223 0 222 329 334 0 +-.0135 0 0 0 1 0 16 222 111 335 ?336 235 219 331
 0 0 1 30 334 224 0 238 331 21 0 +-.025 .09 -.02 .498471124258083 0 .86690630305
7535 16 238 116 337 ?34 338 235 334 0 0 1 30 21 225 0 338 334 7 0 +-.025 0 -.02
 0 1 0 16 338 118 339 ?37 20 238 21 0 0 1 81 1 339 346 197 338 340 0 341 337 342
 17 37 0 42 36 38 11 45 338 0 343 +16 20 121 341 ?38 10 338 7 0 0 1 81 1 341 345
 197 20 344 0 24 339 345 80 7 CCCCCDI12 legal_owners0 17 1 lCZ1 197 0 346 8001 0
 0 0 0 3 5 0 0 0 FFFFTFTFFFFFFFFFF2 81 1 344 274 29 20 0 341 340 347 348 81 1 24
 344 197 10 349 0 350 341 351 83 255 3 345 .0980392172932625 .0980392172932625 .
0980392172932625 81 1 349 252 29 10 0 24 352 353 354 81 1 350 309 197 18 0 161 3
55 24 356 83 3 351 .0980392172932625 .0980392172932625 .0980392172932625 14 255
 18 123 357 ?358 16 33 5 6 +0 0 358 16 23 81 1 161 310 29 18 350 357 359 159 360
 81 1 355 307 197 361 0 359 362 350 363 83 3 356 .0980392156862745 .098039215686
2745 .0980392156862745 14 361 105 364 ?365 366 367 5 19 +0 0 365 366 23 81 1 359
 308 29 361 355 364 368 161 369 81 1 362 305 197 365 0 368 370 355 371 83 3 363
 .0980392156862745 .0980392156862745 .0980392156862745 14 365 100 372 ?373 361 3
74 5 375 +0 0 373 361 23 81 1 368 306 29 365 362 372 376 359 377 81 1 370 303 19
7 378 0 376 379 362 380 83 3 371 .0980392156862745 .0980392156862745 .0980392156
862745 14 378 82 381 ?183 373 382 5 383 +0 0 183 373 23 81 1 376 304 29 378 370
 381 384 368 385 81 1 379 301 197 373 0 384 386 370 387 83 3 380 .09803921568627
45 .0980392156862745 .0980392156862745 14 373 92 388 ?378 365 389 5 390 +0 0 378
 365 23 81 1 384 302 29 373 379 388 391 376 392 81 1 386 299 197 183 0 391 393 3
79 394 83 3 387 .0980392156862745 .0980392156862745 .0980392156862745 14 183 77
 395 ?396 378 397 5 398 +0 0 396 378 23 81 1 391 300 29 183 386 395 399 384 400
 81 1 393 297 197 396 0 399 401 386 402 83 3 394 .0980392156862745 .098039215686
2745 .0980392156862745 14 396 74 403 ?168 183 404 5 405 -0 0 168 183 23 81 1 399
 298 29 396 393 403 406 391 407 81 1 401 295 197 408 0 406 409 393 410 83 3 402
 .0980392156862745 .0980392156862745 .0980392156862745 14 408 49 411 ?412 413 41
4 5 415 +0 0 412 413 23 81 1 406 296 29 408 401 411 416 399 417 81 1 409 293 197
 168 0 416 418 401 419 83 3 410 .0980392156862745 .0980392156862745 .09803921568
62745 14 168 71 420 ?413 396 163 5 421 -0 0 413 396 23 81 1 416 294 29 168 409 4
20 422 406 423 81 1 418 291 197 412 0 422 424 409 425 83 3 419 .0980392156862745
 .0980392156862745 .0980392156862745 14 412 42 426 ?427 408 428 5 429 -0 0 427 4
08 23 81 1 422 292 29 412 418 426 430 416 431 81 1 424 289 197 358 0 430 432 418
 433 83 3 425 .0980392156862745 .0980392156862745 .0980392156862745 14 358 119 4
34 ?366 18 42 5 435 +0 0 366 18 23 81 1 430 290 29 358 424 434 436 422 437 81 1
 432 287 197 427 0 436 438 424 439 83 3 433 .0980392156862745 .0980392156862745
 .0980392156862745 14 427 35 440 ?441 412 442 5 443 -0 0 441 412 23 81 1 436 288
 29 427 432 440 444 430 445 81 1 438 285 197 413 0 444 446 432 447 83 3 439 .098
0392156862745 .0980392156862745 .0980392156862745 14 413 67 448 ?408 168 449 5 4
50 -0 0 408 168 23 81 1 444 286 29 413 438 448 451 436 452 81 1 446 283 197 366
 0 451 453 438 454 83 3 447 .0980392156862745 .0980392156862745 .098039215686274
5 14 366 112 455 ?361 358 456 5 457 +0 0 361 358 23 81 1 451 284 29 366 446 455
 458 444 459 81 1 453 281 197 441 0 458 460 446 461 83 3 454 .0980392156862745 .
0980392156862745 .0980392156862745 14 441 28 462 ?463 427 464 5 465 -0 0 463 427
 23 81 1 458 282 29 441 453 462 466 451 467 81 1 460 279 197 463 0 466 468 453 4
69 83 3 461 .0980392156862745 .0980392156862745 .0980392156862745 14 463 21 470
 ?192 441 471 5 472 -0 0 192 441 23 81 1 466 280 29 463 460 470 473 458 474 81 1
 468 277 197 192 0 473 475 460 476 83 3 469 .0980392156862745 .0980392156862745
 .0980392156862745 14 192 3 477 ?0 463 186 5 478 +0 0 0 463 23 81 1 473 278 29 1
92 468 477 347 466 479 81 1 475 275 197 16 0 347 0 468 480 83 3 476 .09803921568
62745 .0980392156862745 .0980392156862745 14 16 125 481 ?18 0 482 5 483 -0 0 18
 0 23 81 1 347 276 29 16 475 481 344 473 484 83 3 480 .0980392156862745 .0980392
156862745 .0980392156862745 80 1 29 485 486 9000 0 0 0 0 3 6 0 0 0 TTTFTFTTFFFFF
FFFF10 81 1 481 515 487 16 347 0 477 0 488 98 255 3 484 51 54 54 80 1 487 489 49
0 9000 1 1 1 1 1 1 1 1 0 FFFFTFTFFFFFFFFFF1 81 1 477 514 487 192 473 0 470 481 4
91 82 255 1 488 898760817 81 1 470 513 487 463 466 0 462 477 492 82 1 491 898564
209 81 1 462 512 487 441 458 0 455 470 493 82 1 492 898367601 81 1 455 511 487 3
66 451 0 448 462 494 82 1 493 898170993 81 1 448 510 487 413 444 0 440 455 495 8
2 1 494 897974385 81 1 440 509 487 427 436 0 434 448 496 82 1 495 897777777 81 1
 434 508 487 358 430 0 426 440 497 82 1 496 897581169 81 1 426 507 487 412 422 0
 420 434 498 82 1 497 897384561 81 1 420 506 487 168 416 0 411 426 499 82 1 498
 897187953 81 1 411 505 487 408 406 0 403 420 500 82 1 499 896991345 81 1 403 50
4 487 396 399 0 395 411 501 82 1 500 896794737 81 1 395 503 487 183 391 0 388 40
3 502 82 1 501 896598129 81 1 388 502 487 373 384 0 381 395 503 82 1 502 8964015
21 81 1 381 501 487 378 376 0 372 388 504 82 1 503 896204913 81 1 372 500 487 36
5 368 0 364 381 505 82 1 504 896008305 81 1 364 499 487 361 359 0 357 372 506 82
 1 505 895811697 81 1 357 498 487 18 161 0 0 364 507 82 1 506 895615089 82 1 507
 895418481 79 255 14 490 SWEntUnchanged79 19 486 SPAATTRIB_UNICODEID15 482 126 0
 44 16 0 50 483 129 0 16 0 478 0 +-.025 0 .005 0 1 0 1 0 0 13 23 2 0 0 0 0 0 0 9
 16 50 478 130 0 192 483 472 0 +-.14 0 0 -1 0 0 0 0 1 51 255 472 131 0 463 478 4
65 0 +.0635 .08 .03 0 0 1 .004 -1 0 0 51 465 132 0 441 472 457 0 +.0635 .01 .03
 0 0 -1 .004 -1 0 0 50 457 133 0 366 465 450 0 +-.025 0 -.02 -.866906303057535 0
 .498471124258083 0 1 0 50 450 134 0 413 457 443 0 +.05 .07 .01 0 0 -1 0 -1 0 51
 443 135 0 427 450 435 0 +.0835 .08 .03 0 0 1 .004 -1 0 0 50 435 136 0 358 443 4
29 0 +.025 0 -.02 0 0 -1 0 -1 0 51 429 137 0 412 435 421 0 +.0835 .01 .03 0 0 -1
 .004 -1 0 0 50 421 138 0 168 429 415 0 +.05 .0585 .03 0 .866906303057535 .49847
1124258083 1 0 0 50 415 139 0 408 421 405 0 +.1 0 .03 1 0 0 0 1 0 50 405 140 0 3
96 415 398 0 +.05 .02 .01 0 -.866906303057535 .498471124258083 -1 0 0 50 398 141
 0 183 405 390 0 +-.1 0 .03 11842378929335e-29 0 1 1 0 -11842378929335e-29 50 39
0 142 0 373 398 383 0 +.05 0 0 0 0 -1 0 -1 0 50 383 143 0 378 390 375 0 +.0135 0
 0 .866906303057535 0 .498471124258083 0 -1 0 50 375 144 0 365 383 19 0 +-.1 0 .
03 11842378929335e-29 0 1 1 0 -11842378929335e-29 50 19 145 0 361 375 6 0 +-.013
5 0 0 0 0 -1 0 -1 0 17 44 0 482 318 508 63 38 20 0 43 -17 318 0 482 85 44 59 509
 315 0 0 +17 508 0 482 44 333 28 51 235 0 0 -17 43 0 42 38 36 63 322 319 0 509 -
15 42 120 0 38 358 0 17 36 0 42 43 37 56 25 10 0 35 -17 322 0 382 510 509 56 43
 319 0 0 +17 509 0 382 322 511 63 318 315 0 0 -15 382 83 0 509 378 0 17 511 0 38
2 509 510 59 328 297 0 318 -17 510 0 382 511 322 52 35 323 0 0 -17 328 0 512 81
 62 52 511 297 0 510 +15 512 93 0 62 373 0 17 81 0 512 513 328 78 55 296 0 514 +
17 62 0 512 328 513 59 85 293 0 511 -17 513 0 512 62 81 82 292 289 0 288 -17 85
 0 482 515 318 82 62 293 0 513 +17 515 0 482 127 85 86 288 285 0 284 -17 127 0 4
82 516 515 124 89 303 0 517 +17 288 0 414 292 284 82 515 285 0 0 +17 284 0 414 2
88 518 86 519 281 0 0 +15 414 50 0 518 408 0 17 518 0 414 284 308 90 520 279 0 0
 +17 519 0 521 158 89 90 284 281 0 518 -15 521 101 0 158 365 0 17 158 0 521 517
 519 155 93 178 0 256 -17 89 0 521 519 517 86 127 303 0 515 -17 517 0 521 89 158
 124 256 218 0 247 -17 256 0 186 191 247 155 517 218 0 522 +17 247 0 186 256 233
 124 516 234 0 0 +17 233 0 186 247 187 128 523 230 0 0 +17 516 0 482 333 127 128
 247 234 0 233 -17 333 0 482 508 516 46 131 223 0 0 +17 131 0 367 523 524 128 33
3 223 0 516 -15 367 106 0 131 361 0 17 523 0 367 525 131 132 233 230 0 187 -17 5
24 0 367 131 525 46 336 222 0 333 -17 525 0 367 524 523 39 135 219 0 0 -17 336 0
 456 343 51 39 524 222 0 525 +15 456 113 0 51 366 0 17 343 0 456 45 336 11 34 23
8 0 0 -17 51 0 456 336 45 46 508 235 0 524 +17 45 0 456 51 343 28 37 338 0 508 -
17 34 0 33 135 25 39 343 238 0 336 +15 33 124 0 25 18 0 17 135 0 33 185 34 132 5
25 219 0 523 +17 185 0 33 77 135 136 187 189 0 181 -17 77 0 33 514 185 74 139 18
4 0 176 -17 187 0 186 233 181 132 185 189 0 0 +17 514 0 33 55 77 78 300 227 0 29
2 -17 176 0 175 139 73 74 174 224 0 300 -17 174 0 414 172 300 70 176 224 0 0 +17
 300 0 414 174 292 74 514 227 0 0 +17 292 0 414 300 288 78 513 289 0 0 +17 172 0
 414 308 174 66 165 173 0 0 +17 308 0 414 518 172 94 526 273 0 520 +17 526 0 449
 147 97 66 308 273 0 172 -17 520 0 404 154 93 94 518 279 0 0 -15 404 75 0 93 396
 0 17 154 0 404 522 520 148 97 270 0 193 +17 93 0 404 520 522 90 158 178 0 519 +
16 279 51 527 ?518 281 277 528 0 0 1 81 1 527 371 197 279 529 0 283 278 530 30 5
28 179 0 279 0 204 0 +.1 .0218365429779239 .0131939877876938 0 .498471124258083
 .866906303057535 30 204 180 0 201 528 202 0 +-.14 .0153546265852513 .0019210897
1348051 0 -.498471124258083 -.866906303057535 16 201 5 531 ?191 194 0 204 0 0 1
 81 1 531 391 197 201 532 0 199 0 533 17 191 0 186 171 256 148 522 201 0 0 +17 5
22 0 404 93 154 155 191 201 0 0 -81 1 532 228 29 201 0 531 529 534 535 81 1 199
 390 197 194 534 0 195 531 536 83 3 533 .0980392172932625 .0980392172932625 .098
0392172932625 81 1 534 229 29 194 0 199 532 198 537 83 3 536 .0980392172932625 .
0980392172932625 .0980392172932625 81 1 198 230 29 170 0 195 534 538 539 98 3 53
7 49 57 50 81 1 538 231 29 205 0 207 198 540 541 98 3 539 49 57 51 81 1 207 381
 197 205 538 0 210 261 542 81 1 540 232 29 208 0 210 538 543 544 98 3 541 50 48
 49 81 1 210 380 197 208 540 0 258 207 545 81 1 543 233 29 182 0 188 540 546 547
 98 3 544 50 48 50 81 1 188 388 197 182 543 0 229 195 548 81 1 546 234 29 214 0
 216 543 549 550 98 3 547 49 57 52 81 1 216 383 197 214 546 0 261 255 551 81 1 5
49 235 29 219 0 221 546 552 553 98 3 550 49 57 57 81 1 221 350 197 219 549 0 335
 332 554 81 1 552 236 29 224 0 226 549 555 556 98 3 553 50 51 50 81 1 226 366 19
7 224 552 0 305 299 557 81 1 555 237 29 189 0 229 552 558 559 98 3 556 50 49 54
 81 1 229 387 197 189 555 0 232 188 560 81 1 558 238 29 230 0 232 555 561 562 98
 3 559 49 57 53 81 1 232 386 197 230 558 0 246 229 563 81 1 561 239 29 235 0 237
 558 564 565 98 3 562 49 57 54 81 1 237 348 197 235 561 0 337 335 566 81 1 564 2
40 29 239 0 241 561 567 568 98 3 565 50 51 52 81 1 241 376 197 239 564 0 264 249
 569 81 1 567 241 29 234 0 246 564 570 571 98 3 568 50 48 54 81 1 246 385 197 23
4 567 0 255 232 572 81 1 570 242 29 244 0 249 567 573 574 98 3 571 49 57 55 81 1
 249 377 197 244 570 0 241 253 575 81 1 573 243 29 251 0 253 570 576 577 98 3 57
4 50 48 53 81 1 253 378 197 251 573 0 249 258 578 81 1 576 244 29 218 0 255 573
 579 580 98 3 577 50 48 52 81 1 255 384 197 218 576 0 216 246 581 81 1 579 245 2
9 212 0 258 576 582 583 98 3 580 49 57 56 81 1 258 379 197 212 579 0 253 210 584
 81 1 582 246 29 209 0 261 579 585 586 98 3 583 50 48 51 81 1 261 382 197 209 58
2 0 207 216 587 81 1 585 247 29 243 0 264 582 588 589 98 3 586 50 48 48 81 1 264
 375 197 243 585 0 267 241 590 81 1 588 248 29 265 0 267 585 591 592 98 3 589 50
 48 55 81 1 267 374 197 265 588 0 275 264 593 81 1 591 249 29 270 0 272 588 594
 595 98 3 592 50 48 56 81 1 272 363 197 270 591 0 309 307 596 81 1 594 250 29 26
9 0 275 591 352 597 98 3 595 50 49 57 81 1 275 373 197 269 594 0 278 267 598 81
 1 352 251 29 277 0 278 594 349 599 98 3 597 50 48 57 81 1 278 372 197 277 352 0
 527 275 600 98 3 599 50 49 48 83 3 600 .0980392172932625 .0980392172932625 .098
0392172932625 83 3 598 .0980392172932625 .0980392172932625 .0980392172932625 81
 1 309 362 197 179 601 0 177 272 602 81 1 307 364 197 273 603 0 272 305 604 83 3
 596 .0980392172932625 .0980392172932625 .0980392172932625 81 1 603 260 29 273 0
 307 605 601 606 81 1 305 365 197 173 605 0 307 226 607 83 3 604 .09803921729326
25 .0980392172932625 .0980392172932625 81 1 605 259 29 173 0 305 608 603 609 83
 3 607 .0980392172932625 .0980392172932625 .0980392172932625 81 1 608 258 29 296
 0 302 610 605 611 98 3 609 50 49 55 81 1 302 353 197 296 608 0 330 295 612 81 1
 610 257 29 227 0 299 613 608 614 98 3 611 50 50 57 81 1 299 367 197 227 610 0 2
26 291 615 81 1 613 256 29 293 0 295 616 610 617 98 3 614 50 49 53 81 1 295 354
 197 293 613 0 302 327 618 81 1 616 255 29 289 0 291 619 613 620 98 3 617 50 50
 56 81 1 291 368 197 289 616 0 299 287 621 81 1 619 254 29 285 0 287 353 616 622
 98 3 620 50 49 52 81 1 287 369 197 285 619 0 291 283 623 81 1 353 253 29 281 0
 283 349 619 624 98 3 622 50 49 51 81 1 283 370 197 281 353 0 287 527 625 98 3 6
24 50 49 50 83 3 625 .0980392172932625 .0980392172932625 .0980392172932625 83 3
 623 .0980392172932625 .0980392172932625 .0980392172932625 83 3 621 .09803921729
32625 .0980392172932625 .0980392172932625 81 1 327 355 197 297 626 0 295 325 627
 83 3 618 .0980392172932625 .0980392172932625 .0980392172932625 81 1 626 268 29
 297 0 327 628 629 630 81 1 325 356 197 323 628 0 327 321 631 83 3 627 .09803921
72932625 .0980392172932625 .0980392172932625 81 1 628 267 29 323 0 325 632 626 6
33 81 1 321 357 197 319 632 0 325 317 634 83 3 631 .0980392172932625 .0980392172
932625 .0980392172932625 81 1 632 266 29 319 0 321 635 628 636 81 1 317 358 197
 315 635 0 321 314 637 83 3 634 .0980392172932625 .0980392172932625 .09803921729
32625 81 1 635 265 29 315 0 317 638 632 639 81 1 314 359 197 184 638 0 317 312 6
40 83 3 637 .0980392172932625 .0980392172932625 .0980392172932625 81 1 638 264 2
9 184 0 314 641 635 642 81 1 312 360 197 178 641 0 314 177 643 83 3 640 .0980392
172932625 .0980392172932625 .0980392172932625 81 1 641 263 29 178 0 312 644 638
 645 81 1 177 361 197 166 644 0 312 309 646 83 3 643 .0980392172932625 .09803921
72932625 .0980392172932625 81 1 644 262 29 166 0 177 601 641 647 83 3 646 .09803
92172932625 .0980392172932625 .0980392172932625 81 1 601 261 29 179 0 309 603 64
4 648 98 3 647 50 50 49 98 3 648 50 50 48 98 3 645 50 50 50 98 3 642 50 50 51 98
 3 639 50 50 52 98 3 636 50 50 53 98 3 633 50 50 54 81 1 629 269 29 303 0 330 62
6 649 650 98 3 630 50 50 55 81 1 330 352 197 303 629 0 332 302 651 81 1 649 270
 29 223 0 332 629 652 653 98 3 650 50 51 48 81 1 332 351 197 223 649 0 221 330 6
54 81 1 652 271 29 222 0 335 649 655 656 98 3 653 50 51 49 81 1 335 349 197 222
 652 0 237 221 657 81 1 655 272 29 238 0 337 652 340 658 98 3 656 50 51 51 81 1
 337 347 197 238 655 0 339 237 659 81 1 340 273 29 338 0 339 655 344 660 98 3 65
8 50 51 53 98 3 660 50 51 54 83 3 659 .0980392172932625 .0980392172932625 .09803
92172932625 83 3 657 .0980392172932625 .0980392172932625 .0980392172932625 83 3
 654 .0980392172932625 .0980392172932625 .0980392172932625 83 3 651 .09803921729
32625 .0980392172932625 .0980392172932625 83 3 615 .0980392172932625 .0980392172
932625 .0980392172932625 83 3 612 .0980392172932625 .0980392172932625 .098039217
2932625 98 3 606 50 49 56 83 3 602 .0980392172932625 .0980392172932625 .09803921
72932625 83 3 593 .0980392172932625 .0980392172932625 .0980392172932625 83 3 590
 .0980392172932625 .0980392172932625 .0980392172932625 83 3 587 .098039217293262
5 .0980392172932625 .0980392172932625 83 3 584 .0980392172932625 .09803921729326
25 .0980392172932625 83 3 581 .0980392172932625 .0980392172932625 .0980392172932
625 83 3 578 .0980392172932625 .0980392172932625 .0980392172932625 83 3 575 .098
0392172932625 .0980392172932625 .0980392172932625 83 3 572 .0980392172932625 .09
80392172932625 .0980392172932625 83 3 569 .0980392172932625 .0980392172932625 .0
980392172932625 83 3 566 .0980392172932625 .0980392172932625 .0980392172932625 8
3 3 563 .0980392172932625 .0980392172932625 .0980392172932625 83 3 560 .09803921
72932625 .0980392172932625 .0980392172932625 83 3 557 .0980392172932625 .0980392
172932625 .0980392172932625 83 3 554 .0980392172932625 .0980392172932625 .098039
2172932625 83 3 551 .0980392172932625 .0980392172932625 .0980392172932625 83 3 5
48 .0980392172932625 .0980392172932625 .0980392172932625 83 3 545 .0980392172932
625 .0980392172932625 .0980392172932625 83 3 542 .0980392172932625 .098039217293
2625 .0980392172932625 81 1 529 227 29 279 0 527 0 532 661 98 3 535 49 57 49 98
 3 661 50 49 49 83 3 530 .0980392172932625 .0980392172932625 .0980392172932625 1
7 97 0 449 526 193 94 154 270 0 308 -17 193 0 449 97 147 148 171 194 0 191 -15 4
49 68 0 97 413 0 17 147 0 449 193 526 144 69 179 0 164 -17 69 0 163 165 164 66 1
47 179 0 526 +17 55 0 33 35 514 52 81 296 0 328 -17 35 0 33 25 55 56 510 323 0 3
22 +98 3 479 51 52 57 98 3 474 51 53 48 15 471 22 0 662 463 0 17 662 0 471 262 1
23 113 217 214 0 0 -17 262 0 471 663 662 108 123 209 0 0 +17 123 0 471 662 663 1
13 262 209 0 217 -17 217 0 664 217 217 113 662 214 0 662 +15 664 80 0 217 183 17
5 17 663 0 471 123 262 108 111 205 0 262 -17 111 0 665 111 111 108 663 205 0 663
 +15 665 96 0 111 373 512 98 3 467 51 53 49 15 464 29 0 666 441 0 17 666 0 464 2
59 116 112 211 208 0 0 -17 259 0 464 667 666 117 116 212 0 0 +17 116 0 464 666 6
67 112 259 212 0 211 -17 211 0 668 211 211 112 666 208 0 666 +15 668 103 0 211 3
65 521 17 667 0 464 116 259 117 151 251 0 259 -17 151 0 669 151 151 117 667 251
 0 667 +15 669 97 0 151 373 665 98 3 459 51 54 51 98 3 452 51 53 53 98 3 445 51
 53 50 15 442 36 0 670 427 0 17 670 0 442 242 143 107 250 244 0 0 -17 242 0 442
 671 670 103 143 239 0 0 +17 143 0 442 670 671 107 242 239 0 250 -17 250 0 397 2
50 250 107 670 244 0 670 +15 397 81 0 250 183 664 17 671 0 442 143 242 103 106 2
43 0 242 -17 106 0 672 106 106 103 671 243 0 671 +15 672 98 0 106 373 669 98 3 4
37 51 54 52 98 3 431 51 53 51 15 428 43 0 673 412 0 17 673 0 428 276 120 102 268
 265 0 0 -17 276 0 428 674 673 98 120 269 0 0 +17 120 0 428 673 674 102 276 269
 0 268 -17 268 0 374 268 268 102 673 265 0 673 +15 374 104 0 268 365 668 17 674
 0 428 120 276 98 101 277 0 276 -17 101 0 389 101 101 98 674 277 0 674 +15 389 9
9 0 101 373 672 98 3 423 51 53 54 98 3 417 51 53 52 98 3 407 51 53 55 98 3 400 5
1 53 56 98 3 392 51 54 48 98 3 385 51 53 57 98 3 377 51 54 49 98 3 369 51 54 50
 98 3 360 51 54 53 98 3 354 50 51 56 98 3 348 50 51 55 79 15 346 SDL/TYSA_COLOUR
83 3 342 .0980392172932625 .0980392172932625 .0980392172932625 83 3 200 .0980392
172932625 .0980392172932625 .0980392172932625 81 1 157 312 29 155 0 0 159 153 67
5 98 3 162 49 54 50 81 1 153 313 29 148 0 0 157 150 676 98 3 675 49 53 57 81 1 1
50 314 29 117 0 0 153 146 677 98 3 676 49 54 48 81 1 146 315 29 144 0 0 150 142
 678 98 3 677 49 55 48 81 1 142 316 29 107 0 0 146 138 679 98 3 678 49 54 49 81
 1 138 317 29 136 0 0 142 134 680 98 3 679 49 55 49 81 1 134 318 29 132 0 0 138
 130 681 98 3 680 49 54 51 81 1 130 319 29 128 0 0 134 126 682 98 3 681 49 54 52
 81 1 126 320 29 124 0 0 130 122 683 98 3 682 49 54 53 81 1 122 321 29 113 0 0 1
26 119 684 98 3 683 49 54 54 81 1 119 322 29 102 0 0 122 115 685 98 3 684 49 54
 55 81 1 115 323 29 112 0 0 119 110 686 98 3 685 49 55 51 81 1 110 324 29 108 0
 0 115 105 687 98 3 686 49 54 57 81 1 105 325 29 103 0 0 110 100 688 98 3 687 49
 54 56 81 1 100 326 29 98 0 0 105 96 689 98 3 688 49 55 50 81 1 96 327 29 94 0 0
 100 92 690 98 3 689 49 55 52 81 1 92 328 29 90 0 0 96 88 691 98 3 690 49 55 53
 81 1 88 329 29 86 0 0 92 84 692 98 3 691 49 55 54 81 1 84 330 29 82 0 0 88 80 6
93 98 3 692 49 55 55 81 1 80 331 29 78 0 0 84 76 694 98 3 693 49 55 56 81 1 76 3
32 29 74 0 0 80 72 695 98 3 694 49 55 57 81 1 72 333 29 70 0 0 76 68 696 98 3 69
5 49 56 48 81 1 68 334 29 66 0 0 72 65 697 98 3 696 49 56 49 81 1 65 335 29 63 0
 0 68 61 698 98 3 697 49 56 50 81 1 61 336 29 59 0 0 65 58 699 98 3 698 49 56 51
 81 1 58 337 29 56 0 0 61 54 700 98 3 699 49 56 52 81 1 54 338 29 52 0 0 58 50 7
01 98 3 700 49 56 53 81 1 50 339 29 46 0 0 54 40 702 98 3 701 49 56 54 81 1 40 3
40 29 39 0 0 50 30 703 98 3 702 49 56 55 98 3 703 49 56 56 98 3 41 49 56 57 81 1
 31 394 29 1 704 705 27 0 706 98 3 32 49 57 48 81 1 704 393 707 1 708 31 0 0 709
 81 1 705 396 710 1 31 711 0 0 712 98 2 706 49 52 80 1 710 713 714 8051 0 0 0 0
 3 5 0 0 0 TFTFFFFFFFFFFFFFF1 81 2 711 398 715 1 705 716 0 0 0 717 82 1 712 0 80
 2 715 718 719 9000 0 0 0 0 3 5 0 0 0 FFTFFFFFFFFFFFFFF9 1 81 2 716 399 720 1 71
1 721 0 0 722 0 82 1 717 38 80 2 720 723 724 9000 0 0 0 0 3 5 0 0 0 FFTFTTTFFTFF
FFFFF10 10 81 2 721 400 725 1 716 726 0 0 0 727 98 8 722 66 111 100 121 49 91 49
 93 80 2 725 728 729 9000 0 0 0 0 3 5 0 0 0 FFTFFFFFFFFFFFFFF9 1 81 2 726 439 73
0 1 721 13 0 0 0 0 82 1 727 103 80 2 730 731 732 9000 0 0 0 0 3 5 0 0 0 FFTFFFFF
FFFFFFFFF9 1 81 1 13 458 733 1 726 2 0 0 734 80 1 733 735 736 9000 1 1 1 1 1 1 1
 1 0 FFTFFFFFFFFFFFFFF1 82 1 734 13453 79 10 736 BODY_MATCH79 16 732 BODY_RECIPE
_200179 19 729 ENT_TIME_STAMP_200179 23 724 SWIMPLICITBODYNAME_ID_U79 30 719 LAS
T_BODY_MODIFYING_FEATURE_ID79 21 714 SDL/TYSA_SCALE_FACTOR80 1 707 29 737 9000 0
 0 0 0 3 5 0 0 0 TFTFTFTFFFFFFFFFF10 81 1 708 392 738 1 739 704 0 0 740 98 8 709
 115 108 105 100 101 114 95 50 80 1 738 741 742 8038 0 0 0 0 0 0 0 0 0 TTTTTTTTT
TTTTFTFT10 81 1 739 343 743 1 0 708 0 0 744 98 5 740 66 111 100 121 49 80 1 743
 197 745 8040 0 0 0 0 3 5 0 0 0 TTTFFFFFFFFFFFFFF2 83 3 744 .0980392172932625 .0
980392172932625 .0980392172932625 79 17 745 SDL/TYSA_COLOUR_279 14 742 SDL/TYSA_
UNAME79 22 737 ATTRIB_XPARASOLID_NAME19 17 127 0 1 0 9 5 0 S0 74 4 CI16 index_ma
p_offset0 0 1 dCCZ20 15 13 0 0 31 531 739 708 704 705 711 716 721 726 481 13 2 0
 0 0 0 0 0 0 80 2 12 746 747 9000 0 0 0 0 3 5 0 0 0 FFTFFFFFFFFFFFFFF9 1 82 1 14
 101 79 12 747 ATOM_ID_20011 0 
