**ABCDEFGHIJKLMNOPQRSTUVWXYZabcdefghijklmnopqrstuvwxyz**************************
**PARASOLID !"#$%&'()*+,-./:;<=>?@[\]^_`{|}~0123456789**************************
**PART1;
MC=AMD64;
MC_MODEL=Intel64 Family 6 Model 154 Stepping 3, GenuineIntel;
MC_ID=unknown;
OS=Windows_NT;
OS_RELEASE=unknown;
FRU=Parasolid Version 36.1, build 228,  1-18-2025;
APPL=SOLIDWORKS 2025-2025268;
SITE=;
USER=unknown;
FORMAT=text;
GUISE=transmit;
KEY=8mm_upper_adjuster v1;
FILE=8mm_upper_adjuster v1.x_t;
DATE=Sat Feb 28 20:32:29 2026;
**PART2;
SCH=SCH_3601228_36001;
USFLD_SIZE=0;
**PART3;
**END_OF_HEADER*****************************************************************
T51 : TRANSMIT FILE created by modeller version 360122823 SCH_3601228_36001_1300
6231 0 12 36 CCCI7 lattice222 0 CCCI4 mesh1006 0 I8 polyline1008 0 CCCCCCCDI5 ow
ner1040 0 CCCI16 boundary_lattice222 0 CCCI13 boundary_mesh1006 0 I17 boundary_p
olyline1008 0 CCCA16 index_map_offset0 0 1 dA9 index_map82 0 A17 node_id_index_m
ap82 0 A20 schema_embedding_map82 0 A5 child12 0 A14 lowest_node_id0 0 1 dA16 me
sh_offset_data206 0 Z1 103 2 3 0 0 0 0 0 0 0 1e3 1e-8 0 4 0 1 0 1 1 5 0 6 7 8 0
 0 9 10 11 0 0 0 0 0 0 0 81 255 2 2 99 12 1 13 0 0 0 0 14 70 11 CI9 list_type0 0
 1 uI10 notransmit0 0 1 lCCCDCCDI12 finger_index0 0 1 dI12 finger_block1012 0 CZ
3 0 4 T1 0 0 13 20 1 15 15 13 255 5 24 0 1 0 16 0 0 17 0 50 255 6 28 0 16 18 0 0
 +0 0 0 0 0 1 1 0 0 31 255 7 38 0 10 19 0 0 +0 0 0 0 0 1 1 0 0 .0052 29 255 8 32
 0 11 20 0 -.0052 -636816335556624e-33 0 19 9 CCCCCCI5 frame230 0 CA5 owner12 0
 Z9 1 0 1 17 0 21 0 V0 16 255 10 16 22 ?23 0 24 7 0 0 1 18 255 11 15 25 23 0 26
 8 ?1 81 1 25 56 27 11 0 0 28 29 30 17 255 23 0 31 32 33 11 34 10 0 34 +18 26 13
 28 32 11 35 20 ?1 81 1 28 55 27 26 0 0 36 25 37 17 32 0 31 38 23 26 33 24 0 39
 -18 35 8 40 41 26 42 43 ?1 29 20 31 0 26 44 8 -.0052 -636816335556624e-33 .008
 29 44 30 0 42 43 20 -.002117 259257727379495e-33 0 18 42 6 36 45 35 0 44 ?1 29
 43 29 0 35 0 44 -.002117 259257727379495e-33 .008 81 1 36 54 27 42 0 0 40 28 46
 17 45 0 47 48 49 42 50 51 0 48 -15 255 47 4 0 48 52 0 17 48 0 47 50 45 42 53 54
 0 53 +17 49 0 47 45 50 35 41 55 0 50 -17 50 0 47 49 48 35 45 51 0 0 +16 51 7 56
 ?50 55 54 57 0 0 1 81 1 56 62 58 51 59 0 60 61 62 16 55 9 60 ?41 63 51 64 0 0 1
 16 54 5 61 ?48 51 0 65 0 0 1 30 255 57 34 0 51 65 64 0 +-.002117 -2592577273794
95e-33 0 0 0 1 31 65 33 0 54 0 57 0 +0 0 0 0 0 -1 1 0 0 .002117 31 64 35 0 55 57
 66 0 +0 0 .008 0 0 -1 1 0 0 .002117 31 66 36 0 63 64 19 0 +0 0 .008 0 0 1 1 0 0
 .0052 16 63 12 67 ?39 24 55 66 0 0 1 30 19 37 0 24 66 7 0 +-.0052 -636816335556
624e-33 0 0 0 -1 16 24 14 68 ?33 10 63 19 0 0 1 81 1 68 59 58 24 69 0 22 67 70 1
7 33 0 31 23 38 11 32 24 0 0 +15 31 11 0 38 71 0 17 38 0 31 33 32 26 39 63 0 0 -
17 39 0 72 39 39 26 38 63 0 38 +15 72 18 0 39 73 0 14 255 73 17 74 ?71 16 75 5 1
8 +0 0 71 16 21 81 1 74 100 76 73 77 0 0 78 79 14 71 10 78 ?52 73 31 5 80 +0 0 5
2 73 21 14 16 20 81 ?73 0 82 5 6 -0 0 73 0 21 15 75 19 0 41 73 72 50 18 27 0 73
 80 6 0 +0 0 .008 0 0 1 1 0 0 13 21 2 0 0 0 0 0 0 9 16 51 255 80 26 0 71 83 18 0
 +0 0 0 0 0 1 .0052 1 0 0 51 83 25 0 52 0 80 0 +0 0 0 0 0 1 .002117 1 0 0 14 52
 3 84 ?0 71 47 5 83 -0 0 0 71 21 81 1 84 103 76 52 85 0 81 0 86 80 7 CCCCCDI12 l
egal_owners0 17 1 lCZ1 76 87 88 9000 1 1 1 1 1 1 1 1 0 FFFFTFTFFFFFFFFFF1 81 1 8
5 46 27 52 89 84 90 91 92 81 1 81 102 76 16 93 0 78 84 94 82 255 1 86 684982385
 81 1 93 52 27 16 95 81 77 40 96 81 1 78 101 76 71 91 0 74 81 97 82 1 94 6845891
69 81 1 91 48 27 71 98 78 85 77 99 82 1 97 684523633 80 1 27 100 101 9000 0 0 0
 0 3 6 0 0 0 TTTFTFTTFFFFFFFFF10 81 1 98 47 58 71 0 91 89 102 103 81 1 77 50 27
 73 102 74 91 93 104 98 255 2 99 54 50 81 1 102 49 58 73 0 77 98 95 105 98 2 104
 54 51 80 1 58 0 106 8001 0 0 0 0 3 5 0 0 0 FFFFTFTFFFFFFFFFF2 81 1 95 51 58 16
 0 93 102 22 107 83 255 3 105 .627450980392157 .627450980392157 .627450980392157
 81 1 22 58 58 10 90 0 95 68 108 83 3 107 .627450980392157 .627450980392157 .627
450980392157 81 1 90 44 27 10 0 22 69 85 109 83 3 108 .627451002597809 .62745100
2597809 .627451002597809 81 1 69 43 27 24 0 68 110 90 111 98 2 109 52 54 81 1 11
0 42 27 63 0 67 112 69 113 98 2 111 52 53 81 1 67 60 58 63 110 0 68 60 114 81 1
 112 41 27 55 0 60 59 110 115 98 2 113 52 52 81 1 60 61 58 55 112 0 67 56 116 81
 1 59 40 27 51 0 56 117 112 118 98 2 115 52 51 81 1 117 39 27 54 0 61 0 59 119 9
8 2 118 52 50 81 1 61 63 58 54 117 0 56 0 120 98 2 119 52 49 83 3 120 .627451002
597809 .627451002597809 .627451002597809 83 3 116 .627451002597809 .627451002597
809 .627451002597809 83 3 114 .627451002597809 .627451002597809 .627451002597809
 79 255 15 106 SDL/TYSA_COLOUR81 1 89 45 58 52 0 85 0 98 121 83 3 103 .627450980
392157 .627450980392157 .627450980392157 83 3 121 .627450980392157 .627450980392
157 .627450980392157 79 19 101 SPAATTRIB_UNICODEID81 1 40 53 27 35 0 0 93 36 122
 98 2 96 54 52 98 2 122 51 56 98 2 92 54 49 79 14 88 SWEntUnchanged17 41 0 75 41
 41 35 49 55 0 49 +15 82 22 0 53 16 123 17 53 0 82 53 53 42 48 54 0 0 -15 123 21
 0 34 16 0 17 34 0 123 34 34 11 23 10 0 33 -82 1 79 684392561 83 3 70 .627451002
597809 .627451002597809 .627451002597809 83 3 62 .627451002597809 .6274510025978
09 .627451002597809 98 2 46 51 55 98 2 37 51 57 81 1 29 66 27 1 124 125 25 0 126
 98 2 30 52 48 81 1 124 65 127 1 128 29 0 0 129 81 1 125 68 130 1 29 131 0 0 132
 98 2 126 49 52 80 1 130 133 134 8051 0 0 0 0 3 5 0 0 0 TFTFFFFFFFFFFFFFF1 81 2
 131 70 135 1 125 136 0 0 0 137 82 1 132 0 80 2 135 138 139 9000 0 0 0 0 3 5 0 0
 0 FFTFFFFFFFFFFFFFF9 1 81 2 136 71 140 1 131 141 0 0 142 0 82 1 137 38 80 2 140
 143 144 9000 0 0 0 0 3 5 0 0 0 FFTFTTTFFTFFFFFFF10 10 81 2 141 72 145 1 136 146
 0 0 0 147 98 8 142 66 111 100 121 49 91 49 93 80 2 145 148 149 9000 0 0 0 0 3 5
 0 0 0 FFTFFFFFFFFFFFFFF9 1 81 2 146 83 150 1 141 13 0 0 0 0 82 1 147 103 80 2 1
50 151 152 9000 0 0 0 0 3 5 0 0 0 FFTFFFFFFFFFFFFFF9 1 81 1 13 88 153 1 146 2 0
 0 154 80 1 153 155 156 9000 1 1 1 1 1 1 1 1 0 FFTFFFFFFFFFFFFFF1 82 1 154 10378
 79 10 156 BODY_MATCH79 16 152 BODY_RECIPE_200179 19 149 ENT_TIME_STAMP_200179 2
3 144 SWIMPLICITBODYNAME_ID_U79 30 139 LAST_BODY_MODIFYING_FEATURE_ID79 21 134 S
DL/TYSA_SCALE_FACTOR80 1 127 27 157 9000 0 0 0 0 3 5 0 0 0 TFTFTFTFFFFFFFFFF10 8
1 1 128 64 158 1 159 124 0 0 160 98 14 129 56 109 109 95 98 117 115 104 95 117 1
12 112 101 114 80 1 158 161 162 8038 0 0 0 0 0 0 0 0 0 TTTTTTTTTTTTTFTFT10 81 1
 159 57 163 1 0 128 0 0 164 98 5 160 66 111 100 121 49 80 1 163 58 165 8040 0 0
 0 0 3 5 0 0 0 TTTFFFFFFFFFFFFFF2 83 3 164 .627451002597809 .627451002597809 .62
7451002597809 79 17 165 SDL/TYSA_COLOUR_279 14 162 SDL/TYSA_UNAME79 22 157 ATTRI
B_XPARASOLID_NAME19 17 23 0 1 0 9 5 0 S0 74 4 CI16 index_map_offset0 0 1 dCCZ20
 15 13 0 0 29 61 159 128 124 125 131 136 141 146 84 13 2 0 0 0 0 0 0 0 80 2 12 1
66 167 9000 0 0 0 0 3 5 0 0 0 FFTFFFFFFFFFFFFFF9 1 82 1 14 101 79 12 167 ATOM_ID
_20011 0 
